<?xml version="1.0" encoding="utf-8" ?>
<svg baseProfile="full" height="200mm" version="1.1" viewBox="0,0,200,200" width="200mm" xmlns="http://www.w3.org/2000/svg" xmlns:ev="http://www.w3.org/2001/xml-events" xmlns:xlink="http://www.w3.org/1999/xlink"><defs /><rect fill="#1a1a1a" height="200" width="200" x="0" y="0" /><text alignment-baseline="middle" fill="#e1ed5e" style="dominant-baseline: central; font-size:9.0px; font-family:Arial;" text-anchor="middle" x="100.0" y="100.0">2021</text><line stroke="#e1ed5e" stroke-width="0.3" x1="100.0" x2="100.0" y1="15.0" y2="10.0" /><path d="M 100.0 14.0 a86.0,86.0 0 0,1 42.46469731375804,11.215312516191453" fill="none" id="id49" stroke="none" /><text fill="#e1ed5e" style="font-size:6.75px; font-family:Arial;" text-anchor="middle"><textPath startOffset="22.20632615414155" xlink:href="#id49">January</textPath></text><path d="M 100.0 79.0 l 0.0 -16.857076566125293 a37.85707656612529,37.85707656612529 0 0,0 0.6516473419514178,0.005608934404584017 l -0.2901668626788894 16.854579008329267" fill="red" stroke="none" /><path d="M 100.36148047927253 79.00311137660856 l 0.36090536946128926 -20.96348290068932 a41.96658932714617,41.96658932714617 0 0,0 0.7221717902164743,0.01865156672697555 l -0.7217037948726314 20.95416454181999" fill="red" stroke="none" /><path d="M 100.72285384407766 79.0124445844662 l 0.6864955176478346 -19.93191685593577 a40.94373549883991,40.94373549883991 0 0,0 0.7041526396015427,0.030322293885666336 l -1.029488989638709 19.91714683552591" fill="red" stroke="none" /><path d="M 101.08401301168833 79.027996857942 l 0.9245369840987152 -17.886678781898087 a38.910556844547564,38.910556844547564 0 0,0 0.6685907433474456,0.04033121948083962 l -1.2322897762857727 17.868114293036946" fill="red" stroke="none" /><path d="M 101.44485096284872 79.0497635885617 l 1.467670700462155 -21.28112098717746 a42.33167053364269,42.33167053364269 0 0,0 0.7265118743336155,0.0563913040144265 l -1.8337727641581116 21.252704420974567" fill="red" stroke="none" /><path d="M 105.36241919743992 79.69619591428918 l 4.448212928231037 -16.842331884356717 a38.41983758700697,38.41983758700697 0 0,0 0.6379561172510257,0.17437750577664848 l -4.737466934705774 16.763267837753776" fill="red" stroke="none" /><path d="M 105.71112130821622 79.79150937346287 l 4.581485365001757 -16.21133557801673 a37.846287703016245,37.846287703016245 0 0,0 0.6253824788476288,0.1825662946923366 l -4.859858061572813 16.130070954405692" fill="red" stroke="none" /><path d="M 106.0581310904928 79.89281104454417 l 5.0543327039706325 -16.77554037778517 a38.52041763341067,38.52041763341067 0 0,0 0.6332291245878735,0.19674737141088594 l -5.342347201269225 16.686052871491764" fill="red" stroke="none" /><path d="M 106.40334571778207 80.00007090966166 l 4.571165342947675 -14.277377288139283 a35.99129930394432,35.99129930394432 0 0,0 0.5884014905170766,0.19398672034688577 l -4.816249655707169 14.19657684353316" fill="red" stroke="none" /><path d="M 106.74666289553966 80.11325718540242 l 11.006318452904157 -32.44267985483166 a55.25881670533643,55.25881670533643 0 0,0 0.8981346940809679,0.3133415594278491 l -11.5631351510484 32.2484174422316" fill="red" stroke="none" /><path d="M 107.76421540070413 80.48803036053334 l 2.275350031996209 -5.71810008509594 a27.15417633410673,27.15417633410673 0 0,0 0.4328067060507996,0.1765527225273217 l -2.373440607635396 5.6780864763850385" fill="red" stroke="none" /><path d="M 108.76106565485865 80.91482961587045 l 6.896471602162352 -15.023324874136327 a37.53062645011601,37.53062645011601 0 0,0 0.5848018437168372,0.2745723069616733 l -7.154051657178787 14.902387584534651" fill="red" stroke="none" /><path d="M 109.08828744355905 81.06846463323043 l 7.093804474921187 -14.776888510177546 a37.39141531322506,37.39141531322506 0 0,0 0.5778375541089366,0.2835423782803103 l -7.347113296040556 14.652590971762404" fill="red" stroke="none" /><path d="M 109.41281617654863 81.2277094730956 l 7.169433521014222 -14.298238321610857 a36.99501160092807,36.99501160092807 0 0,0 0.5667979521014729,0.29033592561827154 l -7.41449196070445 14.172709870680086" fill="red" stroke="none" /><path d="M 109.73455568895987 81.39251694778311 l 7.653580650313976 -14.629724949953964 a37.510788863109056,37.510788863109056 0 0,0 0.5695476589349039,0.30423263471850254 l -7.904273355777191 14.495813588733707" fill="red" stroke="none" /><path d="M 110.05341064243156 81.56283822128135 l 7.640192217755078 -14.011509620896957 a36.95916473317865,36.95916473317865 0 0,0 0.555929039391882,0.3093739085299823 l -7.880245346218995 13.877920314806795" fill="red" stroke="none" /><line stroke="#e1ed5e" stroke-width="0.3" x1="143.23703022742887" x2="145.7803849466894" y1="26.81831364943548" y2="22.513508569990506" /><path d="M 143.74570117128098 25.957352633546492 a86.0,86.0 0 0,1 28.547481713284135,27.462654790039103" fill="none" id="id50" stroke="none" /><text fill="#e1ed5e" style="font-size:6.75px; font-family:Arial;" text-anchor="middle"><textPath startOffset="19.985693538727396" xlink:href="#id50">February</textPath></text><path d="M 110.68208982089419 81.91981866633111 l 8.388467750633911 -14.198066163648754 a37.49095127610208,37.49095127610208 0 0,0 0.5527914613651178,0.3330506702466059 l -8.631621278216667 14.051568883943535" fill="red" stroke="none" /><path d="M 110.99172775467656 82.1063720568725 l 8.582983702636646 -13.972390914755357 a37.39802784222738,37.39802784222738 0 0,0 0.545620927138444,0.3416677745187336 l -8.822223782147354 13.822578798913678" fill="red" stroke="none" /><path d="M 111.2981086023043 82.29822771554956 l 8.817917244231326 -13.815831355053179 a37.390023201856145,37.390023201856145 0 0,0 0.5395433303263447,0.3509339904183836 l -9.05442760034195 13.661998440475267" fill="red" stroke="none" /><path d="M 111.60114157652 82.49532879139004 l 8.839093185928588 -13.337085749828216 a37.00023201856148,37.00023201856148 0 0,0 0.5278617056490372,0.35641457997811044 l -9.067359585984168 13.182959257551436" fill="red" stroke="none" /><path d="M 113.06298171725822 83.55741782278167 l 10.426571519167886 -13.12409086541579 a37.76171693735499,37.76171693735499 0 0,0 0.5054614426409609,0.4087146674618397 l -10.65093636037334 12.94267010068982" fill="red" stroke="none" /><path d="M 113.34407831869373 83.78471172551755 l 13.71980899591382 -16.67186392543282 a42.59129930394431,42.59129930394431 0 0,0 0.5620884568193598,0.4707329177875667 l -14.004754989692298 16.433229850251436" fill="red" stroke="none" /><path d="M 114.68862486808459 84.99185889309783 l 12.441756993831675 -12.712397944543756 a38.787703016241295,38.787703016241295 0 0,0 0.47314385269061815,0.4711120226225434 l -12.658736646689615 12.496350071271094" fill="red" stroke="none" /><path d="M 116.38621287248628 86.86637796730983 l 12.454770980623774 -9.982553982188755 a36.96160092807425,36.96160092807425 0 0,0 0.3936338677275313,0.49987503786883436 l -12.62475892894527 9.766686550366881" fill="red" stroke="none" /><path d="M 116.82858285166822 87.43820079747576 l 13.156638505876634 -9.82085375505268 a37.41786542923434,37.41786542923434 0 0,0 0.3808379429600592,0.5194625262032322 l -13.323739061350318 9.592928785177953" fill="red" stroke="none" /><line stroke="#e1ed5e" stroke-width="0.3" x1="172.23445277983987" x2="176.4835382374775" y1="55.19839476539836" y2="52.563006222186495" /><path d="M 173.08426987136738 54.67131705675599 a86.0,86.0 0 0,1 12.851231095245387,41.99856678651699" fill="none" id="id51" stroke="none" /><text fill="#e1ed5e" style="font-size:6.75px; font-family:Arial;" text-anchor="middle"><textPath startOffset="22.20632615414155" xlink:href="#id51">March</textPath></text><path d="M 117.84615892207809 88.93136811851018 l 13.850736965194546 -8.590571754094295 a37.29849187935035,37.29849187935035 0 0,0 0.3337046367561667,0.5485226811008266 l -13.996557400236936 8.350881299786387" fill="red" stroke="none" /><path d="M 118.73160827565052 90.50648371742162 l 18.749923901906122 -9.502798971684657 a42.02053364269141,42.02053364269141 0 0,0 0.3214370466691822,0.6479974717306147 l -18.910720961528714 9.178641911455092" fill="red" stroke="none" /><path d="M 118.89224826269711 90.83032412892265 l 18.079449514106425 -8.775170094456245 a41.09651972157772,41.09651972157772 0 0,0 0.3034132687833951,0.6390657240885388 l -18.227820976731575 8.462661954727166" fill="red" stroke="none" /><path d="M 120.28053869075195 94.5502522615342 l 16.281904802719534 -4.375242454333752 a37.85951276102088,37.85951276102088 0 0,0 0.1637039348716086,0.6308180400981008 l -16.354805069461445 4.094327988686801" fill="red" stroke="none" /><path d="M 120.45610955862082 95.25157060432595 l 12.036694893583572 -2.7940501440737044 a33.356728538283065,33.356728538283065 0 0,0 0.12501722701010454,0.5604277152715232 l -12.083006507595714 2.586444259252217" fill="red" stroke="none" /><path d="M 120.53481517161879 95.60439243477599 l 17.045189802547217 -3.6486310989693433 a38.431322505800466,38.431322505800466 0 0,0 0.1329004618709074,0.6480698507208997 l -17.10546956033312 3.354685592085032" fill="red" stroke="none" /><line stroke="#e1ed5e" stroke-width="0.3" x1="184.98032266829074" x2="189.97916517819016" y1="98.17113171792111" y2="98.06355123074" /><path d="M 185.9800911702706 98.14961562048488 a86.0,86.0 0 0,1 -9.607161424134198,41.387399972396054" fill="none" id="id52" stroke="none" /><text fill="#e1ed5e" style="font-size:6.75px; font-family:Arial;" text-anchor="middle"><textPath startOffset="21.466115282336823" xlink:href="#id52">April</textPath></text><path d="M 120.99824983174949 100.27111621757518 l 16.84314371655081 0.21746809629829247 a37.84454756380511,37.84454756380511 0 0,0 -0.014016786603120474,0.6513049955416459 l -16.83690486726268 -0.5073629076300532" fill="red" stroke="none" /><path d="M 120.9904718944345 100.63252640178507 l 18.88620665596195 0.5691165210360171 a39.894779582366596,39.894779582366596 0 0,0 -0.026592467834499946,0.686233433833899 l -18.873612055276247 -0.8941272018839221" fill="red" stroke="none" /><path d="M 120.9764740272857 100.99374915477107 l 16.7912607224383 0.7954769294762541 a37.810092807424596,37.810092807424596 0 0,0 -0.03639428328186824,0.6498443762943864 l -16.7750800882689 -1.0843930221060638" fill="red" stroke="none" /><path d="M 120.95626037817324 101.35467743843564 l 21.279946733368085 1.375601524823145 a42.32436194895591,42.32436194895591 0 0,0 -0.05325501404893215,0.7266223553920247 l -21.253115160654815 -1.7416970167119399" fill="red" stroke="none" /><path d="M 120.92983693683757 101.71520430193887 l 19.480287905365184 1.5964134703544735 a40.54559164733179,40.54559164733179 0 0,0 -0.0629912522228115,0.6951032193023365 l -19.449922056865297 -1.9314980782053806" fill="red" stroke="none" /><path d="M 120.89721153311464 102.0752229133903 l 17.313447115735293 1.7193328453133556 a38.39860788863109,38.39860788863109 0 0,0 -0.07097836113334345,0.6571714718894133 l -17.281286453100897 -2.0171006390875603" fill="red" stroke="none" /><path d="M 120.8583938346157 102.4346265915055 l 15.803154334492735 1.8445705876245586 a36.910440835266826,36.910440835266826 0 0,0 -0.07909114907716731,0.6304342766207499 l -15.76906167616872 -2.1163226185327035" fill="red" stroke="none" /><path d="M 120.70491114924044 103.5080841355445 l 28.381581222671116 4.808761269790464 a49.786078886310904,49.786078886310904 0 0,0 -0.1504335155865823,0.8437110452454698 l -28.294601264745342 -5.296591065769153" fill="red" stroke="none" /><path d="M 120.5718875245553 104.21870165774334 l 16.41352968337198 3.3659422258657177 a37.755104408352665,37.755104408352665 0 0,0 -0.13603696514842956,0.6355194121358259 l -16.353158679499106 -3.6479754574177123" fill="red" stroke="none" /><path d="M 120.41448212921028 104.9243191809786 l 15.6955362104462 3.7860294239966743 a37.14570765661253,37.14570765661253 0 0,0 -0.15528442165494805,0.620284074336048 l -15.62804047449619 -4.055641337730118" fill="red" stroke="none" /><path d="M 120.32669344350535 105.2749913415812 l 16.041715972484663 4.162994492643305 a37.57308584686775,37.57308584686775 0 0,0 -0.16784778386048607,0.624624044653096 l -15.9676801122824 -4.438509470471949" fill="red" stroke="none" /><path d="M 120.13307415673323 105.97154293290107 l 15.453819400783164 4.583658973819129 a37.11925754060325,37.11925754060325 0 0,0 -0.1869630320116989,0.611006006222867 l -15.372629596265334 -4.848991952594053" fill="red" stroke="none" /><path d="M 120.02730092923936 106.31721596034902 l 16.825720803892274 5.307340833509 a38.64292343387471,38.64292343387471 0 0,0 -0.2055578090928411,0.6326418849828551 l -16.731870743783187 -5.596181618469651" fill="red" stroke="none" /><path d="M 119.26925614724726 108.34839909993367 l 14.508146768737003 6.285649975291459 a36.81125290023202,36.81125290023202 0 0,0 -0.2569055854638471,0.579254274127145 l -14.397800098541884 -6.534452585911292" fill="red" stroke="none" /><path d="M 119.12269723197855 108.67885076344098 l 14.67383372945095 6.65973066040511 a37.11438515081206,37.11438515081206 0 0,0 -0.2690357857303067,0.5794791479159918 l -14.557023326880811 -6.911329875599932" fill="red" stroke="none" /><path d="M 118.97047184881838 109.00673069616215 l 14.785587016540916 7.019846501654121 a37.36740139211136,37.36740139211136 0 0,0 -0.28087250564359856,0.5786805533139598 l -14.662561254282604 -7.273316010933357" fill="red" stroke="none" /><line stroke="#e1ed5e" stroke-width="0.3" x1="174.80103733775053" x2="179.2010983576182" y1="140.37084112569926" y2="142.7455964860345" /><path d="M 175.68104954172406 140.8457921977663 a86.0,86.0 0 0,1 -30.038265399797805,32.042727171017184" fill="none" id="id53" stroke="none" /><text fill="#e1ed5e" style="font-size:6.75px; font-family:Arial;" text-anchor="middle"><textPath startOffset="22.206326154141568" xlink:href="#id53">May</textPath></text><path d="M 116.27256486870786 113.27417163493432 l 14.44655332203863 11.784622146367196 a39.64350348027842,39.64350348027842 0 0,0 -0.43589731103954865,0.5250663915052621 l -14.241560011105538 -12.031549794986228" fill="red" stroke="none" /><path d="M 115.32070863581623 114.36230785411682 l 12.255297376946341 11.48865616829063 a37.79825986078886,37.79825986078886 0 0,0 -0.44906753354963214,0.47084551357844956 l -12.055723292017744 -11.697908798451586" fill="red" stroke="none" /><path d="M 114.81725581225074 114.88116024355365 l 11.107293916137309 11.15519788094827 a36.74199535962877,36.74199535962877 0 0,0 -0.4520141071889733,0.4423909402429272 l -10.913629856572541 -11.344738924113768" fill="red" stroke="none" /><path d="M 114.55890576462653 115.13401014063108 l 11.739776580770112 12.203520009985844 a37.933642691415315,37.933642691415315 0 0,0 -0.47446707647894487,0.44863823555256127 l -11.52797366990036 -12.403792882284327" fill="red" stroke="none" /><path d="M 112.04921762599082 117.19931262002967 l 9.416321795717552 13.441060434164719 a37.411252900232014,37.411252900232014 0 0,0 -0.5306040054269665,0.364954273238303 l -9.183560905667703 -13.601155496768115" fill="red" stroke="none" /><path d="M 111.45004920935366 117.60387380957326 l 9.955698239455424 15.306384478277447 a39.259280742459396,39.259280742459396 0 0,0 -0.5696674895607559,0.3635887447220789 l -9.690748947847737 -15.475487651823334" fill="red" stroke="none" /><path d="M 111.1453310114006 117.79835938074945 l 9.03447846253938 14.42746692129959 a38.02273781902552,38.02273781902552 0 0,0 -0.5577044820847764,0.34258764372002043 l -8.784794780522295 -14.580843031847989" fill="red" stroke="none" /><line stroke="#e1ed5e" stroke-width="0.3" x1="143.8653032363475" x2="146.44561519142675" y1="172.8068346515853" y2="177.08958963109032" /><path d="M 144.38136562736335 173.6633856474863 a86.0,86.0 0 0,1 -40.68145358897372,12.25698825130547" fill="none" id="id54" stroke="none" /><text fill="#e1ed5e" style="font-size:6.75px; font-family:Arial;" text-anchor="middle"><textPath startOffset="21.466115282336833" xlink:href="#id54">June</textPath></text><path d="M 110.8373102113329 117.98757091392108 l 8.482161905048379 14.078538474506967 a37.436310904872386,37.436310904872386 0 0,0 -0.5548277497031823,0.32780201415442894 l -8.238566284316814 -14.222459060955146" fill="red" stroke="none" /><path d="M 110.5260780823613 118.17145234162733 l 8.244671898053682 14.232999346536134 a37.44849187935034,37.44849187935034 0 0,0 -0.5605704571054878,0.3183065355347429 l -7.9984526740269954 -14.372809047865506" fill="red" stroke="none" /><path d="M 110.21172684928248 118.3499491758327 l 5.789409409796234 10.403271649918144 a32.90568445475638,32.90568445475638 0 0,0 -0.49731017170419517,0.2711731573875615 l -5.609476426223391 -10.501385459065476" fill="red" stroke="none" /><path d="M 109.89434966115114 118.52300852407294 l 7.859727675808689 14.714034547163795 a37.68167053364269,37.68167053364269 0 0,0 -0.5747515180916682,0.30068282983124994 l -7.605285255190525 -14.84714679593976" fill="red" stroke="none" /><path d="M 109.57404056367764 118.69057910512821 l 7.641461609988645 14.917770793884232 a37.76102088167053,37.76102088167053 0 0,0 -0.5810631590391198,0.29135713061552404 l -7.3835445432667655 -15.047095765409058" fill="red" stroke="none" /><path d="M 109.2508944713604 118.85261126421891 l 7.596649338016367 15.481386943023647 a38.24477958236659,38.24477958236659 0 0,0 -0.5934994848103153,0.28491581961324736 l -7.329037185205819 -15.609857039136456" fill="red" stroke="none" /><path d="M 108.92500713936063 119.00905698771935 l 9.803012482072672 20.879089508088956 a44.06589327146172,44.06589327146172 0 0,0 -0.6893836302272526,0.31646221250548295 l -9.442160856077999 -21.044738790928513" fill="red" stroke="none" /><path d="M 107.93186726928326 119.44442032107085 l 6.331033997733187 15.520089020606797 a37.76171693735499,37.76171693735499 0 0,0 -0.603969754844306,0.24033202996772807 l -6.062943166847015 -15.626767894980594" fill="red" stroke="none" /><path d="M 107.2578585660854 119.70592522655815 l 6.311474224057562 17.136382308385137 a39.26171693735499,39.26171693735499 0 0,0 -0.636190204279721,0.22811517269141562 l -6.015564459148107 -17.24248502211651" fill="red" stroke="none" /><path d="M 106.91757812671514 119.82793768551818 l 5.864005985771948 16.80807114044175 a38.801624129930396,38.801624129930396 0 0,0 -0.6325223976604005,0.2145859395215158 l -5.573813855174321 -16.90652006686139" fill="red" stroke="none" /><path d="M 106.57524785965236 119.94407469862006 l 6.293451522810119 19.08932864010777 a41.099999999999994,41.099999999999994 0 0,0 -0.6738025103220165,0.21573028582314568 l -5.963927667397162 -19.19483177259062" fill="red" stroke="none" /><path d="M 106.2309692047433 120.05430185196036 l 4.987356971850967 16.05175035704556 a37.80870069605568,37.80870069605568 0 0,0 -0.6231684521334937,0.18775554269906014 l -4.710313545277228 -16.135221268850344" fill="red" stroke="none" /><path d="M 104.13013068566511 120.58985236759428 l 3.223336331609897 16.069229825899065 a37.389327146171695,37.389327146171695 0 0,0 -0.6321153336316317,0.12114640813767603 l -2.9462533834065607 -16.122333432385208" fill="red" stroke="none" /><path d="M 103.7750983002368 120.6578951692458 l 1.1772000268023834 6.441812321917949 a27.548491879350347,27.548491879350347 0 0,0 -0.46721065320116695,0.08123056079866149 l -1.0661404021291665 -6.461121461237616" fill="red" stroke="none" /><path d="M 103.41894727170886 120.7198165907248 l 0.8994426415496592 5.450884464056437 a26.5245939675174,26.5245939675174 0 0,0 -0.4511254141687185,0.07045651183042229 l -0.8054813637724236 -5.465559283233965" fill="red" stroke="none" /><path d="M 103.06178313531738 120.77559828337769 l 2.405788233537745 16.32437298328643 a37.50069605568446,37.50069605568446 0 0,0 -0.639425098482543,0.08861849219491362 l -2.124434543868371 -16.363366040973947" fill="red" stroke="none" /><path d="M 101.98527174616119 120.90594882070398 l 1.8847250034321785 19.847139082618607 a40.93642691415313,40.93642691415313 0 0,0 -0.7020707983090636,0.06057762263795981 l -1.5428098873815732 -19.87664095753523" fill="red" stroke="none" /><path d="M 101.62511606390274 120.93702456842531 l 1.2847143083232393 16.5514916960301 a37.60127610208817,37.60127610208817 0 0,0 -0.6457343049831553,0.04453361833138938 l -0.9996172425611537 -16.571153658877776" fill="red" stroke="none" /><path d="M 101.26447882468166 120.96189622390904 l 0.9460539698417912 15.683208568584247 a36.71171693735499,36.71171693735499 0 0,0 -0.6311127544481954,0.03262132057820904 l -0.6759531469801162 -15.697169695924659" fill="red" stroke="none" /><path d="M 100.90346689309514 120.98055641714683 l 0.683065291067292 15.862329859964175 a36.87703016241299,36.87703016241299 0 0,0 -0.6344247851599908,0.021850872369424967 l -0.4099201542326489 -15.871737530759694" fill="red" stroke="none" /><line stroke="#e1ed5e" stroke-width="0.3" x1="102.19456741930631" x2="102.32365962044197" y1="184.97166512339345" y2="189.96999836594603" /><path d="M 102.22038585953345 185.97133177190398 a86.0,86.0 0 0,1 -42.740103519485714,-10.115201625700543" fill="none" id="id55" stroke="none" /><text fill="#e1ed5e" style="font-size:6.75px; font-family:Arial;" text-anchor="middle"><textPath startOffset="22.20632615414155" xlink:href="#id55">July</textPath></text><path d="M 100.54218724476979 120.99299961872073 l 0.4103424744266194 15.8880893866112 a36.89338747099768,36.89338747099768 0 0,0 -0.6349884480203505,0.010931901989859496 l -0.13679433651360096 -15.89279876588022" fill="red" stroke="none" /><path d="M 100.18074693466247 120.99922214144158 l 0.14103892395835912 16.385935951402637 a37.38654292343387,37.38654292343387 0 0,0 -0.6435717172416179,0.0 l 0.14103892395834786 -16.385935951402637" fill="red" stroke="none" /><path d="M 99.81925306533755 120.99922214144158 l -0.19885457834880055 23.10297252004639 a44.103828306264504,44.103828306264504 0 0,0 -0.7590905419017511,-0.013068432081512963 l 0.5965048101432194 -23.09612661068572" fill="red" stroke="none" /><path d="M 98.73552117531835 120.96189622390904 l -0.4302874329994745 7.133089412753137 a28.14605568445476,28.14605568445476 0 0,0 -0.4833578960478222,-0.03333519048615297 l 0.5530080898262267 -7.124625877750699" fill="red" stroke="none" /><path d="M 98.37488393609728 120.93702456842531 l -0.5461133315836164 7.0357979312887 a28.056960556844547,28.056960556844547 0 0,0 -0.48118446530709535,-0.04151862038533297 l 0.6671421146322535 -7.0253550586247036" fill="red" stroke="none" /><path d="M 98.01472825383883 120.90594882070398 l -2.2578271181399496 23.776099301822835 a44.8830626450116,44.8830626450116 0 0,0 -0.7684993472216815,-0.07965809954377315 l 2.6667590619672246 -23.7337118338233" fill="red" stroke="none" /><path d="M 97.2962882734958 120.8252237178851 l -3.1520600781018238 24.278607684095867 a45.48236658932715,45.48236658932715 0 0,0 -0.7755207181332086,-0.10748010497238045 l 3.5695093874218635 -24.220753013630883" fill="red" stroke="none" /><path d="M 96.93821686468263 120.77559828337769 l -2.330842033821728 15.81582875616431 a36.98665893271462,36.98665893271462 0 0,0 -0.6290622902718734,-0.09824659242105295 l 2.6027401877021186 -15.773363856396152" fill="red" stroke="none" /><path d="M 96.22490169976321 120.6578951692458 l -1.2565934597324504 6.87626490676669 a27.990139211136892,27.990139211136892 0 0,0 -0.4732098044095364,-0.09069178526391201 l 1.3747708787136819 -6.85361592315431" fill="red" stroke="none" /><path d="M 95.86986931433489 120.58985236759428 l -4.885313513887558 24.35464920504319 a45.839791183294665,45.839791183294665 0 0,0 -0.7723099774735032,-0.16184506480883462 l 5.3038149527904475 -24.266948159507816" fill="red" stroke="none" /><path d="M 95.51606077576429 120.51570834832081 l -3.944959920401083 18.049675324615627 a39.475754060324824,39.475754060324824 0 0,0 -0.6625908520851138,-0.15080352072395964 l 4.255070921879059 -17.97909507031398" fill="red" stroke="none" /><path d="M 93.76903079525671 120.05430185196036 l -4.879239226452113 15.703774652057126 a37.44431554524362,37.44431554524362 0 0,0 -0.613870409043184,-0.19654191958704292 l 5.148830980586237 -15.617459885810376" fill="red" stroke="none" /><path d="M 93.08242187328487 119.8279376855182 l -9.399491432403819 26.941875752369093 a49.53445475638051,49.53445475638051 0 0,0 -0.802647906117528,-0.2878009822890926 l 9.861858899151073 -26.77608722904004" fill="red" stroke="none" /><path d="M 92.7421414339146 119.70592522655815 l -11.73694602521513 31.867165590936207 a54.959860788863104,54.959860788863104 0 0,0 -0.884931695027803,-0.33460544646438006 l 12.283747941003217 -31.660411894365193" fill="red" stroke="none" /><path d="M 92.40401165467489 119.57807347666478 l -7.310100219169441 18.841218904813505 a41.20962877030162,41.20962877030162 0 0,0 -0.6591164651468283,-0.2622760440954932 l 7.633337760358128 -18.712596016311945" fill="red" stroke="none" /><path d="M 91.7346041902142 119.30500536409082 l -6.641630448015812 15.512470833332907 a37.87447795823666,37.87447795823666 0 0,0 -0.5971169814334841,-0.2617585370099096 l 6.90766810410704 -15.395847743028545" fill="red" stroke="none" /><path d="M 91.40352486487194 119.15986991738527 l -14.18817305655067 31.622676254598638 a55.65974477958236,55.65974477958236 0 0,0 -0.870762262262386,-0.3997242464126917 l 14.730403314580476 -31.37376493785187" fill="red" stroke="none" /><path d="M 91.07499286063937 119.00905698771935 l -14.637070873331943 31.1749794728328 a55.44013921113689,55.44013921113689 0 0,0 -0.860344716819646,-0.41301774713577577 l 15.171528258151831 -30.91840744919746" fill="red" stroke="none" /><line stroke="#e1ed5e" stroke-width="0.3" x1="58.666819895761336" x2="56.23545636021788" y1="174.27360380694188" y2="178.64263932499728" /><path d="M 58.180547188652646 175.14741091055294 a86.0,86.0 0 0,1 -31.652253787137756,-30.449443065178592" fill="none" id="id56" stroke="none" /><text fill="#e1ed5e" style="font-size:6.75px; font-family:Arial;" text-anchor="middle"><textPath startOffset="22.20632615414155" xlink:href="#id56">August</textPath></text><path d="M 89.7882731507175 118.34994917583269 l -10.98784516765852 19.744593970668106 a43.596055684454754,43.596055684454754 0 0,0 -0.6525939934180983,-0.3705599011198125 l 11.326087927997825 -19.55253090375366" fill="red" stroke="none" /><path d="M 89.4739219176387 118.17145234162733 l -8.435341492750748 14.562157407679644 a37.82888631090488,37.82888631090488 0 0,0 -0.5606459439603914,-0.3312395058755535 l 8.684755307739522 -14.414799329510341" fill="red" stroke="none" /><path d="M 89.1626897886671 117.98757091392108 l -9.137896402588591 15.16691469934499 a38.70696055684455,38.70696055684455 0 0,0 -0.5677404266146584,-0.3487525405416215 l 9.397616029135559 -15.00737369197499" fill="red" stroke="none" /><path d="M 88.8546689885994 117.79835938074946 l -9.222512055008812 14.727744180988072 a38.37703016241299,38.37703016241299 0 0,0 -0.5568656892324453,-0.35541803005633266 l 9.474659546288182 -14.566811722107936" fill="red" stroke="none" /><path d="M 88.54995079064634 117.60387380957326 l -4.049264171004276 6.225539662288429 a28.426566125290023,28.426566125290023 0 0,0 -0.40788779054721014,-0.27032578613328145 l 4.1558266602914475 -6.1549158550638285" fill="red" stroke="none" /><path d="M 87.95078237400918 117.19931262002967 l -11.215117824470047 16.00870060786754 a40.54628770301625,40.54628770301625 0 0,0 -0.5681744965797337,-0.40537741734111576 l 11.489019648898669 -15.813278928682202" fill="red" stroke="none" /><path d="M 87.36589467227662 116.77436683061367 l -14.677672911392246 19.487622055452732 a45.39675174013921,45.39675174013921 0 0,0 -0.6201439949504406,-0.47549997103145963 l 15.010945634836173 -19.232082742593906" fill="red" stroke="none" /><path d="M 87.07902340077011 116.55440617244103 l -6.488326001933469 8.31286886020821 a31.54524361948956,31.54524361948956 0 0,0 -0.4251735641381946,-0.33778359354615445 l 6.6304570587890215 -8.199951352656925" fill="red" stroke="none" /><path d="M 86.79598089348748 116.32954008644616 l -8.092658843172789 10.008270657556377 a33.8707656612529,33.8707656612529 0 0,0 -0.4502067840532614,-0.3704895333540182 l 8.263735755770739 -9.867486005345178" fill="red" stroke="none" /><path d="M 86.24171649860922 115.8653595955263 l -11.668775546356887 13.455844260203078 a38.81067285382831,38.81067285382831 0 0,0 -0.5009490317081366,-0.4420292761372463 l 11.898666930971611 -13.252991842293543" fill="red" stroke="none" /><path d="M 85.70375840098266 115.38237550388516 l -5.322352855159521 5.726710031807695 a28.818097447795825,28.818097447795825 0 0,0 -0.3604515009794961,-0.3408293924244274 l 5.4201401905298345 -5.634246002637337" fill="red" stroke="none" /><path d="M 85.44109423537348 115.13401014063109 l -4.901144395042401 5.094748889404033 a28.069489559164733,28.069489559164733 0 0,0 -0.34532161735225503,-0.3379698831452766 l 4.988115964770451 -5.0096289033361865" fill="red" stroke="none" /><path d="M 85.18274418774928 114.88116024355367 l -4.8267812437123 4.84759837168198 a27.840835266821344,27.840835266821344 0 0,0 -0.33668767249018167,-0.3410628346622928 l 4.909509541258015 -4.763795043039022" fill="red" stroke="none" /><path d="M 84.9287848128048 114.62390073753433 l -5.079603965230174 4.9288410556717865 a28.07784222737819,28.07784222737819 0 0,0 -0.333582747006958,-0.34976017659054753 l 5.163693263616089 -4.8406737624987395" fill="red" stroke="none" /><path d="M 84.43433777217949 114.09645910891817 l -14.12776031768011 12.794277089145053 a40.060092807424596,40.060092807424596 0 0,0 -0.4584804185014646,-0.5151076105039458 l 14.345899585829914 -12.549195308900243" fill="red" stroke="none" /><path d="M 83.95833913139862 113.55231037782056 l -14.594614794557684 12.32981741483619 a40.105684454756386,40.105684454756386 0 0,0 -0.4409791889338507,-0.5311878408018149 l 14.804689983385071 -12.076768316920614" fill="red" stroke="none" /><path d="M 83.72743513129214 113.27417163493432 l -8.27193208846331 6.747740579355993 a31.675058004640373,31.675058004640373 0 0,0 -0.3410077737844041,-0.42545963013824756 l 8.386857774302573 -6.604353115639486" fill="red" stroke="none" /><path d="M 83.50135304334701 112.99209946851258 l -17.500213807866448 13.780797850235516 a43.27482598607889,43.27482598607889 0 0,0 -0.4558141187711919,-0.589201192873315 l 17.734834743855707 -13.477518663248947" fill="red" stroke="none" /><path d="M 83.28015986056508 112.70617746262583 l -5.3617651093481244 4.0746525340041435 a27.73433874709977,27.73433874709977 0 0,0 -0.2855827752248703,-0.38258479668384565 l 5.43110915126808 -3.98175485781099" fill="red" stroke="none" /><path d="M 83.06392112726016 112.41649034213515 l -5.626741351703935 4.125180342870123 a27.97691415313225,27.97691415313225 0 0,0 -0.28139474362449524,-0.3908326874146396 l 5.696915887704038 -4.027714050004345" fill="red" stroke="none" /><path d="M 82.44556493220864 111.52570212397912 l -21.950898818942562 14.412284995997222 a47.25939675174014,47.25939675174014 0 0,0 -0.4406266687488269,-0.683862374933157 l 22.195730351068434 -14.032301021142617" fill="red" stroke="none" /><line stroke="#e1ed5e" stroke-width="0.3" x1="26.63291911575756" x2="22.317208475507996" y1="142.92168965132927" y2="145.44649492493687" /><path d="M 25.769776987707644 143.4266507060508 a86.0,86.0 0 0,1 -11.730757126820373,-40.83630448921669" fill="none" id="id57" stroke="none" /><text fill="#e1ed5e" style="font-size:6.75px; font-family:Arial;" text-anchor="middle"><textPath startOffset="21.46611528233685" xlink:href="#id57">September</textPath></text><path d="M 81.87401531095188 110.60418214915194 l -15.13642884507387 8.855212630617633 a38.53642691415313,38.53642691415313 0 0,0 -0.33003330742524983,-0.5754408900862014 l 15.286614148651497 -8.593351894673125" fill="red" stroke="none" /><path d="M 81.69416730710424 110.29060199501025 l -31.310740383422143 17.601295328124337 a56.91890951276102,56.91890951276102 0 0,0 -0.4727619317771432,-0.8582002291612747 l 31.609078724650804 -17.05972458056524" fill="red" stroke="none" /><path d="M 81.35079622478065 109.6543875284942 l -11.978883657937548 6.2012719892174015 a34.48886310904872,34.48886310904872 0 0,0 -0.2683912327066712,-0.5295613644131144 l 12.083853560430486 -5.994156413101602" fill="red" stroke="none" /><path d="M 81.18737489456691 109.33194174019688 l -22.894409790224763 11.356697810177947 a46.55638051044083,46.55638051044083 0 0,0 -0.34994157368471684,-0.7209832910608539 l 23.0865046205242 -10.960925563151807" fill="red" stroke="none" /><path d="M 81.02952815118164 109.00673069616217 l -56.9114155464551 27.020192088486496 a84.0,84.0 0 0,0 -0.6089015326406932,-1.3115197308846915 l 57.36809169593562 -26.03655229032298" fill="red" stroke="none" /><path d="M 80.73074385275274 108.34839909993369 l -19.38677497824141 8.399314096101662 a42.12807424593967,42.12807424593967 0 0,0 -0.2825570438951553,-0.6678813857667021 l 19.52848300332887 -8.064358184668801" fill="red" stroke="none" /><path d="M 80.58989483394504 108.01547362559985 l -6.191997254580574 2.557007819343246 a27.699187935034804,27.699187935034804 0 0,0 -0.17819466081983368,-0.4422645345170528 l 6.235094529657796 -2.4500439169833883" fill="red" stroke="none" /><path d="M 80.45479744820244 107.68017299344265 l -32.51228157986453 12.775510833573518 a55.93225058004641,55.93225058004641 0 0,0 -0.3443980931052033,-0.8991147452288621 l 32.72737395256324 -12.213972521511497" fill="red" stroke="none" /><path d="M 80.32549172779594 107.34259656027581 l -6.574363776805607 2.453575976878375 a28.017285382830625,28.017285382830625 0 0,0 -0.16473595320345408,-0.45328259193928655 l 6.615623991014286 -2.340045587932971" fill="red" stroke="none" /><path d="M 80.0844068197444 106.66101706037122 l -15.77536777665723 5.2762673420202715 a37.634338747099775,37.634338747099775 0 0,0 -0.20019272694906973,-0.6161298599933752 l 15.863852754622549 -5.003938582049093" fill="red" stroke="none" /><path d="M 79.97269907076064 106.31721596034903 l -16.580773039792536 5.230076906118597 a38.38607888631091,38.38607888631091 0 0,0 -0.1933437835542567,-0.6318586714517624 l 16.668343595852924 -4.9438912621147875" fill="red" stroke="none" /><path d="M 79.86692584326677 105.97154293290107 l -9.734878548174486 2.8874003415698004 a31.154060324825984,31.154060324825984 0 0,0 -0.14806688625295836,-0.515440255597126 l 9.783138071313548 -2.7194026104680784" fill="red" stroke="none" /><path d="M 79.76711848015287 105.62410040840567 l -17.061140944834957 4.742456958569589 a38.70800464037123,38.70800464037123 0 0,0 -0.1729177322040347,-0.6434912085065194 l 17.140246753380765 -4.44807481688753" fill="red" stroke="none" /><path d="M 79.67330655649465 105.27499134158121 l -16.931387788598315 4.393873712615401 a38.49222737819026,38.49222737819026 0 0,0 -0.16091343101843275,-0.6427691686246116 l 17.004512533911807 -4.101776704593397" fill="red" stroke="none" /><path d="M 79.58551787078972 104.9243191809786 l -27.199912251574254 6.561079961451041 a48.9800464037123,48.9800464037123 0 0,0 -0.19064767970164717,-0.82130521444135 l 27.308820497206455 -6.091906089661117" fill="red" stroke="none" /><path d="M 79.4281124754447 104.21870165774334 l -32.4707845496548 6.658822747516301 a54.14651972157773,54.14651972157773 0 0,0 -0.17937985743640766,-0.9146540284892364 l 32.58059434006688 -6.09890499195911" fill="red" stroke="none" /><path d="M 79.35854240842038 103.8639653848113 l -16.15979143468064 3.025022552421292 a37.44048723897912,37.44048723897912 0 0,0 -0.11313010075559193,-0.6344936843697647 l 16.20946797777542 -2.7464101173183137" fill="red" stroke="none" /><path d="M 79.29508885075956 103.50808413554451 l -34.86722135578005 5.90763926524833 a56.36415313225058,56.36415313225058 0 0,0 -0.15384258925962674,-0.9579779501739304 l 34.96374569940097 -5.306582085381185" fill="red" stroke="none" /><path d="M 79.23777060512086 103.15116336523772 l -36.5317516548611 5.5445643766537795 a57.95011600928074,57.95011600928074 0 0,0 -0.14119393711014416,-0.9875100672943901 l 36.621779642987846 -4.914908837378989" fill="red" stroke="none" /><path d="M 79.18660465613746 102.79330883721812 l -6.785911942323631 0.9107186734271155 a27.84675174013921,27.84675174013921 0 0,0 -0.05966960955637954,-0.475625497616864 l 6.800583061126859 -0.7937754215228429" fill="red" stroke="none" /><path d="M 79.1416061653843 102.43462659150553 l -6.904633053573318 0.8059203105523949 a27.951508120649653,27.951508120649653 0 0,0 -0.05166729594372753,-0.478374991782327 l 6.917482651018097 -0.6869489968852858" fill="red" stroke="none" /><path d="M 79.10278846688536 102.07522291339032 l -6.572889918577775 0.6527287980317332 a27.60522041763341,27.60522041763341 0 0,0 -0.04288721242788633,-0.47325681540795955 l 6.583151727282736 -0.5394905940752075" fill="red" stroke="none" /><path d="M 79.07016306316243 101.71520430193888 l -6.304965959577339 0.5166932150537461 a27.326102088167055,27.326102088167055 0 0,0 -0.03438331692662217,-0.46913304179124704 l 6.312925835168296 -0.4080870367657384" fill="red" stroke="none" /><path d="M 79.04373962182676 101.35467743843564 l -7.04920810234972 0.4556825980763707 a28.063921113689094,28.063921113689094 0 0,0 -0.027013059719623995,-0.4823363276410228 l 7.056007512956875 -0.33427455409991025" fill="red" stroke="none" /><path d="M 79.0235259727143 100.99374915477108 l -11.270074767825246 0.5339137197302554 a32.282714617169376,32.282714617169376 0 0,0 -0.02151853097208252,-0.555297668946448 l 11.27759543164853 -0.3398388037698105" fill="red" stroke="none" /><line stroke="#e1ed5e" stroke-width="0.3" x1="15.007084014347285" x2="10.007500721073583" y1="101.09737516637583" y2="101.16192664675087" /><path d="M 14.007167355692545 101.11028546245083 a86.0,86.0 0 0,1 10.666146001902534,-42.60595125391555" fill="none" id="id58" stroke="none" /><text fill="#e1ed5e" style="font-size:6.75px; font-family:Arial;" text-anchor="middle"><textPath startOffset="22.20632615414155" xlink:href="#id58">October</textPath></text><path d="M 79.00486145842228 99.54816195383935 l -17.52158090053412 -0.37708333593821286 a38.52563805104408,38.52563805104408 0 0,0 0.01997518659004737,-0.6628791960638944 l 17.512494019488425 0.6786326794271017" fill="red" stroke="none" /><path d="M 79.08570108090925 98.10471618934814 l -19.86927718821475 -1.800582440265455 a40.95069605568445,40.95069605568445 0 0,0 0.06966078897249856,-0.7014746383769176 l 19.83533927356002 2.142332609346803" fill="red" stroke="none" /><path d="M 79.12142395522702 97.74499172005258 l -15.954083266032374 -1.7231342686744429 a37.04686774941996,37.04686774941996 0 0,0 0.07393434046194843,-0.6334242781371415 l 15.922058572566836 1.9975022851364461" fill="red" stroke="none" /><path d="M 79.21141760316559 97.0276538004421 l -15.905298225592603 -2.2741354764466384 a37.06705336426914,37.06705336426914 0 0,0 0.09574615202773745,-0.630847513019023 l 15.863796180125563 2.5475821018577536" fill="red" stroke="none" /><path d="M 80.38941819471856 92.48833698450439 l -6.054125254703059 -2.318980090365468 a27.4830626450116,27.4830626450116 0 0,0 0.17302086431790878,-0.44031922740124885 l 6.0133108405034585 2.4228483226624804" fill="red" stroke="none" /><path d="M 80.52162464483688 92.15188598940014 l -15.113334063275234 -6.089376893408421 a37.2939675174014,37.2939675174014 0 0,0 0.24503612987485268,-0.5933744245834285 l 15.006276246514181 6.34862588844516" fill="red" stroke="none" /><path d="M 81.10775173730289 90.83032412892265 l -21.96873535963549 -10.662901510938228 a45.41972157772622,45.41972157772622 0 0,0 0.34743921361454944,-0.700416253618736 l 21.781936133067532 11.039477353055926" fill="red" stroke="none" /><path d="M 81.43458229118936 90.18545643968196 l -28.61086555062301 -15.125034655790762 a53.36276102088167,53.36276102088167 0 0,0 0.4362835176488388,-0.8083670982203396 l 28.346273933755697 15.615282737343573" fill="red" stroke="none" /><path d="M 81.6062741919709 89.86733742301443 l -22.5111281031741 -12.400840790895812 a46.70081206496519,46.70081206496519 0 0,0 0.3939377144165165,-0.700771237195576 l 22.294332747465155 12.786495538026172" fill="red" stroke="none" /><line stroke="#e1ed5e" stroke-width="0.3" x1="26.266209847984243" x2="21.928928074336255" y1="57.711370442889674" y2="55.22380399835377" /><path d="M 25.398753493254645 57.213857153982495 a86.0,86.0 0 0,1 29.58750427330803,-30.492523968695096" fill="none" id="id59" stroke="none" /><text fill="#e1ed5e" style="font-size:6.75px; font-family:Arial;" text-anchor="middle"><textPath startOffset="21.46611528233685" xlink:href="#id59">November</textPath></text><path d="M 81.78341655067845 89.55222093294921 l -9.053949911255435 -5.192722807770187 a31.437354988399072,31.437354988399072 0 0,0 0.27326595301782475,-0.46710009416759946 l 8.963224283767286 5.347802314291678" fill="red" stroke="none" /><path d="M 81.96595687620814 89.24020034530311 l -9.024792279847848 -5.384536134789981 a31.509048723897912,31.509048723897912 0 0,0 0.28190726029763113,-0.4633814134061039 l 8.930769221264 5.539085321403158" fill="red" stroke="none" /><path d="M 82.15384107792192 88.93136811851018 l -8.936684421437045 -5.542754075755657 a31.51600928074246,31.51600928074246 0 0,0 0.2899058699759795,-0.4585614652567368 l 8.839950955215103 5.69576318872661" fill="red" stroke="none" /><path d="M 83.17141714833178 87.43820079747576 l -7.903075112159796 -5.899299038812217 a30.862064965197213,30.862064965197213 0 0,0 0.3214417210597729,-0.4229796259396454 l 7.800357450875915 6.034463440632888" fill="red" stroke="none" /><path d="M 83.39014120810768 87.1503855733568 l -8.415313111152473 -6.510201568394257 a31.63955916473318,31.63955916473318 0 0,0 0.33695515709515245,-0.42789883117889427 l 8.30200387346335 6.6540927935262" fill="red" stroke="none" /><path d="M 83.84228863543731 86.58626213691792 l -7.958891235955124 -6.607277374320939 a31.344083526682134,31.344083526682134 0 0,0 0.34820200079752434,-0.41216134037955854 l 7.843978621670476 6.743297664329614" fill="red" stroke="none" /><path d="M 84.07557802195018 86.31012108654704 l -7.991241257794967 -6.869896146823925 a31.53828306264501,31.53828306264501 0 0,0 0.3574460941759333,-0.4086226764482813 l 7.87180330004119 7.00643437947515" fill="red" stroke="none" /><path d="M 84.5562425177563 85.77008943001954 l -13.886072562838079 -12.794656414711964 a39.881902552204174,39.881902552204174 0 0,0 0.4695290272807022,-0.5008608293383613 l 13.663776213586921 13.031786660928375" fill="red" stroke="none" /><path d="M 85.05521093208273 85.24692304244772 l -7.386450851383777 -7.291697283809779 a31.379234338747104,31.379234338747104 0 0,0 0.38277316455940574,-0.38112941494587654 l 7.259841886657058 7.417762549405765" fill="red" stroke="none" /><path d="M 85.31137513191541 84.99185889309783 l -7.380340217941476 -7.540882036444487 a31.551508120649654,31.551508120649654 0 0,0 0.3914141216537047,-0.37654007491385777 l 7.249442852675344 7.666805198120659" fill="red" stroke="none" /><path d="M 85.57189188830299 84.74124197986013 l -7.256377143945465 -7.674138707941407 a31.561600928074245,31.561600928074245 0 0,0 0.3979649095508101,-0.36986501164482005 l 7.123204350599798 7.797908305660874" fill="red" stroke="none" /><path d="M 85.83668400450813 84.49514656593479 l -7.140339287087551 -7.816666248993437 a31.587006960556845,31.587006960556845 0 0,0 0.4045979908152078,-0.36325207099934137 l 7.004730308676372 7.938417328762057" fill="red" stroke="none" /><path d="M 86.10567301691215 84.25364557470407 l -12.873321914426732 -14.5892557258965 a40.456844547563804,40.456844547563804 0 0,0 0.5261435777677688,-0.4562665259352968 l 12.62028453801219 14.808687245251477" fill="red" stroke="none" /><path d="M 86.93701828274178 83.55741782278169 l -6.590159536875334 -8.295138284002363 a31.594315545243617,31.594315545243617 0 0,0 0.4287310177340434,-0.33463135976013764 l 6.446395963981865 8.407348032985722" fill="red" stroke="none" /><path d="M 87.80319425747018 82.90503203632743 l -6.040794491473382 -8.466740430798056 a31.400812064965198,31.400812064965198 0 0,0 0.4427048878200904,-0.3101430653235545 l 5.894158464069632 8.569468338885553" fill="red" stroke="none" /><path d="M 88.70189139769569 82.29822771554957 l -5.684068326817235 -8.905745794482293 a31.56508120649652,31.56508120649652 0 0,0 0.4605207778802576,-0.2883780688603612 l 5.529928396564736 9.002268204665583" fill="red" stroke="none" /><path d="M 89.00827224532344 82.1063720568725 l -5.431013776564912 -8.841243345979501 a31.376102088167052,31.376102088167052 0 0,0 0.46263006765353093,-0.27872943935809813 l 5.278021642693732 8.933419394796218" fill="red" stroke="none" /><line stroke="#e1ed5e" stroke-width="0.3" x1="56.762969772571076" x2="54.21961505331055" y1="26.818313649435495" y2="22.513508569990535" /><path d="M 56.25429882871897 25.957352633546506 a86.0,86.0 0 0,1 42.265352541879196,-11.944610805530505" fill="none" id="id60" stroke="none" /><text fill="#e1ed5e" style="font-size:6.75px; font-family:Arial;" text-anchor="middle"><textPath startOffset="22.20632615414155" xlink:href="#id60">December</textPath></text><path d="M 89.3179101791058 81.91981866633112 l -5.362996835170186 -9.077245829005054 a31.543155452436196,31.543155452436196 0 0,0 0.4698477187560188,-0.2721661252752811 l 5.205952383948848 9.168216111670382" fill="red" stroke="none" /><path d="M 89.63071344664047 81.73862282372117 l -3.485241971970243 -6.13786858654476 a28.058352668213455,28.058352668213455 0 0,0 0.42204560515284406,-0.23486792232847792 l 3.3790722777453537 6.196951906433423" fill="red" stroke="none" /><path d="M 89.94658935756843 81.56283822128135 l -4.972056353852219 -9.11835899569973 a31.385846867749418,31.385846867749418 0 0,0 0.47654917822314163,-0.2545560670636266 l 4.814362129100772 9.202593789265105" fill="red" stroke="none" /><path d="M 90.26544431104013 81.39251694778311 l -12.033162739942647 -23.001242059972718 a46.958700696055686,46.958700696055686 0 0,0 0.7194509269244828,-0.3685307083963258 l 11.635451325429399 23.20496529368155" fill="red" stroke="none" /><path d="M 90.58718382345135 81.22770947309562 l -7.522765119288724 -15.002899210630384 a37.78329466357309,37.78329466357309 0 0,0 0.5838935593019575,-0.28651403372758294 l 7.263400292976341 15.130168404492796" fill="red" stroke="none" /><path d="M 90.91171255644093 81.06846463323043 l -4.59339579327512 -9.568363176671712 a31.61380510440835,31.61380510440835 0 0,0 0.4926059930423842,-0.23128511885862826 l 4.428011588933128 9.646013278170347" fill="red" stroke="none" /><path d="M 91.23893434514133 80.91482961587045 l -4.208186375120467 -9.167144402439956 a31.086890951276104,31.086890951276104 0 0,0 0.48823869128591835,-0.21905846896374026 l 4.049765565367775 9.238223201920224" fill="red" stroke="none" /><path d="M 91.56875222667455 80.76684994638697 l -4.1041201458089995 -9.362215501735527 a31.22227378190255,31.22227378190255 0 0,0 0.4940794617354303,-0.21153904056020098 l 3.942356926283261 9.431474070258513" fill="red" stroke="none" /><path d="M 92.23578459929587 80.48803036053334 l -3.9044970520213176 -9.812250691746375 a31.560556844547563,31.560556844547563 0 0,0 0.5064970942189153,-0.19651300365245658 l 3.735016792802726 9.878006399289383" fill="red" stroke="none" /><path d="M 92.57280143429618 80.3572730644239 l -3.4797299213199673 -9.20284869852066 a30.838747099767982,30.838747099767982 0 0,0 0.498145146060534,-0.18347106131391738 l 3.3208024494868638 9.2613830276409" fill="red" stroke="none" /><path d="M 92.91201910852362 80.23233633223022 l -6.821564904372166 -19.024656355895377 a41.21067285382831,41.21067285382831 0 0,0 0.6698068699843928,-0.23368246493490707 l 6.493076030324488 19.139259674002496" fill="red" stroke="none" /><path d="M 93.25333710446033 80.11325718540243 l -3.346049615709646 -9.862954349844994 a31.415081206496517,31.415081206496517 0 0,0 0.5135874770876148,-0.1693217163741464 l 3.175779316379622 9.919089790478374" fill="red" stroke="none" /><path d="M 93.59665428221793 80.00007090966166 l -3.1574203702547257 -9.861748263586952 a31.354872389791183,31.354872389791183 0 0,0 0.5154362183687822,-0.1601485420621255 l 2.987198779175215 9.914636940531603" fill="red" stroke="none" /><path d="M 93.94186890950719 79.89281104454417 l -5.104934262963162 -16.943489055835375 a38.69582366589327,38.69582366589327 0 0,0 0.6394204450149764,-0.18666436196296904 l 4.812523600224765 17.02885174671704" fill="red" stroke="none" /><path d="M 94.28887869178378 79.79150937346287 l -4.762927518595576 -16.853358722383177 a38.51345707656613,38.51345707656613 0 0,0 0.63951065599477,-0.1748024199383566 l 4.472118973377083 16.93284768314783" fill="red" stroke="none" /><path d="M 94.63758080256005 79.69619591428918 l -2.6961397681792048 -10.208432355855072 a31.5584686774942,31.5584686774942 0 0,0 0.52641195544948,-0.134194128495191 l 2.5200189240447255 10.253329480519126" fill="red" stroke="none" /><path d="M 94.98787191387505 79.60689891045804 l -6.791043152290874 -27.631063518007828 a49.45336426914153,49.45336426914153 0 0,0 0.8284058166617794,-0.1960568920853629 l 6.314413648666561 27.743866322234062" fill="red" stroke="none" /><path d="M 95.692805502759 79.44645832069477 l -2.166231876164613 -10.337062136922034 a31.561600928074245,31.561600928074245 0 0,0 0.5326900733287007,-0.10685261742171026 l 1.987975393368776 10.372818710420955" fill="red" stroke="none" /><path d="M 96.04723909329186 79.375362276772 l -1.9896130967606833 -10.381363886806115 a31.57030162412993,31.57030162412993 0 0,0 0.5345977755139931,-0.09769432641219784 l 1.810620200143797 10.41407369456905" fill="red" stroke="none" /><path d="M 96.40284397218896 79.31037775812273 l -1.8168201376130109 -10.44973363346788 a31.606496519721578,31.606496519721578 0 0,0 0.5368149621360782,-0.08857906836053753 l 1.636675969338047 10.479458964768043" fill="red" stroke="none" /><path d="M 98.19473922651362 79.07773832637324 l -0.8959586407622908 -10.383807927413 a31.422389791183292,31.422389791183292 0 0,0 0.5392827406868235,-0.04185871980096642 l 0.7170857107131331 10.397691909402429" fill="red" stroke="none" /><path d="M 98.55514903715128 79.0497635885617 l -0.7158884527061323 -10.380331753277607 a31.404988399071925,31.404988399071925 0 0,0 0.5396243652445963,-0.032551615361771466 l 0.5371020386219131 10.391116638019685" fill="red" stroke="none" /><path d="M 98.91598698831166 79.02799685794201 l -0.5382158736687257 -10.412665597164658 a31.426566125290023,31.426566125290023 0 0,0 0.5404758315557909,-0.023274026227907644 l 0.3588992097236107 10.420387349916757" fill="red" stroke="none" /><path d="M 99.27714615592234 79.0124445844662 l -0.405679857074013 -11.778630702546184 a32.78561484918794,32.78561484918794 0 0,0 0.5641832359645611,-0.01457118848228625 l 0.20286998591457286 11.78386868317083" fill="red" stroke="none" /><path d="M 99.63851952072746 79.00311137660856 l -0.17999738946342 -10.455295253205488 a31.456844547563804,31.456844547563804 0 0,0 0.5414778687359532,-0.004660670966874411 l 2.561188240871093e-15 10.456844547563804" fill="red" stroke="none" /></svg>