<?xml version="1.0" encoding="utf-8" ?>
<svg baseProfile="full" height="200mm" version="1.1" viewBox="0,0,200,200" width="200mm" xmlns="http://www.w3.org/2000/svg" xmlns:ev="http://www.w3.org/2001/xml-events" xmlns:xlink="http://www.w3.org/1999/xlink"><defs /><rect fill="#1a1a1a" height="200" width="200" x="0" y="0" /><text alignment-baseline="middle" fill="#e1ed5e" style="dominant-baseline: central; font-size:9.0px; font-family:Arial;" text-anchor="middle" x="100.0" y="100.0">2017</text><line stroke="#e1ed5e" stroke-width="0.3" x1="100.0" x2="100.0" y1="15.0" y2="10.0" /><path d="M 100.0 14.0 a86.0,86.0 0 0,1 42.46469731375804,11.215312516191453" fill="none" id="id1" stroke="none" /><text fill="#e1ed5e" style="font-size:6.75px; font-family:Arial;" text-anchor="middle"><textPath startOffset="22.20632615414155" xlink:href="#id1">January</textPath></text><line stroke="#e1ed5e" stroke-width="0.3" x1="143.23703022742887" x2="145.7803849466894" y1="26.81831364943548" y2="22.513508569990506" /><path d="M 143.74570117128098 25.957352633546492 a86.0,86.0 0 0,1 28.547481713284135,27.462654790039103" fill="none" id="id2" stroke="none" /><text fill="#e1ed5e" style="font-size:6.75px; font-family:Arial;" text-anchor="middle"><textPath startOffset="19.985693538727396" xlink:href="#id2">February</textPath></text><line stroke="#e1ed5e" stroke-width="0.3" x1="172.23445277983987" x2="176.4835382374775" y1="55.19839476539836" y2="52.563006222186495" /><path d="M 173.08426987136738 54.67131705675599 a86.0,86.0 0 0,1 12.851231095245387,41.99856678651699" fill="none" id="id3" stroke="none" /><text fill="#e1ed5e" style="font-size:6.75px; font-family:Arial;" text-anchor="middle"><textPath startOffset="22.20632615414155" xlink:href="#id3">March</textPath></text><line stroke="#e1ed5e" stroke-width="0.3" x1="184.98032266829074" x2="189.97916517819016" y1="98.17113171792111" y2="98.06355123074" /><path d="M 185.9800911702706 98.14961562048488 a86.0,86.0 0 0,1 -9.607161424134198,41.387399972396054" fill="none" id="id4" stroke="none" /><text fill="#e1ed5e" style="font-size:6.75px; font-family:Arial;" text-anchor="middle"><textPath startOffset="21.466115282336823" xlink:href="#id4">April</textPath></text><path d="M 120.9764740272857 100.99374915477107 l 19.432268249734918 0.9205932380885188 a40.45406233257388,40.45406233257388 0 0,0 -0.03893924862688888,0.6952864421407473 l -19.4135426502205 -1.2549513965646895" fill="red" stroke="none" /><path d="M 120.95626037817324 101.35467743843564 l 48.72506607121238 3.149738860932743 a69.82676436685193,69.82676436685193 0 0,0 -0.0878601624717442,1.1987821117028672 l -48.6636293500763 -3.9879941091323805" fill="red" stroke="none" /><path d="M 120.92983693683757 101.71520430193887 l 46.27924335484205 3.7925932023383826 a67.43438519777251,67.43438519777251 0 0,0 -0.10476543056593063,1.1560777963325184 l -46.20710332799904 -4.588652387219471" fill="red" stroke="none" /><path d="M 120.81339534386255 102.79330883721812 l 48.11377847688174 6.4572185552156585 a69.54514755145225,69.54514755145225 0 0,0 -0.16944492722193036,1.185097426337035 l -47.99549949864321 -7.284461453533103" fill="red" stroke="none" /><path d="M 120.76222939487914 103.15116336523771 l 47.931791343310216 7.274792221904166 a69.4807098055557,69.4807098055557 0 0,0 -0.18964344722794657,1.18090992691723 l -47.79946614172098 -8.098781378514602" fill="red" stroke="none" /><path d="M 120.70491114924044 103.5080841355445 l 47.496595342803346 8.04746523244934 a69.17352245607009,69.17352245607009 0 0,0 -0.20901457598893655,1.1722647422785712 l -47.351034324475215 -8.86384872546113" fill="red" stroke="none" /><path d="M 120.64145759157962 103.86396538481128 l 42.406347203412835 7.938230958898887 a64.1429460502319,64.1429460502319 0 0,0 -0.21249662170728542,1.0835156960352927 l -42.263420648729884 -8.667010382002125" fill="red" stroke="none" /><path d="M 120.49622156327973 104.57218783832717 l 32.563372979214996 7.2640636446483695 a54.363750994409656,54.363750994409656 0 0,0 -0.21160296381787577,0.911580029963322 l -32.43350944946656 -7.823512331960257" fill="red" stroke="none" /><path d="M 120.41448212921028 104.9243191809786 l 44.76982998757887 10.799241986233719 a67.0538956505739,67.0538956505739 0 0,0 -0.28031301764571515,1.119711164981348 l -44.5773056556381 -11.568280990612463" fill="red" stroke="none" /><path d="M 120.32669344350535 105.2749913415812 l 22.161104292251693 5.75104030502594 a43.89517433963081,43.89517433963081 0 0,0 -0.19609003543399167,0.7297239691335777 l -22.058826180475922 -6.131655207335067" fill="red" stroke="none" /><path d="M 120.23288151984713 105.62410040840565 l 24.472870431668234 6.8026830708512955 a46.400745739597255,46.400745739597255 0 0,0 -0.22053028946608377,0.7676948684874134 l -24.35214750531605 -7.222935414843291" fill="red" stroke="none" /><path d="M 120.13307415673323 105.97154293290107 l 19.865915934211078 5.89230283358743 a41.72133800187247,41.72133800187247 0 0,0 -0.21014288456288513,0.6867591055374364 l -19.76154627714206 -6.233388911676924" fill="red" stroke="none" /><path d="M 120.02730092923936 106.31721596034902 l 46.637665404048754 14.71092911045921 a69.90279408820075,69.90279408820075 0 0,0 -0.3718420845365573,1.1444122620070996 l -46.37753106849595 -15.511540272444105" fill="red" stroke="none" /><path d="M 119.9155931802556 106.66101706037122 l 45.191862253853955 15.114978637006086 a68.65256544162612,68.65256544162612 0 0,0 -0.3844843416764342,1.1174914700426652 l -44.92498708123429 -15.89064281013805" fill="red" stroke="none" /><path d="M 119.54520255179757 107.68017299344265 l 22.169027765696523 8.711189760544267 a44.819122971269,44.819122971269 0 0,0 -0.2883307783188043,0.7156133459522463 l -22.01579437312033 -9.091502474339327" fill="red" stroke="none" /><path d="M 119.41010516605496 108.01547362559984 l 43.29765540391358 17.879924501764894 a67.84419562405634,67.84419562405634 0 0,0 -0.4550375421640659,1.0755743337588834 l -42.9834668805572 -18.622573361189943" fill="red" stroke="none" /><path d="M 119.26925614724726 108.34839909993367 l 21.755927984414427 9.425748882852114 a44.71002202583571,44.71002202583571 0 0,0 -0.31203106332130376,0.7035476739945707 l -21.59045583636185 -9.798844893339371" fill="red" stroke="none" /><path d="M 119.12269723197855 108.67885076344098 l 21.17133219517455 9.608625308248017 a44.24975241228901,44.24975241228901 0 0,0 -0.3207588340811091,0.690885992565225 l -21.00279874425361 -9.971631368092073" fill="red" stroke="none" /><path d="M 118.97047184881838 109.00673069616215 l 41.36097329289003 19.6372104367778 a66.7859164533534,66.7859164533534 0 0,0 -0.5019971150554097,1.0342627436481402 l -41.016822921219905 -20.346262136391214" fill="red" stroke="none" /><line stroke="#e1ed5e" stroke-width="0.3" x1="174.80103733775053" x2="179.2010983576182" y1="140.37084112569926" y2="142.7455964860345" /><path d="M 175.68104954172406 140.8457921977663 a86.0,86.0 0 0,1 -30.038265399797805,32.042727171017184" fill="none" id="id5" stroke="none" /><text fill="#e1ed5e" style="font-size:6.75px; font-family:Arial;" text-anchor="middle"><textPath startOffset="22.206326154141568" xlink:href="#id5">May</textPath></text><path d="M 118.30583269289576 110.29060199501025 l 39.57990033784091 22.249793724868915 a66.40508596570031,66.40508596570031 0 0,0 -0.5687058169648017,0.9915865282341019 l -39.191042524723734 -22.92780009896133" fill="red" stroke="none" /><path d="M 118.12598468904814 110.60418214915192 l 8.18716581125983 4.789709306130258 a30.485304384061305,30.485304384061305 0 0,0 -0.2688791134328014,0.4506568600110839 l -8.1035058221288 -4.929928260027446" fill="red" stroke="none" /><path d="M 116.71984013943494 112.70617746262583 l 37.31880480124321 28.360280513645776 a67.8721527413236,67.8721527413236 0 0,0 -0.7148979755768937,0.9241020026500448 l -36.82510000844825 -28.99846051040907" fill="red" stroke="none" /><path d="M 116.498646956653 112.99209946851258 l 17.213475526028777 13.555001620468715 a42.909856426186394,42.909856426186394 0 0,0 -0.46195952067898394,0.5763655315705064 l -16.97759809329494 -13.849294985617473" fill="red" stroke="none" /><path d="M 116.27256486870786 113.27417163493432 l 34.811962142374014 28.397487682800822 a65.92538274624832,65.92538274624832 0 0,0 -0.7248778373646626,0.8731620514921444 l -34.31798830511581 -28.992510991406736" fill="red" stroke="none" /><path d="M 115.56566222782051 114.09645910891815 l 37.38073781811241 33.85246540763419 a71.43123014563028,71.43123014563028 0 0,0 -0.833206495497924,0.9042810905815656 l -36.79248491461876 -34.49089775301709" fill="red" stroke="none" /><path d="M 115.32070863581623 114.36230785411682 l 17.23116451317767 16.153253436635563 a44.61864998403533,44.61864998403533 0 0,0 -0.5300981360634232,0.5558057763580797 l -16.950559825735283 -16.447466329576148" fill="red" stroke="none" /><path d="M 115.07121518719521 114.62390073753431 l 37.92790222891013 36.80220012051404 a73.84815702743218,73.84815702743218 0 0,0 -0.8930681809279682,0.9046733522531195 l -37.288793422926624 -37.44961396674782" fill="red" stroke="none" /><path d="M 114.81725581225074 114.88116024355365 l 21.898117997868404 21.992561044205022 a52.035468630772314,52.035468630772314 0 0,0 -0.640160276138471,0.6265315660793578 l -21.51630776935414 -22.36624271320695" fill="red" stroke="none" /><path d="M 114.55890576462653 115.13401014063108 l 15.903285978508883 16.53149592140955 a43.939155658258606,43.939155658258606 0 0,0 -0.5495829361213772,0.5196649693400428 l -15.616367207996698 -16.802795527495515" fill="red" stroke="none" /><path d="M 113.75828350139079 115.86535959552629 l 17.072786179385588 19.687477148301426 a47.05910175719628,47.05910175719628 0 0,0 -0.6165515968894494,0.5254386466704282 l -16.731369105919093 -19.9784401851948" fill="red" stroke="none" /><path d="M 113.48314897796784 116.09983520530334 l 14.864569219282718 17.74934885161714 a44.15156156139905,44.15156156139905 0 0,0 -0.5868580811040225,0.4829442476538638 l -14.556841009634004 -18.00258821812818" fill="red" stroke="none" /><path d="M 113.20401910651253 116.32954008644616 l 29.365138826635665 36.31615553911867 a67.70304627590201,67.70304627590201 0 0,0 -0.9125161889811672,0.724958048856758 l -28.735665144937148 -36.81624750198055" fill="red" stroke="none" /><path d="M 112.92097659922987 116.55440617244103 l 14.470727411635417 18.539953024693737 a44.518754430872974,44.518754430872974 0 0,0 -0.6081500804509733,0.4663035488400211 l -14.14944860269095 -18.78629591536113" fill="red" stroke="none" /><path d="M 112.63410532772338 116.77436683061366 l 30.150086988793305 40.03042605756599 a71.11449646341926,71.11449646341926 0 0,0 -0.9841400711135949,0.72804329714362 l -29.456561947261147 -40.543479303449374" fill="red" stroke="none" /><path d="M 111.1453310114006 117.79835938074945 l 24.75739652961866 39.535931262619194 a67.6478139222764,67.6478139222764 0 0,0 -0.9922349412938039,0.6095117422829764 l -24.073182388392546 -39.95623147173055" fill="red" stroke="none" /><line stroke="#e1ed5e" stroke-width="0.3" x1="143.8653032363475" x2="146.44561519142675" y1="172.8068346515853" y2="177.08958963109032" /><path d="M 144.38136562736335 173.6633856474863 a86.0,86.0 0 0,1 -40.68145358897372,12.25698825130547" fill="none" id="id6" stroke="none" /><text fill="#e1ed5e" style="font-size:6.75px; font-family:Arial;" text-anchor="middle"><textPath startOffset="21.466115282336833" xlink:href="#id6">June</textPath></text><path d="M 110.8373102113329 117.98757091392108 l 24.287661228128048 40.312219559553625 a68.06342033628636,68.06342033628636 0 0,0 -1.0087392007786913,0.5959809002860467 l -23.590154156320978 -40.72431903213342" fill="red" stroke="none" /><path d="M 110.5260780823613 118.17145234162733 l 11.38920475042025 19.661491175721032 a43.72197658875546,43.72197658875546 0 0,0 -0.6544789168246545,0.3716302098235343 l -11.049077066674396 -19.854624551339196" fill="red" stroke="none" /><path d="M 109.57404056367764 118.69057910512821 l 22.07998629924244 43.104865476735974 a69.43093249920177,69.43093249920177 0 0,0 -1.0683968820504324,0.5357163762155318 l -21.334735509509247 -43.478549693860806" fill="red" stroke="none" /><path d="M 109.2508944713604 118.85261126421891 l 12.084191483056113 24.626652609403283 a48.43172802692888,48.43172802692888 0 0,0 -0.7515850776587717,0.360806511026163 l -11.658493737397109 -24.831013396929006" fill="red" stroke="none" /><path d="M 108.92500713936063 119.00905698771935 l 19.878949705157247 42.33947176746029 a67.77396189043364,67.77396189043364 0 0,0 -1.0602816921260332,0.48672332132205204 l -19.147200017263796 -42.67538215911642" fill="red" stroke="none" /><path d="M 108.59647513512805 119.15986991738527 l 19.43456642494029 43.315865950805524 a68.47595828620598,68.47595828620598 0 0,0 -1.079570193883851,0.47325184735518105 l -18.686075556398684 -43.643982351455165" fill="red" stroke="none" /><path d="M 108.2653958097858 119.30500536409082 l 9.243736550826023 21.590059061256657 a44.48568320678851,44.48568320678851 0 0,0 -0.7065354758675464,0.29533188621435813 l -8.870729615461016 -21.74597599049099" fill="red" stroke="none" /><path d="M 107.2578585660854 119.70592522655815 l 17.345285496689154 47.0944557432201 a71.1871167802233,71.1871167802233 0 0,0 -1.1535039702607983,0.4136054840300267 l -16.53206196579862 -47.38604876829009" fill="red" stroke="none" /><path d="M 106.91757812671514 119.82793768551818 l 8.93842303592329 25.620309842058326 a48.13476889107764,48.13476889107764 0 0,0 -0.7846661090232128,0.26620134692185254 l -8.49608719396285 -25.770374175878302" fill="red" stroke="none" /><path d="M 106.57524785965236 119.94407469862006 l 14.85886526489015 45.06998444852056 a68.45618373984621,68.45618373984621 0 0,0 -1.122285850388652,0.3593204886753967 l -14.080858069410558 -45.319077783855654" fill="red" stroke="none" /><path d="M 106.2309692047433 120.05430185196036 l 14.404979206073522 46.36225788917402 a69.54855695599704,69.54855695599704 0 0,0 -1.146309335906595,0.3453735995897892 l -13.604794895726682 -46.60334685786953" fill="red" stroke="none" /><path d="M 105.88484417918355 120.15858648285463 l 13.285302535468597 45.508922914130125 a68.40845207621913,68.40845207621913 0 0,0 -1.1331984912155433,0.32025321283129504 l -12.499972876148448 -45.730864920299936" fill="red" stroke="none" /><path d="M 104.83641907484287 120.43548508189849 l 5.431499921487999 22.949900308526733 a44.58387405767847,44.58387405767847 0 0,0 -0.74832939368276,0.1703173336508621 l -5.0356503784123765 -23.03999437575528" fill="red" stroke="none" /><path d="M 104.48393922423573 120.51570834832081 l 5.166977822395662 23.640866823876106 a45.19893063755865,45.19893063755865 0 0,0 -0.7615127425633113,0.15958239925385126 l -4.759273618402973 -23.726305203856498" fill="red" stroke="none" /><path d="M 102.34483914955558 120.86867818915974 l 2.875966161264724 25.595620200098413 a46.756687574073375,46.756687574073375 0 0,0 -0.8005800353491737,0.08298339403821467 l -2.434953529309947 -25.641332962592386" fill="red" stroke="none" /><path d="M 101.98527174616119 120.90594882070398 l 2.3704907244146534 24.96250594428322 a46.074806665115304,46.074806665115304 0 0,0 -0.7901954014000555,0.06818138420164194 l -1.9404510052730564 -24.999611580763524" fill="red" stroke="none" /><path d="M 101.62511606390274 120.93702456842531 l 3.7463690695855254 48.26598111640816 a69.41115795284199,69.41115795284199 0 0,0 -1.1920118273928824,0.08220811463470473 l -2.914994481413713 -48.32331757555915" fill="red" stroke="none" /><path d="M 101.26447882468166 120.96189622390904 l 2.9370633092257856 48.689163542569666 a69.77766894140694,69.77766894140694 0 0,0 -1.1995510021972415,0.062003085053797945 l -2.0985242386150644 -48.73250643438567" fill="red" stroke="none" /><line stroke="#e1ed5e" stroke-width="0.3" x1="102.19456741930631" x2="102.32365962044197" y1="184.97166512339345" y2="189.96999836594603" /><path d="M 102.22038585953345 185.97133177190398 a86.0,86.0 0 0,1 -42.740103519485714,-10.115201625700543" fill="none" id="id7" stroke="none" /><text fill="#e1ed5e" style="font-size:6.75px; font-family:Arial;" text-anchor="middle"><textPath startOffset="22.20632615414155" xlink:href="#id7">July</textPath></text><path d="M 99.81925306533755 120.99922214144158 l -0.19401857983272952 22.541125054669955 a43.54196002879053,43.54196002879053 0 0,0 -0.7494199778803383,-0.012901944551860521 l 0.5819982476057358 -22.534445632838935" fill="red" stroke="none" /><path d="M 99.45781275523022 120.99299961872073 l -0.6026314265519652 23.33334365548628 a44.341124454089396,44.341124454089396 0 0,0 -0.7628355166249668,-0.026273597599804598 l 1.004187294851575 -23.319513259460383" fill="red" stroke="none" /><path d="M 99.09653310690486 120.98055641714683 l -0.9522185011491878 22.112679653783164 a43.133172423870164,43.133172423870164 0 0,0 -0.7415042805807334,-0.03832730154231818 l 1.3327108501434102 -22.093012545478643" fill="red" stroke="none" /><path d="M 97.2962882734958 120.8252237178851 l -3.1998913986465647 24.647026380993715 a45.85387725061288,45.85387725061288 0 0,0 -0.7818553536510987,-0.10835802773382969 l 3.6236753434844946 -24.58829378776728" fill="red" stroke="none" /><path d="M 96.58105272829116 120.7198165907248 l -3.87231400457216 23.46735108211486 a44.78468798536662,44.78468798536662 0 0,0 -0.7595291756329356,-0.13205388288319606 l 4.275692151677145 -23.397218620710657" fill="red" stroke="none" /><path d="M 96.22490169976321 120.6578951692458 l -8.693944148897724 47.57454576055456 a69.36240346785148,69.36240346785148 0 0,0 -1.172661883915802,-0.22474344101126403 l 9.511573647385223 -47.41784512119482" fill="red" stroke="none" /><path d="M 95.86986931433489 120.58985236759428 l -4.693158626395059 23.396703545136038 a44.86276334944232,44.86276334944232 0 0,0 -0.7558489874716884,-0.15839550430674634 l 5.095199075296134 -23.31245206010275" fill="red" stroke="none" /><path d="M 94.81253420990036 120.34920634021253 l -5.603231138380467 21.98015586424098 a43.683109376944856,43.683109376944856 0 0,0 -0.7270316292834894,-0.19201566118142097 l 5.980753210475446 -21.88044885375598" fill="red" stroke="none" /><path d="M 94.46302465271185 120.25689768951611 l -12.05185012503662 44.09141808294632 a66.70886391064113,66.70886391064113 0 0,0 -1.10504450312681,-0.31229661457483304 l 12.809025796268044 -43.87743267503297" fill="red" stroke="none" /><path d="M 94.11515582081647 120.15858648285463 l -13.374252113040416 45.81362048937576 a68.72586763933911,68.72586763933911 0 0,0 -1.132749652061073,-0.3412881780789161 l 14.160876739541735 -45.576616942191116" fill="red" stroke="none" /><path d="M 93.42475214034765 119.94407469862007 l -7.073525275749676 21.455452249611103 a43.59139639468999,43.59139639468999 0 0,0 -0.7106025890206417,-0.2410749797247249 l 7.441797597707543 -21.330514282988258" fill="red" stroke="none" /><path d="M 93.08242187328487 119.8279376855182 l -7.750758769892106 22.21609342023888 a44.52932358496182,44.52932358496182 0 0,0 -0.7215456092548517,-0.2587205841156473 l 8.132023939776685 -22.079385295083277" fill="red" stroke="none" /><path d="M 92.06813273071674 119.44442032107085 l -9.576035358422176 23.474983909485243 a46.353014075970194,46.353014075970194 0 0,0 -0.7361930063167583,-0.30772873634742676 l 9.978699824236397 -23.30667013011784" fill="red" stroke="none" /><path d="M 91.7346041902142 119.30500536409082 l -9.553985790943745 22.314690208090155 a45.27393753754404,45.27393753754404 0 0,0 -0.7137745093103597,-0.31289776898240584 l 9.936680974911848 -22.146927885813298" fill="red" stroke="none" /><path d="M 91.40352486487194 119.15986991738527 l -20.14733002086253 44.90447727871047 a70.21714118723042,70.21714118723042 0 0,0 -1.0985037202725187,-0.5042691797720072 l 20.917301736902466 -44.55102102860439" fill="red" stroke="none" /><line stroke="#e1ed5e" stroke-width="0.3" x1="58.666819895761336" x2="56.23545636021788" y1="174.27360380694188" y2="178.64263932499728" /><path d="M 58.180547188652646 175.14741091055294 a86.0,86.0 0 0,1 -31.652253787137756,-30.449443065178592" fill="none" id="id8" stroke="none" /><text fill="#e1ed5e" style="font-size:6.75px; font-family:Arial;" text-anchor="middle"><textPath startOffset="22.20632615414155" xlink:href="#id8">August</textPath></text><path d="M 89.4739219176387 118.17145234162733 l -11.669470273575607 20.145321103370257 a44.28111893410108,44.28111893410108 0 0,0 -0.6562717580526523,-0.38773692238251367 l 12.014509902656641 -19.941465608693996" fill="red" stroke="none" /><path d="M 89.1626897886671 117.98757091392108 l -12.25221368648163 20.33600203744622 a44.741729488102266,44.741729488102266 0 0,0 -0.6562563482541655,-0.40312624919970447 l 12.600449234668103 -20.12208732141814" fill="red" stroke="none" /><path d="M 88.8546689885994 117.79835938074946 l -13.074531275492253 20.879165108512684 a45.634993478837345,45.634993478837345 0 0,0 -0.6621815703081769,-0.42263560820731677 l 13.431994647847354 -20.65101507148156" fill="red" stroke="none" /><path d="M 87.07902340077011 116.55440617244103 l -31.027251736290047 39.75223727962913 a71.42747980063102,71.42747980063102 0 0,0 -0.9627149034119459,-0.7648389435831184 l 31.70692413241935 -39.212264422040874" fill="red" stroke="none" /><path d="M 85.97065885151581 115.62618273729859 l -19.5105502146519 21.73127160660222 a50.20461839021988,50.20461839021988 0 0,0 -0.6380778698663963,-0.5828690054426771 l 19.88172763398515 -21.392209834572967" fill="red" stroke="none" /><path d="M 85.70375840098266 115.38237550388516 l -34.453398358476704 37.0709397476507 a71.60920106286834,71.60920106286834 0 0,0 -0.8956748117675493,-0.8469164397291893 l 35.086409004635065 -36.47238867117558" fill="red" stroke="none" /><path d="M 85.44109423537348 115.13401014063109 l -17.347728483408666 18.03299664338177 a46.02264277558001,46.02264277558001 0 0,0 -0.5661881882315669,-0.5541343090017499 l 17.655566624016025 -17.73171223145745" fill="red" stroke="none" /><path d="M 85.18274418774928 114.88116024355367 l -16.719539894845035 16.791648570173663 a44.696043467202074,44.696043467202074 0 0,0 -0.5405228219724455,-0.5475467649233879 l 17.006103341873015 -16.501361311269612" fill="red" stroke="none" /><path d="M 84.9287848128048 114.62390073753433 l -17.459015449234055 16.940830963756735 a45.32712424844277,45.32712424844277 0 0,0 -0.5385152640389745,-0.5646311013892106 l 17.748037264651987 -16.637792745785024" fill="red" stroke="none" /><path d="M 84.19399662182784 113.82643327865904 l -19.470117288582667 17.031647480856414 a46.86817510268802,46.86817510268802 0 0,0 -0.5259445964617508,-0.6117923864835325 l 19.760404394615197 -16.693977995211352" fill="red" stroke="none" /><path d="M 83.95833913139862 113.55231037782056 l -19.26843223190345 16.278350243139407 a46.22413858417711,46.22413858417711 0 0,0 -0.5082542143124772,-0.6122249427048719 l 19.545782446109463 -15.944264043320775" fill="red" stroke="none" /><path d="M 83.72743513129214 113.27417163493432 l -37.09033081418477 30.25604268266022 a68.86565322567552,68.86565322567552 0 0,0 -0.7413947937603154,-0.925003999876886 l 37.605643519999944 -29.613110849205075" fill="red" stroke="none" /><path d="M 83.28015986056508 112.70617746262583 l -19.757014306540515 15.014266154283073 a45.81466909834779,45.81466909834779 0 0,0 -0.47175742917193125,-0.6319961698730601 l 20.012533002407533 -14.671957104900704" fill="red" stroke="none" /><path d="M 82.6465618267979 111.8261652097733 l -39.326057818656075 26.800248583056817 a68.58983239800199,68.58983239800199 0 0,0 -0.6564925386855655,-0.9813672712575828 l 39.78155346275237 -26.119344397593416" fill="red" stroke="none" /><path d="M 82.44556493220864 111.52570212397912 l -21.554611476873866 14.152094916251075 a46.785326572249616,46.785326572249616 0 0,0 -0.4362066384839595,-0.6770023898060841 l 21.79502297873487 -13.778970926523542" fill="red" stroke="none" /><path d="M 82.05923443525364 110.91462005526583 l -20.5900875801116 12.526387574182824 a45.10108072712317,45.10108072712317 0 0,0 -0.39778965130195737,-0.6667183364000755 l 20.80265810711179 -12.170107143896637" fill="red" stroke="none" /><line stroke="#e1ed5e" stroke-width="0.3" x1="26.63291911575756" x2="22.317208475507996" y1="142.92168965132927" y2="145.44649492493687" /><path d="M 25.769776987707644 143.4266507060508 a86.0,86.0 0 0,1 -11.730757126820373,-40.83630448921669" fill="none" id="id9" stroke="none" /><text fill="#e1ed5e" style="font-size:6.75px; font-family:Arial;" text-anchor="middle"><textPath startOffset="21.46611528233685" xlink:href="#id9">September</textPath></text><path d="M 81.35079622478065 109.6543875284942 l -20.955640264913143 10.848391945505922 a44.59717073540315,44.59717073540315 0 0,0 -0.3470537602546933,-0.6847699939812865 l 21.1392726949541 -10.48606773982195" fill="red" stroke="none" /><path d="M 81.18737489456691 109.33194174019688 l -20.88179701325373 10.358347762004955 a44.30975793227732,44.30975793227732 0 0,0 -0.3330548090381,-0.686191554194353 l 21.05700507890655 -9.997367251845318" fill="red" stroke="none" /><path d="M 81.02952815118164 109.00673069616217 l -43.91144293641887 20.848113012689875 a69.6092443568943,69.6092443568943 0 0,0 -0.5045854235103984,-1.0868321122147706 l 44.26380297676909 -20.089160833196278" fill="red" stroke="none" /><path d="M 80.87730276802145 108.67885076344099 l -42.60935121092678 19.3382866339727 a67.79237267497551,67.79237267497551 0 0,0 -0.47312269536843965,-1.0667667773120366 l 42.93591499102651 -18.601971520167965" fill="red" stroke="none" /><path d="M 80.73074385275274 108.34839909993369 l -44.96125007537863 19.479447301592195 a69.99962117727281,69.99962117727281 0 0,0 -0.46949418855852915,-1.1097455754110832 l 45.289895245129465 -18.702627200514954" fill="red" stroke="none" /><path d="M 80.20201598880116 107.00284435728193 l -23.114344277557958 8.175890803063995 a45.51770996249655,45.51770996249655 0 0,0 -0.2549190498122072,-0.7409140837164562 l 23.251654158313393 -7.776804016258242" fill="red" stroke="none" /><path d="M 80.0844068197444 106.66101706037122 l -22.30040309404375 7.458646303834282 a44.51466314541922,44.51466314541922 0 0,0 -0.23679203889260514,-0.7287709598339362 l 22.425487383952607 -7.073676444022542" fill="red" stroke="none" /><path d="M 79.97269907076064 106.31721596034903 l -41.610545490415426 13.12522356455475 a64.63151372150037,64.63151372150037 0 0,0 -0.3255373240065436,-1.0638748103168998 l 41.8303095869281 -12.407021781685803" fill="red" stroke="none" /><path d="M 79.58551787078972 104.9243191809786 l -21.47297318780314 5.179645169153684 a43.088850164787885,43.088850164787885 0 0,0 -0.16771705843680318,-0.7225206981825174 l 21.5589508121705 -4.809255813622592" fill="red" stroke="none" /><path d="M 79.1416061653843 102.43462659150553 l -25.903361151146328 3.0234836089484616 a47.07921724401054,47.07921724401054 0 0,0 -0.08702413621640383,-0.8057354209658467 l 25.951567588863785 -2.5771518660978328" fill="red" stroke="none" /><path d="M 79.10278846688536 102.07522291339032 l -51.302963616457106 5.0947029680487335 a72.55531082404767,72.55531082404767 0 0,0 -0.11272125275604003,-1.2438696312524204 l 51.38305946549022 -4.210851948247747" fill="red" stroke="none" /><path d="M 79.07016306316243 101.71520430193888 l -47.576944668195274 3.8989400832057672 a68.73643679342797,68.73643679342797 0 0,0 -0.08648824786827454,-1.1800634269296784 l 47.63700947472788 -3.079403519779328" fill="red" stroke="none" /><path d="M 79.04373962182676 101.35467743843564 l -25.698277312591213 1.661216068792922 a46.751914407710665,46.751914407710665 0 0,0 -0.04500127586541037,-0.8035280107241684 l 25.723064939344155 -1.2186163417333162" fill="red" stroke="none" /><path d="M 79.0235259727143 100.99374915477108 l -23.681757265160652 1.1219104905397892 a44.70831732356332,44.70831732356332 0 0,0 -0.029801004111504492,-0.7690314983328268 l 23.697560402123358 -0.7141017451929658" fill="red" stroke="none" /><line stroke="#e1ed5e" stroke-width="0.3" x1="15.007084014347285" x2="10.007500721073583" y1="101.09737516637583" y2="101.16192664675087" /><path d="M 14.007167355692545 101.11028546245083 a86.0,86.0 0 0,1 10.666146001902534,-42.60595125391555" fill="none" id="id10" stroke="none" /><text fill="#e1ed5e" style="font-size:6.75px; font-family:Arial;" text-anchor="middle"><textPath startOffset="22.20632615414155" xlink:href="#id10">October</textPath></text><path d="M 79.26566170972629 96.67025291283419 l -25.317744318657336 -4.065800616275426 a46.64213158136842,46.64213158136842 0 0,0 0.13412530956798357,-0.7916151694687071 l 25.244007147569132 4.501001574059961" fill="red" stroke="none" /><path d="M 79.32604984820605 96.31383870115002 l -3.5910867234655255 -0.6402900656942897 a24.647721922471224,24.647721922471224 0 0,0 0.07806787528305749,-0.41704171141239854 l 3.579533124272606 0.7020098545692609" fill="red" stroke="none" /><path d="M 79.3925641242962 95.95851677861259 l -46.741696768471556 -9.166874732420066 a68.63210901435738,68.63210901435738 0 0,0 0.2373386704505467,-1.1573476462300543 l 46.57697880210602 9.970098034813523" fill="red" stroke="none" /><path d="M 80.38941819471856 92.48833698450439 l -50.281891309151135 -19.260041698222356 a74.84438503541992,74.84438503541992 0 0,0 0.4711862122295594,-1.1991175153872222 l 49.942911547039884 20.12270821850534" fill="red" stroke="none" /><path d="M 80.52162464483688 92.15188598940014 l -58.435126065489385 -23.544342031799562 a84.0,84.0 0 0,0 0.5519132524552011,-1.336501718186755 l 58.02119112614798 24.546718320439627" fill="red" stroke="none" /><path d="M 80.803312248108 91.48605970444005 l -22.424168084974756 -9.94536300848354 a45.53066569976676,45.53066569976676 0 0,0 0.32391314107911195,-0.713699670053926 l 22.249652626932292 10.329884687379538" fill="red" stroke="none" /><path d="M 80.95270993114464 91.15688171328213 l -19.846875685844537 -9.214343283335909 a42.88155836846463,42.88155836846463 0 0,0 0.3165921076346243,-0.6668237197321586 l 19.68532538436816 9.5546094187086" fill="red" stroke="none" /><line stroke="#e1ed5e" stroke-width="0.3" x1="26.266209847984243" x2="21.928928074336255" y1="57.711370442889674" y2="55.22380399835377" /><path d="M 25.398753493254645 57.213857153982495 a86.0,86.0 0 0,1 29.58750427330803,-30.492523968695096" fill="none" id="id11" stroke="none" /><text fill="#e1ed5e" style="font-size:6.75px; font-family:Arial;" text-anchor="middle"><textPath startOffset="21.46611528233685" xlink:href="#id11">November</textPath></text><path d="M 81.78341655067845 89.55222093294921 l -19.255458001574453 -11.043606041440102 a43.1976101697667,43.1976101697667 0 0,0 0.3754907534520578,-0.641835414765624 l 19.06250757365207 11.373420868559618" fill="red" stroke="none" /><path d="M 81.96595687620814 89.24020034530311 l -36.65580810344425 -21.870256639995546 a63.68438113895759,63.68438113895759 0 0,0 0.5697756719966357,-0.936561392336841 l 36.2739166331614 22.497985805539464" fill="red" stroke="none" /><path d="M 82.95767976084542 87.72973835380427 l -19.88269157420837 -14.315294186623643 a45.49998105886364,45.49998105886364 0 0,0 0.46309748010479423,-0.631664442423529 l 19.63333148158994 14.655421072718672" fill="red" stroke="none" /><path d="M 83.17141714833178 87.43820079747576 l -22.235991037582515 -16.598192310385226 a48.74777982823096,48.74777982823096 0 0,0 0.507729157575808,-0.6681120560268888 l 21.946985939782596 16.97848914229314" fill="red" stroke="none" /><path d="M 83.39014120810768 87.1503855733568 l -22.089908586774516 -17.08905606099433 a48.92847826910484,48.92847826910484 0 0,0 0.5210787860777076,-0.6617171419394664 l 21.79247572010284 17.466765596886844" fill="red" stroke="none" /><path d="M 84.80347519578584 85.50635884689758 l -11.92247443713185 -11.371025176815847 a37.47560652224501,37.47560652224501 0 0,0 0.4492356857642651,-0.46297686311169844 l 11.724974487664467 11.574566235477668" fill="red" stroke="none" /><path d="M 87.80319425747018 82.90503203632743 l -9.937152810226712 -13.927852302229866 a38.10941482712154,38.10941482712154 0 0,0 0.5372862389999731,-0.37640334612102627 l 9.695935431643079 14.096840491114834" fill="red" stroke="none" /><line stroke="#e1ed5e" stroke-width="0.3" x1="56.762969772571076" x2="54.21961505331055" y1="26.818313649435495" y2="22.513508569990535" /><path d="M 56.25429882871897 25.957352633546506 a86.0,86.0 0 0,1 42.265352541879196,-11.944610805530505" fill="none" id="id12" stroke="none" /><text fill="#e1ed5e" style="font-size:6.75px; font-family:Arial;" text-anchor="middle"><textPath startOffset="22.20632615414155" xlink:href="#id12">December</textPath></text><path d="M 96.04723909329186 79.375362276772 l -0.7912024788882858 -4.128320654329862 a25.203454863272057,25.203454863272057 0 0,0 0.42678435783059787,-0.07799211345658007 l 0.7200229999547946 4.141328249137178" fill="red" stroke="none" /><path d="M 97.47563105711357 79.15227682838746 l -2.1030009833101184 -17.367818778323024 a38.49467754068286,38.49467754068286 0 0,0 0.6585033290604726,-0.0739905216850681 l 1.803730950739928 17.40144525347869" fill="red" stroke="none" /><path d="M 97.83486435360386 79.11191278185805 l -1.791146699568394 -17.28003903281832 a38.372620857979356,38.372620857979356 0 0,0 0.6575877168799937,-0.0624458773022319 l 1.4934338555981639 17.30831045463573" fill="red" stroke="none" /></svg>