<?xml version="1.0" encoding="utf-8" ?>
<svg baseProfile="full" height="200mm" version="1.1" viewBox="0,0,200,200" width="200mm" xmlns="http://www.w3.org/2000/svg" xmlns:ev="http://www.w3.org/2001/xml-events" xmlns:xlink="http://www.w3.org/1999/xlink"><defs /><rect fill="#1a1a1a" height="200" width="200" x="0" y="0" /><text alignment-baseline="middle" fill="#e1ed5e" style="dominant-baseline: central; font-size:9.0px; font-family:Arial;" text-anchor="middle" x="100.0" y="100.0">2020</text><line stroke="#e1ed5e" stroke-width="0.3" x1="100.0" x2="100.0" y1="15.0" y2="10.0" /><path d="M 100.0 14.0 a86.0,86.0 0 0,1 42.35913384403234,11.155469271406648" fill="none" id="id37" stroke="none" /><text fill="#e1ed5e" style="font-size:6.75px; font-family:Arial;" text-anchor="middle"><textPath startOffset="22.145653131862478" xlink:href="#id37">January</textPath></text><line stroke="#e1ed5e" stroke-width="0.3" x1="143.13028292997686" x2="145.6673583964461" y1="26.7553504044142" y2="22.446841604673864" /><path d="M 143.63769802327073 25.89364864446614 a86.0,86.0 0 0,1 29.32050498858742,28.57503671076993" fill="none" id="id38" stroke="none" /><text fill="#e1ed5e" style="font-size:6.75px; font-family:Arial;" text-anchor="middle"><textPath startOffset="20.669276256404974" xlink:href="#id38">February</textPath></text><line stroke="#e1ed5e" stroke-width="0.3" x1="172.87174338648825" x2="177.1583165268699" y1="56.24261187166439" y2="53.66864786411523" /><path d="M 173.72905801456457 55.72781907015455 a86.0,86.0 0 0,1 12.242430191666344,42.057860355516425" fill="none" id="id39" stroke="none" /><text fill="#e1ed5e" style="font-size:6.75px; font-family:Arial;" text-anchor="middle"><textPath startOffset="22.145653131862474" xlink:href="#id39">March</textPath></text><line stroke="#e1ed5e" stroke-width="0.3" x1="184.99686870605535" x2="189.99668451229388" y1="99.2704041080226" y2="99.22748670261217" /><path d="M 185.99683186730306 99.26182062694052 a86.0,86.0 0 0,1 -10.086455211305974,41.156179273409016" fill="none" id="id40" stroke="none" /><text fill="#e1ed5e" style="font-size:6.75px; font-family:Arial;" text-anchor="middle"><textPath startOffset="21.40746469413373" xlink:href="#id40">April</textPath></text><path d="M 118.70294669586154 109.54985784667822 l 27.57077476484727 14.077834044478944 a51.95695450973544,51.95695450973544 0 0,0 -0.4124192894004057,0.7908683669469226 l -27.325047406471914 -14.54904865453037" fill="red" stroke="none" /><line stroke="#e1ed5e" stroke-width="0.3" x1="174.33088141563837" x2="178.70328620479359" y1="141.23008692659167" y2="143.65538615756765" /><path d="M 175.20536237346943 141.71514677278685 a86.0,86.0 0 0,1 -30.301960400862466,31.631185727798858" fill="none" id="id41" stroke="none" /><text fill="#e1ed5e" style="font-size:6.75px; font-family:Arial;" text-anchor="middle"><textPath startOffset="22.145653131862474" xlink:href="#id41">May</textPath></text><path d="M 114.65682725009322 115.03919595460226 l 4.4150924659758655 4.530273818508495 a27.325853488169038,27.325853488169038 0 0,0 -0.33874626238970174,0.3245112566188718 l -4.336673717720851 -4.605397205432947" fill="red" stroke="none" /><path d="M 114.39649973595853 115.28858382429668 l 8.69304054314536 9.231707808803606 a33.68043307430367,33.68043307430367 0 0,0 -0.42432570860538776,0.3927495410701443 l -8.533285063226005 -9.37957509600613" fill="red" stroke="none" /><path d="M 114.13192950727249 115.5334660781643 l 15.158128294217539 16.661438308584856 a43.524927966471665,43.524927966471665 0 0,0 -0.556984302361151,0.4980587977069869 l -14.86987896503301 -16.91919263617523" fill="red" stroke="none" /><path d="M 113.59037401385872 116.0094264158162 l 11.523279668958535 13.574394475158568 a38.80590238365494,38.80590238365494 0 0,0 -0.5115461793239897,0.426750016562401 l -11.288559155472651 -13.770206675632839" fill="red" stroke="none" /><path d="M 113.31354834802062 116.24036423190432 l 11.451689742932027 13.969199467670784 a39.063214878197854,39.063214878197854 0 0,0 -0.5222365468810136,0.42067679498187366 l -11.21020242569576 -14.163724556446061" fill="red" stroke="none" /><path d="M 112.16784306229584 117.11559508785304 l 17.973588839625737 25.28210359713045 a52.01990744783026,52.01990744783026 0 0,0 -0.7322542856316853,0.5111703611046438 l -17.536939462820296 -25.586918774040218" fill="red" stroke="none" /><path d="M 111.8722381534696 117.32195027204791 l 16.560457463294547 24.162202354214042 a50.29267440845193,50.29267440845193 0 0,0 -0.71632026652842,0.48197224367809677 l -16.143240908669124 -24.44292427194926" fill="red" stroke="none" /><line stroke="#e1ed5e" stroke-width="0.3" x1="143.1302829299769" x2="145.66735839644613" y1="173.24464959558577" y2="177.55315839532614" /><path d="M 143.63769802327073 174.10635135553383 a86.0,86.0 0 0,1 -40.68552437913181,11.842963189579606" fill="none" id="id42" stroke="none" /><text fill="#e1ed5e" style="font-size:6.75px; font-family:Arial;" text-anchor="middle"><textPath startOffset="21.407464694133747" xlink:href="#id42">June</textPath></text><path d="M 110.65571695917076 118.09573695890943 l 14.88990606955111 25.286315750492136 a50.3446258622195,50.3446258622195 0 0,0 -0.7484748284254812,0.4321321436731122 l -14.45363877326523 -25.53819479144142" fill="red" stroke="none" /><path d="M 110.34350942703117 118.27599006163325 l 16.231895130710818 28.680203385814583 a53.95494630227887,53.95494630227887 0 0,0 -0.809981447596155,0.44928305513527567 l -15.737169494958568 -28.954619356383002" fill="red" stroke="none" /><path d="M 110.02825361518725 118.45085714620011 l 15.218230208954823 27.999829519486024 a52.86824412817603,52.86824412817603 0 0,0 -0.8011079319672606,0.4265448511888538 l -14.735333461201009 -28.256944838397445" fill="red" stroke="none" /><path d="M 109.71004243097381 118.62028667847754 l 3.9203035188005666 7.517698908694679 a29.47847725486772,29.47847725486772 0 0,0 -0.4507017424701595,0.23013152108232005 l -3.7906745546168246 -7.583888381449835" fill="red" stroke="none" /><path d="M 108.4095320186766 119.2426549942271 l 12.361833396411381 28.286294007201256 a51.86955382869117,51.86955382869117 0 0,0 -0.818958319816822,0.3495646084579012 l -11.874440001424128 -28.494333265318563" fill="red" stroke="none" /><path d="M 107.74402155503746 119.51999308798841 l 9.09024934828636 22.913366548058683 a45.650659215925955,45.650659215925955 0 0,0 -0.7309056125642712,0.282729992580739 l -8.69557147322856 -23.066036428777462" fill="red" stroke="none" /><path d="M 107.407793817531 119.65005319985036 l 10.858899950923082 28.80452223474675 a51.78337553479438,51.78337553479438 0 0,0 -0.8344788592829853,0.3064321958653057 l -10.36283193998597 -28.986685279620776" fill="red" stroke="none" /><path d="M 106.38641147887787 120.00534299687104 l 2.681776094101983 8.40062541863428 a29.818300881865014,29.818300881865014 0 0,0 -0.4889624390725011,0.1514818135183574 l -2.5371730221578574 -8.445423819959283" fill="red" stroke="none" /><path d="M 105.69591212413111 120.21278271476187 l 8.079777089496961 28.672278492819306 a50.78896359032567,50.78896359032567 0 0,0 -0.8412069601888501,0.2292746976806683 l -7.586388728373415 -28.806753684644118" fill="red" stroke="none" /><path d="M 105.3480935250658 120.30758222061773 l 7.42575446899835 28.196799237434437 a50.15821182222998,50.15821182222998 0 0,0 -0.834524462474593,0.21213285497851309 l -6.94062471329836 -28.32011732424822" fill="red" stroke="none" /><path d="M 104.9986988182912 120.39639698878246 l 7.363256922243205 30.044600960338123 a51.93372915393346,51.93372915393346 0 0,0 -0.867708366499861,0.20477681184657884 l -6.846416402003465 -30.166573915830927" fill="red" stroke="none" /><path d="M 104.64783097203109 120.47920084513623 l 6.829101510288922 30.090281308124727 a51.85549637649524,51.85549637649524 0 0,0 -0.8697835585081829,0.18956527831313189 l -6.311555535161603 -30.203078044571576" fill="red" stroke="none" /><path d="M 104.29559338865022 120.5559693870025 l 6.304429343387889 30.168976637223892 a51.82065834279228,51.82065834279228 0 0,0 -0.8723230879179293,0.174489048416503 l -5.785609769939001 -30.272755082303256" fill="red" stroke="none" /><path d="M 103.94208987418118 120.62667999033965 l 5.359264242640267 28.041935127004734 a49.54946302278879,49.54946302278879 0 0,0 -0.8368320716847346,0.15249867980396262 l -4.877097437404474 -28.12980198074006" fill="red" stroke="none" /><path d="M 103.2317021107853 120.74984581791261 l 3.3528474386089155 21.52768572633461 a42.78721732297214,42.78721732297214 0 0,0 -0.7267202961910523,0.10680285755226977 l -2.982802036810178 -21.582069657185762" fill="red" stroke="none" /><line stroke="#e1ed5e" stroke-width="0.3" x1="101.45913802915013" x2="101.54496967792366" y1="184.9874750549273" y2="189.98673829345242" /><path d="M 101.47630435890484 185.9873277026323 a86.0,86.0 0 0,1 -42.54439059252881,-10.42667462771756" fill="none" id="id43" stroke="none" /><text fill="#e1ed5e" style="font-size:6.75px; font-family:Arial;" text-anchor="middle"><textPath startOffset="22.145653131862474" xlink:href="#id43">July</textPath></text><path d="M 100.36049292484886 120.99690560180557 l 0.42485054879084605 24.745414550304517 a45.74906138129748,45.74906138129748 0 0,0 -0.7853434736396953,0.006741229187398992 l -3.030885880250733e-15 -24.74906138129748" fill="red" stroke="none" /><path d="M 99.63950707515114 120.99690560180557 l -0.22488446553189106 13.098392696792708 a34.10032305946041,34.10032305946041 0 0,0 -0.5852048769769489,-0.015072801766314608 l 0.44970265657958386 -13.092602177676346" fill="red" stroke="none" /><path d="M 98.55909050195518 120.95050786540614 l -1.9758983646171242 28.729128571450723 a49.79699642015193,49.79699642015193 0 0,0 -0.8523135466890084,-0.06597445892133078 l 2.468780906081369 -28.690976345534338" fill="red" stroke="none" /><path d="M 98.19965949673042 120.92268563240118 l -2.640279333486163 30.684048031987636 a51.7974329869903,51.7974329869903 0 0,0 -0.8852438721222016,-0.08383351507455664 l 3.16662276899338 -30.634202761407895" fill="red" stroke="none" /><path d="M 97.84075906011543 120.88869738790638 l -3.16970210209546 30.663992515824724 a51.82738147210338,51.82738147210338 0 0,0 -0.884185242642598,-0.09907480067203331 l 3.6956232463388576 -30.60506195464572" fill="red" stroke="none" /><path d="M 93.61358852112213 120.00534299687104 l -1.9380980962850958 6.071064682568594 a27.372915393346723,27.372915393346723 0 0,0 -0.44640957745301546,-0.14674369492968548 l 2.0420304113858547 -6.036900066236887" fill="red" stroke="none" /><line stroke="#e1ed5e" stroke-width="0.3" x1="58.13341422392154" x2="55.67067388415222" y1="173.97424548756322" y2="178.32567169271397" /><path d="M 57.64086615596768 174.84453072859336 a86.0,86.0 0 0,1 -31.369924170532247,-30.572349798747897" fill="none" id="id44" stroke="none" /><text fill="#e1ed5e" style="font-size:6.75px; font-family:Arial;" text-anchor="middle"><textPath startOffset="22.145653131862474" xlink:href="#id44">August</textPath></text><line stroke="#e1ed5e" stroke-width="0.3" x1="26.387840678322732" x2="22.057713659400548" y1="142.50000000000003" y2="145.00000000000006" /><path d="M 25.521815274538298 143.00000000000003 a86.0,86.0 0 0,1 -11.493303480769221,-40.785679425670985" fill="none" id="id45" stroke="none" /><text fill="#e1ed5e" style="font-size:6.75px; font-family:Arial;" text-anchor="middle"><textPath startOffset="21.40746469413373" xlink:href="#id45">September</textPath></text><path d="M 81.63589988554817 110.18625677009913 l -11.699704633585101 6.489628938486858 a34.37902732908408,34.37902732908408 0 0,0 -0.2818337824001666,-0.5185424160158315 l 11.809383765600597 -6.287831688996439" fill="red" stroke="none" /><path d="M 80.5471966667186 107.91128576633889 l -26.89162236165777 10.936588705421139 a50.03047236531913,50.03047236531913 0 0,0 -0.31671987087220094,-0.798340971330632 l 27.075400907496096 -10.473346716876943" fill="red" stroke="none" /><path d="M 80.41425534168474 107.57618678355246 l -10.428173485235876 4.033841526770533 a32.181175237928926,32.181175237928926 0 0,0 -0.1948789547169156,-0.5169395803992458 l 10.495883123767227 -3.8542336661771426" fill="red" stroke="none" /><path d="M 79.48165901384964 104.47187691870673 l -17.4799138218693 3.809665860108405 a38.89024709683052,38.89024709683052 0 0,0 -0.13656456416791932,-0.6535108764722319 l 17.542736096861585 -3.509038532350764" fill="red" stroke="none" /><path d="M 79.34024301695615 103.76489593502545 l -22.66987274876215 4.131205988018557 a44.043220116999905,44.043220116999905 0 0,0 -0.12916236900643505,-0.7449742208652512 l 22.73744993526082 -3.741438734232714" fill="red" stroke="none" /><path d="M 79.17382384314188 102.69636545807758 l -17.058443947217857 2.208557090912931 a38.20082074565616,38.20082074565616 0 0,0 -0.07861713218075753,-0.6510626329326726 l 17.093843165658274 -1.9154007810568592" fill="red" stroke="none" /><path d="M 79.13060592940153 102.33845913500099 l -24.215518577566865 2.713399365354613 a45.367065397712395,45.367065397712395 0 0,0 -0.08007850354385672,-0.7746868804244842 l 24.258529473592386 -2.2973079626471975" fill="red" stroke="none" /><line stroke="#e1ed5e" stroke-width="0.3" x1="15.003131293944662" x2="10.003315487706104" y1="100.72959589197737" y2="100.7725132973878" /><path d="M 14.003168132696942 100.73817937305945 a86.0,86.0 0 0,1 10.791469493833604,-42.45332614584628" fill="none" id="id46" stroke="none" /><text fill="#e1ed5e" style="font-size:6.75px; font-family:Arial;" text-anchor="middle"><textPath startOffset="22.145653131862435" xlink:href="#id46">October</textPath></text><path d="M 79.00077361379809 99.81974689727619 l -29.813535386516353 -0.2559133445085816 a50.8146337204226,50.8146337204226 0 0,0 0.014974754122265095,-0.8722043542109196 l 29.80474920079542 0.7676646146885536" fill="red" stroke="none" /><path d="M 79.00696218219943 99.45929381324524 l -36.63379497306926 -0.9435566094892743 a57.64594429407142,57.64594429407142 0 0,0 0.033970790666726466,-0.9890225048780275 l 36.61219949540568 1.5722853789314402" fill="red" stroke="none" /><path d="M 79.03789590574601 98.7389718711861 l -33.63307647219169 -2.023282362270534 a54.693879332925874,54.693879332925874 0 0,0 0.06442428205774149,-0.936714921933174 l 33.593388228968884 2.6003407083580328" fill="red" stroke="none" /><path d="M 79.06263194458094 98.37931529534042 l -29.604447593596102 -2.2915714753564416 a50.6930061992491,50.6930061992491 0 0,0 0.07460653219903043,-0.8670409939059247 l 29.560747438699327 2.799433516638047" fill="red" stroke="none" /><path d="M 79.2786578344484 96.59031103205396 l -30.530493489009704 -5.023781085401212 a51.94106347681829,51.94106347681829 0 0,0 0.1523238035174903,-0.8785632202133143 l 30.43975486799998 5.547137338535119" fill="red" stroke="none" /><path d="M 79.34024301695615 96.23510406497455 l -28.465716561433066 -5.187401800402797 a49.93451497424256,49.93451497424256 0 0,0 0.16091684625709685,-0.8419849366040398 l 28.372473422893812 5.6752893020401505" fill="red" stroke="none" /><path d="M 79.407916724674 95.88100663000787 l -28.259801003563755 -5.652751662598999 a49.819610582380164,49.819610582380164 0 0,0 0.17494343477063398,-0.8371676656137762 l 28.158599857968756 6.137035779498184" fill="red" stroke="none" /><path d="M 79.64726062577567 94.8264132398404 l -28.132735268780703 -7.151231293118536 a50.02741639745045,50.02741639745045 0 0,0 0.21871633683086236,-0.8305015558100887 l 28.005829451145114 7.633113353301408" fill="red" stroke="none" /><line stroke="#e1ed5e" stroke-width="0.3" x1="26.387840678322718" x2="22.05771365940052" y1="57.49999999999999" y2="54.99999999999999" /><path d="M 25.521815274538284 56.99999999999999 a86.0,86.0 0 0,1 29.574782752854787,-30.34633250058573" fill="none" id="id47" stroke="none" /><text fill="#e1ed5e" style="font-size:6.75px; font-family:Arial;" text-anchor="middle"><textPath startOffset="21.40746469413373" xlink:href="#id47">November</textPath></text><path d="M 81.81346652052679 89.5 l -25.346498506884778 -14.633807735964378 a50.26761547192875,50.26761547192875 0 0,0 0.43786992375727746,-0.7435988580486947 l 25.091554872997722 15.066757762306645" fill="red" stroke="none" /><path d="M 83.64595745247003 86.82634096563983 l -9.029731399900784 -7.273712434612377 a32.59495328734829,32.59495328734829 0 0,0 0.3547466785996061,-0.4327332668884244 l 8.90353790206255 7.427647983199295" fill="red" stroke="none" /><path d="M 84.34580500576568 86.00192230759919 l -21.478217073203346 -19.20595414811721 a49.81288745306906,49.81288745306906 0 0,0 0.575462905896187,-0.6325345398432821 l 21.145356466465294 19.57182626351815" fill="red" stroke="none" /><path d="M 84.58840730492382 85.73525988315684 l -21.013035390617702 -19.44935185115258 a49.6325853488169,49.6325853488169 0 0,0 0.5841144726450807,-0.6203093280871396 l 20.676065084236352 19.807202639184233" fill="red" stroke="none" /><path d="M 85.86807049272753 84.46653392183569 l -18.812547621675137 -20.678285309501362 a48.95538286911726,48.95538286911726 0 0,0 0.6264773096277527,-0.5601998733199264 l 18.45480528522399 20.99818071270469" fill="red" stroke="none" /><path d="M 86.13680546590413 84.22622945171909 l -18.295430395356185 -20.81684134408014 a48.71396140749148,48.71396140749148 0 0,0 0.6328651568573497,-0.5466538493601433 l 17.935385758735986 21.127839325904993" fill="red" stroke="none" /><path d="M 86.40962598614128 83.9905735841838 l -19.12635802672192 -22.53080166293525 a50.554265258011,50.554265258011 0 0,0 0.6664151495716365,-0.555947219648785 l 18.736768542988376 22.855811066495917" fill="red" stroke="none" /><path d="M 86.68645165197937 83.75963576809568 l -18.27566308199869 -22.293337378787715 a49.826944905264995,49.826944905264995 0 0,0 0.6661369713192747,-0.5365927907327613 l 17.89027534032417 22.603778463313876" fill="red" stroke="none" /><path d="M 86.96720088162412 83.53348406188908 l -17.769274644181625 -22.450898036518648 a49.63197415524317,49.63197415524317 0 0,0 0.6726079177477505,-0.5230239850732717 l 17.381256781798626 22.752623073212725" fill="red" stroke="none" /><path d="M 87.25179093698888 83.31218511350988 l -17.272916112791975 -22.61080165970082 a49.453505631712204,49.453505631712204 0 0,0 0.679036692228071,-0.5095617930378618 l 16.88222643165315 22.903982480002682" fill="red" stroke="none" /><path d="M 87.83215693770416 82.88440491214696 l -16.443002451336138 -23.12914216141635 a49.37832882214268,49.37832882214268 0 0,0 0.6950703042600628,-0.48521305425372735 l 16.04353705590231 23.408000031475204" fill="red" stroke="none" /><path d="M 88.12776184653039 82.6780497279521 l -17.48096278768826 -25.505247132139342 a51.92089408888501,51.92089408888501 0 0,0 0.7395110546337423,-0.4975760408873526 l 17.040555444957526 25.801572847083804" fill="red" stroke="none" /><path d="M 88.4268655584334 82.4767994020092 l -19.17302478776605 -29.0304032259039 a55.7903606042085,55.7903606042085 0 0,0 0.8036850316349838,-0.5209389276587131 l 18.67185412387404 29.35525599526652" fill="red" stroke="none" /><path d="M 88.72937992617638 82.28071324371311 l -15.656645889682514 -24.614847838341433 a50.172269274425915,50.172269274425915 0 0,0 0.7306895087686613,-0.45600429503405654 l 15.231792252124155 24.879987930217027" fill="red" stroke="none" /><path d="M 89.03521579738668 82.08984904055464 l -9.118970534348371 -14.895153050617045 a38.46485636951017,38.46485636951017 0 0,0 0.5661060536923204,-0.33993041969417614 l 8.861931724098616 15.049497470847145" fill="red" stroke="none" /><line stroke="#e1ed5e" stroke-width="0.3" x1="56.869717070023135" x2="54.33264160355391" y1="26.7553504044142" y2="22.446841604673864" /><path d="M 56.362301976729285 25.89364864446614 a86.0,86.0 0 0,1 42.16139366436587,-11.88097634709845" fill="none" id="id48" stroke="none" /><text fill="#e1ed5e" style="font-size:6.75px; font-family:Arial;" text-anchor="middle"><textPath startOffset="22.145653131862474" xlink:href="#id48">December</textPath></text><path d="M 89.34428304082924 81.90426304109057 l -15.005273999607605 -25.482235717566684 a50.57198987164934,50.57198987164934 0 0,0 0.7518550549150715,-0.4340837183467951 l 14.565626476832135 25.736066333189655" fill="red" stroke="none" /><path d="M 89.65649057296885 81.72400993836675 l -20.14092827806666 -35.58709040087056 a61.89129485724264,61.89129485724264 0 0,0 0.9291233526804791,-0.5153690615120734 l 19.527060737230077 35.92759237781578" fill="red" stroke="none" /><path d="M 89.97174638481275 81.54914285379989 l -13.554297211481598 -24.93838021681461 a49.383829564306296,49.383829564306296 0 0,0 0.7483088993644049,-0.398432340245165 l 13.124199496330633 25.167383024782353" fill="red" stroke="none" /><path d="M 90.28995756902619 81.37971332152246 l -11.513348136961884 -22.078363144479606 a45.9000261940103,45.9000261940103 0 0,0 0.701773758739535,-0.35833068154841075 l 11.132647156508767 22.27275177770085" fill="red" stroke="none" /><path d="M 90.61103034731259 81.2157712731953 l -13.843121558703425 -27.695516256910828 a51.96245525189906,51.96245525189906 0 0,0 0.8013099312622244,-0.39196084153307853 l 13.365651378179148 27.929070848541123" fill="red" stroke="none" /><path d="M 90.93487009805054 81.0573650232925 l -27.195389705848363 -56.827904930122465 a84.0,84.0 0 0,0 1.3060451445139099,-0.6112950737178284 l 26.215855847462933 57.286376235410835" fill="red" stroke="none" /><path d="M 91.5904679813234 80.7573450057729 l -11.877463540916146 -27.177960987218857 a50.660001746267355,50.660001746267355 0 0,0 0.7998609367079506,-0.34141307120931896 l 11.409167529037765 27.37784870808758" fill="red" stroke="none" /><path d="M 91.92203290615298 80.6158196554323 l -10.974458685458986 -26.334705733696417 a49.529904828429224,49.529904828429224 0 0,0 0.787632893100761,-0.32032344076740854 l 10.520771331167783 26.519216431043116" fill="red" stroke="none" /><path d="M 92.592206182469 80.34994680014964 l -6.1827557060838885 -16.400494065953858 a38.52719811403125,38.52719811403125 0 0,0 0.6208581808647063,-0.22798772379540166 l 5.900308373565055 16.504212638757984" fill="red" stroke="none" /><path d="M 96.76829788921471 79.25015418208739 l -5.468752170534346 -35.11331195293499 a56.53662795774033,56.53662795774033 0 0,0 0.9602474193392686,-0.1411233027069054 l 4.865179645587393 35.202016328940786" fill="red" stroke="none" /><path d="M 97.84075906011542 79.11130261209362 l -3.22456450613864 -31.194736507781478 a52.36095346197503,52.36095346197503 0 0,0 0.8948747170990342,-0.08474556610701453 l 2.68859022565459 31.245493829393677" fill="red" stroke="none" /></svg>