<?xml version="1.0" encoding="utf-8" ?>
<svg baseProfile="full" height="200mm" version="1.1" viewBox="0,0,200,200" width="200mm" xmlns="http://www.w3.org/2000/svg" xmlns:ev="http://www.w3.org/2001/xml-events" xmlns:xlink="http://www.w3.org/1999/xlink"><defs /><rect fill="#1a1a1a" height="200" width="200" x="0" y="0" /><text alignment-baseline="middle" fill="#e1ed5e" style="dominant-baseline: central; font-size:9.0px; font-family:Arial;" text-anchor="middle" x="100.0" y="100.0">2023</text><line stroke="#e1ed5e" stroke-width="0.3" x1="100.0" x2="100.0" y1="15.0" y2="10.0" /><path d="M 100.0 14.0 a86.0,86.0 0 0,1 42.46469731375804,11.215312516191453" fill="none" id="id73" stroke="none" /><text fill="#e1ed5e" style="font-size:6.75px; font-family:Arial;" text-anchor="middle"><textPath startOffset="22.20632615414155" xlink:href="#id73">January</textPath></text><path d="M 100.0 79.0 l 0.0 -27.335217852192116 a48.335217852192116,48.335217852192116 0 0,0 0.8320113197596417,0.007161384104519409 l -0.4705308404871133 27.331167844696157" fill="red" stroke="none" /><path d="M 100.36148047927253 79.00311137660856 l 0.49126210115589186 -28.535360038312955 a49.539588486314585,49.539588486314585 0 0,0 0.852489894398147,0.022017298882130526 l -0.9823786307489066 28.522675947288466" fill="red" stroke="none" /><path d="M 101.08401301168833 79.027996857942 l 1.4802165116794403 -28.637207302076863 a49.67543692750945,49.67543692750945 0 0,0 0.8535610897104569,0.05148913590556158 l -1.9729396502295091 28.607484896790996" fill="red" stroke="none" /><path d="M 102.16513564639614 79.11191278185805 l 3.3351245509108636 -32.17552332979643 a53.34791117392841,53.34791117392841 0 0,0 0.9125879043752697,0.10253988423193812 l -3.888479158795859 32.11334749209389" fill="red" stroke="none" /><path d="M 103.59715602781102 79.31037775812273 l 4.654763506619215 -26.77262199155482 a48.1742545731293,48.1742545731293 0 0,0 0.8157619030207461,0.1490752735581805 l -5.114920530742862 26.688531236645904" fill="red" stroke="none" /><path d="M 105.36241919743992 79.69619591428918 l 6.437351696722891 -24.37383629826601 a46.20958930173141,46.20958930173141 0 0,0 0.7673038727437701,0.20973313349258646 l -6.855953458690372 24.259416623947132" fill="red" stroke="none" /><path d="M 106.74666289553966 80.11325718540242 l 8.647193303774628 -25.48882491430918 a47.91568590144329,47.91568590144329 0 0,0 0.7787850421816322,0.27170280937201685 l -9.084660350019535 25.336201251764955" fill="red" stroke="none" /><path d="M 107.76421540070413 80.48803036053334 l 11.305605921190564 -28.41171040541187 a51.57845668777691,51.57845668777691 0 0,0 0.8221019731016973,0.3353560365794141 l -11.792991763880648 28.212893482648877" fill="red" stroke="none" /><path d="M 108.43124777332544 80.76684994638697 l 9.083454322831674 -20.720947206519515 a43.62447337664102,43.62447337664102 0 0,0 0.6851491139088614,0.3074064357936057 l -9.438785555207316 20.561520440209378" fill="red" stroke="none" /><path d="M 109.41281617654863 81.2277094730956 l 13.191400126738797 -26.3080454341331 a50.43002364708761,50.43002364708761 0 0,0 0.772634819957214,0.39577356408130426 l -13.642295434284767 26.077079344739296" fill="red" stroke="none" /><path d="M 109.73455568895987 81.39251694778311 l 14.60540550761286 -27.918052362870615 a52.507705688891306,52.507705688891306 0 0,0 0.7972543835398367,0.4258656810191932 l -15.083804937681007 27.662507955349668" fill="red" stroke="none" /><path d="M 110.05341064243156 81.56283822128135 l 14.978600863387399 -27.469571985008912 a52.28795085754668,52.28795085754668 0 0,0 0.7865001956040106,0.4376865073279378 l -15.449225148063444 27.207670080120796" fill="red" stroke="none" /><line stroke="#e1ed5e" stroke-width="0.3" x1="143.23703022742887" x2="145.7803849466894" y1="26.81831364943548" y2="22.513508569990506" /><path d="M 143.74570117128098 25.957352633546492 a86.0,86.0 0 0,1 28.547481713284135,27.462654790039103" fill="none" id="id74" stroke="none" /><text fill="#e1ed5e" style="font-size:6.75px; font-family:Arial;" text-anchor="middle"><textPath startOffset="19.985693538727396" xlink:href="#id74">February</textPath></text><path d="M 110.68208982089419 81.91981866633111 l 12.298151138691944 -20.815477718741345 a45.17702699029654,45.17702699029654 0 0,0 0.666120061509783,0.4013298837914048 l -12.654633266419365 20.600701225491324" fill="red" stroke="none" /><path d="M 111.2981086023043 82.29822771554956 l 17.02378158999051 -26.67270387760036 a52.642412546546716,52.642412546546716 0 0,0 0.7596374687557609,0.4940893403696342 l -17.48038608453055 26.375715613071193" fill="red" stroke="none" /><path d="M 111.60114157652 82.49532879139004 l 29.78596489520962 -44.943294475184324 a74.91756136011526,74.91756136011526 0 0,0 1.0688071280952562,0.7216633439421314 l -30.55517671771142 44.423919218943524" fill="red" stroke="none" /><path d="M 111.90073688211348 82.69761687909136 l 15.507089400356602 -22.545629279344407 a48.36375744067843,48.36375744067843 0 0,0 0.6818572643292564,0.47768458828977123 l -15.89287780426951 22.2753598482907" fill="red" stroke="none" /><path d="M 112.19680574252982 82.90503203632743 l 18.541359255631818 -25.98745517219546 a52.92381288902177,52.92381288902177 0 0,0 0.7370389026576257,0.5354901075751654 l -18.985943474643232 25.664445829803622" fill="red" stroke="none" /><path d="M 112.77801427241765 83.33499621200491 l 28.96525873966695 -37.77630360444714 a68.60289201163327,68.60289201163327 0 0,0 0.9309328973918412,0.7266078926272708 l -29.611224192218224 37.27211732259665" fill="red" stroke="none" /><path d="M 113.34407831869373 83.78471172551755 l 19.74753847787771 -23.99656398011665 a52.07732869451769,52.07732869451769 0 0,0 0.6872780544280126,0.5755756055247236 l -20.15767406926484 23.653087217198106" fill="red" stroke="none" /><path d="M 114.16331599549186 84.49514656593476 l 21.312150711489895 -23.330819791886213 a52.59960316381724,52.59960316381724 0 0,0 0.6632362015856399,0.616405767281393 l -21.71059479687038 22.96050943853018" fill="red" stroke="none" /><path d="M 114.68862486808459 84.99185889309783 l 22.225573041814595 -22.70903773423221 a52.77540702889293,52.77540702889293 0 0,0 0.6437699958285819,0.641005442877063 l -22.6131788378105 22.32309644070503" fill="red" stroke="none" /><path d="M 115.19652480421416 85.50635884689758 l 8.251914124068126 -7.87023899749069 a32.403277975591855,32.403277975591855 0 0,0 0.38148329480195675,0.4069397807412059 l -8.386164740840545 7.7270297998714295" fill="red" stroke="none" /><path d="M 115.4437574822437 85.77008943001954 l 31.722017692728006 -29.228733705890676 a64.13473403821587,64.13473403821587 0 0,0 0.7410810034177276,0.818320153559463 l -32.22044233676177 28.678360765061665" fill="red" stroke="none" /><path d="M 115.68641384162765 86.03803664274999 l 8.959218669079997 -7.974307195398188 a32.994047457258574,32.994047457258574 0 0,0 0.37394532134886427,0.4274841452867497 l -9.095155854006709 7.81890749390849" fill="red" stroke="none" /><path d="M 115.9244219780498 86.31012108654704 l 23.92190899629956 -20.56514440457499 a52.5465195292327,52.5465195292327 0 0,0 0.5837402525886624,0.6909643379112849 l -24.27235986237534 20.1503211170346" fill="red" stroke="none" /><path d="M 116.38621287248628 86.86637796730983 l 12.636504352101896 -10.128214082560559 a37.19450409067435,37.19450409067435 0 0,0 0.39611424115287763,0.5030248602331592 l -12.80897267384874 9.909196828374363" fill="red" stroke="none" /><path d="M 116.60985879189232 87.15038557335679 l 13.726350104881472 -10.618892583176871 a38.35435296675818,38.35435296675818 0 0,0 0.39947713290317455,0.5256650807174024 l -13.907103178008759 10.381042726578434" fill="red" stroke="none" /><path d="M 116.82858285166822 87.43820079747576 l 27.133122398904796 -20.253686143201747 a54.8587969883939,54.8587969883939 0 0,0 0.5583512356640311,0.761590457957999 l -27.477736247082454 19.783633241572257" fill="red" stroke="none" /><path d="M 117.04232023915458 87.72973835380427 l 24.594192894394645 -17.707517377704235 a51.30561822184774,51.30561822184774 0 0,0 0.5098492883837892,0.7211456611039866 l -24.895354802582318 17.281545216268455" fill="red" stroke="none" /><path d="M 117.2510076193507 88.02491185347247 l 23.7526648629678 -16.48832704299 a49.91459867902476,49.91459867902476 0 0,0 0.48387576652443814,0.7100279802410779 l -24.03296509516097 16.077021039478517" fill="red" stroke="none" /><path d="M 117.45458315368197 88.32363383020206 l 25.986648697858975 -17.38395142699796 a52.26511918675763,52.26511918675763 0 0,0 0.49378930952722805,0.7520749953472399 l -26.28203464274413 16.934058367673046" fill="red" stroke="none" /><line stroke="#e1ed5e" stroke-width="0.3" x1="172.23445277983987" x2="176.4835382374775" y1="55.19839476539836" y2="52.563006222186495" /><path d="M 173.08426987136738 54.67131705675599 a86.0,86.0 0 0,1 12.851231095245387,41.99856678651699" fill="none" id="id75" stroke="none" /><text fill="#e1ed5e" style="font-size:6.75px; font-family:Arial;" text-anchor="middle"><textPath startOffset="22.20632615414155" xlink:href="#id75">March</textPath></text><path d="M 117.84615892207809 88.93136811851018 l 38.80548812933181 -24.068129447940677 a66.66334157810334,66.66334157810334 0 0,0 0.5964280340940344,0.9803708678582195 l -39.214031961712074 23.396590806875373" fill="red" stroke="none" /><path d="M 118.03404312379186 89.2402003453031 l 14.70526198564203 -8.773721552578268 a38.12375309178876,38.12375309178876 0 0,0 0.33138677618038026,0.5664474210940442 l -14.854108436292737 8.519294719130327" fill="red" stroke="none" /><path d="M 118.3937258080291 89.86733742301442 l 9.633070828982762 -5.306627776721435 a31.99801581908619,31.99801581908619 0 0,0 0.2616095312960257,0.48472272988952997 l -9.722988459497252 5.140024063499447" fill="red" stroke="none" /><path d="M 118.56541770881063 90.18545643968196 l 16.174030833703853 -8.550345198426626 a39.2950178032671,39.2950178032671 0 0,0 0.31097434679563235,0.6007034568625772 l -16.3188146136596 8.270669019303703" fill="red" stroke="none" /><path d="M 118.73160827565052 90.50648371742162 l 28.817075600060328 -14.605012682284718 a53.30681416650812,53.30681416650812 0 0,0 0.4077717112953783,0.8220428874043809 l -29.064207324309116 14.106810206381386" fill="red" stroke="none" /><path d="M 119.04729006885535 91.15688171328212 l 29.18209886415617 -13.548423485836938 a53.173819684161884,53.173819684161884 0 0,0 0.3782878790010742,0.8335071974203233 l -29.410989060120592 13.044094279574551" fill="red" stroke="none" /><path d="M 119.47837535516314 92.15188598940014 l 10.786671182791814 -4.346102983119821 a32.62931151640347,32.62931151640347 0 0,0 0.2054193069232311,0.5227697299647328 l -10.859884039596745 4.159784248259305" fill="red" stroke="none" /><path d="M 119.61058180528143 92.48833698450437 l 15.770658146635364 -6.040813613097479 a37.888016090891796,37.888016090891796 0 0,0 0.228041494507872,0.6110378301831132 l -15.872304229644861 5.7684526458850325" fill="red" stroke="none" /><path d="M 119.7369772167798 92.82701384747503 l 30.041877745635322 -10.918083893925097 a52.96433910467234,52.96433910467234 0 0,0 0.30403275742918,0.8595415467437147 l -30.225363583874312 10.399344720754767" fill="red" stroke="none" /><path d="M 119.97218684219823 93.5106431181261 l 30.511178317136018 -9.913682790511874 a53.08135141746623,53.08135141746623 0 0,0 0.27487170861058136,0.8714184317634401 l -30.677305509514806 9.387014192322015" fill="red" stroke="none" /><path d="M 120.08093135843002 93.85539295169968 l 43.82152526363162 -13.409042050688686 a66.82715881601479,66.82715881601479 0 0,0 0.3271160875745731,1.1028728291834897 l -44.04584724831789 12.652739834758666" fill="red" stroke="none" /><path d="M 120.18372546131832 94.20196356495316 l 30.01746955346398 -8.622906732081848 a52.23144247234379,52.23144247234379 0 0,0 0.2407949820821346,0.8662676675828864 l -30.161451306112475 8.10492776108001" fill="red" stroke="none" /><path d="M 120.45610955862082 95.25157060432595 l 10.330082343225692 -2.3978981202530036 a31.604740289744775,31.604740289744775 0 0,0 0.11845097419741728,0.530992491425036 l -10.369827704425147 2.219727459278004" fill="red" stroke="none" /><path d="M 120.53481517161879 95.60439243477599 l 11.344911885469916 -2.4284504191444483 a32.60191351145661,32.60191351145661 0 0,0 0.1127416149390645,0.5497681538124652 l -11.385032796323976 2.232806609168571" fill="red" stroke="none" /><path d="M 120.67395015179393 96.31383870115 l 46.141721312664934 -8.227059953044751 a67.869424587535,67.869424587535 0 0,0 0.19516705764451636,1.1518870219916177 l -46.27650023182967 7.431587142737295" fill="red" stroke="none" /><path d="M 120.73433829027371 96.67025291283417 l 30.69658171820904 -4.929593225075384 a52.08988611345166,52.08988611345166 0 0,0 0.13455092062251453,0.8865224539210942 l -30.776888532270853 4.400471658762208" fill="red" stroke="none" /><path d="M 120.78858239683441 97.02765380044208 l 26.221493156138674 -3.7491423917992037 a47.4881628659183,47.4881628659183 0 0,0 0.10873432704697351,0.8101970344716404 l -26.282143482243484 3.297227015262899" fill="red" stroke="none" /><path d="M 120.83666639777658 97.38593545837742 l 28.34423210050079 -3.5559263981567537 a49.56641569949173,49.56641569949173 0 0,0 0.0989195707068127,0.8474824726521824 l -28.40124202421119 3.0675001871797183" fill="red" stroke="none" /><path d="M 120.87857604477298 97.74499172005257 l 30.51741744947711 -3.296059505380473 a51.69489820880107,51.69489820880107 0 0,0 0.08793763578966585,0.88551999159282 l -30.569632210949006 2.7702639830832183" fill="red" stroke="none" /><path d="M 120.94382443527127 98.46500227214037 l 30.899698033391974 -2.2646755094512483 a51.98257726074311,51.98257726074311 0 0,0 0.05772395141846851,0.8929639792180649 l -30.93410257581486 1.7324524659801483" fill="red" stroke="none" /><path d="M 120.98425023603335 99.18683210126433 l 31.069420866718627 -1.2039818147869876 a52.092740072300295,52.092740072300295 0 0,0 0.02700960335951752,0.8963172424072433 l -31.085542164533788 0.6689944249547454" fill="red" stroke="none" /><line stroke="#e1ed5e" stroke-width="0.3" x1="184.98032266829074" x2="189.97916517819016" y1="98.17113171792111" y2="98.06355123074" /><path d="M 185.9800911702706 98.14961562048488 a86.0,86.0 0 0,1 -9.607161424134198,41.387399972396054" fill="none" id="id76" stroke="none" /><text fill="#e1ed5e" style="font-size:6.75px; font-family:Arial;" text-anchor="middle"><textPath startOffset="21.466115282336823" xlink:href="#id76">April</textPath></text><path d="M 120.99980553446 99.90962569577887 l 26.856074860750656 -0.1155772169255631 a47.85632355739176,47.85632355739176 0 0,0 -0.0035452482034597694,0.8237908273340402 l -26.854085315257695 -0.3467230886121618" fill="red" stroke="none" /><path d="M 120.99824983174949 100.27111621757518 l 32.03986710893755 0.41367864711527746 a53.04253757712484,53.04253757712484 0 0,0 -0.019645787252524454,0.9128625369861164 l -32.02799925900002 -0.9651309998915086" fill="red" stroke="none" /><path d="M 120.9764740272857 100.99374915477107 l 23.440102204609005 1.110462212251583 a44.466391236987306,44.466391236987306 0 0,0 -0.042801334750585875,0.7642465842820667 l -23.41751451897089 -1.5137805128690731" fill="red" stroke="none" /><path d="M 120.92983693683757 101.71520430193887 l 30.871097040429127 2.529892545704514 a51.974586175966955,51.974586175966955 0 0,0 -0.08074723130108862,0.8910389688492516 l -30.822975212850963 -3.060912903102336" fill="red" stroke="none" /><path d="M 120.8583938346157 102.4346265915055 l 28.52346096092389 3.3293060380319557 a49.717104726699475,49.717104726699475 0 0,0 -0.10653307987227952,0.8491734654143496 l -28.461926371804765 -3.8197972577337005" fill="red" stroke="none" /><path d="M 120.41448212921028 104.9243191809786 l 55.66915138423203 13.428343085810123 a78.26582588132968,78.26582588132968 0 0,0 -0.3271835233206449,1.3069355363406232 l -55.429756546616325 -14.384606461548142" fill="red" stroke="none" /><path d="M 120.32669344350535 105.2749913415812 l 30.351088698838478 7.876427641264538 a52.35644586991384,52.35644586991384 0 0,0 -0.23388851918877288,0.8703861885662163 l -30.211012103307926 -8.397704763006303" fill="red" stroke="none" /><path d="M 120.13307415673323 105.97154293290107 l 31.37970893342267 9.307335663649981 a53.73091245141475,53.73091245141475 0 0,0 -0.27063295362745526,0.8844441511724241 l -31.21484920728908 -9.846106787374463" fill="red" stroke="none" /><path d="M 120.02730092923936 106.31721596034902 l 31.45654205642561 9.922344016218334 a53.98434399717322,53.98434399717322 0 0,0 -0.28716521658518096,0.8838036595335838 l -31.281084588824182 -10.462346575729713" fill="red" stroke="none" /><path d="M 119.9155931802556 106.66101706037122 l 31.82619079231192 10.64466410392394 a54.559131309287594,54.559131309287594 0 0,0 -0.30555495703545116,0.8880857322499857 l -31.63824500433324 -11.190922539263227" fill="red" stroke="none" /><path d="M 119.79798401119884 107.00284435728193 l 27.982255676180024 9.897744192293223 a50.68117202576717,50.68117202576717 0 0,0 -0.29799500804775386,0.8199542783840779 l -27.807736407127045 -10.377946267683432" fill="red" stroke="none" /><path d="M 119.67450827220406 107.3425965602758 l 31.147873360952353 11.624497275144027 a54.2463374194776,54.2463374194776 0 0,0 -0.3340172256875839,0.8720135761158575 l -30.943161855671264 -12.158934418093029" fill="red" stroke="none" /><path d="M 119.41010516605496 108.01547362559984 l 29.22146462280047 12.067110249102326 a52.61501454159985,52.61501454159985 0 0,0 -0.35289396060651124,0.8341370796830397 l -29.009419681001653 -12.56832185445153" fill="red" stroke="none" /><path d="M 119.12269723197855 108.67885076344098 l 9.260664199998962 4.202959529565058 a31.169796961213343,31.169796961213343 0 0,0 -0.22594448978311246,0.4866643300273877 l -9.186945093376018 -4.361743926871276" fill="red" stroke="none" /><line stroke="#e1ed5e" stroke-width="0.3" x1="174.80103733775053" x2="179.2010983576182" y1="140.37084112569926" y2="142.7455964860345" /><path d="M 175.68104954172406 140.8457921977663 a86.0,86.0 0 0,1 -30.038265399797805,32.042727171017184" fill="none" id="id77" stroke="none" /><text fill="#e1ed5e" style="font-size:6.75px; font-family:Arial;" text-anchor="middle"><textPath startOffset="22.206326154141568" xlink:href="#id77">May</textPath></text><path d="M 117.94076556474637 110.91462005526583 l 38.68351093257047 23.533880018051356 a66.27976950884728,66.27976950884728 0 0,0 -0.6013637983853611,0.9695899213991414 l -38.27268249451714 -24.196266270815773" fill="red" stroke="none" /><path d="M 117.55443506779139 111.5257021239791 l 38.24463016563155 25.11024783358486 a66.75124351064119,66.75124351064119 0 0,0 -0.6388948883624589,0.9550611717050885 l -37.806732171858364 -25.764845919495755" fill="red" stroke="none" /><path d="M 116.71984013943494 112.70617746262583 l 36.34500870189201 27.620247956660613 a66.6490717838602,66.6490717838602 0 0,0 -0.7020152532063555,0.9074493473776724 l -35.86418663146759 -28.241775298151538" fill="red" stroke="none" /><path d="M 116.27256486870786 113.27417163493432 l 35.426697515394885 28.898951521930215 a66.7187083797668,66.7187083797668 0 0,0 -0.73360079270592,0.8836694131305374 l -34.92400072279542 -29.504482192174525" fill="red" stroke="none" /><path d="M 115.80600337817218 113.82643327865902 l 8.19836271005571 7.171586155762283 a31.892419341686825,31.892419341686825 0 0,0 -0.36500289295612365,0.41008461960530634 l -8.073700967451249 -7.311644945108456" fill="red" stroke="none" /><path d="M 115.56566222782051 114.09645910891815 l 33.68463291545177 30.50522641066394 a66.44472833029818,66.44472833029818 0 0,0 -0.7750416606788073,0.8411546500798082 l -33.15454484677724 -31.080532315545085" fill="red" stroke="none" /><path d="M 115.07121518719521 114.62390073753431 l 33.43760731890939 32.44517739669963 a67.59144899567829,67.59144899567829 0 0,0 -0.8174039113587194,0.8280258466552046 l -32.87416278249514 -33.0159437373355" fill="red" stroke="none" /><path d="M 114.55890576462653 115.13401014063108 l 31.68563353753394 32.93727612651114 a66.70386779375391,66.70386779375391 0 0,0 -0.8343197989024882,0.788901445478463 l -31.113977904240645 -33.47781220873552" fill="red" stroke="none" /><path d="M 113.75828350139079 115.86535959552629 l 29.975339909787223 34.56605227089779 a66.75295588595037,66.75295588595037 0 0,0 -0.8745734621311593,0.7453304778942355 l -29.375900971079016 -35.07690713901497" fill="red" stroke="none" /><path d="M 113.20401910651253 116.32954008644616 l 28.952587028365063 35.80594867912764 a67.04691364735942,67.04691364735942 0 0,0 -0.903672692586279,0.7179322404722864 l -28.33195684306143 -36.29901483360505" fill="red" stroke="none" /><path d="M 112.63410532772338 116.77436683061366 l 6.384531169390148 8.476774975259417 a31.612160582751216,31.612160582751216 0 0,0 -0.437474713470921,0.3236333344824922 l -6.237671485500663 -8.585418258481678" fill="red" stroke="none" /><path d="M 112.04921762599082 117.19931262002967 l 6.188852313836226 8.834101018746455 a31.786252072517737,31.786252072517737 0 0,0 -0.4508245877829055,0.31008126231514876 l -6.035870841430437 -8.939323070426697" fill="red" stroke="none" /><path d="M 111.7513745106137 117.40417183066458 l 25.687506207838208 38.04404085145027 a66.90421570492784,66.90421570492784 0 0,0 -0.9599968072787526,0.6362335368384467 l -25.02883470181949 -38.48057240938004" fill="red" stroke="none" /><path d="M 111.1453310114006 117.79835938074945 l 16.411576405714104 26.208206339922857 a51.92264412492186,51.92264412492186 0 0,0 -0.7615835421423067,0.46782681434290335 l -15.95801366363949 -26.486821621094137" fill="red" stroke="none" /><line stroke="#e1ed5e" stroke-width="0.3" x1="143.8653032363475" x2="146.44561519142675" y1="172.8068346515853" y2="177.08958963109032" /><path d="M 144.38136562736335 173.6633856474863 a86.0,86.0 0 0,1 -40.68145358897372,12.25698825130547" fill="none" id="id78" stroke="none" /><text fill="#e1ed5e" style="font-size:6.75px; font-family:Arial;" text-anchor="middle"><textPath startOffset="21.466115282336833" xlink:href="#id78">June</textPath></text><path d="M 110.5260780823613 118.17145234162733 l 22.963049467761127 39.641731303616396 a66.8123182300019,66.8123182300019 0 0,0 -1.0001206962121119,0.5678946328560559 l -22.27728000462782 -40.03112910226708" fill="red" stroke="none" /><path d="M 109.57404056367764 118.69057910512821 l 5.336491257082908 10.417974659804417 a32.70522682177707,32.70522682177707 0 0,0 -0.5032650593241061,0.25234754835635914 l -5.1563722900760425 -10.508290049070078" fill="red" stroke="none" /><path d="M 109.2508944713604 118.85261126421891 l 20.622974715338998 42.028035950876756 a67.815199369411,67.815199369411 0 0,0 -1.05238639959665,0.5052094252225754 l -19.896475647742115 -42.37679965259889" fill="red" stroke="none" /><path d="M 108.92500713936063 119.00905698771935 l 19.407663454928336 41.33569585465226 a66.66505395341252,66.66505395341252 0 0,0 -1.042933513694654,0.4787596234786257 l -18.69326194546626 -41.663642548464956" fill="red" stroke="none" /><path d="M 108.2653958097858 119.30500536409082 l 17.92344712295184 41.862755373665564 a66.53833818053329,66.53833818053329 0 0,0 -1.056782610515125,0.4417352169029297 l -17.20019305293925 -42.165075633588465" fill="red" stroke="none" /><path d="M 107.59598834532513 119.57807347666477 l 19.611734851841174 50.54773236592945 a75.21893941453072,75.21893941453072 0 0,0 -1.2111315894705494,0.45794633472719365 l -18.73873304161035 -50.87782695076327" fill="red" stroke="none" /><path d="M 107.2578585660854 119.70592522655815 l 15.649245857150472 42.48951201033962 a66.27976950884728,66.27976950884728 0 0,0 -1.0739861471347838,0.3850932217656729 l -14.915540149385953 -42.75259277314525" fill="red" stroke="none" /><path d="M 106.57524785965236 119.94407469862006 l 14.551830786781405 44.13868593367241 a67.47557826642387,67.47557826642387 0 0,0 -1.106209586894066,0.3541733767760988 l -13.7898998547964 -44.38263215710822" fill="red" stroke="none" /><path d="M 105.88484417918355 120.15858648285463 l 12.77019664411071 43.74442306628428 a66.57030251963795,66.57030251963795 0 0,0 -1.1027492084014034,0.311647941358354 l -12.015316267604701 -43.95775980098115" fill="red" stroke="none" /><path d="M 104.83641907484287 120.43548508189849 l 10.391774191661096 43.9087149359669 a66.12166018863309,66.12166018863309 0 0,0 -1.1098358526278729,0.25259502674278717 l -9.63441818964036 -44.081086696287365" fill="red" stroke="none" /><path d="M 104.13013068566511 120.58985236759428 l 9.091092205083235 45.32162796023177 a67.2244298877443,67.2244298877443 0 0,0 -1.1365166524810986,0.21781612138043313 l -8.309607938030434 -45.47140127996067" fill="red" stroke="none" /><path d="M 102.34483914955558 120.86867818915974 l 1.2202519735095891 10.860039482744487 a31.928379223179583,31.928379223179583 0 0,0 -0.5466859243747766,0.05666623132533071 l -1.03313345252921 -10.879435082525575" fill="red" stroke="none" /><path d="M 101.62511606390274 120.93702456842531 l 4.329078441979051 55.77326057604012 a76.94101818379497,76.94101818379497 0 0,0 -1.321323637174378,0.09112621413493273 l -3.368392044025742 -55.83951513469134" fill="red" stroke="none" /><path d="M 100.90346689309514 120.98055641714683 l 1.9813111721778527 46.01055240152912 a67.0531923568264,67.0531923568264 0 0,0 -1.1535692263698158,0.0397312566033285 l -1.1890215941333846 -46.03784045655854" fill="red" stroke="none" /><line stroke="#e1ed5e" stroke-width="0.3" x1="102.19456741930631" x2="102.32365962044197" y1="184.97166512339345" y2="189.96999836594603" /><path d="M 102.22038585953345 185.97133177190398 a86.0,86.0 0 0,1 -42.740103519485714,-10.115201625700543" fill="none" id="id79" stroke="none" /><text fill="#e1ed5e" style="font-size:6.75px; font-family:Arial;" text-anchor="middle"><textPath startOffset="22.20632615414155" xlink:href="#id79">July</textPath></text><path d="M 100.18074693466247 120.99922214144158 l 0.09040048774765501 10.502750309169809 a31.503139354733495,31.503139354733495 0 0,0 -0.5422948448202137,0.0 l 0.09040048774764778 -10.502750309169809" fill="red" stroke="none" /><path d="M 99.81925306533755 120.99922214144158 l -0.39243470253149854 45.59315769232566 a66.59484656573619,66.59484656573619 0 0,0 -1.146193428298566,-0.019732759326008084 l 1.1771878207227324 -45.57964745572049" fill="red" stroke="none" /><path d="M 99.09653310690486 120.98055641714683 l -1.9620832474871972 45.56403625152978 a66.60626240113072,66.60626240113072 0 0,0 -1.1450312116757242,-0.05918503463107551 l 2.7461025275764106 -45.5235114101365" fill="red" stroke="none" /><path d="M 98.01472825383883 120.90594882070398 l -4.393973879974951 46.27084087198239 a67.4790030170422,67.4790030170422 0 0,0 -1.1553928523086285,-0.11976119325813284 l 5.189799328889173 -46.1883503102685" fill="red" stroke="none" /><path d="M 97.2962882734958 120.8252237178851 l -5.832847800939479 44.927260246045435 a66.30431355494551,66.30431355494551 0 0,0 -1.1305561411909253,-0.1566847795180351 l 6.605332533317236 -44.820200901034795" fill="red" stroke="none" /><path d="M 96.58105272829116 120.7198165907248 l -8.45309180713902 51.22819919388164 a72.92093174961266,72.92093174961266 0 0,0 -1.236707849706714,-0.21501751188136706 l 9.333648628317784 -51.07510310347927" fill="red" stroke="none" /><path d="M 95.86986931433489 120.58985236759428 l -9.057414425036486 45.153734842070314 a67.0531923568264,67.0531923568264 0 0,0 -1.1297139044887126,-0.2367425326881656 l 9.833319790954585 -44.99113632865561" fill="red" stroke="none" /><path d="M 95.16358092515715 120.4354850818985 l -3.6718452229760143 15.514771800374794 a36.94335571199478,36.94335571199478 0 0,0 -0.6175639844409009,-0.15178220211848115 l 3.9383624921601257 -15.449268339942282" fill="red" stroke="none" /><path d="M 94.81253420990036 120.34920634021253 l -10.78636440821458 42.31236674801606 a64.66557038406133,64.66557038406133 0 0,0 -1.0762492795369403,-0.2842472166031892 l 11.513104130563008 -42.12042818210929" fill="red" stroke="none" /><path d="M 94.11515582081647 120.15858648285463 l -13.150565741392585 45.04738081834943 a67.92764534804708,67.92764534804708 0 0,0 -1.1195932372527004,-0.33732425822086987 l 13.92403395308553 -44.814341191022834" fill="red" stroke="none" /><path d="M 93.42475214034765 119.94407469862007 l -14.061068626943225 42.65010369555955 a65.90818406675547,65.90818406675547 0 0,0 -1.07439839300928,-0.3644942684038904 l 14.79313675288973 -42.40174644025754" fill="red" stroke="none" /><path d="M 92.40401165467489 119.57807347666478 l -16.62194095581622 42.8417694397904 a66.9533037971243,66.9533037971243 0 0,0 -1.070866839753366,-0.42612001571071184 l 17.356928871611444 -42.54930257967362" fill="red" stroke="none" /><path d="M 91.7346041902142 119.30500536409082 l -18.026565186518773 42.103602250948526 a66.80033160283764,66.80033160283764 0 0,0 -1.0531527961765008,-0.4616712365360268 l 18.748638657353016 -41.78706646111805" fill="red" stroke="none" /><path d="M 91.07499286063937 119.00905698771935 l -19.692460236250117 41.94227444462215 a67.33516349107119,67.33516349107119 0 0,0 -1.0449369895177474,-0.501633255684804 l 20.411509893768105 -41.59708691243778" fill="red" stroke="none" /><line stroke="#e1ed5e" stroke-width="0.3" x1="58.666819895761336" x2="56.23545636021788" y1="174.27360380694188" y2="178.64263932499728" /><path d="M 58.180547188652646 175.14741091055294 a86.0,86.0 0 0,1 -31.652253787137756,-30.449443065178592" fill="none" id="id80" stroke="none" /><text fill="#e1ed5e" style="font-size:6.75px; font-family:Arial;" text-anchor="middle"><textPath startOffset="22.20632615414155" xlink:href="#id80">August</textPath></text><path d="M 89.4739219176387 118.17145234162733 l -12.21094867101138 21.08008985731984 a45.36139273191813,45.36139273191813 0 0,0 -0.6722820396701216,-0.3971960789661448 l 12.571998581709884 -20.86677520605995" fill="red" stroke="none" /><path d="M 85.97065885151581 115.62618273729859 l -30.805750156871078 34.31210890205222 a67.1119839091082,67.1119839091082 0 0,0 -0.852962797214961,-0.7791612917031382 l 31.391812503552895 -33.77675484376251" fill="red" stroke="none" /><path d="M 85.70375840098266 115.38237550388516 l -11.788347187882605 12.683947858480717 a38.31610991818651,38.31610991818651 0 0,0 -0.47925090671667636,-0.4531616456339637 l 12.004933928990098 -12.479151576100824" fill="red" stroke="none" /><path d="M 85.44109423537348 115.13401014063109 l -32.48933927013037 33.77272975907407 a67.86314587806801,67.86314587806801 0 0,0 -0.8348784271203473,-0.8171042595533399 l 33.06586764962652 -33.20847539659815" fill="red" stroke="none" /><path d="M 84.9287848128048 114.62390073753433 l -33.539608693745926 32.544151365432384 a67.73357614634014,67.73357614634014 0 0,0 -0.8047182619136374,-0.8437438803952336 l 34.09483350703852 -31.962000368454653" fill="red" stroke="none" /><path d="M 84.43433777217949 114.09645910891817 l -13.036469523139717 11.80599044666075 a38.58780680057623,38.58780680057623 0 0,0 -0.4416303750475317,-0.4961764080573679 l 13.237758747835587 -11.579839868862518" fill="red" stroke="none" /><path d="M 84.19399662182784 113.82643327865904 l -34.90329516601456 30.53194854334201 a67.37283574787313,67.37283574787313 0 0,0 -0.7560434950211383,-0.8794493891867015 l 35.42368117060647 -29.92662205499378" fill="red" stroke="none" /><path d="M 83.72743513129214 113.27417163493432 l -36.24848614647474 29.56931685306305 a67.77923948791825,67.77923948791825 0 0,0 -0.7296986658458179,-0.9104112819416701 l 36.75210272437542 -28.940977737543122" fill="red" stroke="none" /><path d="M 83.28015986056508 112.70617746262583 l -36.637223026309826 27.84231509559321 a67.01609089179419,67.01609089179419 0 0,0 -0.690070219308982,-0.9244618284279215 l 37.11105451231389 -27.207540387655982" fill="red" stroke="none" /><path d="M 82.85270091963577 112.12312394758628 l -30.50076231733837 21.564009605010508 a58.35375499442799,58.35375499442799 0 0,0 -0.5728090532492612,-0.825174163323507 l 30.867432277749767 -21.035794179499987" fill="red" stroke="none" /><path d="M 82.6465618267979 111.8261652097733 l -38.6906533247648 26.36722784994385 a67.82090728710827,67.82090728710827 0 0,0 -0.6491329406159776,-0.9703656707069277 l 39.138789370791514 -25.6973252650311" fill="red" stroke="none" /><path d="M 82.24976979558568 111.22182372390057 l -39.70703965789197 25.103077228146574 a67.97673344024355,67.97673344024355 0 0,0 -0.616760542868196,-0.9944143759356354 l 40.13326484042812 -24.415866520845675" fill="red" stroke="none" /><line stroke="#e1ed5e" stroke-width="0.3" x1="26.63291911575756" x2="22.317208475507996" y1="142.92168965132927" y2="145.44649492493687" /><path d="M 25.769776987707644 143.4266507060508 a86.0,86.0 0 0,1 -11.730757126820373,-40.83630448921669" fill="none" id="id81" stroke="none" /><text fill="#e1ed5e" style="font-size:6.75px; font-family:Arial;" text-anchor="middle"><textPath startOffset="21.46611528233685" xlink:href="#id81">September</textPath></text><path d="M 81.87401531095188 110.60418214915194 l -41.87732593756874 24.49934719572491 a69.5173004267348,69.5173004267348 0 0,0 -0.5953594149820833,-1.0380593230157087 l 42.2928373487032 -23.774868026850893" fill="red" stroke="none" /><path d="M 81.51974371655577 109.97397251340807 l -40.315901438444236 21.75888075537927 a66.81288902177164,66.81288902177164 0 0,0 -0.5375176199274935,-1.0167807680988197 l 40.68447156659661 -21.061684972194325" fill="red" stroke="none" /><path d="M 81.35079622478065 109.6543875284942 l -42.08806606670757 21.78830286968013 a68.39341143214374,68.39341143214374 0 0,0 -0.5322353463855277,-1.0501508315990564 l 42.456880082879366 -21.06059782637839" fill="red" stroke="none" /><path d="M 81.02952815118164 109.00673069616217 l -42.83322270341502 20.336199584958038 a68.41567231116306,68.41567231116306 0 0,0 -0.49593342532036466,-1.0681964778313313 l 43.17693074557521 -19.59588303984788" fill="red" stroke="none" /><path d="M 80.45479744820244 107.68017299344265 l -42.839964496125575 16.833713413367825 a67.02864831072817,67.02864831072817 0 0,0 -0.4127232217948584,-1.077490096034776 l 43.12338199751394 -16.09379975049989" fill="red" stroke="none" /><path d="M 80.32549172779594 107.34259656027581 l -11.8530476435379 4.423599596600074 a33.651599575983255,33.651599575983255 0 0,0 -0.19786457742860997,-0.5444383376289679 l 11.927436481971734 -4.218913461964989" fill="red" stroke="none" /><path d="M 80.0844068197444 106.66101706037122 l -44.42371965782003 14.858063822033243 a67.84259737435787,67.84259737435787 0 0,0 -0.3608830399000206,-1.110683790746058 l 44.6728949487363 -14.09118113130938" fill="red" stroke="none" /><path d="M 79.86692584326677 105.97154293290107 l -43.81054562023063 12.994366982825342 a66.69701829251719,66.69701829251719 0 0,0 -0.3169930249207344,-1.1034943053270625 l 44.027731282037465 -12.238315201993684" fill="red" stroke="none" /><path d="M 79.76711848015287 105.62410040840567 l -37.96848068853158 10.554035397155175 a60.408034573672914,60.408034573672914 0 0,0 -0.26985685370327744,-1.0042377418435586 l 38.14452561857663 -9.898906722136077" fill="red" stroke="none" /><path d="M 79.67330655649465 105.27499134158121 l -45.477737601823776 11.801952577829244 a67.98415373324997,67.98415373324997 0 0,0 -0.2842018811907002,-1.135245241732316 l 45.67415079730954 -11.017379496699535" fill="red" stroke="none" /><path d="M 79.4281124754447 104.21870165774334 l -45.99668504953502 9.432595392015031 a67.95390176945449,67.95390176945449 0 0,0 -0.22512178574599653,-1.1478911354707901 l 46.152236768256685 -8.639440529476285" fill="red" stroke="none" /><path d="M 79.29508885075956 103.50808413554451 l -46.66160210453974 7.90599026975449 a68.32662879508575,68.32662879508575 0 0,0 -0.1864934520448395,-1.161294903905136 l 46.79077731094587 -7.1016161361561405" fill="red" stroke="none" /><path d="M 79.23777060512086 103.15116336523772 l -11.389288512066834 1.7285960978833879 a32.51971949661602,32.51971949661602 0 0,0 -0.07923344327230313,-0.5541585177043472 l 11.417356006355735 -1.53229210819864" fill="red" stroke="none" /><path d="M 79.1416061653843 102.43462659150553 l -46.72516067173188 5.45383885095594 a68.04237449376207,68.04237449376207 0 0,0 -0.12577373229768446,-1.1645085552738654 l 46.81211670553062 -4.648733973797292" fill="red" stroke="none" /><path d="M 79.07016306316243 101.71520430193888 l -47.322673631889145 3.8781025211814244 a68.48131336468158,68.48131336468158 0 0,0 -0.08616723648956817,-1.175683481711958 l 47.382417427043045 -3.062945902972706" fill="red" stroke="none" /><path d="M 79.04373962182676 101.35467743843564 l -26.94677410156341 1.74192275984652 a48.00301704221141,48.00301704221141 0 0,0 -0.04620553061100479,-0.8250307881793383 l 26.972765983061947 -1.2778202553317441" fill="red" stroke="none" /><line stroke="#e1ed5e" stroke-width="0.3" x1="15.007084014347285" x2="10.007500721073583" y1="101.09737516637583" y2="101.16192664675087" /><path d="M 14.007167355692545 101.11028546245083 a86.0,86.0 0 0,1 10.666146001902534,-42.60595125391555" fill="none" id="id82" stroke="none" /><text fill="#e1ed5e" style="font-size:6.75px; font-family:Arial;" text-anchor="middle"><textPath startOffset="22.20632615414155" xlink:href="#id82">October</textPath></text><path d="M 79.16333360222342 97.38593545837743 l -46.67195793829938 -5.85523173455552 a68.03780815960425,68.03780815960425 0 0,0 0.1557871443642538,-1.1607951766528408 l 46.56425479487729 6.657745253273021" fill="red" stroke="none" /><path d="M 79.26566170972629 96.67025291283419 l -46.68396201824125 -7.4970218181747486 a68.28210703704711,68.28210703704711 0 0,0 0.19635377787829308,-1.1588911119877812 l 46.54799637884273 8.299498718478358" fill="red" stroke="none" /><path d="M 79.3925641242962 95.95851677861259 l -46.41504121323343 -9.102811791565577 a68.29923079013889,68.29923079013889 0 0,0 0.23618753468781753,-1.1517342994334416 l 46.25147438263062 9.90042174716242" fill="red" stroke="none" /><path d="M 79.62865764111835 94.90015583598534 l -45.515063826545365 -11.394424998672731 a67.91965426327091,67.91965426327091 0 0,0 0.2936835116764532,-1.1316823715335163 l 45.312183982998604 12.17620379575511" fill="red" stroke="none" /><path d="M 79.81627453868168 94.20196356495316 l -45.2478407381863 -12.998028025598481 a68.0777635834851,68.0777635834851 0 0,0 0.33323774448598364,-1.1235120130501213 l 45.01739709658861 13.774969425395142" fill="red" stroke="none" /><path d="M 80.02781315780177 93.51064311812611 l -44.772528118212094 -14.54747623574872 a68.07662199994564,68.07662199994564 0 0,0 0.37170712901856495,-1.1113570039891116 l 44.51548369542176 15.316006342660154" fill="red" stroke="none" /><path d="M 80.38941819471856 92.48833698450439 l -44.21615592110872 -16.93661444713131 a68.34888967410508,68.34888967410508 0 0,0 0.43029352730197007,-1.0950500926248732 l 43.91806884392506 17.695213544651946" fill="red" stroke="none" /><path d="M 80.65960295795068 91.81776055985345 l -43.53442366441018 -18.417878264677118 a68.27012040988285,68.27012040988285 0 0,0 0.4671928830028085,-1.0783455875778098 l 43.21094007156469 19.164522996841526" fill="red" stroke="none" /><path d="M 80.95270993114464 91.15688171328213 l -42.90882140188638 -19.921352687381813 a68.3077926666848,68.3077926666848 0 0,0 0.5043125499869511,-1.0622108460076172 l 42.559550658057674 20.657005949029962" fill="red" stroke="none" /><path d="M 81.10775173730289 90.83032412892265 l -54.127721375408115 -26.271815495485075 a81.1665896550787,81.1665896550787 0 0,0 0.6208857100384525,-1.2516677044779343 l 53.66747565241625 27.199642788461972" fill="red" stroke="none" /><line stroke="#e1ed5e" stroke-width="0.3" x1="26.266209847984243" x2="21.928928074336255" y1="57.711370442889674" y2="55.22380399835377" /><path d="M 25.398753493254645 57.213857153982495 a86.0,86.0 0 0,1 29.58750427330803,-30.492523968695096" fill="none" id="id83" stroke="none" /><text fill="#e1ed5e" style="font-size:6.75px; font-family:Arial;" text-anchor="middle"><textPath startOffset="21.46611528233685" xlink:href="#id83">November</textPath></text><path d="M 81.78341655067845 89.55222093294921 l -41.02754263798844 -23.530575990728586 a68.29637683129027,68.29637683129027 0 0,0 0.5936591837752896,-1.0147559825237733 l 40.616423779742824 24.23331138560625" fill="red" stroke="none" /><path d="M 82.15384107792192 88.93136811851018 l -40.35043162548083 -25.02634185158682 a68.48131336468158,68.48131336468158 0 0,0 0.6299380911851916,-0.9964107802951613 l 39.91366593804968 25.717200279596195" fill="red" stroke="none" /><path d="M 82.54541684631803 88.32363383020206 l -50.13157817627316 -33.53587182817016 a81.3144247234378,81.3144247234378 0 0,0 0.7882679743768018,-1.1566859852387767 l 49.546885736227615 34.39383583667935" fill="red" stroke="none" /><path d="M 82.7489923806493 88.02491185347247 l -39.04276590559799 -27.10221765129408 a68.5275474980294,68.5275474980294 0 0,0 0.6809921123156693,-0.9632150485082424 l 38.57046117347844 27.77025920013411" fill="red" stroke="none" /><path d="M 83.17141714833178 87.43820079747576 l -38.475525947947155 -28.720293053179542 a69.01272050229676,69.01272050229676 0 0,0 0.7187972573543441,-0.9458529342108863 l 37.9754527503687 29.378330763271453" fill="red" stroke="none" /><path d="M 83.39014120810768 87.1503855733568 l -9.967450257057402 -7.710956139040223 a33.601940692017074,33.601940692017074 0 0,0 0.35785413904252455,-0.45443841592721146 l 9.833242037420908 7.881386948920482" fill="red" stroke="none" /><path d="M 83.6137871275137 86.86637796730984 l -36.80540004739339 -29.49969079164515 a68.16851947487157,68.16851947487157 0 0,0 0.7417433091870456,-0.9092895923472033 l 36.29215824612995 30.128864553600437" fill="red" stroke="none" /><path d="M 84.07557802195018 86.31012108654704 l -8.787843206771912 -7.5547175010148 a32.5887853007529,32.5887853007529 0 0,0 0.3693521932235221,-0.4222334058370027 l 8.656499149970546 7.7048664630547465" fill="red" stroke="none" /><path d="M 84.31358615837235 86.03803664274999 l -35.858192952313594 -31.91620348105355 a69.0047294175206,69.0047294175206 0 0,0 0.7973541152728786,-0.8804583291734817 l 35.30349519642467 32.52871459749659" fill="red" stroke="none" /><path d="M 84.80347519578584 85.50635884689758 l -34.067542953493394 -32.491819603315506 a68.0777635834851,68.0777635834851 0 0,0 0.8160764733873168,-0.8410385409728549 l 33.503202216402954 33.07342233983849" fill="red" stroke="none" /><path d="M 87.22198572758235 83.33499621200491 l -29.42718581374257 -38.37874591474132 a69.36204506536924,69.36204506536924 0 0,0 0.9537408236099646,-0.718337815222149 l 28.762198836374218 38.879600319469326" fill="red" stroke="none" /><path d="M 87.80319425747018 82.90503203632743 l -7.379214998857638 -10.342662387632508 a33.705254002337526,33.705254002337526 0 0,0 0.4751941020245402,-0.332903836122671 l 7.200089757249438 10.468151066519122" fill="red" stroke="none" /><path d="M 88.09926311788651 82.69761687909137 l -26.238486937824952 -38.14791957912599 a67.30034519311789,67.30034519311789 0 0,0 0.9601365468894064,-0.6482884824169296 l 25.577945696529007 38.59391997384159" fill="red" stroke="none" /><path d="M 88.70189139769569 82.29822771554957 l -25.565460010612284 -40.05572679331311 a68.51898562148352,68.51898562148352 0 0,0 0.9996621377763937,-0.6259883389663997 l 24.872178720463648 40.489859473602436" fill="red" stroke="none" /><line stroke="#e1ed5e" stroke-width="0.3" x1="56.762969772571076" x2="54.21961505331055" y1="26.818313649435495" y2="22.513508569990535" /><path d="M 56.25429882871897 25.957352633546506 a86.0,86.0 0 0,1 42.265352541879196,-11.944610805530505" fill="none" id="id84" stroke="none" /><text fill="#e1ed5e" style="font-size:6.75px; font-family:Arial;" text-anchor="middle"><textPath startOffset="22.20632615414155" xlink:href="#id84">December</textPath></text><path d="M 89.3179101791058 81.91981866633112 l -23.977867026412085 -40.58421068358323 a68.13826751107608,68.13826751107608 0 0,0 1.0149463200769864,-0.587922418840562 l 23.275723973869777 40.99093725981383" fill="red" stroke="none" /><path d="M 89.94658935756843 81.56283822128135 l -30.16023192729471 -55.31148533615593 a84.0,84.0 0 0,0 1.2754198138867787,-0.6812850939930022 l 29.20366706687963 55.822449156650684" fill="red" stroke="none" /><path d="M 93.59665428221793 80.00007090966166 l -8.786390744225288 -27.44302737809656 a49.81528091109239,49.81528091109239 0 0,0 0.8189030301444337,-0.25443715768156594 l 8.312702341370127 27.59020467066065" fill="red" stroke="none" /><path d="M 94.63758080256005 79.69619591428918 l -2.9742471295414528 -11.261434214156042 a32.64757685303471,32.64757685303471 0 0,0 0.5445788560757818,-0.13882527596775113 l 2.7799593847806716 11.310962486292656" fill="red" stroke="none" /><path d="M 94.98787191387505 79.60689891045804 l -11.11302591659799 -45.216135149310865 a67.56176782365253,67.56176782365253 0 0,0 1.1317442660617996,-0.2678473025861164 l 10.333057963573657 45.40072836403785" fill="red" stroke="none" /><path d="M 95.692805502759 79.44645832069477 l -9.454146166853233 -45.11432845838094 a67.09428936424669,67.09428936424669 0 0,0 1.1324033277914702,-0.22714945445756288 l 8.676176429594626 45.27038186891571" fill="red" stroke="none" /><path d="M 96.40284397218896 79.31037775812273 l -8.186411814101005 -47.08546602946759 a68.79182408741268,68.79182408741268 0 0,0 1.168382595638648,-0.19279313936876283 l 7.374700012323471 47.21940543177598" fill="red" stroke="none" /><path d="M 96.75951476605007 79.25152402106235 l -8.139835377693343 -52.11848430511543 a73.75029219102498,73.75029219102498 0 0,0 1.255971056664825,-0.18509748539082072 l 7.24149534059987 52.25087627466721" fill="red" stroke="none" /><path d="M 97.11714578562143 79.19881850522333 l -5.001251748713722 -36.08643989251764 a57.4313554945503,57.4313554945503 0 0,0 0.9803950031726476,-0.12728340893680679 l 4.379342017033217 36.16718162461858" fill="red" stroke="none" /><path d="M 97.47563105711357 79.15227682838746 l -5.712644653497813 -47.178378837816766 a68.52298116387159,68.52298116387159 0 0,0 1.172177924230433,-0.13170784762056267 l 4.899700025757662 47.26972263890793" fill="red" stroke="none" /><path d="M 98.19473922651362 79.07773832637324 l -4.082015955182124 -47.30895792152114 a68.48473811529995,68.48473811529995 0 0,0 1.1753605474145423,-0.09123059966034981 l 3.2670652184052473 47.37221378336995" fill="red" stroke="none" /><path d="M 98.91598698831166 79.02799685794201 l -2.411635046796512 -46.657020933854675 a67.719306352097,67.719306352097 0 0,0 1.1646403958712241,-0.05015186533237166 l 1.6081538185359636 46.69162052571124" fill="red" stroke="none" /><path d="M 99.63851952072746 79.00311137660856 l -0.7896055751878925 -45.86488418958042 a66.87168057405344,66.87168057405344 0 0,0 1.151086054460417,-0.009907761081577638 l 1.1235321357304874e-14 45.87168057405344" fill="red" stroke="none" /></svg>