<?xml version="1.0" encoding="utf-8" ?>
<svg baseProfile="full" height="200mm" version="1.1" viewBox="0,0,200,200" width="200mm" xmlns="http://www.w3.org/2000/svg" xmlns:ev="http://www.w3.org/2001/xml-events" xmlns:xlink="http://www.w3.org/1999/xlink"><defs /><rect fill="#1a1a1a" height="200" width="200" x="0" y="0" /><text alignment-baseline="middle" fill="#e1ed5e" style="dominant-baseline: central; font-size:9.0px; font-family:Arial;" text-anchor="middle" x="100.0" y="100.0">2025</text><line stroke="#e1ed5e" stroke-width="0.3" x1="100.0" x2="100.0" y1="15.0" y2="10.0" /><path d="M 100.0 14.0 a86.0,86.0 0 0,1 42.46469731375804,11.215312516191453" fill="none" id="id97" stroke="none" /><text fill="#e1ed5e" style="font-size:6.75px; font-family:Arial;" text-anchor="middle"><textPath startOffset="22.20632615414155" xlink:href="#id97">January</textPath></text><path d="M 100.0 79.0 l 0.0 -63.0 a84.0,84.0 0 0,0 1.4459219170901134,0.012445506434235476 l -1.084441437817585 62.990665870174325" fill="red" stroke="none" /><path d="M 100.36148047927253 79.00311137660856 l 0.8727906834592188 -50.696759086430795 a71.70427147139318,71.70427147139318 0 0,0 1.2339054215484764,0.03186813666300877 l -1.745322740202563 50.67422415762543" fill="red" stroke="none" /><path d="M 100.72285384407766 79.0124445844662 l 0.6157046337416996 -17.876553090401163 a38.887153004040144,38.887153004040144 0 0,0 0.6687834195089449,0.028799220867348256 l -0.9233288856399761 17.86330614300962" fill="red" stroke="none" /><path d="M 101.08401301168833 79.027996857942 l 0.9229403758286708 -17.855789785829806 a38.87962661279812,38.87962661279812 0 0,0 0.6680592766115702,0.04029915995595891 l -1.230161701279853 17.83725735649354" fill="red" stroke="none" /><path d="M 101.44485096284872 79.0497635885617 l 1.4180648232077386 -20.5618392878195 a41.61068030757201,41.61068030757201 0 0,0 0.7141379719121994,0.05543085103637854 l -1.7717929844822793 20.534383174594655" fill="red" stroke="none" /><path d="M 101.80526077348638 79.07773832637324 l 1.5456060203078408 -17.91296530459818 a38.97952235110127,38.97952235110127 0 0,0 0.6679881262945502,0.06343352149558695 l -1.8537192736926351 17.883706238587415" fill="red" stroke="none" /><path d="M 102.16513564639614 79.11191278185805 l 1.9195720733117794 -18.51901933053761 a39.61823928059429,39.61823928059429 0 0,0 0.6777233665670656,0.07615011684451324 l -2.23806214338857 18.483233260222494" fill="red" stroke="none" /><path d="M 102.52436894288641 79.15227682838746 l 2.3673978061895893 -19.551363218757643 a40.69417111950997,40.69417111950997 0 0,0 0.6946790943774143,0.09018928387369306 l -2.7035916290748494 19.507715611719814" fill="red" stroke="none" /><path d="M 102.88285421437855 79.19881850522331 l 2.5723734830600304 -18.560913495591738 a39.73831943177375,39.73831943177375 0 0,0 0.6767455092589051,0.09973469639180128 l -2.891487972747591 18.513884315038965" fill="red" stroke="none" /><path d="M 103.2404852339499 79.25152402106235 l 3.190228783690548 -20.426689371157952 a41.67431252443633,41.67431252443633 0 0,0 0.7078100062717773,0.11679471578500393 l -3.5413679961012003 20.368748392433325" fill="red" stroke="none" /><path d="M 103.95276090670814 79.375362276772 l 3.497237795570807 -18.247818238441827 a39.579923106998564,39.579923106998564 0 0,0 0.6680216314204092,0.1339988548417089 l -3.8108258364583416 18.18491542752291" fill="red" stroke="none" /><path d="M 104.66035177308747 79.52364482259891 l 4.558996865993252 -20.031028477253972 a41.543284895086664,41.543284895086664 0 0,0 0.695902075802813,0.16469753764821285 l -4.903122628758588 19.94958502746489" fill="red" stroke="none" /><path d="M 105.01212808612495 79.60689891045804 l 4.3839790347995375 -17.837319017962294 a39.36815782614362,39.36815782614362 0 0,0 0.6566817026353894,0.1674027876297982 l -4.690369626119952 17.759213234163628" fill="red" stroke="none" /><path d="M 105.36241919743992 79.69619591428918 l 4.896535879638104 -18.53982345249866 a40.1755343411964,40.1755343411964 0 0,0 0.6671092203019275,0.1823461501053077 l -5.214942989163742 18.452790761567055" fill="red" stroke="none" /><path d="M 108.43124777332544 80.76684994638697 l 11.000564221387233 -25.09421001879753 a48.399485207871756,48.399485207871756 0 0,0 0.7601436037408891,0.3410542773443284 l -11.430889943594902 24.901135410936668" fill="red" stroke="none" /><path d="M 109.08828744355905 81.06846463323043 l 7.877186972942719 -16.408728783618006 a39.20155089274078,39.20155089274078 0 0,0 0.6058109353546305,0.2972687949705114 l -8.158469175307781 16.270704828512663" fill="red" stroke="none" /><path d="M 109.41281617654863 81.2277094730956 l 7.834148404204557 -15.623901191336806 a38.47799100742864,38.47799100742864 0 0,0 0.5895185745378256,0.3019743109039347 l -8.101927466331137 15.48673435512037" fill="red" stroke="none" /><line stroke="#e1ed5e" stroke-width="0.3" x1="143.23703022742887" x2="145.7803849466894" y1="26.81831364943548" y2="22.513508569990506" /><path d="M 143.74570117128098 25.957352633546492 a86.0,86.0 0 0,1 28.547481713284135,27.462654790039103" fill="none" id="id98" stroke="none" /><text fill="#e1ed5e" style="font-size:6.75px; font-family:Arial;" text-anchor="middle"><textPath startOffset="19.985693538727396" xlink:href="#id98">February</textPath></text><path d="M 111.60114157652 82.49532879139004 l 11.48415495727288 -17.32815303647831 a41.78823471914505,41.78823471914505 0 0,0 0.5961694738520676,0.4025362899881035 l -11.78072912553149 17.127904834191536" fill="red" stroke="none" /><path d="M 111.90073688211348 82.69761687909136 l 9.802636814697985 -14.251972751195463 a38.29769972631304,38.29769972631304 0 0,0 0.5399407768827155,0.3782630195482286 l -10.046508731164352 14.081124888883298" fill="red" stroke="none" /><path d="M 113.34407831869373 83.78471172551755 l 11.534549647952055 -14.016408116838893 a39.15228724097484,39.15228724097484 0 0,0 0.5167029199832329,0.4327238359054759 l -11.774110104894406 13.815783123539598" fill="red" stroke="none" /><path d="M 114.16331599549186 84.49514656593476 l 13.867516257673845 -15.181035792620044 a41.56141665580607,41.56141665580607 0 0,0 0.5240540699416663,0.4870511445349964 l -14.126778211410357 14.940080062010406" fill="red" stroke="none" /><path d="M 114.68862486808459 84.99185889309783 l 14.509156787622846 -14.824769123483424 a41.74341848038576,41.74341848038576 0 0,0 0.5091985425385057,0.5070118821740814 l -14.762191130328674 14.572821390659225" fill="red" stroke="none" /><path d="M 115.19652480421416 85.50635884689758 l 14.366934770672495 -13.702422081291418 a40.85359377036362,40.85359377036362 0 0,0 0.4809687330941814,0.5130639098897649 l -14.600670825737138 13.4530887545236" fill="red" stroke="none" /><path d="M 115.9244219780498 86.31012108654704 l 13.007210243018363 -11.182015490056333 a38.15298774925061,38.15298774925061 0 0,0 0.4238422431264861,0.5016955291364711 l -13.197763099631967 10.956461011290756" fill="red" stroke="none" /><path d="M 116.82858285166822 87.43820079747576 l 13.795084395169624 -10.297425616965613 a38.21456731395803,38.21456731395803 0 0,0 0.38894675150512165,0.530522931945835 l -13.970293759188372 10.058440241348285" fill="red" stroke="none" /><path d="M 117.04232023915458 87.72973835380427 l 14.788205192535004 -10.647326446380422 a39.222419523002735,39.222419523002735 0 0,0 0.38977257024802275,0.5513056588599675 l -14.969290382586909 10.391194287188663" fill="red" stroke="none" /><path d="M 117.2510076193507 88.02491185347247 l 15.789348381955893 -10.960451865899199 a40.22069268864851,40.22069268864851 0 0,0 0.3899023335840614,0.5721335631136474 l -15.975675181208688 10.687040279515145" fill="red" stroke="none" /><path d="M 117.45458315368197 88.32363383020206 l 5.859046101290514 -3.9194500998417587 a28.049149615534994,28.049149615534994 0 0,0 0.2650021742414814,0.4036164921239165 l -5.92564491088992 3.8180155437401684" fill="red" stroke="none" /><path d="M 117.65298651832404 88.62581576622439 l 18.485826492210826 -11.910800250017859 a42.99074677440375,42.99074677440375 0 0,0 0.39545837588538096,0.6255201811162843 l -18.68811246434216 11.590832421187368" fill="red" stroke="none" /><line stroke="#e1ed5e" stroke-width="0.3" x1="172.23445277983987" x2="176.4835382374775" y1="55.19839476539836" y2="52.563006222186495" /><path d="M 173.08426987136738 54.67131705675599 a86.0,86.0 0 0,1 12.851231095245387,41.99856678651699" fill="none" id="id99" stroke="none" /><text fill="#e1ed5e" style="font-size:6.75px; font-family:Arial;" text-anchor="middle"><textPath startOffset="22.20632615414155" xlink:href="#id99">March</textPath></text><path d="M 117.84615892207809 88.93136811851018 l 14.780413030097872 -9.167179985388064 a38.3924638342239,38.3924638342239 0 0,0 0.3434922580627703,0.5646109570471409 l -14.936021086446866 8.91140125513384" fill="red" stroke="none" /><path d="M 118.21658344932153 89.55222093294921 l 16.389998816020118 -9.400175780238307 a39.8943209956992,39.8943209956992 0 0,0 0.3365225771530938,0.5986361145571139 l -16.549379034465645 9.1166561557464" fill="red" stroke="none" /><path d="M 118.3937258080291 89.86733742301442 l 24.093071971014783 -13.272295742212124 a48.50690733741691,48.50690733741691 0 0,0 0.3965830057997574,0.734808079226791 l -24.317963076033006 12.855606679652876" fill="red" stroke="none" /><path d="M 118.56541770881063 90.18545643968196 l 16.358460634960917 -8.647843372001208 a39.503632868499935,39.503632868499935 0 0,0 0.3126252923166982,0.6038925581238714 l -16.50489536043773 8.364978091616992" fill="red" stroke="none" /><path d="M 118.73160827565052 90.50648371742162 l 10.132962732980111 -5.13556792778734 a32.360061253746906,32.360061253746906 0 0,0 0.247539039077563,0.4990235977434565 l -10.219861785011084 4.960384741544934" fill="red" stroke="none" /><path d="M 119.04729006885535 91.15688171328212 l 26.98066139021638 -12.52635830425529 a50.746692949302755,50.746692949302755 0 0,0 0.36102087373325176,0.7954616401409589 l -27.19228458091298 12.060074655272267" fill="red" stroke="none" /><path d="M 119.47837535516314 92.15188598940014 l 8.875125119062908 -3.5759139313578 a30.56843802945393,30.56843802945393 0 0,0 0.19244498464453963,0.4897514949424439 l -8.935363653589148 3.422613431519572" fill="red" stroke="none" /><path d="M 119.61058180528143 92.48833698450437 l 17.593424019562885 -6.739008247480525 a39.839925713540985,39.839925713540985 0 0,0 0.23978970498227115,0.6425171934117363 l -17.70681831304678 6.435167917039456" fill="red" stroke="none" /><path d="M 119.97218684219823 93.5106431181261 l 6.8525059801175665 -2.226514161493974 a28.205151179460444,28.205151179460444 0 0,0 0.14605502477404927,0.4630343416684131 l -6.889816488659822 2.1082296533991416" fill="red" stroke="none" /><path d="M 120.08093135843002 93.85539295169968 l 27.82490058684061 -8.514200721690209 a50.0983969764108,50.0983969764108 0 0,0 0.24522951301580737,0.8267920077681182 l -27.967335996968117 8.03397932717556" fill="red" stroke="none" /><path d="M 120.45610955862082 95.25157060432595 l 18.68689468753524 -4.337745639945631 a40.18374494982406,40.18374494982406 0 0,0 0.150604108515699,0.6751286879778248 l -18.758793183052976 4.015438782417842" fill="red" stroke="none" /><path d="M 120.53481517161879 95.60439243477599 l 18.091404999367008 -3.8725801043808628 a39.5012381076502,39.5012381076502 0 0,0 0.1366003677908054,0.6661119059811648 l -18.15538466307281 3.5605925422362863" fill="red" stroke="none" /><path d="M 120.67395015179393 96.31383870115 l 20.317282075247114 -3.6225674500378884 a41.6377068943047,41.6377068943047 0 0,0 0.11973445761493508,0.706679546622372 l -20.376628394382273 3.2723021150996785" fill="red" stroke="none" /><path d="M 120.73433829027371 96.67025291283417 l 17.67944849004506 -2.8391594314847444 a38.90596898214518,38.90596898214518 0 0,0 0.1004961679673703,0.6621441832126099 l -17.72570055145173 2.5344161358800523" fill="red" stroke="none" /><path d="M 120.83666639777658 97.38593545837742 l 17.686590414273272 -2.21887167464979 a38.8252313306399,38.8252313306399 0 0,0 0.0774834161724342,0.6638305914405889 l -17.722164183449294 1.9140973448843484" fill="red" stroke="none" /><path d="M 120.96714384426684 98.82574320788733 l 17.805540113285907 -0.9971923963777071 a38.83344193926756,38.83344193926756 0 0,0 0.031633336735946635,0.6677297417081006 l -17.82006705825535 0.6905515480466068" fill="red" stroke="none" /><path d="M 120.98425023603335 99.18683210126433 l 19.338232301612322 -0.7493824915870262 a40.35274664407663,40.35274664407663 0 0,0 0.02092252547688808,0.694316761709551 l -19.348266521544854 0.41639558245247604" fill="red" stroke="none" /><line stroke="#e1ed5e" stroke-width="0.3" x1="184.98032266829074" x2="189.97916517819016" y1="98.17113171792111" y2="98.06355123074" /><path d="M 185.9800911702706 98.14961562048488 a86.0,86.0 0 0,1 -9.607161424134198,41.387399972396054" fill="none" id="id100" stroke="none" /><text fill="#e1ed5e" style="font-size:6.75px; font-family:Arial;" text-anchor="middle"><textPath startOffset="21.466115282336823" xlink:href="#id100">April</textPath></text><path d="M 120.99513854157772 99.54816195383933 l 18.86839913959136 -0.4060683183647103 a39.87276814805161,39.87276814805161 0 0,0 0.00886123453066357,0.6863123798229681 l -18.87259338123974 0.08121968048127952" fill="red" stroke="none" /><path d="M 120.99824983174949 100.27111621757518 l 19.048050719752823 0.24593647112014597 a40.04963834223902,40.04963834223902 0 0,0 -0.014833503643526525,0.6892546271813278 l -19.040995153424287 -0.5737809140915886" fill="red" stroke="none" /><path d="M 120.9904718944345 100.63252640178507 l 6.7200696218791025 0.2025024248644631 a27.72312003127851,27.72312003127851 0 0,0 -0.018479264340380195,0.47686770185997973 l -6.715588224687519 -0.318147373738449" fill="red" stroke="none" /><path d="M 120.9764740272857 100.99374915477107 l 22.32594776529156 1.0576797460031595 a43.350987227942134,43.350987227942134 0 0,0 -0.04172769735737244,0.7450760673974351 l -22.304433717046656 -1.441827529736018" fill="red" stroke="none" /><path d="M 120.95626037817324 101.35467743843564 l 42.07297694000575 2.719727260490217 a63.160791085624915,63.160791085624915 0 0,0 -0.0794726408554778,1.084341043165862 l -42.01992774048593 -3.4435414401528495" fill="red" stroke="none" /><path d="M 120.89721153311464 102.0752229133903 l 18.093736083890104 1.796820386807328 a39.18273491463573,39.18273491463573 0 0,0 -0.07242779001335892,0.6705913831872993 l -18.060125992375692 -2.1080080918794186" fill="red" stroke="none" /><path d="M 120.8583938346157 102.4346265915055 l 17.348241216481004 2.024915710978793 a38.46601720317998,38.46601720317998 0 0,0 -0.08242441521085121,0.6570036873360141 l -17.310815292023303 -2.323237152602202" fill="red" stroke="none" /><path d="M 120.81339534386255 102.79330883721812 l 35.37266783620768 4.747268959746925 a56.68980516095399,56.68980516095399 0 0,0 -0.138123222797342,0.9660334985426545 l -35.28571056239374 -5.355447930269989" fill="red" stroke="none" /><path d="M 120.76222939487914 103.15116336523771 l 17.35484801008812 2.6340119944993257 a38.55359702854164,38.55359702854164 0 0,0 -0.10522974022561192,0.6552656928345165 l -17.306936515501217 -2.932356917027047" fill="red" stroke="none" /><path d="M 120.70491114924044 103.5080841355445 l 17.902273544342762 3.03322633738473 a39.15741887136713,39.15741887136713 0 0,0 -0.11831797791442067,0.6635900545716564 l -17.84740912408915 -3.340935142689605" fill="red" stroke="none" /><path d="M 120.5718875245553 104.21870165774334 l 21.835679194291668 4.477868931810684 a43.29009188062035,43.29009188062035 0 0,0 -0.1559803055168724,0.7286880588573144 l -21.755364850050352 -4.853070810084167" fill="red" stroke="none" /><path d="M 120.49622156327973 104.57218783832717 l 20.283192282728248 4.5246664021084015 a41.781734653981495,41.781734653981495 0 0,0 -0.16262930214553603,0.7006027772386904 l -20.20230241465216 -4.873137836695657" fill="red" stroke="none" /><path d="M 120.41448212921028 104.9243191809786 l 17.687074857907444 4.266422308777287 a39.19436661019158,39.19436661019158 0 0,0 -0.16384866341648902,0.654493962983164 l -17.611014880195896 -4.570244111157847" fill="red" stroke="none" /><path d="M 120.32669344350535 105.2749913415812 l 17.94844646854028 4.657811167346287 a39.54297536817411,39.54297536817411 0 0,0 -0.17664774221229207,0.657371963345026 l -17.865610649986213 -4.966074063866861" fill="red" stroke="none" /><path d="M 120.23288151984713 105.62410040840565 l 9.926254837908841 2.7591845399311943 a31.302603284243453,31.302603284243453 0 0,0 -0.14877287106670778,0.5178978813502909 l -9.877289329956033 -2.929639896786067" fill="red" stroke="none" /><path d="M 120.13307415673323 105.97154293290107 l 42.24324610795341 12.529500253908623 a65.06223120031278,65.06223120031278 0 0,0 -0.32770677057187025,1.0709646872157201 l -42.02131256487541 -13.2547919136764" fill="red" stroke="none" /><path d="M 119.9155931802556 106.66101706037122 l 22.24638982770373 7.440580897229473 a44.457708849211514,44.457708849211514 0 0,0 -0.24898258075826388,0.7236599258461363 l -22.115016416002238 -7.822413526164909" fill="red" stroke="none" /><path d="M 119.79798401119884 107.00284435728193 l 17.43999070502989 6.168786702256377 a39.49884334680047,39.49884334680047 0 0,0 -0.232245184365951,0.6390390020373895 l -17.33122125965871 -6.468073501299898" fill="red" stroke="none" /><path d="M 119.67450827220406 107.3425965602758 l 18.726103639442236 6.988648573473757 a40.98770037794865,40.98770037794865 0 0,0 -0.25237829167505454,0.6588800808237956 l -18.603031068173674 -7.309952221130697" fill="red" stroke="none" /><path d="M 119.41010516605496 108.01547362559984 l 17.26526704306932 7.12975491058544 a39.67947673660889,39.67947673660889 0 0,0 -0.2661340650073317,0.629062314945426 l -17.13998199686968 -7.425891751197029" fill="red" stroke="none" /><path d="M 119.26925614724726 108.34839909993367 l 3.5983885575377195 1.559000698594742 a24.921591945783916,24.921591945783916 0 0,0 -0.17392768963542557,0.39216102455879676 l -3.571019783171021 -1.6207100596462265" fill="red" stroke="none" /><path d="M 119.12269723197855 108.67885076344098 l 18.133914470765525 8.230090951060532 a40.91414700899257,40.91414700899257 0 0,0 -0.29657960500549346,0.6388060842215485 l -17.9895602489202 -8.541017102560911" fill="red" stroke="none" /><path d="M 118.97047184881838 109.00673069616215 l 21.754357069953453 10.328453459602603 a45.08171510491333,45.08171510491333 0 0,0 -0.3388572340730387,0.6981462683878512 l -21.5733465792657 -10.701388683955729" fill="red" stroke="none" /><path d="M 118.81262510543309 109.33194174019688 l 17.978095290463482 8.917975928934071 a41.06843802945393,41.06843802945393 0 0,0 -0.3195932748844541,0.6305878511688724 l -17.821923345792758 -9.226117991805639" fill="red" stroke="none" /><line stroke="#e1ed5e" stroke-width="0.3" x1="174.80103733775053" x2="179.2010983576182" y1="140.37084112569926" y2="142.7455964860345" /><path d="M 175.68104954172406 140.8457921977663 a86.0,86.0 0 0,1 -30.038265399797805,32.042727171017184" fill="none" id="id101" stroke="none" /><text fill="#e1ed5e" style="font-size:6.75px; font-family:Arial;" text-anchor="middle"><textPath startOffset="22.206326154141568" xlink:href="#id101">May</textPath></text><path d="M 117.35343817320211 111.8261652097733 l 15.879424967235142 10.821642444822198 a40.21624527564186,40.21624527564186 0 0,0 -0.39476858659361136,0.568693592220564 l -15.690795473479396 -11.09337729922978" fill="red" stroke="none" /><path d="M 116.93607887273984 112.41649034213515 l 13.9386599871435 10.218967354435476 a38.28333116121465,38.28333116121465 0 0,0 -0.39420662080920793,0.5281041888992183 l -13.7606920996392 -10.45738442284401" fill="red" stroke="none" /><path d="M 116.27256486870786 113.27417163493432 l 5.373466862516425 4.383348413920871 a27.934543203440636,27.934543203440636 0 0,0 -0.3071522746105273,0.3699847014145736 l -5.297218588012354 -4.475194372449215" fill="red" stroke="none" /><path d="M 115.80600337817218 113.82643327865902 l 20.199363694188953 17.669561856146323 a47.83705851687736,47.83705851687736 0 0,0 -0.5474863653993363,0.615106735389265 l -19.892218479141277 -18.014642761276452" fill="red" stroke="none" /><path d="M 115.56566222782051 114.09645910891815 l 15.228656410331045 13.791262410173331 a41.54533754724358,41.54533754724358 0 0,0 -0.48460379348702454,0.525941707418557 l -14.989006208848298 -14.051355372393223" fill="red" stroke="none" /><path d="M 114.29624159901734 115.38237550388516 l 14.077782804871012 15.147319655086706 a41.6791020461358,41.6791020461358 0 0,0 -0.5297224339966761,0.483888883858279 l -13.814960821407471 -15.387401305531567" fill="red" stroke="none" /><path d="M 114.0293411484842 115.62618273729858 l 14.957941648391204 16.66047800091196 a43.3899876189235,43.3899876189235 0 0,0 -0.5600565691141759,0.4941848055825433 l -14.66894272637044 -16.915485948266795" fill="red" stroke="none" /><path d="M 113.48314897796784 116.09983520530334 l 15.152068662814045 18.092643557478088 a44.59934184803858,44.59934184803858 0 0,0 -0.5928099312873517,0.48784221515484627 l -14.838388602982004 -18.350780891490114" fill="red" stroke="none" /><path d="M 112.92097659922987 116.55440617244103 l 12.664173662779657 16.225389237565853 a41.58262739476085,41.58262739476085 0 0,0 -0.5680410092055392,0.43554962334756053 l -12.383003925080624 -16.440978202740787" fill="red" stroke="none" /><path d="M 112.34349029814194 116.9893568818739 l 10.529288397486447 14.492322185727238 a38.9134953733872,38.9134953733872 0 0,0 -0.545294203155558,0.3890529354924318 l -10.278266866482005 -14.671419383063888" fill="red" stroke="none" /><path d="M 112.04921762599082 117.19931262002967 l 10.610197451089563 15.145224244924798 a39.492001172944086,39.492001172944086 0 0,0 -0.5601152696107816,0.3852523898420048 l -10.3479252968559 -15.325617424131897" fill="red" stroke="none" /><path d="M 111.7513745106137 117.40417183066458 l 9.774370005024172 14.476163188424366 a38.46704352925843,38.46704352925843 0 0,0 -0.5519568323827005,0.3658068912171097 l -9.523738473901508 -14.642268100732792" fill="red" stroke="none" /><path d="M 111.45004920935366 117.60387380957326 l 15.303230274739093 23.527945575576698 a49.06693926756158,49.06693926756158 0 0,0 -0.7119804434611462,0.454419605205676 l -14.895968029231016 -23.787879609606183" fill="red" stroke="none" /><line stroke="#e1ed5e" stroke-width="0.3" x1="143.8653032363475" x2="146.44561519142675" y1="172.8068346515853" y2="177.08958963109032" /><path d="M 144.38136562736335 173.6633856474863 a86.0,86.0 0 0,1 -40.68145358897372,12.25698825130547" fill="none" id="id102" stroke="none" /><text fill="#e1ed5e" style="font-size:6.75px; font-family:Arial;" text-anchor="middle"><textPath startOffset="21.466115282336833" xlink:href="#id102">June</textPath></text><path d="M 109.89434966115114 118.52300852407294 l 14.783335709182795 27.675578762956935 a52.37649876189235,52.37649876189235 0 0,0 -0.7988890022497076,0.41794096815102966 l -14.304755804406593 -27.92594915005268" fill="red" stroke="none" /><path d="M 109.2508944713604 118.85261126421891 l 4.289525109773409 8.741722181895328 a30.737439723706505,30.737439723706505 0 0,0 -0.4769972487648751,0.2289876664822108 l -4.138415193008302 -8.8142641248771" fill="red" stroke="none" /><path d="M 108.92500713936063 119.00905698771935 l 14.577434116256624 31.0479612535635 a55.299817542030496,55.299817542030496 0 0,0 -0.8651314233704427,0.39713940445260787 l -14.040834697118761 -31.29428772835018" fill="red" stroke="none" /><path d="M 108.59647513512805 119.15986991738527 l 16.015878500564458 35.69627595728417 a60.1245764368565,60.1245764368565 0 0,0 -0.9479049620572745,0.4155336790068991 l -15.399052863849429 -35.966674189585525" fill="red" stroke="none" /><path d="M 108.2653958097858 119.30500536409082 l 6.746132468820514 15.756550139227064 a38.1399876189235,38.1399876189235 0 0,0 -0.6057511621583075,0.25320403491004645 l -6.473909847164745 -15.870339217157085" fill="red" stroke="none" /><path d="M 107.59598834532513 119.57807347666477 l 9.90099412709841 25.519047910553656 a48.37245862113906,48.37245862113906 0 0,0 -0.7788651788023092,0.29450016577891514 l -9.460258727535829 -25.6856963264392" fill="red" stroke="none" /><path d="M 106.91757812671514 119.82793768551818 l 10.437221682911659 29.916334495665843 a52.684738694122245,52.684738694122245 0 0,0 -0.8588371746329181,0.2913641994280114 l -9.920714775341512 -30.09156168199198" fill="red" stroke="none" /><path d="M 105.53697534728816 120.25689768951611 l 5.4144806822025116 19.80875375848583 a41.535416395151834,41.535416395151834 0 0,0 -0.691286904376647,0.18257515445477437 l -5.072703335014367 -19.89902026224419" fill="red" stroke="none" /><path d="M 104.83641907484287 120.43548508189849 l 3.9416059080080164 16.65460074599466 a38.114671575654896,38.114671575654896 0 0,0 -0.6397454163298555,0.1456039739244201 l -3.6543403422852987 -16.719981453496764" fill="red" stroke="none" /><path d="M 102.70371172650421 120.8252237178851 l 2.2085920940652364 17.011585965168642 a38.15435618402189,38.15435618402189 0 0,0 -0.6520262916940686,0.07895130356196708 l -1.9154383793197876 -17.04708279745596" fill="red" stroke="none" /><path d="M 102.34483914955558 120.86867818915974 l 1.9120386223096475 17.016825525873216 a38.123908510361005,38.123908510361005 0 0,0 -0.6527673709674321,0.06766200700552578 l -1.6188386547366127 -17.0472169013345" fill="red" stroke="none" /><path d="M 101.26447882468166 120.96189622390904 l 2.0599485609958013 34.14879483889781 a55.21086928189756,55.21086928189756 0 0,0 -0.9491325030489868,0.0490593090298581 l -1.4718279895333348 -34.179193954689865" fill="red" stroke="none" /><line stroke="#e1ed5e" stroke-width="0.3" x1="102.19456741930631" x2="102.32365962044197" y1="184.97166512339345" y2="189.96999836594603" /><path d="M 102.22038585953345 185.97133177190398 a86.0,86.0 0 0,1 -42.740103519485714,-10.115201625700543" fill="none" id="id103" stroke="none" /><text fill="#e1ed5e" style="font-size:6.75px; font-family:Arial;" text-anchor="middle"><textPath startOffset="22.20632615414155" xlink:href="#id103">July</textPath></text><line stroke="#e1ed5e" stroke-width="0.3" x1="58.666819895761336" x2="56.23545636021788" y1="174.27360380694188" y2="178.64263932499728" /><path d="M 58.180547188652646 175.14741091055294 a86.0,86.0 0 0,1 -31.652253787137756,-30.449443065178592" fill="none" id="id104" stroke="none" /><text fill="#e1ed5e" style="font-size:6.75px; font-family:Arial;" text-anchor="middle"><textPath startOffset="22.20632615414155" xlink:href="#id104">August</textPath></text><line stroke="#e1ed5e" stroke-width="0.3" x1="26.63291911575756" x2="22.317208475507996" y1="142.92168965132927" y2="145.44649492493687" /><path d="M 25.769776987707644 143.4266507060508 a86.0,86.0 0 0,1 -11.730757126820373,-40.83630448921669" fill="none" id="id105" stroke="none" /><text fill="#e1ed5e" style="font-size:6.75px; font-family:Arial;" text-anchor="middle"><textPath startOffset="21.46611528233685" xlink:href="#id105">September</textPath></text><line stroke="#e1ed5e" stroke-width="0.3" x1="15.007084014347285" x2="10.007500721073583" y1="101.09737516637583" y2="101.16192664675087" /><path d="M 14.007167355692545 101.11028546245083 a86.0,86.0 0 0,1 10.666146001902534,-42.60595125391555" fill="none" id="id106" stroke="none" /><text fill="#e1ed5e" style="font-size:6.75px; font-family:Arial;" text-anchor="middle"><textPath startOffset="22.20632615414155" xlink:href="#id106">October</textPath></text><line stroke="#e1ed5e" stroke-width="0.3" x1="26.266209847984243" x2="21.928928074336255" y1="57.711370442889674" y2="55.22380399835377" /><path d="M 25.398753493254645 57.213857153982495 a86.0,86.0 0 0,1 29.58750427330803,-30.492523968695096" fill="none" id="id107" stroke="none" /><text fill="#e1ed5e" style="font-size:6.75px; font-family:Arial;" text-anchor="middle"><textPath startOffset="21.46611528233685" xlink:href="#id107">November</textPath></text><line stroke="#e1ed5e" stroke-width="0.3" x1="56.762969772571076" x2="54.21961505331055" y1="26.818313649435495" y2="22.513508569990535" /><path d="M 56.25429882871897 25.957352633546506 a86.0,86.0 0 0,1 42.265352541879196,-11.944610805530505" fill="none" id="id108" stroke="none" /><text fill="#e1ed5e" style="font-size:6.75px; font-family:Arial;" text-anchor="middle"><textPath startOffset="22.20632615414155" xlink:href="#id108">December</textPath></text></svg>