<?xml version="1.0" encoding="utf-8" ?>
<svg baseProfile="full" height="200mm" version="1.1" viewBox="0,0,200,200" width="200mm" xmlns="http://www.w3.org/2000/svg" xmlns:ev="http://www.w3.org/2001/xml-events" xmlns:xlink="http://www.w3.org/1999/xlink"><defs /><rect fill="#1a1a1a" height="200" width="200" x="0" y="0" /><text alignment-baseline="middle" fill="#e1ed5e" style="dominant-baseline: central; font-size:9.0px; font-family:Arial;" text-anchor="middle" x="100.0" y="100.0">2024</text><line stroke="#e1ed5e" stroke-width="0.3" x1="100.0" x2="100.0" y1="15.0" y2="10.0" /><path d="M 100.0 14.0 a86.0,86.0 0 0,1 42.35913384403234,11.155469271406648" fill="none" id="id85" stroke="none" /><text fill="#e1ed5e" style="font-size:6.75px; font-family:Arial;" text-anchor="middle"><textPath startOffset="22.145653131862478" xlink:href="#id85">January</textPath></text><path d="M 100.0 79.0 l 0.0 -29.931553211934165 a50.931553211934165,50.931553211934165 0 0,0 0.8743078373554872,0.0075048812523226035 l -0.5138149125066325 29.927142728876277" fill="#9aff23" stroke="none" /><path d="M 100.72087961077811 79.0123766808444 l 0.8573307625671266 -24.96024972222669 a45.97496911374189,45.97496911374189 0 0,0 0.7885237872353348,0.03386260423292092 l -1.2856803104032977 24.941854549567935" fill="#d4ff1c" stroke="none" /><path d="M 101.44090949804482 79.04949213459386 l 1.7023560772629966 -24.751883747601678 a45.810356008501415,45.810356008501415 0 0,0 0.7840791576114327,0.06069268566228907 l -2.1270042296496627 24.719013294944332" fill="#d6ff1c" stroke="none" /><path d="M 101.80034050326958 79.07731436759882 l 2.156404987658931 -25.06069466914275 a46.153299977752425,46.153299977752425 0 0,0 0.7887828339637056,0.07469855447078329 l -2.5862873850076493 25.019984359166784" fill="#d2ff1c" stroke="none" /><path d="M 102.51750503828377 79.15144685158666 l 2.987093569606037 -24.737419825650175 a45.91711595718999,45.91711595718999 0 0,0 0.7817327290241739,0.10121095260664778 l -3.4113041205210024 24.682497276843133" fill="#d5ff1c" stroke="none" /><path d="M 103.23170211078529 79.25015418208739 l 3.812389381507065 -24.47827465288752 a45.773377702251736,45.773377702251736 0 0,0 0.7753628671399949,0.12758566472771157 l -4.23202975170013 24.40922298966414" fill="#d6ff1c" stroke="none" /><path d="M 104.64783097203109 79.52079915486377 l 5.488915035009455 -24.185172417043496 a45.80021679549746,45.80021679549746 0 0,0 0.7652296869182162,0.18059212250028625 l -5.903276875667556 24.087384150896984" fill="#d6ff1c" stroke="none" /><path d="M 104.9986988182912 79.60360301121754 l 5.929754062332591 -24.195420107852424 a45.91144992639367,45.91144992639367 0 0,0 0.7638675040299668,0.19417213244377957 l -6.344226859587952 24.090062743573377" fill="#d5ff1c" stroke="none" /><path d="M 106.38641147887787 79.99465700312896 l 7.621740239654294 -23.87499274539837 a46.062047060716935,46.062047060716935 0 0,0 0.7512001797950091,0.24693441983010636 l -8.030463157097046 23.740637404166243" fill="#d3ff1c" stroke="none" /><path d="M 107.06938296918511 80.22567764915836 l 8.356507998304519 -23.374640135659202 a45.8234773429771,45.8234773429771 0 0,0 0.7384362781807084,0.27116402975618253 l -8.75653342813935 23.2277452568943" fill="#d6ff1c" stroke="none" /><path d="M 107.40779381753099 80.34994680014964 l 8.721293117494037 -23.134266146106828 a45.723576273673544,45.723576273673544 0 0,0 0.7320730762477122,0.2831815926134725 l -9.117138456235274 22.98114466535532" fill="#d7ff1c" stroke="none" /><path d="M 109.3889696526874 81.21577127319529 l 8.65623901085032 -17.318276606332535 a40.36112544317638,40.36112544317638 0 0,0 0.6170885086098763,0.3150897894259064 l -8.952254741173775 17.167128865233792" fill="#ffe415" stroke="none" /><path d="M 109.71004243097381 81.37971332152246 l 2.7868587975766013 -5.344169205459313 a27.02716570654978,27.02716570654978 0 0,0 0.4095403050197187,0.21805714497358286 l -2.8781879183828796 5.295541592763156" fill="#ff2d04" stroke="none" /><path d="M 110.34350942703115 81.72400993836675 l 12.155957805419003 -21.478412680795234 a45.67973908803885,45.67973908803885 0 0,0 0.6791218385455977,0.3920911762968544 l -12.522872111824999 21.26657460722221" fill="#d7ff1c" stroke="none" /><line stroke="#e1ed5e" stroke-width="0.3" x1="143.13028292997686" x2="145.6673583964461" y1="26.7553504044142" y2="22.446841604673864" /><path d="M 143.63769802327073 25.89364864446614 a86.0,86.0 0 0,1 29.32050498858742,28.57503671076993" fill="none" id="id86" stroke="none" /><text fill="#e1ed5e" style="font-size:6.75px; font-family:Arial;" text-anchor="middle"><textPath startOffset="20.669276256404974" xlink:href="#id86">February</textPath></text><path d="M 110.96478420261332 82.08984904055464 l 12.946509906248108 -21.1471509638643 a45.79544540114267,45.79544540114267 0 0,0 0.666947140081982,0.4162243426083625 l -13.307621175119804 20.92179082441439" fill="#d6ff1c" stroke="none" /><path d="M 111.8722381534696 82.67804972795209 l 14.168189046733316 -20.671811240643407 a46.061152424275406,46.061152424275406 0 0,0 0.6483763220385448,0.45261702822568983 l -14.520960459945622 20.425549396612592" fill="#d3ff1c" stroke="none" /><path d="M 112.45986205192187 83.09580414077388 l 14.562643290766937 -19.75702246054955 a45.54405256107432,45.54405256107432 0 0,0 0.625356734708416,0.4692793521668616 l -14.89965301438612 19.504124081118672" fill="#d9ff1c" stroke="none" /><path d="M 114.39649973595853 84.71141617570332 l 43.18949920787558 -45.86575147289004 a84.0,84.0 0 0,0 1.0413100565387516,0.9975514787776794 l -43.97048175027964 45.117587863806776" fill="#4dd2ff" stroke="none" /><path d="M 115.6541949942343 86.00192230759917 l 18.600837353332476 -16.632983459804873 a45.95290141485096,45.95290141485096 0 0,0 0.5207753388445798,0.5925467381947372 l -18.883623756135645 16.31122444379884" fill="#d4ff1c" stroke="none" /><path d="M 116.35404254752997 86.82634096563983 l 18.9730550746556 -15.283350136043286 a45.363037787739216,45.363037787739216 0 0,0 0.4832968743425104,0.6106298126685091 l -19.23261837963967 14.955400379460098" fill="#dbff1b" stroke="none" /><path d="M 116.57777611688842 87.10902102172516 l 19.38234169003603 -15.071826131217652 a45.55270071334239,45.55270071334239 0 0,0 0.47471992748981157,0.6214236237985596 l -19.638213594880146 14.73688159417821" fill="#d9ff1c" stroke="none" /><path d="M 117.01052211995028 87.68569379921539 l 2.6400010827790044 -1.911157192853913 a24.259160556473333,24.259160556473333 0 0,0 0.2413034458373713,0.339423515828686 l -2.6724196271463363 1.8655564503157231" fill="#ff0300" stroke="none" /><path d="M 117.21940702142032 87.97951657250589 l 20.504444634891474 -14.313694810575045 a46.00628138919525,46.00628138919525 0 0,0 0.4465024913371476,0.6514604787495206 l -20.74713686304395 13.959599596755476" fill="#d3ff1c" stroke="none" /><path d="M 117.62189284568427 88.57770195909679 l 20.683175287789048 -13.406584334510347 a45.648128600438326,45.648128600438326 0 0,0 0.42057644259862104,0.6612160236553691 l -20.91026942201356 13.049554636176307" fill="#d8ff1c" stroke="none" /><line stroke="#e1ed5e" stroke-width="0.3" x1="172.87174338648825" x2="177.1583165268699" y1="56.24261187166439" y2="53.66864786411523" /><path d="M 173.72905801456457 55.72781907015455 a86.0,86.0 0 0,1 12.242430191666344,42.057860355516425" fill="none" id="id87" stroke="none" /><text fill="#e1ed5e" style="font-size:6.75px; font-family:Arial;" text-anchor="middle"><textPath startOffset="22.145653131862474" xlink:href="#id87">March</textPath></text><path d="M 118.00360718960297 89.18935116829356 l 21.14219465421224 -12.695280425261828 a45.66095172276684,45.66095172276684 0 0,0 0.39774230907569186,0.6754533955848494 l -21.357010673417697 12.330475861383423" fill="#d8ff1c" stroke="none" /><path d="M 118.36410011445183 89.81374322990088 l 21.133679605723447 -11.722495827143451 a45.16711240704538,45.16711240704538 0 0,0 0.37027278311045136,0.681260216230519 l -21.33179773844924 11.357980777438328" fill="#deff1b" stroke="none" /><path d="M 118.53625476483649 90.13048839642627 l 22.15464077559623 -11.796098347900719 a46.099323579113786,46.099323579113786 0 0,0 0.3659231079214927,0.7017058082097672 l -22.353871952492668 11.414046296586452" fill="#d2ff1c" stroke="none" /><path d="M 119.0197475246899 91.09779779509293 l 5.762670464029228 -2.6972207514552844 a27.362654372121423,27.362654372121423 0 0,0 0.19546777326762202,0.4271323609063307 l -5.808122702151902 2.5978994083342695" fill="#ff3204" stroke="none" /><path d="M 119.16976305983485 91.42560881287824 l 22.510831018421786 -10.068808388328916 a45.66005708632531,45.66005708632531 0 0,0 0.31389358040172904,0.7182499405625364 l -22.680358480840486 9.68089637799053" fill="#d8ff1c" stroke="none" /><path d="M 119.4528033332814 92.08871423366111 l 27.847308731293296 -11.325258032080388 a51.062170132396716,51.062170132396716 0 0,0 0.32325107411933357,0.8148038700111432 l -28.037618480378754 10.84555314485568" fill="#98ff23" stroke="none" /><path d="M 119.58574465831526 92.42381321644754 l 22.83104541125041 -8.831538831788283 a45.47963873728456,45.47963873728456 0 0,0 0.27541021707555974,0.7305583214950764 l -22.979286312140413 8.438312230099049" fill="#daff1c" stroke="none" /><path d="M 119.71291397450082 92.76114493625339 l 14.082958968316445 -5.171457602473238 a36.00245670006959,36.00245670006959 0 0,0 0.20805962014860674,0.5819797873372988 l -14.169658758508996 4.928942858755022" fill="#ffab0f" stroke="none" /><path d="M 119.83427380445688 93.10060997987247 l 23.508880057599423 -8.177608822629535 a45.89057507609144,45.89057507609144 0 0,0 0.25243002065316367,0.746264502185857 l -23.645795499824953 7.772842645969516" fill="#d5ff1c" stroke="none" /><path d="M 120.16314734710363 94.1308016681162 l 6.080755284420165 -1.7700192414176374 a27.33313136955112,27.33313136955112 0 0,0 0.1272702286494406,0.45163714286439144 l -6.110244005144187 1.6653741746502329" fill="#ff3104" stroke="none" /><path d="M 120.26092885502905 94.47779374421319 l 8.843842361450395 -2.410428562433435 a30.166444979858845,30.166444979858845 0 0,0 0.13188557027982756,0.500790992083053 l -8.883917412534952 2.2582570659775834" fill="#ff5a08" stroke="none" /><path d="M 120.35273937422433 94.82641323984039 l 24.03698221902188 -6.1101068841875765 a45.80140964408617,45.80140964408617 0 0,0 0.18715867859998234,0.7636712767435905 l -24.138328424138155 5.696579782835891" fill="#d6ff1c" stroke="none" /><path d="M 120.43855184770803 95.1765574152323 l 14.59381040343543 -3.4440995183252276 a35.994703184243036,35.994703184243036 0 0,0 0.13676125502658446,0.6025953237921645 l -14.650782520019682 3.193069860594037" fill="#ffab0f" stroke="none" /><path d="M 120.51834098615036 95.52812308129327 l 24.067352852981692 -5.245367536793831 a45.632323356638054,45.632323356638054 0 0,0 0.16023961832005734,0.7668045810563029 l -24.153850182126117 4.831446504452123" fill="#d8ff1c" stroke="none" /><path d="M 120.65975698304385 96.23510406497455 l 23.80988119994257 -4.338953503503196 a45.20200322826483,45.20200322826483 0 0,0 0.13256064850139537,0.764574593934549 l -23.880856665936196 3.9295858766480536" fill="#ddff1b" stroke="none" /><path d="M 120.82617615685814 97.30363454192243 l 24.669464744095933 -3.1939561110135974 a45.875366256585515,45.875366256585515 0 0,0 0.0944113153182595,0.7818611265088693 l -24.720658145673855 2.7700013075813152" fill="#d5ff1c" stroke="none" /><path d="M 120.93736805541906 98.37931529534042 l 14.923817477698524 -1.155197857592095 a35.96846051529165,35.96846051529165 0 0,0 0.042367487435192454,0.6160139689223728 l -14.941448926298783 0.8988404645153879" fill="#ffab0f" stroke="none" /><path d="M 120.96210409425399 98.7389718711861 l 24.42980778444465 -1.4696365717478856 a45.47397270648824,45.47397270648824 0 0,0 0.04018688831083895,0.7796148972167838 l -24.451436262212063 1.0500498811543713" fill="#daff1c" stroke="none" /><line stroke="#e1ed5e" stroke-width="0.3" x1="184.99686870605535" x2="189.99668451229388" y1="99.2704041080226" y2="99.22748670261217" /><path d="M 185.99683186730306 99.26182062694052 a86.0,86.0 0 0,1 -10.086455211305974,41.156179273409016" fill="none" id="id88" stroke="none" /><text fill="#e1ed5e" style="font-size:6.75px; font-family:Arial;" text-anchor="middle"><textPath startOffset="21.40746469413373" xlink:href="#id88">April</textPath></text><path d="M 120.99922638620191 99.81974689727618 l 24.80884562361936 -0.21295410204216927 a45.80975958420706,45.80975958420706 0 0,0 0.0,0.7864144095319893 l -24.80884562361936 -0.21295410204216625" fill="#d6ff1c" stroke="none" /><path d="M 120.98066250479742 100.90099992219065 l 23.903529119610013 1.0265203909517042 a44.9255605678338,44.9255605678338 0 0,0 -0.03970223794816523,0.7702128096562986 l -23.882385292205274 -1.4367049939847334" fill="#e1ff1b" stroke="none" /><path d="M 120.93736805541906 101.62068470465957 l 8.692527548671038 0.6728566076535509 a29.718530334802303,29.718530334802303 0 0,0 -0.043737719590287404,0.5082985999613832 l -8.679696206383008 -0.8219762549905915" fill="#ff5407" stroke="none" /><path d="M 120.9064616781168 101.97986365728391 l 24.69331413209423 2.338482521851226 a45.803795341263566,45.803795341263566 0 0,0 -0.08084938612190715,0.7821444700788214 l -24.649532353490656 -2.762031514212979" fill="#d6ff1c" stroke="none" /><path d="M 120.82617615685814 102.69636545807757 l 24.40329537084548 3.159495156749831 a45.6069753241282,45.6069753241282 0 0,0 -0.10718830074175933,0.7755611483750665 l -24.34546255354851 -3.577944613324983" fill="#d8ff1c" stroke="none" /><path d="M 120.7213421655516 103.40968896794604 l 24.42346296843613 4.018871537238494 a45.75190642765516,45.75190642765516 0 0,0 -0.13417330987739812,0.7738759962032592 l -24.350874841066496 -4.437540566362342" fill="#d7ff1c" stroke="none" /><path d="M 120.51834098615036 104.47187691870673 l 14.617274704304267 3.1857669881154442 a35.96040878731793,35.96040878731793 0 0,0 -0.13663095405591924,0.6020211936732693 l -14.560432888690684 -3.43622251572773" fill="#ffaa0f" stroke="none" /><path d="M 120.43855184770803 104.8234425847677 l 24.07882937611491 5.682538169509917 a45.74027615391533,45.74027615391533 0 0,0 -0.18690886831405543,0.7626519655290709 l -23.97773298128456 -6.095045959647088" fill="#d7ff1c" stroke="none" /><path d="M 120.26092885502905 105.52220625578681 l 24.225763772337935 6.602839643337075 a46.10946279211773,46.10946279211773 0 0,0 -0.21469775244973008,0.7618865819978055 l -24.108847527813626 -7.017734149237889" fill="#d2ff1c" stroke="none" /><path d="M 119.83427380445688 106.89939002012753 l 25.660466748707194 8.926042361987681 a48.16861766835969,48.16861766835969 0 0,0 -0.2783683452119259,0.7786458046600209 l -25.503458233451326 -9.365223123028622" fill="#baff1f" stroke="none" /><path d="M 119.58574465831526 107.57618678355244 l 22.62801131186667 8.753000880477424 a45.26194386984696,45.26194386984696 0 0,0 -0.28653251388887413,0.7222491118915463 l -22.47442012301167 -9.140151009582533" fill="#dcff1b" stroke="none" /><path d="M 118.8641267826498 109.22738970284198 l 21.473382003567316 10.50370718283925 a44.904685717531564,44.904685717531564 0 0,0 -0.3446543400548391,0.689539554899179 l -21.289907750300745 -10.870778593902175" fill="#e1ff1b" stroke="none" /><path d="M 118.70294669586154 109.54985784667822 l 21.85907282401449 11.161398336002124 a45.54375434892714,45.54375434892714 0 0,0 -0.3615131599311056,0.6932491514647712 l -21.664251595108436 -11.534993730571399" fill="#d9ff1c" stroke="none" /><line stroke="#e1ed5e" stroke-width="0.3" x1="174.33088141563837" x2="178.70328620479359" y1="141.23008692659167" y2="143.65538615756765" /><path d="M 175.20536237346943 141.71514677278685 a86.0,86.0 0 0,1 -30.301960400862466,31.631185727798858" fill="none" id="id89" stroke="none" /><text fill="#e1ed5e" style="font-size:6.75px; font-family:Arial;" text-anchor="middle"><textPath startOffset="22.145653131862474" xlink:href="#id89">May</textPath></text><path d="M 118.36410011445183 110.18625677009912 l 21.14619708624016 11.729439062579068 a45.181426590109766,45.181426590109766 0 0,0 -0.38203399443521013,0.6750174623766866 l -20.941729726783574 -12.090713295054877" fill="#ddff1b" stroke="none" /><path d="M 118.00360718960297 110.81064883170644 l 7.955678790386194 4.7771565284088435 a30.27976559578527,30.27976559578527 0 0,0 -0.2714105673289461,0.4433287644358362 l -7.8725002586018435 -4.913022408969237" fill="#ff5c08" stroke="none" /><path d="M 117.423217284605 111.72311816256416 l 20.578149164455226 13.845897131463605 a45.802602492674865,45.802602492674865 0 0,0 -0.44452573659882516,0.6485763345102725 l -20.33743369104108 -14.197108201043921" fill="#d6ff1c" stroke="none" /><path d="M 117.21940702142032 112.02048342749411 l 12.792842678508087 8.930397731829782 a36.60156490374374,36.60156490374374 0 0,0 -0.36407210850322674,0.5121130146090511 l -12.6376554714749 -9.148687973148338" fill="#ffb310" stroke="none" /><path d="M 117.01052211995028 112.31430620078461 l 20.063911605418987 14.5247247175813 a45.76950094433846,45.76950094433846 0 0,0 -0.4661906579357176,0.6324771619980563 l -19.811618927899442 -14.867008188848233" fill="#d6ff1c" stroke="none" /><path d="M 116.35404254752997 113.17365903436017 l 19.321410370590385 15.5639605036708 a45.810356008501415,45.810356008501415 0 0,0 -0.49857631321684986,0.6081820347499968 l -19.051387238134907 -15.893344820119289" fill="#d6ff1c" stroke="none" /><path d="M 116.1254893667686 113.45245675266167 l 11.796027630780479 9.840665789857868 a36.36180233741521,36.36180233741521 0 0,0 -0.40397172219041333,0.4758776729678597 l -11.625361345082952 -10.041710245275285" fill="#ffb010" stroke="none" /><path d="M 115.89218393027572 113.72728997021213 l 18.7604034565139 16.204789683759223 a45.790077582493524,45.790077582493524 0 0,0 -0.5189300878624503,0.5904471813051233 l -18.479462304692863 -16.52444914287564" fill="#d6ff1c" stroke="none" /><path d="M 115.16444852881244 114.52719865689866 l 10.799498630400747 10.345675393381596 a35.95533918081596,35.95533918081596 0 0,0 -0.4308018050948963,0.4420406035949748 l -10.620310024155044 -10.529538689044308" fill="#ffaa0f" stroke="none" /><path d="M 114.91283532996324 114.78537596483092 l 17.502016794742133 17.352427806475696 a45.6460411154081,45.6460411154081 0 0,0 -0.5564645399821098,0.5517084613816652 l -17.20156033463006 -17.650316278086024" fill="#d8ff1c" stroke="none" /><path d="M 114.39649973595853 115.28858382429668 l 10.3198572866214 10.959330814781927 a36.053450977236466,36.053450977236466 0 0,0 -0.45422236999848203,0.4204214445243537 l -10.13020514530895 -11.13487000543866" fill="#ffac0f" stroke="none" /><path d="M 114.13192950727249 115.5334660781643 l 16.305779204553243 17.922907697892242 a45.230333382246435,45.230333382246435 0 0,0 -0.5788082108689367,0.5175738712675468 l -15.995705966860928 -18.200177099043174" fill="#ddff1b" stroke="none" /><path d="M 112.45986205192187 116.90419585922612 l 8.893396915384656 12.065600942051445 a35.989037153446716,35.989037153446716 0 0,0 -0.5004515365315829,0.3622883187268717 l -8.684964368479106 -12.216490032151395" fill="#ffab0f" stroke="none" /><path d="M 112.16784306229584 117.11559508785304 l 14.429208752334418 20.296489129476292 a45.90280177412561,45.90280177412561 0 0,0 -0.6461473111099734,0.451061005483841 l -14.078666350050687 -20.541194950765252" fill="#d5ff1c" stroke="none" /><path d="M 111.27062007382361 117.71928675628689 l 12.972157791196743 20.394386665900285 a45.170392740664305,45.170392740664305 0 0,0 -0.6578441150834193,0.4105433817524396 l -12.620149547323608 -20.614065844494274" fill="#deff1b" stroke="none" /><path d="M 110.96478420261333 117.91015095944535 l 12.833467148338196 20.962504114311514 a45.57894338229377,45.57894338229377 0 0,0 -0.6708075423900097,0.4028006553390262 l -12.471726849390748 -21.17971877018646" fill="#d9ff1c" stroke="none" /><line stroke="#e1ed5e" stroke-width="0.3" x1="143.1302829299769" x2="145.66735839644613" y1="173.24464959558577" y2="177.55315839532614" /><path d="M 143.63769802327073 174.10635135553383 a86.0,86.0 0 0,1 -40.68552437913181,11.842963189579606" fill="none" id="id90" stroke="none" /><text fill="#e1ed5e" style="font-size:6.75px; font-family:Arial;" text-anchor="middle"><textPath startOffset="21.407464694133747" xlink:href="#id90">June</textPath></text><path d="M 110.34350942703117 118.27599006163325 l 11.78448863239971 20.82206224555881 a44.9255605678338,44.9255605678338 0 0,0 -0.6744306699692855,0.37409532376327703 l -11.42531377427433 -21.02129048475523" fill="#e1ff1b" stroke="none" /><path d="M 110.02825361518725 118.45085714620011 l 11.413351586102337 20.999281405848098 a44.90051074747112,44.90051074747112 0 0,0 -0.6803735569876836,0.3622605969029437 l -11.0511892133281 -21.19211247047361" fill="#e1ff1b" stroke="none" /><path d="M 109.3889696526874 118.78422872680471 l 11.074290127552642 22.155998627964706 a45.76950094433846,45.76950094433846 0 0,0 -0.7058087512959069,0.34524642878639256 l -10.692321126994665 -22.342838806848324" fill="#d6ff1c" stroke="none" /><path d="M 108.73861861582097 119.09545874513695 l 10.230759491847596 22.356055847808673 a45.58580226167879,45.58580226167879 0 0,0 -0.714365549732959,0.31952662403258963 l -9.845480539259011 -22.528386222751113" fill="#d9ff1c" stroke="none" /><path d="M 108.4095320186766 119.2426549942271 l 10.228341761529451 23.404447624795406 a46.54187040552118,46.54187040552118 0 0,0 -0.7348405601159126,0.3136597387927622 l -9.825066126243108 -23.57658201324757" fill="#cdff1d" stroke="none" /><path d="M 107.74402155503746 119.51999308798841 l 6.624567831081139 16.698238422321715 a38.96429974580964,38.96429974580964 0 0,0 -0.6238513498598821,0.24131910397918663 l -6.336944218727727 -16.809497414438944" fill="#ffd213" stroke="none" /><path d="M 107.06938296918513 119.77432235084164 l 8.239253263954632 23.04665777506226 a45.47516555507694,45.47516555507694 0 0,0 -0.7373348279428924,0.25648332797838846 l -7.8424126639667175 -23.184699535609237" fill="#daff1c" stroke="none" /><path d="M 106.38641147887787 120.00534299687104 l 7.282012738342498 22.810801186227707 a44.94494435740016,44.94494435740016 0 0,0 -0.7370101235492561,0.22832762023275976 l -6.889361981921618 -22.932445394267113" fill="#e0ff1b" stroke="none" /><path d="M 105.3480935250658 120.30758222061773 l 6.232358369785076 23.665279866475075 a45.472183433605196,45.472183433605196 0 0,0 -0.7565590570088301,0.19231435379046294 l -5.825194019550849 -23.76877945210081" fill="#daff1c" stroke="none" /><path d="M 104.9986988182912 120.39639698878246 l 3.706167273372523 15.122427208043032 a36.56995441614322,36.56995441614322 0 0,0 -0.6110105306582365,0.14419682153992464 l -3.4460245889744074 -15.183820173229183" fill="#ffb310" stroke="none" /><path d="M 104.64783097203109 120.47920084513623 l 5.301865683624622 23.360998461920413 a44.9550835704041,44.9550835704041 0 0,0 -0.7540414284535204,0.1643398197703209 l -4.900061838551966 -23.448569739824453" fill="#e0ff1b" stroke="none" /><path d="M 104.29559338865022 120.5559693870025 l 3.070308512739311 14.692537697650714 a36.00991200374895,36.00991200374895 0 0,0 -0.6061728785260082,0.12125155256677882 l -2.817639148682344 -14.743078646880354" fill="#ffab0f" stroke="none" /><path d="M 103.94208987418118 120.62667999033965 l 4.498493321458375 23.538017940211354 a44.96402993481934,44.96402993481934 0 0,0 -0.7593895074976639,0.13838606486153346 l -4.093769080409654 -23.61177217900425" fill="#e0ff1b" stroke="none" /><path d="M 103.58742460773223 120.69131181640829 l 2.5869621034642387 14.920909954355025 a36.14351104568326,36.14351104568326 0 0,0 -0.6122409522666339,0.10074401571046508 l -2.3304436481445325 -14.963119968561161" fill="#ffad10" stroke="none" /><path d="M 103.2317021107853 120.74984581791261 l 2.4731219983558583 15.879217327460289 a37.0706526112497,37.0706526112497 0 0,0 -0.629627195484365,0.09253351533293767 l -2.200169697263808 -15.919331916092109" fill="#ffb911" stroke="none" /><path d="M 102.875027216393 120.80226474461374 l 3.2736353096252353 23.68639434084271 a44.911544596916585,44.911544596916585 0 0,0 -0.7646130117399618,0.09899446245552651 l -2.8665444759944982 -23.739100399498632" fill="#e1ff1b" stroke="none" /><path d="M 102.51750503828377 120.84855314841334 l 1.8610034451488415 15.411778187350192 a36.52373153333112,36.52373153333112 0 0,0 -0.6231019879982539,0.06981987742157834 l -1.5961655555497885 -15.441453825278742" fill="#ffb210" stroke="none" /><path d="M 102.15924093988457 120.88869738790638 l 1.5815088947315776 15.299663927313416 a36.381186126981575,36.381186126981575 0 0,0 -0.6217725516926054,0.058882507099774696 l -1.318636779653957 -15.324558189918374" fill="#ffb010" stroke="none" /><path d="M 101.80034050326958 120.92268563240118 l 1.304601113439097 15.161442473018425 a36.217467658182606,36.217467658182606 0 0,0 -0.6198895622417124,0.047983372573098336 l -1.0441425564221487 -15.181603612586578" fill="#ffae10" stroke="none" /><path d="M 101.44090949804482 120.95050786540614 l 1.044551791389098 15.18755379919129 a36.223431901126105,36.223431901126105 0 0,0 -0.6207241216554887,0.03734122176482602 l -0.7836833176011441 -15.203246998780807" fill="#ffae10" stroke="none" /><path d="M 101.08105385017728 120.97215588758144 l 1.5361107979746067 29.800139105408636 a50.83970387060433,50.83970387060433 0 0,0 -0.8719596034701894,0.03744569718426625 l -1.0243254339035877 -29.822117371018734" fill="#9bff22" stroke="none" /><path d="M 100.72087961077811 120.9876233191556 l 0.8207747660402737 23.89596176943835 a44.91005353618071,44.91005353618071 0 0,0 -0.7707135885147447,0.019850848130830278 l -0.4104478634547851 -23.906530334919225" fill="#e1ff1b" stroke="none" /><line stroke="#e1ed5e" stroke-width="0.3" x1="101.45913802915013" x2="101.54496967792366" y1="184.9874750549273" y2="189.98673829345242" /><path d="M 101.47630435890484 185.9873277026323 a86.0,86.0 0 0,1 -42.54439059252881,-10.42667462771756" fill="none" id="id91" stroke="none" /><text fill="#e1ed5e" style="font-size:6.75px; font-family:Arial;" text-anchor="middle"><textPath startOffset="22.145653131862474" xlink:href="#id91">July</textPath></text><path d="M 100.36049292484886 120.99690560180557 l 0.2641511356515117 15.385479374414825 a36.38774679421942,36.38774679421942 0 0,0 -0.6246440605003621,0.005361817999027966 l -1.8844554857630757e-15 -15.387746794219417" fill="#ffb010" stroke="none" /><path d="M 100.0 121.0 l 1.8463281305860086e-15 15.076413312568931 a36.07641331256893,36.07641331256893 0 0,0 -0.6192996072906687,-0.005315942296004804 l 0.25880668244181465 -15.074191768467362" fill="#ffac0f" stroke="none" /><path d="M 99.63950707515114 120.99690560180557 l -0.25656446931361004 14.943594094707796 a35.945796392106374,35.945796392106374 0 0,0 -0.6168755445161441,-0.015888525818532218 l 0.5130533279004981 -14.936987851539216" fill="#ffaa0f" stroke="none" /><path d="M 99.27912038922189 120.98762331915562 l -0.5229217066884799 15.224294932605572 a36.23327290198287,36.23327290198287 0 0,0 -0.6214424527816153,-0.02668741282474758 l 0.7841899200709339 -15.213074951354995" fill="#ffae10" stroke="none" /><path d="M 98.91894614982273 120.97215588758144 l -0.7708800915461795 14.954867833724034 a35.974722970382324,35.974722970382324 0 0,0 -0.6164622495886998,-0.037084838124447995 l 1.0274866932673257 -14.939431017774893" fill="#ffab0f" stroke="none" /><path d="M 98.55909050195518 120.95050786540614 l -2.0509219603618565 29.81995518816317 a50.890399935624046,50.890399935624046 0 0,0 -0.8710279811976958,-0.067423074510659 l 2.5625189363347882 -29.780354346657457" fill="#9aff22" stroke="none" /><path d="M 98.19965949673042 120.92268563240118 l -4.002210141357343 46.511748455558006 a67.68362057947826,67.68362057947826 0 0,0 -1.156746713221796,-0.10954511640712795 l 4.800056417964155 -46.436191583645694" fill="#38ff81" stroke="none" /><path d="M 97.84075906011543 120.88869738790638 l -1.6140417757527563 15.614390039742736 a36.69758921513403,36.69758921513403 0 0,0 -0.6260680339802012,-0.07015222906043543 l 1.8818457113337568 -15.584382050175329" fill="#ffb410" stroke="none" /><path d="M 96.76829788921471 120.74984581791261 l -1.062400710000703 6.821374673050766 a27.903611207096503,27.903611207096503 0 0,0 -0.47266391678213754,-0.07777666763678437 l 1.179342129835904 -6.802132006918312" fill="#ff3a05" stroke="none" /><path d="M 96.05791012581884 120.62667999033965 l -1.1278841628285976 5.901566538401158 a27.00837834127777,27.00837834127777 0 0,0 -0.4546455554167259,-0.09094184417473598 l 1.2290262037762816 -5.881335297563561" fill="#ff2c04" stroke="none" /><path d="M 95.70440661134978 120.55596938700252 l -1.352063023957776 6.470111021962293 a27.609872242129327,27.609872242129327 0 0,0 -0.46310641314390566,-0.10093188729250388 l 1.462931853720818 -6.445947676536069" fill="#ff3505" stroke="none" /><path d="M 95.35216902796893 120.47920084513623 l -1.4657699349168485 6.458452785946903 a27.622695364457847,27.622695364457847 0 0,0 -0.46151979192507175,-0.10891741424107551 l 1.576421880581808 -6.4323392280596" fill="#ff3505" stroke="none" /><path d="M 94.30408787586889 120.21278271476187 l -1.6396248396744533 5.818450126303794 a27.045058435380266,27.045058435380266 0 0,0 -0.44577981866482125,-0.12976000834864257 l 1.7392646707208814 -5.7894464236526355" fill="#ff2d04" stroke="none" /><path d="M 93.61358852112213 120.00534299687104 l -1.9311685565759398 6.049357998126072 a27.350129461940085,27.350129461940085 0 0,0 -0.446037974433573,-0.1466215416362209 l 2.0347292686572565 -6.015315535087829" fill="#ff3104" stroke="none" /><path d="M 93.27111125876986 119.89276391827306 l -4.802645241475644 14.198167282288411 a35.98844072915237,35.98844072915237 0 0,0 -0.5835169686369633,-0.20297749187491365 l 5.045667982157629 -14.113631357844907" fill="#ffab0f" stroke="none" /><path d="M 92.93061703081489 119.77432235084164 l -5.4484299635033295 15.240228301950143 a37.18486786361764,37.18486786361764 0 0,0 -0.5992267942550638,-0.22004437900641488 l 5.709245909412512 -15.144453073935008" fill="#ffbb11" stroke="none" /><path d="M 92.59220618246901 119.65005319985036 l -5.3667311289314785 14.235891925505175 a36.21388911241651,36.21388911241651 0 0,0 -0.5798149525037168,-0.22428487947226122 l 5.610318343928724 -14.141667157894874" fill="#ffae10" stroke="none" /><path d="M 91.59046798132341 119.24265499422711 l -6.332018274624354 14.488896980846784 a36.81210267964915,36.81210267964915 0 0,0 -0.5768747430749855,-0.2580287350269349 l 6.5798064205549744 -14.378064494909994" fill="#ffb610" stroke="none" /><path d="M 91.26138138417905 119.09545874513695 l -22.005241365901067 48.085423698270546 a73.88136363421202,73.88136363421202 0 0,0 -1.1487190029111762,-0.5376584955851684 l 22.82744908268373 -47.70058897111485" fill="#40ffc6" stroke="none" /><path d="M 90.6110303473126 118.78422872680471 l -19.060551918430036 38.133871994404124 a63.6321103479615,63.6321103479615 0 0,0 -0.9728827836975193,-0.49676088142023433 l 19.71236192384114 -37.80105316131105" fill="#33ff51" stroke="none" /><line stroke="#e1ed5e" stroke-width="0.3" x1="58.13341422392154" x2="55.67067388415222" y1="173.97424548756322" y2="178.32567169271397" /><path d="M 57.64086615596768 174.84453072859336 a86.0,86.0 0 0,1 -31.369924170532247,-30.572349798747897" fill="none" id="id92" stroke="none" /><text fill="#e1ed5e" style="font-size:6.75px; font-family:Arial;" text-anchor="middle"><textPath startOffset="22.145653131862474" xlink:href="#id92">August</textPath></text><path d="M 89.65649057296885 118.27599006163327 l -5.915158191641133 10.451517745119022 a33.00930137887617,33.00930137887617 0 0,0 -0.4907501200548206,-0.28333471391849396 l 6.093700779556353 -10.348436133924356" fill="#ff820c" stroke="none" /><path d="M 89.03521579738668 117.91015095944536 l -17.365921197924777 28.365927177165563 a54.25960077440487,54.25960077440487 0 0,0 -0.7902158225886905,-0.4931531174048823 l 17.85030114930318 -28.063638262919135" fill="#75ff27" stroke="none" /><path d="M 88.72937992617639 117.7192867562869 l -16.7621257927703 26.352845861326852 a52.23205638576344,52.23205638576344 0 0,0 -0.7524260720693071,-0.4877134893614242 l 17.212037497096617 -26.061218530261534" fill="#8bff24" stroke="none" /><path d="M 88.4268655584334 117.5232005979908 l -8.738398809885558 13.231049550491605 a36.85623807743102,36.85623807743102 0 0,0 -0.5249446483685761,-0.35320618695768263 l 8.96423974635114 -13.079093689476801" fill="#ffb610" stroke="none" /><path d="M 88.1277618465304 117.32195027204791 l -8.989191458420875 13.115498983077494 a36.90037347521289,36.90037347521289 0 0,0 -0.5194253112759195,-0.3625992078731946 l 9.213011860870559 -12.95925495939917" fill="#ffb711" stroke="none" /><path d="M 87.83215693770417 117.11559508785305 l -9.373361361177913 13.18480661269954 a37.1771143477911,37.1771143477911 0 0,0 -0.5169725413835209,-0.3742482521761134 l 9.598314912935388 -13.021957589150361" fill="#ffbb11" stroke="none" /><path d="M 87.54013794807813 116.9041958592261 l -9.408638182670733 12.76462467607555 a36.85743092601972,36.85743092601972 0 0,0 -0.506082383045032,-0.37977365506292987 l 9.626373554626532 -12.601231993748605" fill="#ffb610" stroke="none" /><path d="M 86.68645165197938 116.24036423190432 l -19.567530005421577 23.86920497074017 a51.864659020444094,51.864659020444094 0 0,0 -0.6836889888952778,-0.5703576707779466 l 19.974393328478747 -23.529785116050355" fill="#8fff24" stroke="none" /><path d="M 86.40962598614128 116.0094264158162 l -10.857297363970256 12.789868994471066 a37.77681897575961,37.77681897575961 0 0,0 -0.4907757812319477,-0.42392043087884623 l 11.075252624965065 -12.601604431127498" fill="#ffc312" stroke="none" /><path d="M 86.13680546590413 115.77377054828092 l -10.267710830596146 11.68277010753823 a36.5535527480486,36.5535527480486 0 0,0 -0.4677722865360637,-0.4182848630476026 l 10.46674814395558 -11.504789714607245" fill="#ffb210" stroke="none" /><path d="M 85.86807049272751 115.53346607816431 l -16.10248877066592 17.699455899807706 a44.928244477158366,44.928244477158366 0 0,0 -0.5660321864658941,-0.5239109414229578 l 16.403950728445782 -17.42042721225237" fill="#e1ff1b" stroke="none" /><path d="M 85.60350026404147 115.28858382429668 l -10.701135319854007 11.36423487329276 a36.60961663171746,36.60961663171746 0 0,0 -0.45383288053137366,-0.43476163343396823 l 10.894640686250696 -11.17886110955321" fill="#ffb310" stroke="none" /><path d="M 84.83555147118756 114.52719865689866 l -17.275106273766266 16.549161031554643 a44.922876658509225,44.922876658509225 0 0,0 -0.5286869951398288,-0.5614472677564796 l 17.55664910264235 -16.250172303853674" fill="#e1ff1b" stroke="none" /><path d="M 84.58840730492382 114.26474011684316 l -13.261210851591354 12.274378785850452 a39.069866845909516,39.069866845909516 0 0,0 -0.45135426307710763,-0.4961174007509086 l 13.46996281551034 -12.044923809541869" fill="#ffd413" stroke="none" /><path d="M 84.3458050057657 113.99807769240083 l -12.058811151106946 10.783063289639378 a37.176816135643925,37.176816135643925 0 0,0 -0.42131766273947274,-0.4793821599809105 l 12.24213987780501 -10.574468851847168" fill="#ffbb11" stroke="none" /><path d="M 84.1078160697243 113.72728997021213 l -14.495762427297342 12.52109433491589 a40.15476263733143,40.15476263733143 0 0,0 -0.4461106868748054,-0.5255172674091532 l 14.708567677679259 -12.270410285057183" fill="#ffe215" stroke="none" /><path d="M 83.4222238831116 112.89097897827486 l -20.5095039701897 15.94831433784526 a46.980540474015314,46.980540474015314 0 0,0 -0.4895999231221314,-0.6409020157355351 l 20.780255870666128 -15.593891408868854" fill="#c8ff1d" stroke="none" /><path d="M 82.78059297857968 112.02048342749411 l -13.723751409457499 9.58024432404791 a37.736858548038185,37.736858548038185 0 0,0 -0.36624567011611975,-0.5343633780838755 l 13.886186816388943 -9.343246210893984" fill="#ffc212" stroke="none" /><path d="M 82.37810715431573 111.42229804090323 l -13.837580534147222 8.969352521329153 a37.49023710232463,37.49023710232463 0 0,0 -0.34541417219287984,-0.5430484504562592 l 13.989512397965992 -8.730490396194222" fill="#ffbf11" stroke="none" /><path d="M 82.18462484594161 111.11811171558189 l -47.8796165866042 29.880421911173013 a77.43843812571298,77.43843812571298 0 0,0 -0.6941140398951025,-1.1337831194734174 l 48.38549859095471 -29.054101675575037" fill="#45ffec" stroke="none" /><line stroke="#e1ed5e" stroke-width="0.3" x1="26.387840678322732" x2="22.057713659400548" y1="142.50000000000003" y2="145.00000000000006" /><path d="M 25.521815274538298 143.00000000000003 a86.0,86.0 0 0,1 -11.493303480769221,-40.785679425670985" fill="none" id="id93" stroke="none" /><text fill="#e1ed5e" style="font-size:6.75px; font-family:Arial;" text-anchor="middle"><textPath startOffset="21.40746469413373" xlink:href="#id93">September</textPath></text><path d="M 81.63589988554817 110.18625677009913 l -13.83833549207446 7.6758914248194445 a36.82462758983049,36.82462758983049 0 0,0 -0.3018824232510931,-0.5554296570560561 l 13.968063264940884 -7.437206934288802" fill="#ffb610" stroke="none" /><path d="M 81.4637452351635 109.86951160357371 l -13.448456049544797 7.160545359083184 a36.235956811307446,36.235956811307446 0 0,0 -0.2876305530198657,-0.5515695109255907 l 13.569394671539612 -6.92862960505309" fill="#ffae10" stroke="none" /><path d="M 81.1358732173502 109.22738970284198 l -21.591249868856348 10.561362262186172 a45.035899062288465,45.035899062288465 0 0,0 -0.3337390490721826,-0.6973862539673373 l 21.76936817588844 -10.189163506153731" fill="#dfff1b" stroke="none" /><path d="M 80.68587082218212 108.24405325689762 l -22.54623956754515 9.62364898910832 a45.51423134635684,45.51423134635684 0 0,0 -0.300554647310812,-0.7212217404683875 l 22.70812005939245 -9.23519473919865" fill="#d9ff1c" stroke="none" /><path d="M 80.41425534168474 107.57618678355246 l -22.43109604835476 8.67682982632938 a45.05080966964721,45.05080966964721 0 0,0 -0.27281336472833484,-0.7236698621194447 l 22.57674009689753 -8.29049168401579" fill="#dfff1b" stroke="none" /><path d="M 80.05021161711548 106.5578916946017 l -29.912925685135452 9.832972818903855 a52.48762419589224,52.48762419589224 0 0,0 -0.274023599852061,-0.8583750236589696 l 30.077314000764765 -9.318028761553494" fill="#88ff25" stroke="none" /><path d="M 79.83685265289637 105.86919833188381 l -8.646543677493062 2.5168828484404524 a30.005410420384457,30.005410420384457 0 0,0 -0.1397130608012596,-0.49579236456723286 l 8.688475230368896 -2.368082559970224" fill="#ff5808" stroke="none" /><path d="M 79.56144815229197 104.8234425847677 l -8.86913126582435 2.0930908293421564 a30.112766793367385,30.112766793367385 0 0,0 -0.11441293897893791,-0.5041245197451893 l 8.903755066360956 -1.9405319756579407" fill="#ff5908" stroke="none" /><path d="M 79.34024301695615 103.76489593502545 l -5.87582464448476 1.0707709842424196 a26.97259288361679,26.97259288361679 0 0,0 -0.07910057406881914,-0.4562310910693869 l 5.893340036045814 -0.96974686025244" fill="#ff2c04" stroke="none" /><path d="M 79.13060592940153 102.33845913500099 l -6.243066408880482 0.6995486129054479 a27.28213709238423,27.28213709238423 0 0,0 -0.04815635952389899,-0.4658690944660038 l 6.2541551608860475 -0.5922749961565127" fill="#ff3004" stroke="none" /><path d="M 79.0935383218832 101.97986365728391 l -31.42663982510171 2.9761354655913634 a52.567246839187916,52.567246839187916 0 0,0 -0.07736491259775877,-0.8990975553354551 l 31.47309836039721 -2.4362168628802463" fill="#87ff25" stroke="none" /><path d="M 79.06263194458094 101.62068470465958 l -23.857473766346722 1.8467193547246121 a44.928840901452716,44.928840901452716 0 0,0 -0.05292197873080484,-0.769473955968132 l 23.885659706242592 -1.4369019746021368" fill="#e1ff1b" stroke="none" /><path d="M 79.00696218219943 100.54070618675478 l -29.86081482054463 0.7691086661748593 a50.87071793391051,50.87071793391051 0 0,0 -0.014991281788522475,-0.8731670079117372 l 29.869617533931816 -0.25639474229406983" fill="#9aff22" stroke="none" /><line stroke="#e1ed5e" stroke-width="0.3" x1="15.003131293944662" x2="10.003315487706104" y1="100.72959589197737" y2="100.7725132973878" /><path d="M 14.003168132696942 100.73817937305945 a86.0,86.0 0 0,1 10.791469493833604,-42.45332614584628" fill="none" id="id94" stroke="none" /><text fill="#e1ed5e" style="font-size:6.75px; font-family:Arial;" text-anchor="middle"><textPath startOffset="22.145653131862435" xlink:href="#id94">October</textPath></text><path d="M 79.00077361379809 100.18025310272382 l -11.289597769873257 0.09690761883784108 a32.29001367989056,32.29001367989056 0 0,0 0.0,-0.5543214431233131 l 11.289597769873257 0.09690761883783693" fill="#ff780b" stroke="none" /><path d="M 79.00077361379809 99.81974689727619 l -14.041099886216017 -0.12052595527083095 a35.041617161872395,35.041617161872395 0 0,0 0.01032654498569551,-0.6014694750204137 l 14.036961909631655 0.36154234626029697" fill="#ff9e0e" stroke="none" /><path d="M 79.01933749520258 99.09900007780938 l -29.253891526813756 -1.2562879739095545 a50.28085430679876,50.28085430679876 0 0,0 0.04443489222380689,-0.8620250382649326 l 29.22801504513338 1.758284805551199" fill="#a1ff22" stroke="none" /><path d="M 79.06263194458094 98.37931529534042 l -10.240092396489915 -0.7926479143588787 a31.27072456084711,31.27072456084711 0 0,0 0.04602213389488055,-0.5348469569318401 l 10.224976639897292 0.9683159186663995" fill="#ff6a09" stroke="none" /><path d="M 79.0935383218832 98.0201363427161 l -5.939458281054127 -0.5624728744473153 a26.966032216378945,26.966032216378945 0 0,0 0.04759839516778791,-0.4604712954650844 l 5.928927493404675 0.6643486921953125" fill="#ff2c04" stroke="none" /><path d="M 79.13060592940154 97.66154086499901 l -28.46217117197766 -3.1892456462280223 a49.6402946146673,49.6402946146673 0 0,0 0.10215952241434964,-0.8460273962844248 l 28.403229563303643 3.6773667194358834" fill="#a9ff21" stroke="none" /><path d="M 79.22317932658666 96.9465228501225 l -38.71050988805945 -5.689111883925079 a60.12632834577461,60.12632834577461 0 0,0 0.15884376094419833,-1.0198908920873795 l 38.607144634976976 6.352790957943909" fill="#37ff2e" stroke="none" /><path d="M 79.2786578344484 96.59031103205396 l -30.92708796727198 -5.089040555877371 a52.342991304512466,52.342991304512466 0 0,0 0.15350250821384726,-0.8853616756733174 l 30.8351706415659 5.619195264471281" fill="#8aff24" stroke="none" /><path d="M 79.407916724674 95.88100663000787 l -3.52774877236283 -0.7056485548391089 a24.597631343516728,24.597631343516728 0 0,0 0.08637550683662996,-0.41333806849873495 l 3.515115554701833 0.766103074623253" fill="#ff0901" stroke="none" /><path d="M 79.56144815229197 95.17655741523228 l -29.428519391550296 -6.945050446701976 a51.23692245064115,51.23692245064115 0 0,0 0.2093698594848633,-0.8543004743379795 l 29.304962005549132 7.449206745648073" fill="#96ff23" stroke="none" /><path d="M 79.64726062577567 94.8264132398404 l -31.846320773472225 -8.095210206547964 a53.85910186074913,53.85910186074913 0 0,0 0.2354681954869784,-0.8941110916966276 l 31.70266309718052 8.640701802617377" fill="#79ff26" stroke="none" /><path d="M 79.94057633289273 93.78553927170692 l -8.781807718013194 -2.7206264792394244 a30.19358228525175,30.19358228525175 0 0,0 0.1576324750260166,-0.4937814828829756 l 8.73381052720992 2.8709769958137916" fill="#ff5b08" stroke="none" /><path d="M 80.05021161711548 93.44210830539832 l -34.084213310508936 -11.204157913664048 a56.878499850893924,56.878499850893924 0 0,0 0.3128712348510625,-0.9249482122619963 l 33.88685665408551 11.787607800400206" fill="#59ff2a" stroke="none" /><path d="M 80.16572619554312 93.10060997987247 l -29.872101228630562 -10.391067458731007 a52.62778390506439,52.62778390506439 0 0,0 0.30413804312774834,-0.850728236138482 l 29.68932301545887 10.90233065125041" fill="#87ff25" stroke="none" /><path d="M 80.28708602549916 92.7611449362534 l -29.733552710874996 -10.918572408052329 a52.674901424318016,52.674901424318016 0 0,0 0.31898243782250074,-0.8461388137175753 l 29.54173958923806 11.42737950196405" fill="#86ff25" stroke="none" /><path d="M 80.5471966667186 92.08871423366112 l -22.14707446744285 -9.007022381219542 a44.90856247544483,44.90856247544483 0 0,0 0.29655509401729063,-0.7116242685501906 l 21.98919352888908 9.385879159210997" fill="#e1ff1b" stroke="none" /><path d="M 80.9802524753101 91.09779779509293 l -30.063335396052 -14.071158952145888 a54.193397677732065,54.193397677732065 0 0,0 0.4016007981086965,-0.8391912093054003 l 29.817355339983397 14.585162663516375" fill="#75ff27" stroke="none" /><path d="M 81.1358732173502 90.77261029715801 l -21.478471752295693 -10.50619683399288 a44.91035174832788,44.91035174832788 0 0,0 0.34469782821364725,-0.6896265603483555 l 21.2949540108703 10.873355250505005" fill="#e1ff1b" stroke="none" /><line stroke="#e1ed5e" stroke-width="0.3" x1="26.387840678322718" x2="22.05771365940052" y1="57.49999999999999" y2="54.99999999999999" /><path d="M 25.521815274538284 56.99999999999999 a86.0,86.0 0 0,1 29.574782752854787,-30.34633250058573" fill="none" id="id95" stroke="none" /><text fill="#e1ed5e" style="font-size:6.75px; font-family:Arial;" text-anchor="middle"><textPath startOffset="21.40746469413373" xlink:href="#id95">November</textPath></text><path d="M 85.34317274990677 84.96080404539775 l -5.211502906599258 -5.347461090518542 a28.466933953109688,28.466933953109688 0 0,0 0.3528917214785582,-0.338062286442767 l 5.1189386992554 5.4361355072668776" fill="#ff4206" stroke="none" /><path d="M 85.60350026404147 84.71141617570332 l -10.327421515698944 -10.967363763932012 a36.06448482668194,36.06448482668194 0 0,0 0.4543613808590335,-0.4205501109015703 l 10.137630363525957 11.143031620965948" fill="#ffac0f" stroke="none" /><path d="M 86.40962598614128 83.9905735841838 l -3.8868422075146816 -4.578690347126583 a27.00599264410037,27.00599264410037 0 0,0 0.35599770930103203,-0.29698595059620586 l 3.8076701640517405 4.644738481634671" fill="#ff2c04" stroke="none" /><path d="M 86.96720088162412 83.53348406188908 l -7.048331029081272 -8.905336004435542 a32.35711141300489,32.35711141300489 0 0,0 0.4385005775462199,-0.3409807013469731 l 6.894420506899807 9.02501775740332" fill="#ff790b" stroke="none" /><path d="M 87.54013794807813 83.09580414077388 l -2.274705265188811 -3.0860745620240224 a24.833815364079165,24.833815364079165 0 0,0 0.34533074624656335,-0.24999282913474788 l 2.2213935085682794 3.1246681625318495" fill="#ff0c01" stroke="none" /><path d="M 87.83215693770416 82.88440491214696 l -13.855717382161883 -19.489801697036707 a44.91303565765246,44.91303565765246 0 0,0 0.6322149433661799,-0.44133513075646597 l 13.519107347621937 19.7247816435983" fill="#e1ff1b" stroke="none" /><path d="M 88.12776184653039 82.6780497279521 l -13.423683908220104 -19.58555599374699 a44.74424758235152,44.74424758235152 0 0,0 0.6372938351518405,-0.4287997338103635 l 13.085493784971275 19.81310540161446" fill="#e3ff1b" stroke="none" /><path d="M 88.72937992617638 82.28071324371311 l -12.983521293228499 -20.4122519785217 a45.19156580311371,45.19156580311371 0 0,0 0.658152471369188,-0.4107358188806947 l 12.631204693069613 20.63212359424393" fill="#ddff1b" stroke="none" /><path d="M 89.03521579738668 82.08984904055464 l -15.856815950455156 -25.90091716908623 a51.36932864398676,51.36932864398676 0 0,0 0.7560274667377249,-0.4539727713425192 l 15.409855727159997 26.16930394096467" fill="#95ff23" stroke="none" /><line stroke="#e1ed5e" stroke-width="0.3" x1="56.869717070023135" x2="54.33264160355391" y1="26.7553504044142" y2="22.446841604673864" /><path d="M 56.362301976729285 25.89364864446614 a86.0,86.0 0 0,1 42.16139366436587,-11.88097634709845" fill="none" id="id96" stroke="none" /><text fill="#e1ed5e" style="font-size:6.75px; font-family:Arial;" text-anchor="middle"><textPath startOffset="22.145653131862474" xlink:href="#id96">December</textPath></text><path d="M 89.34428304082924 81.90426304109057 l -7.604453146845239 -12.914023935595546 a35.986651456269314,35.986651456269314 0 0,0 0.5350144591014189,-0.3088907419825445 l 7.381646219883421 13.042661574854266" fill="#ffab0f" stroke="none" /><path d="M 89.65649057296885 81.72400993836675 l -7.3958939501257595 -13.067835949001335 a36.01557803454527,36.01557803454527 0 0,0 0.5406723948718004,-0.2999018633281407 l 7.170477367097857 13.192870727762621" fill="#ffab0f" stroke="none" /><path d="M 89.97174638481275 81.54914285379989 l -2.0076539148662538 -3.6938570765808203 a25.20419485087026,25.20419485087026 0 0,0 0.3819169852686507,-0.20334928309581046 l 1.943948113811041 3.7277768273992065" fill="#ff1202" stroke="none" /><path d="M 90.28995756902619 81.37971332152246 l -11.117651334966423 -21.319562352074282 a45.044249002409366,45.044249002409366 0 0,0 0.6886896272870844,-0.35164983080066187 l 10.750034485965756 21.507270134547777" fill="#dfff1b" stroke="none" /><path d="M 90.61103034731259 81.2157712731953 l -6.770836450126494 -13.546208503779578 a36.14410746997761,36.14410746997761 0 0,0 0.5573761311296721,-0.27264059620963915 l 6.537300069734769 13.660442850086431" fill="#ffad10" stroke="none" /><path d="M 90.93487009805054 81.0573650232925 l -2.4082824902939577 -5.032384160829745 a26.578952849346063,26.578952849346063 0 0,0 0.41325371803753064,-0.1934236064450439 l 2.321540058384904 5.072983998845332" fill="#ff2603" stroke="none" /><path d="M 92.25597844496254 80.48000691201159 l -8.833196986450227 -22.265426677200697 a44.953592509668226,44.953592509668226 0 0,0 0.7197449858244558,-0.2784128224002091 l 8.449679738132243 22.413779387738945" fill="#e0ff1b" stroke="none" /><path d="M 92.592206182469 80.34994680014964 l -16.873271126891233 -44.75835632928298 a68.8332284068371,68.8332284068371 0 0,0 1.109233867597285,-0.407326040671732 l 16.102448107639823 45.041413218963434" fill="#3aff8e" stroke="none" /><path d="M 92.93061703081487 80.22567764915836 l -5.238214712023307 -14.652218830126518 a36.56041162743362,36.56041162743362 0 0,0 0.5927909109904694,-0.2062034504329019 l 4.985918028987833 14.739980713128006" fill="#ffb210" stroke="none" /><path d="M 93.27111125876988 80.10723608172694 l -7.978672828196306 -23.58752849930959 a45.9004160769482,45.9004160769482 0 0,0 0.7485642304219959,-0.24606793091458778 l 7.572585860126549 23.72101735162621" fill="#d5ff1c" stroke="none" /><path d="M 94.30408787586887 79.78721728523814 l -11.807143029285157 -41.89938526649254 a64.53121997169352,64.53121997169352 0 0,0 1.0688170726919328,-0.29131084598058893 l 11.086144555658548 42.09589660661726" fill="#34ff5c" stroke="none" /><path d="M 95.00130118170881 79.60360301121753 l -10.456217231418496 -42.664934497066966 a64.92754391528882,64.92754391528882 0 0,0 1.0848089284054792,-0.25601195332212046 l 9.72227614927311 42.83814259403532" fill="#35ff61" stroke="none" /><path d="M 95.35216902796891 79.52079915486377 l -6.191373131970926 -27.280332404472933 a48.97408867787881,48.97408867787881 0 0,0 0.8214530782941442,-0.1790318750967113 l 5.722157637057663 27.382595737703358" fill="#b0ff20" stroke="none" /><path d="M 96.41257539226777 79.30868818359171 l -1.0916174150377425 -6.296159163898299 a27.390089889661507,27.390089889661507 0 0,0 0.4639652936738655,-0.07634531251453454 l 0.9833746183108042 6.313970474908501" fill="#ff3204" stroke="none" /><path d="M 96.76829788921471 79.25015418208739 l -1.6978218862715369 -10.901234445105228 a32.03265659687871,32.03265659687871 0 0,0 0.5440592575617623,-0.07995797515208482 l 1.5104375231020897 10.928773493556196" fill="#ff750a" stroke="none" /><path d="M 97.12497278360702 79.19773525538626 l -3.287312371205917 -23.785354745219976 a45.01144566622014,45.01144566622014 0 0,0 0.7663138140205336,-0.09921466536199962 l 2.8785207352945896 23.83828100678237" fill="#e0ff1b" stroke="none" /><path d="M 97.48249496171623 79.15144685158666 l -3.371799618346761 -27.923337780815295 a49.12617687293796,49.12617687293796 0 0,0 0.838102165008704,-0.09391109570305387 l 2.8919615517372574 27.97710463702532" fill="#afff20" stroke="none" /><path d="M 97.84075906011542 79.11130261209362 l -4.587902785744082 -44.38379764217683 a65.62029073317586,65.62029073317586 0 0,0 1.1214833807113826,-0.10620564215524332 l 3.825319841647684 44.45601503983726" fill="#35ff69" stroke="none" /><path d="M 98.5590905019552 79.04949213459386 l -1.0392317368187556 -15.110201373330064 a36.14589674286066,36.14589674286066 0 0,0 0.619395480483546,-0.037261294011226936 l 0.7796919042027257 15.125814645165985" fill="#ffad10" stroke="none" /><path d="M 98.9189461498227 79.02784411241856 l -0.8190687325372074 -15.889714595250663 a36.910810900364005,36.910810900364005 0 0,0 0.6330630115069317,-0.027186449616598114 l 0.5461799604294556 15.901433613293088" fill="#ffb711" stroke="none" /><path d="M 99.27912038922189 79.0123766808444 l -0.10396603212732973 -3.0268575884957936 a24.028642566707216,24.028642566707216 0 0,0 0.4123620410473461,-0.01062098342851972 l 0.05199067700923975 3.0281962892743586" fill="#ff0000" stroke="none" /><path d="M 99.63950707515114 79.00309439819443 l -0.3592711405263348 -20.925742790228814 a41.92882670087428,41.92882670087428 0 0,0 0.7197640653751818,-0.00617830883990284 l 5.12608412582707e-15 20.928826700874282" fill="#fff817" stroke="none" /></svg>