<?xml version="1.0" encoding="utf-8" ?>
<svg baseProfile="full" height="200mm" version="1.1" viewBox="0,0,200,200" width="200mm" xmlns="http://www.w3.org/2000/svg" xmlns:ev="http://www.w3.org/2001/xml-events" xmlns:xlink="http://www.w3.org/1999/xlink"><defs /><rect fill="#1a1a1a" height="200" width="200" x="0" y="0" /><text alignment-baseline="middle" fill="#e1ed5e" style="dominant-baseline: central; font-size:9.0px; font-family:Arial;" text-anchor="middle" x="100.0" y="100.0">2022</text><line stroke="#e1ed5e" stroke-width="0.3" x1="100.0" x2="100.0" y1="15.0" y2="10.0" /><path d="M 100.0 14.0 a86.0,86.0 0 0,1 42.46469731375804,11.215312516191453" fill="none" id="id61" stroke="none" /><text fill="#e1ed5e" style="font-size:6.75px; font-family:Arial;" text-anchor="middle"><textPath startOffset="22.20632615414155" xlink:href="#id61">January</textPath></text><path d="M 100.0 79.0 l 0.0 -14.975187081528162 a35.97518708152816,35.97518708152816 0 0,0 0.6192537080071272,0.005330112170190283 l -0.25777322873459885 14.97296834596653" fill="red" stroke="none" /><path d="M 100.36148047927253 79.00311137660856 l 0.13615432519796297 -7.908635087371675 a28.909807010634108,28.909807010634108 0 0,0 0.49748734453808796,0.012848630378786502 l -0.27226830493091875 7.905119664850528" fill="red" stroke="none" /><path d="M 101.08401301168833 79.027996857942 l 0.4094401253285181 -7.921288307693429 a28.93186293816463,28.93186293816463 0 0,0 0.4971292450409758,0.029988193661952076 l -0.5457314192091058 7.913066844651173" fill="red" stroke="none" /><path d="M 101.44485096284872 79.0497635885617 l 0.5544841501492985 -8.039980822049372 a29.059078377313902,29.059078377313902 0 0,0 0.4987227112034566,0.03871048088810553 l -0.6927970507150963 8.029245078972801" fill="red" stroke="none" /><path d="M 101.80526077348638 79.07773832637324 l 1.0294106895680675 -11.930464635963697 a32.974793225679406,32.974793225679406 0 0,0 0.5650856914912787,0.05366169539105638 l -1.2346215081495904 11.910977396057463" fill="red" stroke="none" /><path d="M 102.52436894288641 79.15227682838746 l 3.4460270799701793 -28.459318043642803 a49.667191807798346,49.667191807798346 0 0,0 0.8478550828319749,0.11007592335539941 l -3.9353968913100004 28.395783797123265" fill="red" stroke="none" /><path d="M 102.88285421437855 79.19881850522331 l 1.517473815727014 -10.949304372407626 a32.05395825128003,32.05395825128003 0 0,0 0.5458804652715513,0.08044859068173713 l -1.705723261427221 10.921561297564919" fill="red" stroke="none" /><path d="M 103.2404852339499 79.25152402106235 l 1.8515842971083063 -11.855493710953214 a32.99921228830248,32.99921228830248 0 0,0 0.5604692973171729,0.09248223634358385 l -2.0553828005643546 11.821865211670005" fill="red" stroke="none" /><path d="M 103.59715602781102 79.31037775812273 l 3.4131120351654722 -19.631063576563953 a40.925561244584486,40.925561244584486 0 0,0 0.6930156785798228,0.12664418561572346 l -3.750522834848196 19.56940390959749" fill="red" stroke="none" /><path d="M 103.95276090670814 79.375362276772 l 1.487576667867089 -7.761848132078495 a28.9031114612052,28.9031114612052 0 0,0 0.4878206463222305,0.09785223247386611 l -1.6209637236564447 7.735091943527421" fill="red" stroke="none" /><path d="M 104.307194497241 79.44645832069477 l 4.89455756086634 -23.356384972507048 a44.86372587632926,44.86372587632926 0 0,0 0.7544738673717771,0.16489876489426813 l -5.295874152391645 23.26867270951691" fill="red" stroke="none" /><path d="M 104.66035177308747 79.52364482259891 l 0.8946784588856396 -3.9309809185445648 a25.03150846790075,25.03150846790075 0 0,0 0.4193091313621189,0.09923692405872378 l -0.962211277210282 3.9149980823449724" fill="red" stroke="none" /><path d="M 105.01212808612495 79.60689891045804 l 7.103499373285399 -28.90237007508425 a50.76250492319811,50.76250492319811 0 0,0 0.8467454410799501,0.21585426650498504 l -7.5999537030503745 28.775812812410397" fill="red" stroke="none" /><path d="M 105.71112130821622 79.79150937346287 l 5.353151964979121 -18.94183566913193 a40.68373375344623,40.68373375344623 0 0,0 0.6722692186657827,0.19625381976431672 l -5.67841140136833 18.846883520448912" fill="red" stroke="none" /><path d="M 106.0581310904928 79.89281104454417 l 2.1942389695905162 -7.28277036530623 a28.606144151240645,28.606144151240645 0 0,0 0.47025044720733367,0.14610910300920213 l -2.319274789508568 7.243921127414507" fill="red" stroke="none" /><path d="M 106.40334571778207 80.00007090966166 l 7.3139060664799755 -22.84393333578453 a44.98621504529342,44.98621504529342 0 0,0 0.7354543041593254,0.2424677209833275 l -7.706043192881719 22.71465189054197" fill="red" stroke="none" /><path d="M 108.43124777332544 80.76684994638697 l 3.153238279935529 -7.193087740188252 a28.85387948011028,28.85387948011028 0 0,0 0.4531678763878483,0.20332321660869335 l -3.276588274790157 7.137744193063028" fill="red" stroke="none" /><path d="M 108.76106565485865 80.91482961587045 l 26.283196964575957 -57.255511152388685 a84.0,84.0 0 0,0 1.308887154801608,0.6145400694399883 l -27.264862330677165 56.79460610030869" fill="red" stroke="none" /><path d="M 109.08828744355905 81.06846463323043 l 6.850263209534965 -14.269575101841781 a36.82867270578968,36.82867270578968 0 0,0 0.569141070995115,0.2792750517847696 l -7.094875547540512 14.14954488992218" fill="red" stroke="none" /><line stroke="#e1ed5e" stroke-width="0.3" x1="143.23703022742887" x2="145.7803849466894" y1="26.81831364943548" y2="22.513508569990506" /><path d="M 143.74570117128098 25.957352633546492 a86.0,86.0 0 0,1 28.547481713284135,27.462654790039103" fill="none" id="id62" stroke="none" /><text fill="#e1ed5e" style="font-size:6.75px; font-family:Arial;" text-anchor="middle"><textPath startOffset="19.985693538727396" xlink:href="#id62">February</textPath></text><path d="M 112.48926042617603 83.11751280151076 l 6.879060001049114 -9.298840639269908 a32.56675856636471,32.56675856636471 0 0,0 0.4477988950314257,0.33727284389298373 l -7.038105049838922 9.179051205871078" fill="red" stroke="none" /><path d="M 113.06298171725822 83.55741782278167 l 4.641463430174177 -5.842283601481669 a28.461599054745964,28.461599054745964 0 0,0 0.38097422693853245,0.30805466320270325 l -4.741341055677201 5.761522841014836" fill="red" stroke="none" /><path d="M 114.94478906791727 85.2469230424477 l 12.95613064527481 -12.789929092554198 a39.20559275305238,39.20559275305238 0 0,0 0.46997375041169964,0.4843492616582263 l -13.17436865938962 12.565015635345857" fill="red" stroke="none" /><path d="M 115.4437574822437 85.77008943001954 l 13.290801699773704 -12.246172591648824 a39.07246947617172,39.07246947617172 0 0,0 0.45148491405851915,0.49854091860170646 l -13.499630254448258 12.015578885777568" fill="red" stroke="none" /><path d="M 115.68641384162765 86.03803664274999 l 13.600540623128811 -12.10539590094171 a39.20756203229618,39.20756203229618 0 0,0 0.4443675606172728,0.5079889384855109 l -13.806900047323934 11.869491406253251" fill="red" stroke="none" /><path d="M 115.9244219780498 86.31012108654704 l 13.940701150986158 -11.984517302335828 a39.38400945254037,39.38400945254037 0 0,0 0.4375176858857485,0.5178829399067473 l -14.144929450359024 11.742775412799974" fill="red" stroke="none" /><path d="M 116.38621287248628 86.86637796730983 l 25.347783182538983 -20.316360239956722 a53.48483654982276,53.48483654982276 0 0,0 0.5696031164031746,0.7233381137299141 l -25.693740379536123 19.87702973227377" fill="red" stroke="none" /><path d="M 116.60985879189232 87.15038557335679 l 12.084428482437533 -9.348679510837474 a36.27845608507286,36.27845608507286 0 0,0 0.37785577130134995,0.49721390327692033 l -12.243560193962997 9.139280831679521" fill="red" stroke="none" /><path d="M 116.82858285166822 87.43820079747576 l 4.110644668131935 -3.0684160020569724 a26.129578574241826,26.129578574241826 0 0,0 0.26594608859897007,0.36275016597276943 l -4.162853369244532 2.9972033924127093" fill="red" stroke="none" /><path d="M 117.04232023915458 87.72973835380427 l 20.962894519494988 -15.093027064756418 a46.83103584088224,46.83103584088224 0 0,0 0.46538315150019893,0.6582514639162111 l -21.21959029079907 14.729949100508414" fill="red" stroke="none" /><path d="M 117.2510076193507 88.02491185347247 l 22.647710616233034 -15.72130375980008 a48.56951555730602,48.56951555730602 0 0,0 0.470836432466159,0.6908943664798667 l -22.914971514367927 15.329131370049806" fill="red" stroke="none" /><path d="M 117.45458315368197 88.32363383020206 l 34.92455229375195 -23.36302490340953 a63.01851122489169,63.01851122489169 0 0,0 0.5953849838929947,0.9068121774848787 l -35.321533913002874 22.75839466194698" fill="red" stroke="none" /><path d="M 117.65298651832404 88.62581576622439 l 9.011733904279186 -5.806446494854335 a31.720362347380856,31.720362347380856 0 0,0 0.2917856496472781,0.461534825266664 l -9.11034715017242 5.650464021873464" fill="red" stroke="none" /><line stroke="#e1ed5e" stroke-width="0.3" x1="172.23445277983987" x2="176.4835382374775" y1="55.19839476539836" y2="52.563006222186495" /><path d="M 173.08426987136738 54.67131705675599 a86.0,86.0 0 0,1 12.851231095245387,41.99856678651699" fill="none" id="id63" stroke="none" /><text fill="#e1ed5e" style="font-size:6.75px; font-family:Arial;" text-anchor="middle"><textPath startOffset="22.20632615414155" xlink:href="#id63">March</textPath></text><path d="M 117.84615892207809 88.93136811851018 l 4.250424279365135 -2.63621891376506 a26.00157542339504,26.00157542339504 0 0,0 0.23263263055833885,0.3823868780062435 l -4.295172708209698 2.562664262551735" fill="red" stroke="none" /><path d="M 118.21658344932153 89.55222093294921 l 6.2806026660079475 -3.602121618739938 a28.240252067743207,28.240252067743207 0 0,0 0.23821642198934656,0.423760433816377 l -6.341676729289727 3.493477674988767" fill="red" stroke="none" /><path d="M 118.56541770881063 90.18545643968196 l 6.608047736788166 -3.4933214742908882 a28.47459629775502,28.47459629775502 0 0,0 0.22534329996479804,0.43529153020018846 l -6.667200469913079 3.379057221830355" fill="red" stroke="none" /><path d="M 118.73160827565052 90.50648371742162 l 27.021519198220812 -13.694992374028013 a51.29381646317448,51.29381646317448 0 0,0 0.39237323867688617,0.7910005062330364 l -27.253252449851104 13.227832279296026" fill="red" stroke="none" /><path d="M 119.04729006885535 91.15688171328212 l 17.962374373903952 -8.339422601563204 a40.80385978731784,40.80385978731784 0 0,0 0.29028581481798776,0.639606314108544 l -18.103262505685286 8.028994278612597" fill="red" stroke="none" /><path d="M 119.34039704204932 91.81776055985345 l 6.865752081095098 -2.90465740398533 a28.454903505317052,28.454903505317052 0 0,0 0.1869599802609369,0.45273842173447004 l -6.914733748242233 2.786044411797557" fill="red" stroke="none" /><path d="M 119.61058180528143 92.48833698450437 l 27.022064277912687 -10.350566997664327 a49.936589208349744,49.936589208349744 0 0,0 0.3005597972292698,0.805350827644702 l -27.196228663643584 9.883893032990292" fill="red" stroke="none" /><path d="M 119.7369772167798 92.82701384747503 l 18.613517927353396 -6.764688679336924 a40.80464749901536,40.80464749901536 0 0,0 0.23423212117371484,0.6622057485947496 l -18.727203129336917 6.443285304315561" fill="red" stroke="none" /><path d="M 119.85752413597 93.16781622104841 l 17.597626980039358 -6.054643105445364 a39.610082709728246,39.610082709728246 0 0,0 0.21627615606768857,0.6466381784936492 l -17.699240429878817 5.7508318240294" fill="red" stroke="none" /><path d="M 120.08093135843002 93.85539295169968 l 10.261729153268865 -3.1400084068538168 a31.731390311146118,31.731390311146118 0 0,0 0.15532380002060414,0.5236746380723395 l -10.31425885040117 2.962904382034947" fill="red" stroke="none" /><path d="M 120.37134235888165 94.90015583598534 l 29.46296941062582 -7.375878818207196 a51.372193777077584,51.372193777077584 0 0,0 0.20736557194959163,0.8596641702533246 l -29.585567782836232 6.8676294162944655" fill="red" stroke="none" /><path d="M 120.45610955862082 95.25157060432595 l 7.812370054618355 -1.8134673903132237 a29.02008664828673,29.02008664828673 0 0,0 0.10876398613844722,0.48756762338415127 l -7.842428427758839 1.6787215973791085" fill="red" stroke="none" /><path d="M 120.53481517161879 95.60439243477599 l 18.23288546024451 -3.9028648953062786 a39.64592359196534,39.64592359196534 0 0,0 0.13710070882613135,0.6685517465619161 l -18.29736546498564 3.5884374925809506" fill="red" stroke="none" /><path d="M 120.67395015179393 96.31383870115 l 18.39480990174715 -3.279791034691995 a39.684915320992516,39.684915320992516 0 0,0 0.11411896009344376,0.6735365623754417 l -18.448540723360814 2.9626686840007155" fill="red" stroke="none" /><path d="M 120.83666639777658 97.38593545837742 l 45.66176125924729 -5.728497483098864 a67.01969279243797,67.01969279243797 0 0,0 0.13375103174947578,1.1458971596509326 l -45.75360264400035 4.941656585123079" fill="red" stroke="none" /><path d="M 120.87857604477298 97.74499172005257 l 39.225205265608885 -4.236551499819838 a60.453328081922024,60.453328081922024 0 0,0 0.10283650672197601,1.0355495886390513 l -39.29231889801309 3.560726380476352" fill="red" stroke="none" /><path d="M 120.91429891909075 98.10471618934814 l 31.486573319703172 -2.853358503509939 a52.61559669161087,52.61559669161087 0 0,0 0.07397631673643311,0.9026984393236362 l -31.531024120259097 2.310946146978534" fill="red" stroke="none" /><path d="M 120.94382443527127 98.46500227214037 l 7.962887693914347 -0.5836094814075748 a28.984245766049625,28.984245766049625 0 0,0 0.032185499116526156,0.4978954256935592 l -7.971753784035289 0.4464549914609804" fill="red" stroke="none" /><path d="M 120.96714384426684 98.82574320788733 l 28.983333706518195 -1.6232004089700127 a50.02875147695943,50.02875147695943 0 0,0 0.040752924873995705,0.8602298337070593 l -29.006980239625687 1.1240594686399537" fill="red" stroke="none" /><line stroke="#e1ed5e" stroke-width="0.3" x1="184.98032266829074" x2="189.97916517819016" y1="98.17113171792111" y2="98.06355123074" /><path d="M 185.9800911702706 98.14961562048488 a86.0,86.0 0 0,1 -9.607161424134198,41.387399972396054" fill="none" id="id64" stroke="none" /><text fill="#e1ed5e" style="font-size:6.75px; font-family:Arial;" text-anchor="middle"><textPath startOffset="21.466115282336823" xlink:href="#id64">April</textPath></text><path d="M 120.99513854157772 99.54816195383933 l 28.542032243407792 -0.6142553456733242 a49.54864119732178,49.54864119732178 0 0,0 0.011011578847369845,0.8528589169144497 l -28.548376829372877 0.12286017069841168" fill="red" stroke="none" /><path d="M 120.99824983174949 100.27111621757518 l 8.762168467274229 0.11313161771282841 a29.76289877904687,29.76289877904687 0 0,0 -0.011023521953137843,0.5122197490645474 l -8.758922882636085 -0.26394118256749066" fill="red" stroke="none" /><path d="M 120.9904718944345 100.63252640178507 l 7.446403268688997 0.22438974642743875 a28.449783379283183,28.449783379283183 0 0,0 -0.018963632769297783,0.48936709876761153 l -7.441437503068496 -0.35253409220905646" fill="red" stroke="none" /><path d="M 120.95626037817324 101.35467743843564 l 21.17714633500914 1.3689561893574669 a42.22134698700276,42.22134698700276 0 0,0 -0.05312539453446241,0.7248538001002688 l -21.15044438181034 -1.733283125954506" fill="red" stroke="none" /><path d="M 120.89721153311464 102.0752229133903 l 21.327548528620195 2.1179580501877378 a42.432453721937776,42.432453721937776 0 0,0 -0.0784347711975595,0.7262085685294195 l -21.287931455921584 -2.4847629406019487" fill="red" stroke="none" /><path d="M 120.81339534386255 102.79330883721812 l 8.43832718446101 1.132484801555617 a29.513981882630954,29.513981882630954 0 0,0 -0.07191004244303084,0.5029386693613167 l -8.417583091001378 -1.2775689428973431" fill="red" stroke="none" /><path d="M 120.70491114924044 103.5080841355445 l 35.67936272817121 6.045242379976448 a57.187869239858216,57.187869239858216 0 0,0 -0.1727987503957276,0.9691471594279094 l -35.5700175354363 -6.658508290137575" fill="red" stroke="none" /><path d="M 120.5718875245553 104.21870165774334 l 21.13519433424509 4.334219661087457 a42.57502953918865,42.57502953918865 0 0,0 -0.15340383506752095,0.7166516466691226 l -21.057456460453125 -4.6973851271727485" fill="red" stroke="none" /><path d="M 120.41448212921028 104.9243191809786 l 7.214503024451122 1.740260438627502 a28.421425758172507,28.421425758172507 0 0,0 -0.11881331491287941,0.47460013228689796 l -7.183478395243181 -1.8641884103117958" fill="red" stroke="none" /><path d="M 120.23288151984713 105.62410040840565 l 40.98259915121231 11.391864890710835 a63.53643166601024,63.53643166601024 0 0,0 -0.30197160505957216,1.0512027721652006 l -40.780434909266646 -12.095625138380617" fill="red" stroke="none" /><path d="M 120.02730092923936 106.31721596034902 l 19.6772297638752 6.206792935253923 a41.632926348956275,41.632926348956275 0 0,0 -0.22146288028801356,0.6815926607578381 l -19.567474632570942 -6.5445844959895565" fill="red" stroke="none" /><path d="M 119.79798401119884 107.00284435728193 l 29.78627655046717 10.535853476186698 a52.59472233162662,52.59472233162662 0 0,0 -0.30924629557726196,0.8509129894295703 l -29.600505993884685 -11.0470142626224" fill="red" stroke="none" /><path d="M 119.41010516605496 108.01547362559984 l 19.293977265157128 7.96751818595231 a41.874359984245764,41.874359984245764 0 0,0 -0.280855357951479,0.6638591028657544 l -19.15397092601334 -8.298451814484228" fill="red" stroke="none" /><path d="M 119.12269723197855 108.67885076344098 l 19.982373993828023 9.069015719272263 a42.94407246947617,42.94407246947617 0 0,0 -0.31129418505352663,0.6704999805745175 l -19.823305191934665 -9.411635767125611" fill="red" stroke="none" /><path d="M 118.81262510543309 109.33194174019688 l 19.330581812325107 9.588872486733926 a42.578180385978726,42.578180385978726 0 0,0 -0.33134204175032533,0.6537692828010376 l -19.16266110078851 -9.920195981237658" fill="red" stroke="none" /><line stroke="#e1ed5e" stroke-width="0.3" x1="174.80103733775053" x2="179.2010983576182" y1="140.37084112569926" y2="142.7455964860345" /><path d="M 175.68104954172406 140.8457921977663 a86.0,86.0 0 0,1 -30.038265399797805,32.042727171017184" fill="none" id="id65" stroke="none" /><text fill="#e1ed5e" style="font-size:6.75px; font-family:Arial;" text-anchor="middle"><textPath startOffset="22.206326154141568" xlink:href="#id65">May</textPath></text><path d="M 118.48025628344425 109.97397251340804 l 27.80131504731203 15.00463780726357 a52.591965340685306,52.591965340685306 0 0,0 -0.4368228299392426,0.7929603201077045 l -27.538915807921278 -15.48096864576908" fill="red" stroke="none" /><path d="M 118.30583269289576 110.29060199501025 l 15.764528962652985 8.862011136834624 a39.08467900748326,39.08467900748326 0 0,0 -0.3347286428819457,0.5836276032259464 l -15.60964832361866 -9.132058585918886" fill="red" stroke="none" /><path d="M 118.12598468904814 110.60418214915192 l 9.049224224718627 5.294036359051655 a31.484048838125247,31.484048838125247 0 0,0 -0.27768799787008597,0.46542105701405895 l -8.956755351150314 -5.449019509951818" fill="red" stroke="none" /><path d="M 117.94076556474637 110.91462005526583 l 12.073904063463193 7.345398665449532 a35.132729421031904,35.132729421031904 0 0,0 -0.31876320284210835,0.5139477793948662 l -11.945676220953121 -7.5521427762096724" fill="red" stroke="none" /><path d="M 117.75023020441432 111.22182372390056 l 5.180354699279643 3.2750576523868866 a27.128790862544307,27.128790862544307 0 0,0 -0.2529373958736805,0.39256445539883195 l -5.1232124400289125 -3.3637437077071715" fill="red" stroke="none" /><path d="M 117.55443506779139 111.5257021239791 l 17.628512749110474 11.574339251042531 a42.08861756597085,42.08861756597085 0 0,0 -0.40284197277694844,0.6021940909849183 l -17.426667670922807 -11.876070256233255" fill="red" stroke="none" /><path d="M 117.14729908036423 112.12312394758627 l 5.79777392338203 4.099020584164843 a28.100433241433635,28.100433241433635 0 0,0 -0.2826371115995774,0.3925582278714556 l -5.72635701940685 -4.19821241748743" fill="red" stroke="none" /><path d="M 116.93607887273984 112.41649034213515 l 16.766460798168993 12.292136812573442 a41.789680976762504,41.789680976762504 0 0,0 -0.4303117942681587,0.5764729689706042 l -16.55238773720574 -12.578922661053362" fill="red" stroke="none" /><path d="M 116.498646956653 112.99209946851258 l 15.776430823626724 12.423379872130266 a41.08074044899567,41.08074044899567 0 0,0 -0.44226759881150274,0.5517968312694196 l -15.560245312760367 -12.693104536977934" fill="red" stroke="none" /><path d="M 116.0416608686014 113.55231037782055 l 29.723661087294868 25.11113306282529 a59.91098857818039,59.91098857818039 0 0,0 -0.6723082484508441,0.7820463800548272 l -29.287010329273247 -25.61905654204164" fill="red" stroke="none" /><path d="M 115.80600337817218 113.82643327865902 l 14.241974161134419 12.45828567689971 a39.92201654194565,39.92201654194565 0 0,0 -0.4569001609547279,0.5133321743979875 l -14.025415150531352 -12.701592021038564" fill="red" stroke="none" /><path d="M 115.56566222782051 114.09645910891815 l 17.573296638456906 15.914598032979566 a44.70854667191808,44.70854667191808 0 0,0 -0.5215009095512972,0.565986239637399 l -17.296749320909885 -16.2147355274183" fill="red" stroke="none" /><path d="M 115.07121518719521 114.62390073753431 l 13.235613029884567 12.842779347606749 a39.44230011815675,39.44230011815675 0 0,0 -0.4769877087799554,0.4831860306982561 l -13.012584696049075 -13.068705872285669" fill="red" stroke="none" /><path d="M 114.81725581225074 114.88116024355365 l 15.022066808961645 15.086854557016002 a42.290271760535646,42.290271760535646 0 0,0 -0.5202711296845233,0.5091948029537094 l -14.760145726901326 -15.343199462892283" fill="red" stroke="none" /><path d="M 114.29624159901734 115.38237550388516 l 14.363541372856933 15.454788269531083 a42.098857818038596,42.098857818038596 0 0,0 -0.5350573389792828,0.48876219307051394 l -14.095384484410786 -15.69974322918818" fill="red" stroke="none" /><path d="M 113.75828350139079 115.86535959552629 l 4.461978624993897 5.145329022034183 a27.810555336746752,27.810555336746752 0 0,0 -0.3643639947001654,0.3105189009915321 l -4.3727491537166845 -5.221372313248662" fill="red" stroke="none" /><path d="M 113.20401910651253 116.32954008644616 l 5.7968018763526175 7.1689618024256205 a30.21937770775896,30.21937770775896 0 0,0 -0.4073032588059754,0.32358634220688115 l -5.672541124829292 -7.267682058637628" fill="red" stroke="none" /><path d="M 112.92097659922987 116.55440617244103 l 11.925470834499928 15.278960260920043 a40.38204017329657,40.38204017329657 0 0,0 -0.5516403433590669,0.42297429213675436 l -11.660701762647367 -15.481973894884169" fill="red" stroke="none" /><path d="M 112.34349029814194 116.9893568818739 l 18.32760254174499 25.225780784039323 a52.18077983458055,52.18077983458055 0 0,0 -0.7312084531833836,0.5216978165577922 l -17.890666760712723 -25.537522862441335" fill="red" stroke="none" /><path d="M 111.7513745106137 117.40417183066458 l 10.167157252557642 15.057894010022464 a39.16896415911776,39.16896415911776 0 0,0 -0.5620285678709385,0.37248188830376383 l -9.906453985946738 -15.230673919417546" fill="red" stroke="none" /><path d="M 111.45004920935366 117.60387380957326 l 9.779109527477022 15.034888230093344 a38.93540764080346,38.93540764080346 0 0,0 -0.5649679644225621,0.3605892854285475 l -9.518859761007528 -15.2009919443457" fill="red" stroke="none" /><line stroke="#e1ed5e" stroke-width="0.3" x1="143.8653032363475" x2="146.44561519142675" y1="172.8068346515853" y2="177.08958963109032" /><path d="M 144.38136562736335 173.6633856474863 a86.0,86.0 0 0,1 -40.68145358897372,12.25698825130547" fill="none" id="id66" stroke="none" /><text fill="#e1ed5e" style="font-size:6.75px; font-family:Arial;" text-anchor="middle"><textPath startOffset="21.466115282336833" xlink:href="#id66">June</textPath></text><path d="M 110.8373102113329 117.98757091392108 l 3.7571537211217167 6.236055596388361 a28.28042536431666,28.28042536431666 0 0,0 -0.41913223782662934,0.24763071391098126 l -3.649253612266705 -6.299804882593093" fill="red" stroke="none" /><path d="M 110.21172684928248 118.3499491758327 l 5.221063516538006 9.381983242040832 a31.73690429302875,31.73690429302875 0 0,0 -0.47964616402453697,0.2615413320054332 l -5.05879454064482 -9.470465225806036" fill="red" stroke="none" /><path d="M 109.89434966115114 118.52300852407294 l 3.5382427462849786 6.623871481620032 a28.509649468294604,28.509649468294604 0 0,0 -0.4348523852607342,0.22749421557545588 l -3.4236994584977487 -6.683795116140205" fill="red" stroke="none" /><path d="M 109.57404056367764 118.69057910512821 l 8.353381366170543 16.307590737817087 a39.32256794013391,39.32256794013391 0 0,0 -0.6050921033206398,0.30340574211097876 l -8.071435355167143 -16.44896432083737" fill="red" stroke="none" /><path d="M 109.2508944713604 118.85261126421891 l 9.977689740223814 20.333764110030213 a43.64986215045293,43.64986215045293 0 0,0 -0.6773779580175586,0.32518258403914657 l -9.626199114206024 -20.502500970568917" fill="red" stroke="none" /><path d="M 108.92500713936063 119.00905698771935 l 7.511073357665936 15.997569443405585 a38.67309964552973,38.67309964552973 0 0,0 -0.6050167112586754,0.2777334979430766 l -7.23458865063984 -16.124490011682735" fill="red" stroke="none" /><path d="M 108.2653958097858 119.30500536409082 l 4.101151775984043 9.578822219328696 a31.419850334777472,31.419850334777472 0 0,0 -0.4990198488079304,0.20859033727342297 l -3.9356604676786513 -9.647997599622093" fill="red" stroke="none" /><path d="M 107.2578585660854 119.70592522655815 l 2.744344165322826 7.451211734890726 a28.940527766837334,28.940527766837334 0 0,0 -0.4689474049574651,0.1681478550682445 l -2.615677199735626 -7.49734713099893" fill="red" stroke="none" /><path d="M 106.91757812671514 119.82793768551818 l 6.922637965551988 19.842440762652704 a42.01536037810162,42.01536037810162 0 0,0 -0.6849109304273419,0.23235897422436524 l -6.580057302187418 -19.95866272377519" fill="red" stroke="none" /><path d="M 106.57524785965236 119.94407469862006 l 2.5330963875001253 7.683400633626935 a29.09019298936589,29.09019298936589 0 0,0 -0.4769110720678021,0.1526918649208363 l -2.400463970341383 -7.7258653452074775" fill="red" stroke="none" /><path d="M 106.2309692047433 120.05430185196036 l 6.191352959869846 19.92679742900016 a41.86648286727058,41.86648286727058 0 0,0 -0.690049402501478,0.2079062244121322 l -5.847428582928122 -20.030419022518018" fill="red" stroke="none" /><path d="M 105.18746579009965 120.34920634021253 l 1.9626539767002449 7.699029229751259 a28.94525403702245,28.94525403702245 0 0,0 -0.4838636358080971,0.11892190933785914 l -1.8298370561489365 -7.731672397403148" fill="red" stroke="none" /><path d="M 104.83641907484287 120.43548508189849 l 4.559127056766858 19.263833740062307 a40.79598267034265,40.79598267034265 0 0,0 -0.6847505655720841,0.15584699936776517 l -4.226856341801912 -19.33945747300776" fill="red" stroke="none" /><path d="M 104.48393922423573 120.51570834832081 l 4.4733430701020485 20.46722695797425 a41.950374163056324,41.950374163056324 0 0,0 -0.7067809797677017,0.14811282621306937 l -4.120370628904968 -20.541195764913862" fill="red" stroke="none" /><path d="M 104.13013068566511 120.58985236759428 l 1.4468896843065047 7.213148265614386 a28.356833398975976,28.356833398975976 0 0,0 -0.479409247849105,0.09187992335390746 l -1.3225128218856954 -7.2369853873167616" fill="red" stroke="none" /><path d="M 103.7750983002368 120.6578951692458 l 1.4413895833796766 7.887496574495134 a29.01811736904293,29.01811736904293 0 0,0 -0.49213487366330533,0.0855639560064485 l -1.3054057382443214 -7.911139109022589" fill="red" stroke="none" /><path d="M 103.06178313531738 120.77559828337769 l 3.1124884093938827 21.11965674816927 a42.3477747144545,42.3477747144545 0 0,0 -0.7220727310527353,0.10007270098219917 l -2.748487087154317 -21.17010401464407" fill="red" stroke="none" /><path d="M 101.98527174616119 120.90594882070398 l 2.012191821040212 21.189431275314323 a42.28475777865301,42.28475777865301 0 0,0 -0.7251950374716394,0.06257287929463075 l -1.6471524658270307 -21.220928406887616" fill="red" stroke="none" /><path d="M 101.26447882468166 120.96189622390904 l 1.2704550932504617 21.060967809055512 a42.09925167388736,42.09925167388736 0 0,0 -0.723730103101768,0.03740857959054445 l -0.907736921735214 -21.07971619540826" fill="red" stroke="none" /><path d="M 100.90346689309514 120.98055641714683 l 1.0693202277341125 24.832048121999378 a45.855061047656555,45.855061047656555 0 0,0 -0.7888809680587957,0.02717065560951265 l -0.6417189080006646 -24.846775576034986" fill="red" stroke="none" /><line stroke="#e1ed5e" stroke-width="0.3" x1="102.19456741930631" x2="102.32365962044197" y1="184.97166512339345" y2="189.96999836594603" /><path d="M 102.22038585953345 185.97133177190398 a86.0,86.0 0 0,1 -42.740103519485714,-10.115201625700543" fill="none" id="id67" stroke="none" /><text fill="#e1ed5e" style="font-size:6.75px; font-family:Arial;" text-anchor="middle"><textPath startOffset="22.20632615414155" xlink:href="#id67">July</textPath></text><path d="M 100.54218724476979 120.99299961872073 l 0.5612027954687858 21.729264539049467 a42.73651043717999,42.73651043717999 0 0,0 -0.7355570278723603,0.012663281295465848 l -0.18708607770375754 -21.73570529762409" fill="red" stroke="none" /><path d="M 99.45781275523022 120.99299961872073 l -0.5361571797620255 20.759520956819703 a41.766443481685705,41.766443481685705 0 0,0 -0.7185412387078243,-0.02474801310798936 l 0.8934187701444928 -20.747216145285616" fill="red" stroke="none" /><path d="M 98.73552117531835 120.96189622390904 l -1.2443207759376842 20.627726194645113 a41.665222528554544,41.665222528554544 0 0,0 -0.715525277344259,-0.049346812399167744 l 1.5992088140608733 -20.60325103772966" fill="red" stroke="none" /><path d="M 98.01472825383883 120.90594882070398 l -2.007798226523289 21.143164429333655 a42.238282788499404,42.238282788499404 0 0,0 -0.7232147460047328,-0.07496416547007353 l 2.3714455691336154 -21.10547089540782" fill="red" stroke="none" /><path d="M 97.65516085044442 120.86867818915974 l -1.974064400030965 17.56884462489924 a38.67940133910989,38.67940133910989 0 0,0 -0.6609988777807575,-0.08003775878147923 l 2.2761907008631117 -17.532261337392413" fill="red" stroke="none" /><path d="M 97.2962882734958 120.8252237178851 l -2.418275140887583 18.626660648285604 a39.7829854273336,39.7829854273336 0 0,0 -0.6783404589885291,-0.09401180656346653 l 2.738544191062943 -18.582274276229533" fill="red" stroke="none" /><path d="M 96.93821686468263 120.77559828337769 l -3.0955483687907317 21.004710828448413 a42.23158723907049,42.23158723907049 0 0,0 -0.7182670659373419,-0.11217854379112954 l 3.4566512983365905 -20.94831397731018" fill="red" stroke="none" /><path d="M 96.22490169976321 120.6578951692458 l -4.656159896443527 25.47919428374711 a46.901142181961404,46.901142181961404 0 0,0 -0.7929249708654216,-0.1519659578436902 l 5.094052481880643 -25.39527112755495" fill="red" stroke="none" /><path d="M 95.51606077576429 120.51570834832081 l -1.5981691520354007 7.312224937667414 a28.484836549822766,28.484836549822766 0 0,0 -0.4781109967452502,-0.10881650626345134 l 1.7238002981735134 -7.2836316978262765" fill="red" stroke="none" /><path d="M 95.16358092515715 120.4354850818985 l -2.5020683763848766 10.572074129280152 a31.864119732178025,31.864119732178025 0 0,0 -0.5326568841204832,-0.13091410263920997 l 2.6836785452485703 -10.527438768326912" fill="red" stroke="none" /><path d="M 94.81253420990036 120.34920634021253 l -4.4030074044289895 17.2719608794737 a38.824340291453325,38.824340291453325 0 0,0 -0.6461656182572337,-0.1706582126896498 l 4.6996634654977125 -17.193611317480467" fill="red" stroke="none" /><path d="M 94.46302465271185 120.25689768951611 l -7.561041561845688 27.66189764949958 a49.676644348168566,49.676644348168566 0 0,0 -0.8229026781847587,-0.23256051660769403 l 8.03607540813506 -27.527648339553362" fill="red" stroke="none" /><path d="M 93.76903079525671 120.05430185196036 l -6.298866072800754 20.27282713142901 a42.228830248129185,42.228830248129185 0 0,0 -0.6923088036289965,-0.22165541653055987 l 6.6468962215206915 -20.161398868238745" fill="red" stroke="none" /><path d="M 93.08242187328487 119.8279376855182 l -10.587258678003359 30.34638734576842 a53.14021268215833,53.14021268215833 0 0,0 -0.8610749961768861,-0.30875085804808367 l 11.10805323480997 -30.159648946680377" fill="red" stroke="none" /><path d="M 92.06813273071674 119.44442032107085 l -8.403146841463705 20.599729377451357 a43.24773532886963,43.24773532886963 0 0,0 -0.6868740021084727,-0.2871133885884736 l 8.75649230306964 -20.45203094584291" fill="red" stroke="none" /><path d="M 91.07499286063937 119.00905698771935 l -9.778020818952932 20.825860648879868 a44.00708940527767,44.00708940527767 0 0,0 -0.682921569302893,-0.32784385434081464 l 10.135055056256066 -20.65446251803949" fill="red" stroke="none" /><path d="M 90.7491055286396 118.85261126421891 l -9.58575120779066 19.53502353263997 a42.76014178810555,42.76014178810555 0 0,0 -0.6579891774170193,-0.3299294331881485 l 9.920594292890438 -19.367126258542516" fill="red" stroke="none" /><line stroke="#e1ed5e" stroke-width="0.3" x1="58.666819895761336" x2="56.23545636021788" y1="174.27360380694188" y2="178.64263932499728" /><path d="M 58.180547188652646 175.14741091055294 a86.0,86.0 0 0,1 -31.652253787137756,-30.449443065178592" fill="none" id="id68" stroke="none" /><text fill="#e1ed5e" style="font-size:6.75px; font-family:Arial;" text-anchor="middle"><textPath startOffset="22.20632615414155" xlink:href="#id68">August</textPath></text><path d="M 89.7882731507175 118.34994917583269 l -10.292548858892525 18.495182180056357 a42.16620716817645,42.16620716817645 0 0,0 -0.6311904389320047,-0.3584064042841497 l 10.609388064745737 -18.315272609977576" fill="red" stroke="none" /><path d="M 89.4739219176387 118.17145234162733 l -4.463796236243573 7.705971771723691 a29.905474596297754,29.905474596297754 0 0,0 -0.44321640602439927,-0.26186006500001124 l 4.595780513296353 -7.62799313442993" fill="red" stroke="none" /><path d="M 89.1626897886671 117.98757091392108 l -10.772472124395504 17.87995383330177 a41.874359984245764,41.874359984245764 0 0,0 -0.6141987554604713,-0.3772910406285501 l 11.078650079788284 -17.69187432584484" fill="red" stroke="none" /><path d="M 88.8546689885994 117.79835938074946 l -4.7529499153627555 7.590147894736982 a29.955494289090193,29.955494289090193 0 0,0 -0.4346659161221542,-0.27742435317518943 l 4.882897633531833 -7.507209112737988" fill="red" stroke="none" /><path d="M 88.54995079064634 117.60387380957326 l -11.812325940278479 18.160856031984597 a42.66443481685703,42.66443481685703 0 0,0 -0.6121844606799385,-0.40572247914032394 l 12.123185099698379 -17.954835531752956" fill="red" stroke="none" /><path d="M 88.24862548938628 117.40417183066458 l -6.555723753600119 9.709242317056166 a32.71524222134698,32.71524222134698 0 0,0 -0.4640004601677496,-0.3191437474854599 l 6.721881098390758 -9.594957780205606" fill="red" stroke="none" /><path d="M 87.95078237400918 117.19931262002967 l -4.42182038837492 6.311801609859913 a28.70657739267428,28.70657739267428 0 0,0 -0.40226482084071397,-0.2870052688764274 l 4.529812537064521 -6.234752079139266" fill="red" stroke="none" /><path d="M 87.36589467227662 116.77436683061367 l -12.662302753293977 16.811804698031345 a42.04686884600237,42.04686884600237 0 0,0 -0.5743827966057286,-0.4404122354983366 l 12.949814278393193 -16.59135312070564" fill="red" stroke="none" /><path d="M 87.07902340077011 116.55440617244103 l -13.070011663813354 16.74535048490096 a42.242221346986994,42.242221346986994 0 0,0 -0.5693497258685494,-0.45232585609647064 l 13.356318882399261 -16.517890714799357" fill="red" stroke="none" /><path d="M 86.79598089348748 116.32954008644616 l -7.694234206180612 9.515534996640637 a33.23710122095313,33.23710122095313 0 0,0 -0.44178418054056257,-0.3635583040709949 l 7.856888515265863 -9.381681573712463" fill="red" stroke="none" /><path d="M 86.51685102203217 116.09983520530335 l -13.658392741761824 16.30908867587247 a42.27294210319023,42.27294210319023 0 0,0 -0.5538450371069964,-0.47199875603406655 l 13.937103255445878 -16.07156552961545" fill="red" stroke="none" /><path d="M 86.24171649860922 115.8653595955263 l -12.441261820731002 14.346636525409332 a39.989759747932254,39.989759747932254 0 0,0 -0.5161681040526365,-0.4554583379900678 l 12.686372277690227 -14.130355045646976" fill="red" stroke="none" /><path d="M 85.97065885151581 115.62618273729859 l -8.127540252734073 9.052629617442484 a33.165813312327685,33.165813312327685 0 0,0 -0.42152240549325953,-0.38505072321832007 l 8.282162207694189 -8.91138612763759" fill="red" stroke="none" /><path d="M 85.70375840098266 115.38237550388516 l -14.379360841608069 15.47180959691399 a42.122095313115395,42.122095313115395 0 0,0 -0.5268554771014254,-0.498174738260211 l 14.64355215310031 -15.222000221907848" fill="red" stroke="none" /><path d="M 85.44109423537348 115.13401014063109 l -7.196854390334799 7.481143781327737 a31.380858605750294,31.380858605750294 0 0,0 -0.3860593483468598,-0.37784032707930265 l 7.3245636910574525 -7.356153351325865" fill="red" stroke="none" /><path d="M 85.18274418774928 114.88116024355367 l -29.225723325774528 29.351769150468087 a62.42063804647499,62.42063804647499 0 0,0 -0.7548717248532185,-0.764681071868947 l 29.72663567568328 -28.844347584618475" fill="red" stroke="none" /><path d="M 84.67929136418377 114.36230785411682 l -25.74456030560572 24.13408605745515 a56.28790862544309,56.28790862544309 0 0,0 -0.6565678763909749,-0.7125747560919354 l 26.156174589992425 -23.687360046561867" fill="red" stroke="none" /><path d="M 84.43433777217949 114.09645910891817 l -16.517661037342865 14.958601181241022 a43.28436392280425,43.28436392280425 0 0,0 -0.4953816103546066,-0.5565664907378002 l 16.77270149734581 -14.672060520762356" fill="red" stroke="none" /><path d="M 83.95833913139862 113.55231037782056 l -16.119283264072028 13.61788730307193 a42.10161480897991,42.10161480897991 0 0,0 -0.46292529858738035,-0.5576233436404919 l 16.351304562552944 -13.338402702317676" fill="red" stroke="none" /><path d="M 83.50135304334701 112.99209946851258 l -25.181640490864805 19.82964899468396 a53.051988972036234,53.051988972036234 0 0,0 -0.5587970616017442,-0.7223205287221999 l 25.519244369684614 -19.393250471848507" fill="red" stroke="none" /><path d="M 83.28015986056508 112.70617746262583 l -7.954302687164166 6.044841379563888 a30.990547459629774,30.990547459629774 0 0,0 -0.3191122250998187,-0.4275029740957276 l 8.05717617895907 -5.907025525958852" fill="red" stroke="none" /><path d="M 82.85270091963577 112.12312394758628 l -30.778885684002685 21.76064255758159 a58.69436786136274,58.69436786136274 0 0,0 -0.5761525593158724,-0.8299907331829264 l 31.14889915048069 -21.22761056221165" fill="red" stroke="none" /><path d="M 82.05923443525364 110.91462005526583 l -27.068452645803305 16.46762926847681 a52.684127609295004,52.684127609295004 0 0,0 -0.46467180859029644,-0.7788166790698317 l 27.34790533009183 -15.999250495520869" fill="red" stroke="none" /><line stroke="#e1ed5e" stroke-width="0.3" x1="26.63291911575756" x2="22.317208475507996" y1="142.92168965132927" y2="145.44649492493687" /><path d="M 25.769776987707644 143.4266507060508 a86.0,86.0 0 0,1 -11.730757126820373,-40.83630448921669" fill="none" id="id69" stroke="none" /><text fill="#e1ed5e" style="font-size:6.75px; font-family:Arial;" text-anchor="middle"><textPath startOffset="21.46611528233685" xlink:href="#id69">September</textPath></text><path d="M 81.87401531095188 110.60418214915194 l -10.071464626075882 5.892074126498534 a32.66837337534462,32.66837337534462 0 0,0 -0.27977817811926464,-0.4878168361237594 l 10.171394800347523 -5.7178374445164675" fill="red" stroke="none" /><path d="M 81.69416730710424 110.29060199501025 l -18.79060989731386 10.563118921752206 a42.55612445844821,42.55612445844821 0 0,0 -0.3534662870414606,-0.6416439822036286 l 18.96965259380684 -10.238104421150755" fill="red" stroke="none" /><path d="M 81.51974371655577 109.97397251340807 l -17.008947970774816 9.179893229861541 a40.32808192201654,40.32808192201654 0 0,0 -0.32444420422980996,-0.6137261644120534 l 17.16444468322951 -8.885752050363362" fill="red" stroke="none" /><path d="M 81.18737489456691 109.33194174019688 l -33.362692325333114 16.54945544979832 a58.241827491138245,58.241827491138245 0 0,0 -0.4377753713468336,-0.9019469297563261 l 33.64262095329467 -15.972719564076707" fill="red" stroke="none" /><path d="M 80.87730276802145 108.67885076344099 l -19.21881461711649 8.722473712194763 a42.10555336746751,42.10555336746751 0 0,0 -0.29385448706310685,-0.6625642930083433 l 19.366110188910877 -8.390361082693722" fill="red" stroke="none" /><path d="M 80.58989483394504 108.01547362559985 l -19.596856304489396 8.092593188418592 a42.202048050413545,42.202048050413545 0 0,0 -0.27149458879023686,-0.6738273042681888 l 19.73325350753702 -7.754066516307598" fill="red" stroke="none" /><path d="M 80.45479744820244 107.68017299344265 l -28.960580326004145 11.379890605111562 a52.11618747538401,52.11618747538401 0 0,0 -0.3209010079211556,-0.8377712703902184 l 29.152175613518807 -10.879695767888185" fill="red" stroke="none" /><path d="M 80.32549172779594 107.34259656027581 l -6.806872861406783 2.5403491953601507 a28.265458842063804,28.265458842063804 0 0,0 -0.16619516278810678,-0.4572977100106716 l 6.849592285200114 -2.422803688343362" fill="red" stroke="none" /><path d="M 80.20201598880116 107.00284435728193 l -18.287115522638135 6.4684274760617235 a40.39740055139819,40.39740055139819 0 0,0 -0.22624308147159553,-0.6575682967953996 l 18.39574943505296 -6.152686476177027" fill="red" stroke="none" /><path d="M 79.97269907076064 106.31721596034903 l -28.415111222959116 8.962984815926854 a50.79519495864513,50.79519495864513 0 0,0 -0.2558462719979158,-0.8361204200554201 l 28.565184267463163 -8.472537423319386" fill="red" stroke="none" /><path d="M 79.86692584326677 105.97154293290107 l -18.268879646112396 5.418616068936399 a40.05553367467507,40.05553367467507 0 0,0 -0.19037319972329433,-0.6627140828542749 l 18.359445482721796 -5.103344510577528" fill="red" stroke="none" /><path d="M 79.67330655649465 105.27499134158121 l -11.006432348833298 2.8562852833472325 a32.37101220953131,32.37101220953131 0 0,0 -0.13532421984825557,-0.5405529901147501 l 11.053967882976613 -2.666404453835091" fill="red" stroke="none" /><path d="M 79.58551787078972 104.9243191809786 l -30.634549487469254 7.3895726909443145 a52.51319417093343,52.51319417093343 0 0,0 -0.20439994155766517,-0.8805495985869435 l 30.757209994957474 -6.861154435008796" fill="red" stroke="none" /><path d="M 79.50377843672027 104.57218783832718 l -21.59985539189947 4.818380589200923 a43.1307601417881,43.1307601417881 0 0,0 -0.1554062107939987,-0.7260060794380111 l 21.67959564141791 -4.445860690346748" fill="red" stroke="none" /><path d="M 79.35854240842038 103.8639653848113 l -38.46692158760887 7.200792522297672 a60.135092556124455,60.135092556124455 0 0,0 -0.18170407442610795,-1.0190929458879712 l 38.58517210437417 -6.5375808256764865" fill="red" stroke="none" /><path d="M 79.23777060512086 103.15116336523772 l -20.998982437360933 3.1870962845735047 a42.23946435604569,42.23946435604569 0 0,0 -0.10291534658702943,-0.7197896943301629 l 21.050731834964562 -2.825161118262941" fill="red" stroke="none" /><path d="M 79.18660465613746 102.79330883721812 l -7.2840442828349214 0.9775716518031132 a28.349350137849548,28.349350137849548 0 0,0 -0.06074657000170894,-0.48420993199697326 l 7.299792362083478 -0.8520439655187314" fill="red" stroke="none" /><path d="M 79.1416061653843 102.43462659150553 l -11.293944560200964 1.3182480859874475 a32.37061835368255,32.37061835368255 0 0,0 -0.059835852546560264,-0.5540056809132138 l 11.314962714248576 -1.1236460831894517" fill="red" stroke="none" /><path d="M 79.10278846688536 102.07522291339032 l -19.67126060238484 1.953478370674118 a40.768018905080744,40.768018905080744 0 0,0 -0.06333681313152782,-0.6989164551349035 l 19.701972011793444 -1.6145805269906481" fill="red" stroke="none" /><path d="M 79.04373962182676 101.35467743843564 l -8.742681892985342 0.56515397776707 a29.760929499803073,29.760929499803073 0 0,0 -0.028646523150948955,-0.5115029145059984 l 8.751114767023823 -0.414579346925634" fill="red" stroke="none" /><line stroke="#e1ed5e" stroke-width="0.3" x1="15.007084014347285" x2="10.007500721073583" y1="101.09737516637583" y2="101.16192664675087" /><path d="M 14.007167355692545 101.11028546245083 a86.0,86.0 0 0,1 10.666146001902534,-42.60595125391555" fill="none" id="id70" stroke="none" /><text fill="#e1ed5e" style="font-size:6.75px; font-family:Arial;" text-anchor="middle"><textPath startOffset="22.20632615414155" xlink:href="#id70">October</textPath></text><path d="M 79.00175016825051 100.2711162175752 l -20.23541463371317 0.2612669684624458 a41.23710122095313,41.23710122095313 0 0,0 -0.0030548890544035896,-0.7098486303681049 l 20.236913820057076 0.08709114010933439" fill="red" stroke="none" /><path d="M 79.01574976396665 99.18683210126434 l -20.347075849189306 -0.7884765349056304 a41.36234738085861,41.36234738085861 0 0,0 0.03369335803233724,-0.7112135353918531 l 20.33048888292347 1.1386011769204925" fill="red" stroke="none" /><path d="M 79.03285615573316 98.82574320788736 l -24.0517155037959 -1.3470070364407754 a45.08940527766838,45.08940527766838 0 0,0 0.05006944204941523,-0.7745521072448228 l 24.02496547074207 1.7608182079386099" fill="red" stroke="none" /><path d="M 79.08570108090925 98.10471618934814 l -19.740691342693612 -1.7889298062355985 a40.82158330051201,40.82158330051201 0 0,0 0.06944115665222016,-0.6992629708848368 l 19.706973060359164 2.1284683078248654" fill="red" stroke="none" /><path d="M 79.12142395522702 97.74499172005258 l -19.678387827116442 -2.125380935510378 a40.792831823552575,40.792831823552575 0 0,0 0.0814101515099549,-0.6974724617955905 l 19.6388873226029 2.46379713563083" fill="red" stroke="none" /><path d="M 79.21141760316559 97.0276538004421 l -21.186270913962847 -3.029207602126388 a42.40173296573454,42.40173296573454 0 0,0 0.1095259105405503,-0.7216389046698579 l 21.130989109982995 3.3934456191883378" fill="red" stroke="none" /><path d="M 79.32604984820605 96.31383870115002 l -21.566529405895285 -3.8453080065893004 a42.90665616384403,42.90665616384403 0 0,0 0.13590024638983617,-0.7259845503709247 l 21.497143435595586 4.215970634422797" fill="red" stroke="none" /><path d="M 79.62865764111835 94.90015583598534 l -19.905604698095118 -4.983249516029245 a41.51988972036234,41.51988972036234 0 0,0 0.1795313469975819,-0.6918075154272271 l 19.816877019227228 5.325153457005336" fill="red" stroke="none" /><path d="M 79.71946130924805 94.55025226153421 l -21.21356746864378 -5.70046945497316 a42.96612839700669,42.96612839700669 0 0,0 0.19808045935117194,-0.7126008026918009 l 21.11230023872625 6.064781561083903" fill="red" stroke="none" /><path d="M 79.81627453868168 94.20196356495316 l -21.5109097946213 -6.179287316370091 a43.38085860575029,43.38085860575029 0 0,0 0.21234744966199945,-0.7159300366884072 l 21.401356447847594 6.548646739805038" fill="red" stroke="none" /><path d="M 79.91906864156998 93.8553929516997 l -19.584924557870135 -5.992832868690569 a41.481291847183925,41.481291847183925 0 0,0 0.2148030006948555,-0.6809842124159042 l 19.478866073407076 6.329067247532888" fill="red" stroke="none" /><path d="M 80.14247586403 93.16781622104843 l -17.198383448207178 -5.917279294964356 a39.18786923985821,39.18786923985821 0 0,0 0.22495128126156846,-0.6359675643917749 l 17.0939790861358 6.212444485782742" fill="red" stroke="none" /><path d="M 80.2630227832202 92.82701384747504 l -18.966287845911342 -6.892895431214412 a41.17999212288302,41.17999212288302 0 0,0 0.24785533570816828,-0.664129073777831 l 18.844827921701548 7.218347642021585" fill="red" stroke="none" /><path d="M 80.38941819471856 92.48833698450439 l -20.09975215358174 -7.699035468291226 a42.52382827884993,42.52382827884993 0 0,0 0.26771068486606225,-0.6812944923838447 l 19.964247918833987 8.043878965570833" fill="red" stroke="none" /><path d="M 80.52162464483688 92.15188598940014 l -20.657620945786853 -8.323248803567019 a43.27136667979519,43.27136667979519 0 0,0 0.28431000860032596,-0.6884792370932782 l 20.51128925030033 8.677602611113608" fill="red" stroke="none" /><path d="M 80.803312248108 91.48605970444005 l -20.178862289808347 -8.949545410552487 a43.074438755415514,43.074438755415514 0 0,0 0.30643911181728994,-0.6751979628458535 l 20.021820861027702 9.295565382240412" fill="red" stroke="none" /><path d="M 80.95270993114464 91.15688171328213 l -20.362978084827045 -9.45395503628148 a43.4505710909807,43.4505710909807 0 0,0 0.32079309621681074,-0.675672073071904 l 20.197226794768483 9.803069524993916" fill="red" stroke="none" /><path d="M 81.10775173730289 90.83032412892265 l -19.890027124036504 -9.653964909749368 a43.10909807010634,43.10909807010634 0 0,0 0.32976404550342575,-0.6647841932600886 l 19.720903065579666 9.994908691508417" fill="red" stroke="none" /><path d="M 81.6062741919709 89.86733742301443 l -18.539995238112276 -10.213238899359245 a42.16699487987397,42.16699487987397 0 0,0 0.35569337774432735,-0.632738829673514 l 18.36144421907552 10.530861238967542" fill="red" stroke="none" /><line stroke="#e1ed5e" stroke-width="0.3" x1="26.266209847984243" x2="21.928928074336255" y1="57.711370442889674" y2="55.22380399835377" /><path d="M 25.398753493254645 57.213857153982495 a86.0,86.0 0 0,1 29.58750427330803,-30.492523968695096" fill="none" id="id71" stroke="none" /><text fill="#e1ed5e" style="font-size:6.75px; font-family:Arial;" text-anchor="middle"><textPath startOffset="21.46611528233685" xlink:href="#id71">November</textPath></text><path d="M 81.96595687620814 89.24020034530311 l -19.168463886319252 -11.436638455909469 a43.32099251673887,43.32099251673887 0 0,0 0.3875871474502977,-0.6370913612297204 l 18.968760940582737 11.764897590346264" fill="red" stroke="none" /><path d="M 82.15384107792192 88.93136811851018 l -28.66316906937491 -17.777610766052323 a54.72863332020481,54.72863332020481 0 0,0 0.5034315072684411,-0.796307745160702 l 28.352909965860505 18.26836615892724" fill="red" stroke="none" /><path d="M 82.34701348167596 88.62581576622439 l -19.898056785597536 -12.820729429470054 a44.67073651043718,44.67073651043718 0 0,0 0.4220392583195492,-0.6427947448698773 l 19.674420891920068 13.161342238317598" fill="red" stroke="none" /><path d="M 82.54541684631803 88.32363383020206 l -17.372088077729153 -11.621180508499167 a41.90074832611264,41.90074832611264 0 0,0 0.40618891568419113,-0.5960321126869136 l 17.169474696376223 11.918490644456496" fill="red" stroke="none" /><path d="M 82.95767976084542 87.72973835380427 l -19.110642118176493 -13.759428043024869 a44.54864119732178,44.54864119732178 0 0,0 0.45341477074205144,-0.6184572377343954 l 18.870964734920808 14.086347724430764" fill="red" stroke="none" /><path d="M 83.6137871275137 86.86637796730984 l -17.590615960452574 -14.098956430299134 a43.54352107128791,43.54352107128791 0 0,0 0.4737981059567935,-0.5808204553843707 l 17.34531936241939 14.399661055291586" fill="red" stroke="none" /><path d="M 84.07557802195018 86.31012108654704 l -22.675404449435963 -19.49355158097656 a50.90271760535644,50.90271760535644 0 0,0 0.5769171883844848,-0.6595160765434316 l 22.336495397473634 19.88098321372294" fill="red" stroke="none" /><path d="M 84.31358615837235 86.03803664274999 l -18.74049704067371 -16.68030281619734 a46.08861756597085,46.08861756597085 0 0,0 0.532556959409423,-0.588062695971489 l 18.450596440648244 17.000418299438387" fill="red" stroke="none" /><path d="M 84.5562425177563 85.77008943001954 l -20.37530936605025 -18.773852830046994 a48.705789680976764,48.705789680976764 0 0,0 0.5734125151605532,-0.6116764911418595 l 20.04912952891924 19.121798738066904" fill="red" stroke="none" /><path d="M 85.05521093208273 85.24692304244772 l -37.684446456297785 -37.201029478966035 a73.95313115399763,73.95313115399763 0 0,0 0.9021021270088354,-0.8982282137883477 l 37.03850852912164 37.844193543404494" fill="red" stroke="none" /><path d="M 85.57189188830299 84.74124197986013 l -20.55989846431155 -21.74356562599086 a50.92477353288696,50.92477353288696 0 0,0 0.6421180262400399,-0.5967787248395549 l 20.182572554276653 22.094248936905064" fill="red" stroke="none" /><path d="M 87.80319425747018 82.90503203632743 l -5.7887876014265025 -8.113529122614787 a30.96691610870421,30.96691610870421 0 0,0 0.4365875982339262,-0.305857513038223 l 5.648268863608916 8.211971478416954" fill="red" stroke="none" /><path d="M 88.70189139769569 82.29822771554957 l -5.007749593920701 -7.846095845728858 a30.307995273729816,30.307995273729816 0 0,0 0.44218044199349604,-0.27689335221061673 l 4.871949999554963 7.9311335392624045" fill="red" stroke="none" /><path d="M 89.00827224532344 82.1063720568725 l -14.34290700372515 -23.349071890753677 a48.40252067743206,48.40252067743206 0 0,0 0.713678880591313,-0.4299835401487733 l 13.938866056916188 23.592502040361072" fill="red" stroke="none" /><line stroke="#e1ed5e" stroke-width="0.3" x1="56.762969772571076" x2="54.21961505331055" y1="26.818313649435495" y2="22.513508569990535" /><path d="M 56.25429882871897 25.957352633546506 a86.0,86.0 0 0,1 42.265352541879196,-11.944610805530505" fill="none" id="id72" stroke="none" /><text fill="#e1ed5e" style="font-size:6.75px; font-family:Arial;" text-anchor="middle"><textPath startOffset="22.20632615414155" xlink:href="#id72">December</textPath></text><path d="M 89.3179101791058 81.91981866633112 l -7.029435764843955 -11.897809832413204 a34.81922016541945,34.81922016541945 0 0,0 0.5186459924167914,-0.30043323509022085 l 6.823593039961843 12.017047224893473" fill="red" stroke="none" /><path d="M 89.63071344664047 81.73862282372117 l -4.372607116895208 -7.700609621925641 a29.85545490350532,29.85545490350532 0 0,0 0.449077095895867,-0.2499109176605962 l 4.239405931927296 7.7747359371464215" fill="red" stroke="none" /><path d="M 89.94658935756843 81.56283822128135 l -9.675363635959666 -17.74385340147355 a41.21031902323749,41.21031902323749 0 0,0 0.6257197311765754,-0.3342378103479519 l 9.368498858254785 17.907769938323252" fill="red" stroke="none" /><path d="M 90.26544431104013 81.39251694778311 l -10.403682015410817 -19.88650976664092 a43.44348168570303,43.44348168570303 0 0,0 0.6655945054764079,-0.3409433575358641 l 10.059827022345647 20.06264564948929" fill="red" stroke="none" /><path d="M 90.91171255644093 81.06846463323043 l -9.39390644215809 -19.568161014523977 a42.70618353682552,42.70618353682552 0 0,0 0.66544732216606,-0.312436440431391 l 9.055680908692421 19.726962437595375" fill="red" stroke="none" /><path d="M 91.23893434514133 80.91482961587045 l -9.51378873227775 -20.724907917273416 a43.804253643166604,43.804253643166604 0 0,0 0.6879726732730138,-0.30867328457552035 l 9.15563394053796 20.885601532365463" fill="red" stroke="none" /><path d="M 91.90106846888425 80.62456947434976 l -8.675376047340448 -20.754484124645767 a43.49468294604175,43.49468294604175 0 0,0 0.6932558080561597,-0.28279645072280135 l 8.316836369695908 20.900741461552144" fill="red" stroke="none" /><path d="M 92.23578459929587 80.48803036053334 l -7.472979053409393 -18.78007408105533 a41.212288302481284,41.212288302481284 0 0,0 0.6613921412772906,-0.256609875472167 l 7.148603747132427 18.90592666041805" fill="red" stroke="none" /><path d="M 92.57280143429618 80.3572730644239 l -2.9982374374652347 -7.929444561250962 a29.477353288696335,29.477353288696335 0 0,0 0.47615424880818435,-0.1753716282670608 l 2.8613008628844807 7.979879457324346" fill="red" stroke="none" /><path d="M 93.25333710446033 80.11325718540243 l -3.38516237071912 -9.978244725499897 a31.536825521859,31.536825521859 0 0,0 0.5155778063618185,-0.16997789664312205 l 3.212901742114892 10.035036346402253" fill="red" stroke="none" /><path d="M 93.59665428221793 80.00007090966166 l -2.4116278504619717 -7.532372626326154 a28.909019298936588,28.909019298936588 0 0,0 0.47522934869432115,-0.14765607193725777 l 2.281613129056922 7.572768833145937" fill="red" stroke="none" /><path d="M 97.83486435360386 79.11191278185805 l -0.770034457934509 -7.428886474195422 a28.468688460023632,28.468688460023632 0 0,0 0.4878650305456505,-0.04632866316610814 l 0.6420443002986223 7.44104068187671" fill="red" stroke="none" /><path d="M 98.19473922651362 79.07773832637324 l -0.6340200162100931 -7.348042388273122 a28.37534462386766,28.37534462386766 0 0,0 0.48698821822222155,-0.03779965838879651 l 0.5074416086255373 7.3578673088503805" fill="red" stroke="none" /><path d="M 99.63851952072746 79.00311137660856 l -0.3234199115455384 -18.786109487779 a39.788893265064985,39.788893265064985 0 0,0 0.6849003908180695,-0.005895153894541367 l 4.6019515993166195e-15 18.788893265064985" fill="red" stroke="none" /></svg>