<?xml version="1.0" encoding="utf-8" ?>
<svg baseProfile="full" height="200mm" version="1.1" viewBox="0,0,200,200" width="200mm" xmlns="http://www.w3.org/2000/svg" xmlns:ev="http://www.w3.org/2001/xml-events" xmlns:xlink="http://www.w3.org/1999/xlink"><defs /><rect fill="#1a1a1a" height="200" width="200" x="0" y="0" /><text alignment-baseline="middle" fill="#e1ed5e" style="dominant-baseline: central; font-size:9.0px; font-family:Arial;" text-anchor="middle" x="100.0" y="100.0">2018</text><line stroke="#e1ed5e" stroke-width="0.3" x1="100.0" x2="100.0" y1="15.0" y2="10.0" /><path d="M 100.0 14.0 a86.0,86.0 0 0,1 42.46469731375804,11.215312516191453" fill="none" id="id13" stroke="none" /><text fill="#e1ed5e" style="font-size:6.75px; font-family:Arial;" text-anchor="middle"><textPath startOffset="22.20632615414155" xlink:href="#id13">January</textPath></text><path d="M 100.72285384407766 79.0124445844662 l 1.0746180602642654 -31.200783222101315 a52.21928374655647,52.21928374655647 0 0,0 0.898070145291983,0.0386727895970056 l -1.61152903794558 31.177662705980115" fill="red" stroke="none" /><path d="M 101.44485096284872 79.0497635885617 l 2.19921365891823 -31.88844196273365 a52.964187327823694,52.964187327823694 0 0,0 0.9089910821618299,0.07055520256651988 l -2.7477949304424008 31.845861497978664" fill="red" stroke="none" /><path d="M 101.80526077348638 79.07773832637324 l 1.067289683057641 -12.369467258389228 a33.41542699724518,33.41542699724518 0 0,0 0.5726367878028015,0.054378762972555596 l -1.2800515979506868 12.349262950901494" fill="red" stroke="none" /><path d="M 102.16513564639614 79.11191278185805 l 3.331746974483167 -32.142938253140784 a53.31515151515151,53.31515151515151 0 0,0 0.9120275062698259,0.10247691697521633 l -3.884541184262718 32.08082538269497" fill="red" stroke="none" /><line stroke="#e1ed5e" stroke-width="0.3" x1="143.23703022742887" x2="145.7803849466894" y1="26.81831364943548" y2="22.513508569990506" /><path d="M 143.74570117128098 25.957352633546492 a86.0,86.0 0 0,1 28.547481713284135,27.462654790039103" fill="none" id="id14" stroke="none" /><text fill="#e1ed5e" style="font-size:6.75px; font-family:Arial;" text-anchor="middle"><textPath startOffset="19.985693538727396" xlink:href="#id14">February</textPath></text><line stroke="#e1ed5e" stroke-width="0.3" x1="172.23445277983987" x2="176.4835382374775" y1="55.19839476539836" y2="52.563006222186495" /><path d="M 173.08426987136738 54.67131705675599 a86.0,86.0 0 0,1 12.851231095245387,41.99856678651699" fill="none" id="id15" stroke="none" /><text fill="#e1ed5e" style="font-size:6.75px; font-family:Arial;" text-anchor="middle"><textPath startOffset="22.20632615414155" xlink:href="#id15">March</textPath></text><path d="M 119.61058180528143 92.48833698450437 l 9.919255060318003 -3.7994844884098216 a31.622038567493114,31.622038567493114 0 0,0 0.19032764653122708,0.5099834677512383 l -9.983187295350856 3.62817788362925" fill="red" stroke="none" /><path d="M 119.97218684219823 93.5106431181261 l 36.14800759042489 -11.745199645705648 a59.00826446280992,59.00826446280992 0 0,0 0.3055631034612388,0.9687185406199793 l -36.34482617765433 11.121230938659249" fill="red" stroke="none" /><path d="M 120.08093135843002 93.85539295169968 l 36.66936648243704 -11.220537719237841 a59.34765840220386,59.34765840220386 0 0,0 0.29050425257027096,0.9794359222671072 l -36.85707663211902 10.587672410224204" fill="red" stroke="none" /><path d="M 120.37134235888165 94.90015583598534 l 37.69032380443329 -9.435547962800706 a59.85344352617079,59.85344352617079 0 0,0 0.24160041916479447,1.0015897138636252 l -37.847157023858905 8.785373017277674" fill="red" stroke="none" /><path d="M 120.45610955862082 95.25157060432595 l 35.85977741752091 -8.324047186182804 a57.81322314049587,57.81322314049587 0 0,0 0.2166773888886054,0.9713222482212447 l -35.99774919341156 7.705546768411597" fill="red" stroke="none" /><path d="M 120.53481517161879 95.60439243477599 l 37.26922141707732 -7.977713470600465 a59.11349862258954,59.11349862258954 0 0,0 0.20442209004287204,0.9968347100766467 l -37.40102280303518 7.335003104360406" fill="red" stroke="none" /><path d="M 120.67395015179393 96.31383870115 l 38.49862153807892 -6.864296746910033 a60.10578512396694,60.10578512396694 0 0,0 0.17284173692865878,1.0201217153626816 l -38.6110751365278 6.200589243231513" fill="red" stroke="none" /><path d="M 120.94382443527127 98.46500227214037 l 34.372818935431155 -2.519224658757221 a55.465013774104676,55.465013774104676 0 0,0 0.061591016244955915,0.9527857604804195 l -34.411090542680526 1.9271798340237662" fill="red" stroke="none" /><path d="M 120.96714384426684 98.82574320788733 l 34.37863451521597 -1.9253621467422595 a55.43250688705234,55.43250688705234 0 0,0 0.04515477044806296,0.9531458366170797 l -34.40668289389753 1.33330520350218" fill="red" stroke="none" /><line stroke="#e1ed5e" stroke-width="0.3" x1="184.98032266829074" x2="189.97916517819016" y1="98.17113171792111" y2="98.06355123074" /><path d="M 185.9800911702706 98.14961562048488 a86.0,86.0 0 0,1 -9.607161424134198,41.387399972396054" fill="none" id="id16" stroke="none" /><text fill="#e1ed5e" style="font-size:6.75px; font-family:Arial;" text-anchor="middle"><textPath startOffset="21.466115282336823" xlink:href="#id16">April</textPath></text><line stroke="#e1ed5e" stroke-width="0.3" x1="174.80103733775053" x2="179.2010983576182" y1="140.37084112569926" y2="142.7455964860345" /><path d="M 175.68104954172406 140.8457921977663 a86.0,86.0 0 0,1 -30.038265399797805,32.042727171017184" fill="none" id="id17" stroke="none" /><text fill="#e1ed5e" style="font-size:6.75px; font-family:Arial;" text-anchor="middle"><textPath startOffset="22.206326154141568" xlink:href="#id17">May</textPath></text><path d="M 117.14729908036423 112.12312394758627 l 31.793697318861895 22.478113406791802 a59.93719008264463,59.93719008264463 0 0,0 -0.6028545587466266,0.8373122549493177 l -31.402062967739667 -23.02205926719225" fill="red" stroke="none" /><path d="M 116.93607887273984 112.41649034213515 l 21.466141160751974 15.73765311369667 a47.61707988980716,47.61707988980716 0 0,0 -0.4903170018595479,0.6568597504501495 l -21.192062892197335 -16.104825743656132" fill="red" stroke="none" /><path d="M 115.07121518719521 114.62390073753431 l 19.932438314871387 19.340842510254944 a48.77355371900826,48.77355371900826 0 0,0 -0.5898333912523617,0.597498111264742 l -19.59656429856349 -19.68108111550035" fill="red" stroke="none" /><path d="M 114.0293411484842 115.62618273729858 l 25.343729645486846 28.228392658899537 a58.93608815426997,58.93608815426997 0 0,0 -0.7607179706660164,0.6712451619509389 l -24.854069321914242 -28.660460962622768" fill="red" stroke="none" /><path d="M 112.92097659922987 116.55440617244103 l 22.956726074334206 29.412247975640412 a58.31074380165289,58.31074380165289 0 0,0 -0.7965560579462044,0.6107652183403377 l -22.447041287894507 -29.803052535808124" fill="red" stroke="none" /><path d="M 112.04921762599082 117.19931262002967 l 21.551708315211815 30.763372387718825 a58.56143250688705,58.56143250688705 0 0,0 -0.8305771189903807,0.5712785160481046 l -21.01897431159855 -31.129791693132024" fill="red" stroke="none" /><path d="M 111.7513745106137 117.40417183066458 l 19.331265428715188 28.630239375119224 a55.54545454545455,55.54545454545455 0 0,0 -0.7970119440254628,0.5282160567671188 l -18.83557878594976 -28.95875345297766" fill="red" stroke="none" /><line stroke="#e1ed5e" stroke-width="0.3" x1="143.8653032363475" x2="146.44561519142675" y1="172.8068346515853" y2="177.08958963109032" /><path d="M 144.38136562736335 173.6633856474863 a86.0,86.0 0 0,1 -40.68145358897372,12.25698825130547" fill="none" id="id18" stroke="none" /><text fill="#e1ed5e" style="font-size:6.75px; font-family:Arial;" text-anchor="middle"><textPath startOffset="21.466115282336833" xlink:href="#id18">June</textPath></text><line stroke="#e1ed5e" stroke-width="0.3" x1="102.19456741930631" x2="102.32365962044197" y1="184.97166512339345" y2="189.96999836594603" /><path d="M 102.22038585953345 185.97133177190398 a86.0,86.0 0 0,1 -42.740103519485714,-10.115201625700543" fill="none" id="id19" stroke="none" /><text fill="#e1ed5e" style="font-size:6.75px; font-family:Arial;" text-anchor="middle"><textPath startOffset="22.20632615414155" xlink:href="#id19">July</textPath></text><path d="M 98.01472825383883 120.90594882070398 l -3.0119981441758457 31.71791427141149 a52.86060606060606,52.86060606060606 0 0,0 -0.9050928982412741,-0.09381657960428712 l 3.5575236390227127 -31.661368323351443" fill="red" stroke="none" /><path d="M 95.86986931433489 120.58985236759428 l -7.976683986983211 39.76599245272773 a61.55812672176309,61.55812672176309 0 0,0 -1.0371328977415053,-0.21734128257602012 l 8.660008346154102 -39.62279518942517" fill="red" stroke="none" /><path d="M 95.51606077576429 120.51570834832081 l -8.259671335001691 37.791102797733295 a59.6831955922865,59.6831955922865 0 0,0 -1.001767803148843,-0.22799909052071582 l 8.908959287543398 -37.64332697363489" fill="red" stroke="none" /><path d="M 94.46302465271185 120.25689768951611 l -3.614904749886355 13.225046362479842 a34.71019283746557,34.71019283746557 0 0,0 -0.5749806779634641,-0.1624952829192311 l 3.8420165959544326 -13.16086228622209" fill="red" stroke="none" /><path d="M 94.11515582081647 120.15858648285463 l -4.690428474863353 16.06710478191371 a37.73774104683196,37.73774104683196 0 0,0 -0.6219988849715283,-0.1874031617072657 l 4.966302334275127 -15.983986251100717" fill="red" stroke="none" /><line stroke="#e1ed5e" stroke-width="0.3" x1="58.666819895761336" x2="56.23545636021788" y1="174.27360380694188" y2="178.64263932499728" /><path d="M 58.180547188652646 175.14741091055294 a86.0,86.0 0 0,1 -31.652253787137756,-30.449443065178592" fill="none" id="id20" stroke="none" /><text fill="#e1ed5e" style="font-size:6.75px; font-family:Arial;" text-anchor="middle"><textPath startOffset="22.20632615414155" xlink:href="#id20">August</textPath></text><path d="M 83.28015986056508 112.70617746262583 l -29.150820852311924 22.153052890564734 a57.61322314049587,57.61322314049587 0 0,0 -0.5932481139768686,-0.7947527958932358 l 29.527830232983877 -21.64798721516219" fill="red" stroke="none" /><path d="M 83.06392112726016 112.41649034213515 l -28.3125560438997 20.75702299934848 a56.10633608815427,56.10633608815427 0 0,0 -0.5643234265516139,-0.7837958823585005 l 28.66565926282692 -20.26659351153884" fill="red" stroke="none" /><path d="M 82.85270091963577 112.12312394758628 l -28.684104475008336 20.27963425879978 a56.1289256198347,56.1289256198347 0 0,0 -0.5509698004398471,-0.7937130908031031 l 29.02893518261032 -19.782879905809665" fill="red" stroke="none" /><path d="M 82.6465618267979 111.8261652097733 l -23.98066225949699 16.342540935693805 a50.01983471074381,50.01983471074381 0 0,0 -0.4787538783203839,-0.715672089909756 l 24.258419243228104 -15.927331931578228" fill="red" stroke="none" /><path d="M 82.44556493220864 111.52570212397912 l -23.84989808606868 15.65910950513274 a49.53112947658401,49.53112947658401 0 0,0 -0.4618073458550956,-0.7167352561632353 l 24.115910295300825 -15.246252649048056" fill="red" stroke="none" /><line stroke="#e1ed5e" stroke-width="0.3" x1="26.63291911575756" x2="22.317208475507996" y1="142.92168965132927" y2="145.44649492493687" /><path d="M 25.769776987707644 143.4266507060508 a86.0,86.0 0 0,1 -11.730757126820373,-40.83630448921669" fill="none" id="id21" stroke="none" /><text fill="#e1ed5e" style="font-size:6.75px; font-family:Arial;" text-anchor="middle"><textPath startOffset="21.46611528233685" xlink:href="#id21">September</textPath></text><path d="M 81.51974371655577 109.97397251340807 l -29.72259400990945 16.041570589451435 a54.77520661157025,54.77520661157025 0 0,0 -0.44067303659468715,-0.8335873132672856 l 29.994319554729024 -15.527568261098024" fill="red" stroke="none" /><path d="M 79.86692584326677 105.97154293290107 l -36.349403072165735 10.781364998756068 a58.91460055096419,58.91460055096419 0 0,0 -0.28000528237620076,-0.9747351211935866 l 36.52960099142804 -10.154072402057887" fill="red" stroke="none" /><path d="M 79.58551787078972 104.9243191809786 l -38.7979602905873 9.3587257728382 a60.91074380165289,60.91074380165289 0 0,0 -0.2370861774807644,-1.021361047465383 l 38.95330703399861 -8.689496068024244" fill="red" stroke="none" /><path d="M 79.50377843672027 104.57218783832718 l -39.137754206928044 8.730641560049595 a61.09972451790634,61.09972451790634 0 0,0 -0.22015092330091612,-1.0284718216456803 l 39.282239168953396 -8.05565591898775" fill="red" stroke="none" /><line stroke="#e1ed5e" stroke-width="0.3" x1="15.007084014347285" x2="10.007500721073583" y1="101.09737516637583" y2="101.16192664675087" /><path d="M 14.007167355692545 101.11028546245083 a86.0,86.0 0 0,1 10.666146001902534,-42.60595125391555" fill="none" id="id22" stroke="none" /><text fill="#e1ed5e" style="font-size:6.75px; font-family:Arial;" text-anchor="middle"><textPath startOffset="22.20632615414155" xlink:href="#id22">October</textPath></text><path d="M 79.03285615573316 98.82574320788736 l -40.486968904478445 -2.267457054773673 a61.550413223140495,61.550413223140495 0 0,0 0.06834853618084707,-1.0573216029395 l 40.441939777293186 2.9640377219661844" fill="red" stroke="none" /><path d="M 79.05617556472873 98.46500227214037 l -39.6891380069581 -2.9088639875527593 a60.795592286501375,60.795592286501375 0 0,0 0.08547720208373118,-1.0430383712350755 l 39.63318632105487 3.591616275995613" fill="red" stroke="none" /><path d="M 79.71946130924805 94.55025226153421 l -19.605318866573437 -5.268303953076491 a41.30082644628099,41.30082644628099 0 0,0 0.19040316126393889,-0.6849814766997939 l 19.51172893474314 5.604996733195227" fill="red" stroke="none" /><line stroke="#e1ed5e" stroke-width="0.3" x1="26.266209847984243" x2="21.928928074336255" y1="57.711370442889674" y2="55.22380399835377" /><path d="M 25.398753493254645 57.213857153982495 a86.0,86.0 0 0,1 29.58750427330803,-30.492523968695096" fill="none" id="id23" stroke="none" /><text fill="#e1ed5e" style="font-size:6.75px; font-family:Arial;" text-anchor="middle"><textPath startOffset="21.46611528233685" xlink:href="#id23">November</textPath></text><path d="M 83.39014120810768 87.1503855733568 l -34.4076613084783 -26.618238401417845 a64.50192837465565,64.50192837465565 0 0,0 0.6869330035624615,-0.872335155385616 l 33.94437422432187 27.20656595075651" fill="red" stroke="none" /><path d="M 83.6137871275137 86.86637796730984 l -49.15863861745889 -39.40086609807048 a84.0,84.0 0 0,0 0.9140060316944298,-1.1204633215676711 l 48.47313409368807 40.241213589246236" fill="red" stroke="none" /><path d="M 84.5562425177563 85.77008943001954 l -27.590901797085202 -25.422314845920226 a58.51735537190082,58.51735537190082 0 0,0 0.6889239276095984,-0.7348960121421795 l 27.14921054750515 25.89348027494046" fill="red" stroke="none" /><path d="M 85.31137513191541 84.99185889309783 l -31.207788057654213 -31.88663956019779 a65.61707988980717,65.61707988980717 0 0,0 0.8140166103103226,-0.7830833341740068 l 30.65428820373146 32.41910598113411" fill="red" stroke="none" /><path d="M 86.10567301691215 84.25364557470407 l -24.90881182616798 -28.22900164975657 a58.647382920110196,58.647382920110196 0 0,0 0.7627125699342567,-0.6614168247525148 l 24.419205457586948 28.653583467928765" fill="red" stroke="none" /><path d="M 88.70189139769569 82.29822771554957 l -10.415661552348656 -16.319162390948946 a40.35977961432507,40.35977961432507 0 0,0 0.5888315946812578,-0.3687262905698909 l 10.133210805295155 16.496033022841768" fill="red" stroke="none" /><line stroke="#e1ed5e" stroke-width="0.3" x1="56.762969772571076" x2="54.21961505331055" y1="26.818313649435495" y2="22.513508569990535" /><path d="M 56.25429882871897 25.957352633546506 a86.0,86.0 0 0,1 42.265352541879196,-11.944610805530505" fill="none" id="id24" stroke="none" /><text fill="#e1ed5e" style="font-size:6.75px; font-family:Arial;" text-anchor="middle"><textPath startOffset="22.20632615414155" xlink:href="#id24">December</textPath></text><path d="M 89.94658935756843 81.56283822128135 l -18.375994034813658 -33.70012296470603 a59.38457300275482,59.38457300275482 0 0,0 0.9016697743680878,-0.4816407666656681 l 17.793179213917266 34.01144245787345" fill="red" stroke="none" /><path d="M 91.56875222667455 80.76684994638697 l -17.84730244909993 -40.71281680770316 a65.45289256198348,65.45289256198348 0 0,0 1.035764728473954,-0.4434604023771453 l 17.14385396283567 41.0139967380431" fill="red" stroke="none" /><path d="M 95.692805502759 79.44645832069477 l -8.185534131120349 -39.06062682777053 a60.90909090909091,60.90909090909091 0 0,0 1.0280108470000804,-0.20620930488428077 l 7.511956874653133 39.195740088732016" fill="red" stroke="none" /><path d="M 96.75951476605007 79.25152402106235 l -6.706184829299113 -42.938975121149745 a64.4595041322314,64.4595041322314 0 0,0 1.097748484946364,-0.16177959123892427 l 5.9660673639241 43.048049196549634" fill="red" stroke="none" /><path d="M 97.11714578562143 79.19881850522333 l -5.365141829797438 -38.712082071375804 a60.08209366391184,60.08209366391184 0 0,0 1.0256450313773218,-0.1331581612822788 l 4.697982069912259 38.79869855582222" fill="red" stroke="none" /><path d="M 98.19473922651362 79.07773832637324 l -4.439856878043115 -51.45619334345463 a72.6473829201102,72.6473829201102 0 0,0 1.24680140578852,-0.09677578523259395 l 3.5534652828922617 51.52499439087568" fill="red" stroke="none" /></svg>