<?xml version="1.0" encoding="utf-8" ?>
<svg baseProfile="full" height="200mm" version="1.1" viewBox="0,0,200,200" width="200mm" xmlns="http://www.w3.org/2000/svg" xmlns:ev="http://www.w3.org/2001/xml-events" xmlns:xlink="http://www.w3.org/1999/xlink"><defs /><rect fill="#1a1a1a" height="200" width="200" x="0" y="0" /><text alignment-baseline="middle" fill="#e1ed5e" style="dominant-baseline: central; font-size:9.0px; font-family:Arial;" text-anchor="middle" x="100.0" y="100.0">2025</text><line stroke="#e1ed5e" stroke-width="0.3" x1="100.0" x2="100.0" y1="15.0" y2="10.0" /><path d="M 100.0 14.0 a86.0,86.0 0 0,1 42.46469731375804,11.215312516191453" fill="none" id="id97" stroke="none" /><text fill="#e1ed5e" style="font-size:6.75px; font-family:Arial;" text-anchor="middle"><textPath startOffset="22.20632615414155" xlink:href="#id97">January</textPath></text><path d="M 100.0 79.0 l 0.0 -44.562144223456485 a65.56214422345649,65.56214422345649 0 0,0 1.128544538858556,0.009713739140182165 l -0.7670640595860277 44.55554186092486" fill="red" stroke="none" /><path d="M 100.36148047927253 79.00311137660856 l 0.6173559414793471 -35.859623651926306 a56.86493742942085,56.86493742942085 0 0,0 0.9785463703953865,0.025272965754309425 l -1.2345289470696015 35.84368389402964" fill="red" stroke="none" /><path d="M 100.72285384407766 79.0124445844662 l 0.43550982044203274 -12.644722810043382 a33.65222050655666,33.65222050655666 0 0,0 0.5787527593523176,0.024922311256479528 l -0.653103412183682 12.635352772262708" fill="red" stroke="none" /><path d="M 101.08401301168833 79.027996857942 l 0.6528286053544187 -12.63003618507729 a33.6468968219216,33.6468968219216 0 0,0 0.578146538672722,0.03487537806245096 l -0.8701371928667526 12.616927537634535" fill="red" stroke="none" /><path d="M 101.44485096284872 79.0497635885617 l 1.0030477646030722 -14.544121394338822 a35.57866838745362,35.57866838745362 0 0,0 0.6106143398220103,0.047395424753456226 l -1.2532522937874235 14.524700707396901" fill="red" stroke="none" /><path d="M 101.80526077348638 79.07773832637324 l 1.093262196660327 -12.67047846624248 a33.717556636168794,33.717556636168794 0 0,0 0.5778143528223209,0.05487043515808133 l -1.3112016765728922 12.64978248656922" fill="red" stroke="none" /><path d="M 102.16513564639614 79.11191278185805 l 1.357781707591094 -13.099162068006281 a34.16934387315342,34.16934387315342 0 0,0 0.5845126684982227,0.06567680885595265 l -1.5830610795990419 13.073849305679728" fill="red" stroke="none" /><path d="M 102.52436894288641 79.15227682838746 l 1.674544801170078 -13.829375674912066 a34.93038879030213,34.93038879030213 0 0,0 0.5962871385151404,0.07741518413472875 l -1.9123466681930645 13.7985021676132" fill="red" stroke="none" /><path d="M 102.88285421437855 79.19881850522331 l 1.8195313991859705 -13.128795303327916 a34.25428084164919,34.25428084164919 0 0,0 0.5833520658134363,0.08597093054543616 l -2.0452524454280625 13.09552988862151" fill="red" stroke="none" /><path d="M 103.2404852339499 79.25152402106235 l 2.2565624629308 -14.448525043893438 a35.623677721186425,35.623677721186425 0 0,0 0.6050440672889728,0.09983745532029793 l -2.504935736358648 14.407541325633515" fill="red" stroke="none" /><path d="M 103.95276090670814 79.375362276772 l 2.4737208734912595 -12.90733187468039 a34.14224147864765,34.14224147864765 0 0,0 0.5762455826722633,0.1155894428470711 l -2.6955328656306485 12.86283847575611" fill="red" stroke="none" /><path d="M 104.66035177308747 79.52364482259891 l 3.2247408866139273 -14.16865999916755 a35.53099721140329,35.53099721140329 0 0,0 0.5951887236939194,0.14086194112193906 l -3.46815329727037 14.111052145904742" fill="red" stroke="none" /><path d="M 105.01212808612495 79.60689891045804 l 3.1009445400213735 -12.616971152987919 a33.992452351870206,33.992452351870206 0 0,0 0.5670120909837119,0.1445440070425967 l -3.3176655196901104 12.561724149776454" fill="red" stroke="none" /><path d="M 105.36241919743992 79.69619591428918 l 3.4634942549803585 -13.113877564566133 a34.563538521813285,34.563538521813285 0 0,0 0.5739228018311369,0.15687478179988942 l -3.688714946035206 13.05231624193995" fill="red" stroke="none" /><path d="M 108.43124777332544 80.76684994638697 l 7.781090942426241 -17.75002866716448 a40.38063192828006,40.38063192828006 0 0,0 0.6342025941694298,0.28454821744192804 l -8.085475655062451 17.613460119206017" fill="red" stroke="none" /><path d="M 109.08828744355905 81.06846463323043 l 5.571814951800096 -11.606478390145513 a33.87460533290314,33.87460533290314 0 0,0 0.523489654724225,0.25687410008256795 l -5.770775873534753 11.508849129928114" fill="red" stroke="none" /><path d="M 109.41281617654863 81.2277094730956 l 5.54137223898611 -11.05134187652991 a33.36280565094144,33.36280565094144 0 0,0 0.5111491820383338,0.261830464181976 l -5.730781908613199 10.954318887035434" fill="red" stroke="none" /><line stroke="#e1ed5e" stroke-width="0.3" x1="143.23703022742887" x2="145.7803849466894" y1="26.81831364943548" y2="22.513508569990506" /><path d="M 143.74570117128098 25.957352633546492 a86.0,86.0 0 0,1 28.547481713284135,27.462654790039103" fill="none" id="id98" stroke="none" /><text fill="#e1ed5e" style="font-size:6.75px; font-family:Arial;" text-anchor="middle"><textPath startOffset="19.985693538727396" xlink:href="#id98">February</textPath></text><path d="M 111.60114157652 82.49532879139004 l 8.12315189667487 -12.25681991647098 a35.70425894770805,35.70425894770805 0 0,0 0.5093727795441216,0.3439307745392837 l -8.332929370625532 12.115177229633026" fill="red" stroke="none" /><path d="M 111.90073688211348 82.69761687909136 l 6.93375421439263 -10.080928019167366 a33.23527920536517,33.23527920536517 0 0,0 0.4685681542834118,0.3282619362935866 l -7.106253508259693 9.960081240109846" fill="red" stroke="none" /><path d="M 113.34407831869373 83.78471172551755 l 8.158797856581886 -9.914304761863507 a33.83975939711,33.83975939711 0 0,0 0.4465921080012343,0.3740080471495646 l -8.328247501542236 9.772395557320122" fill="red" stroke="none" /><path d="M 114.16331599549186 84.49514656593476 l 9.808988245961736 -10.738087404003005 a35.54382245166048,35.54382245166048 0 0,0 0.44817733166644835,0.4165319856538511 l -9.992373461423032 10.567650832274515" fill="red" stroke="none" /><path d="M 114.68862486808459 84.99185889309783 l 10.262843449695108 -10.48608729777957 a35.6725588255629,35.6725588255629 0 0,0 0.4351444041683065,0.4332757558083716 l -10.441823654030737 10.30787569132108" fill="red" stroke="none" /><path d="M 115.19652480421416 85.50635884689758 l 10.162244750788874 -9.692211253923535 a35.04315411029937,35.04315411029937 0 0,0 0.4125625160614806,0.4400929270448306 l -10.327574588820818 9.51584891000065" fill="red" stroke="none" /><path d="M 115.9244219780498 86.31012108654704 l 9.200463155463568 -7.90943788852087 a33.13291926897283,33.13291926897283 0 0,0 0.3680742099828354,0.43568376803753195 l -9.335247978933522 7.749895170854231" fill="red" stroke="none" /><path d="M 116.82858285166822 87.43820079747576 l 9.75775460940163 -7.283735959897412 a33.176476688714246,33.176476688714246 0 0,0 0.33766921206896944,0.4605804257817812 l -9.881686433984227 7.1146930904441374" fill="red" stroke="none" /><path d="M 117.04232023915458 87.72973835380427 l 10.460224326917663 -7.531233280917885 a33.88936645848217,33.88936645848217 0 0,0 0.3367753858441337,0.4763448999565965 l -10.58831233256568 7.350061880629495" fill="red" stroke="none" /><path d="M 117.2510076193507 88.02491185347247 l 11.16836856811298 -7.752718044483377 a34.59548062962366,34.59548062962366 0 0,0 0.33537111688679144,0.49211573140912107 l -11.300164150668504 7.5593242898038495" fill="red" stroke="none" /><path d="M 117.45458315368197 88.32363383020206 l 4.144312021866482 -2.7723666765998316 a25.98611463206656,25.98611463206656 0 0,0 0.24551107509412687,0.373930210915046 l -4.191419732318534 2.7006184017071115" fill="red" stroke="none" /><path d="M 117.65298651832404 88.62581576622439 l 13.07568359104272 -8.424933310445672 a36.55483856099191,36.55483856099191 0 0,0 0.33625647779370654,0.5318769957018343 l -13.218767665082382 8.198608667029632" fill="red" stroke="none" /><line stroke="#e1ed5e" stroke-width="0.3" x1="172.23445277983987" x2="176.4835382374775" y1="55.19839476539836" y2="52.563006222186495" /><path d="M 173.08426987136738 54.67131705675599 a86.0,86.0 0 0,1 12.851231095245387,41.99856678651699" fill="none" id="id99" stroke="none" /><text fill="#e1ed5e" style="font-size:6.75px; font-family:Arial;" text-anchor="middle"><textPath startOffset="22.20632615414155" xlink:href="#id99">March</textPath></text><path d="M 117.84615892207809 88.93136811851018 l 10.454712652848835 -6.484272962400738 a33.30230923463391,33.30230923463391 0 0,0 0.2979513231321193,0.4897536342037317 l -10.56477977426718 6.303351554989924" fill="red" stroke="none" /><path d="M 118.21658344932153 89.55222093294921 l 11.593230016853479 -6.6490791880130455 a34.36462630499412,34.36462630499412 0 0,0 0.28987766475098864,0.5156600201729619 l -11.7059653228969 6.448535657905289" fill="red" stroke="none" /><path d="M 118.3937258080291 89.86733742301442 l 17.041888062832985 -9.387967572076576 a40.45661542716232,40.45661542716232 0 0,0 0.33076539056557513,0.6128580341612265 l -17.200961552617024 9.09322855458289" fill="red" stroke="none" /><path d="M 118.56541770881063 90.18545643968196 l 11.570921937918474 -6.116927675634605 a34.08827867530133,34.08827867530133 0 0,0 0.2697690645544879,0.521107966950606 l -11.674500435633078 5.916846986423654" fill="red" stroke="none" /><path d="M 118.73160827565052 90.50648371742162 l 7.167405503459832 -3.6325701375780466 a29.03537599963126,29.03537599963126 0 0,0 0.22210678211779478,0.44775371960991917 l -7.2288722985310345 3.5086568294691776" fill="red" stroke="none" /><path d="M 119.04729006885535 91.15688171328212 l 19.08438292246137 -8.860339449982794 a42.040895577423896,42.040895577423896 0 0,0 0.29908630438347633,0.6589970263170003 l -19.23407154380819 8.53052041482373" fill="red" stroke="none" /><path d="M 119.47837535516314 92.15188598940014 l 6.277692151696868 -2.529371306981485 a27.76809707082114,27.76809707082114 0 0,0 0.17481531144160073,0.4448858996013441 l -6.320301013020169 2.4209364024843563" fill="red" stroke="none" /><path d="M 119.61058180528143 92.48833698450437 l 12.444455532447375 -4.766740594401425 a34.32615058422253,34.32615058422253 0 0,0 0.2066032346784754,0.5535939522725336 l -12.524663355627476 4.551823505099558" fill="red" stroke="none" /><path d="M 119.97218684219823 93.5106431181261 l 4.847021583779318 -1.5748927806359168 a26.09646009541149,26.09646009541149 0 0,0 0.13513556802084925,0.4284166797501288 l -4.873412635568374 1.4912259344593688" fill="red" stroke="none" /><path d="M 120.08093135843002 93.85539295169968 l 19.681543380224284 -6.022397468371686 a41.58233274181282,41.58233274181282 0 0,0 0.20354374239034942,0.6862483123257104 l -19.782293019726335 5.682719769299446" fill="red" stroke="none" /><path d="M 120.45610955862082 95.25157060432595 l 13.217906288166478 -3.0682420128877257 a34.569346177778804,34.569346177778804 0 0,0 0.1295619800886119,0.5808009521859465 l -13.268762655257127 2.8402628911518155" fill="red" stroke="none" /><path d="M 120.53481517161879 95.60439243477599 l 12.796695218837371 -2.7392138591794954 a34.086584775644724,34.086584775644724 0 0,0 0.11787579934573653,0.5748042603478773 l -12.841950314098105 2.5185339426682063" fill="red" stroke="none" /><path d="M 120.67395015179393 96.31383870115 l 14.371137366123957 -2.5623710026632915 a35.5977852550068,35.5977852550068 0 0,0 0.10236590407393874,0.6041693604459685 l -14.413115131718119 2.3146158539014854" fill="red" stroke="none" /><path d="M 120.73433829027371 96.67025291283417 l 12.505303704834251 -2.008238604114442 a33.66552971814431,33.66552971814431 0 0,0 0.0869598372120684,0.5729566763359769 l -12.53801943548562 1.7926828153863832" fill="red" stroke="none" /><path d="M 120.83666639777658 97.38593545837742 l 12.510355442254738 -1.5694869774458151 a33.60842110115001,33.60842110115001 0 0,0 0.06707224116456811,0.5746340019706219 l -12.535518036422896 1.3539092371503407" fill="red" stroke="none" /><path d="M 120.96714384426684 98.82574320788733 l 12.594492801663279 -0.7053497045383743 a33.614228757115534,33.614228757115534 0 0,0 0.027381817430861297,0.5779868887441993 l -12.604768227327636 0.4884517091711752" fill="red" stroke="none" /><path d="M 120.98425023603335 99.18683210126433 l 13.678620584938939 -0.5300649312481623 a34.68888709640248,34.68888709640248 0 0,0 0.017985866747583883,0.596863355263522 l -13.685718146142166 0.2945314285596413" fill="red" stroke="none" /><line stroke="#e1ed5e" stroke-width="0.3" x1="184.98032266829074" x2="189.97916517819016" y1="98.17113171792111" y2="98.06355123074" /><path d="M 185.9800911702706 98.14961562048488 a86.0,86.0 0 0,1 -9.607161424134198,41.387399972396054" fill="none" id="id100" stroke="none" /><text fill="#e1ed5e" style="font-size:6.75px; font-family:Arial;" text-anchor="middle"><textPath startOffset="21.466115282336823" xlink:href="#id100">April</textPath></text><path d="M 120.99513854157772 99.54816195383933 l 13.346290852765277 -0.28722658678642327 a34.34938120808463,34.34938120808463 0 0,0 0.007633729409952675,0.5912407554658045 l -13.349257589292945 0.05744957326015605" fill="red" stroke="none" /><path d="M 120.99824983174949 100.27111621757518 l 13.473364815068878 0.17395962691847436 a34.4744877970086,34.4744877970086 0 0,0 -0.012768590716743253,0.5933062373932532 l -13.468374161667128 -0.40585568010184236" fill="red" stroke="none" /><path d="M 120.9904718944345 100.63252640178507 l 4.7533446298705595 0.14323717876841055 a25.755502293102257,25.755502293102257 0 0,0 -0.017167719021398898,0.4430225448976892 l -4.750174777997958 -0.22503697068010597" fill="red" stroke="none" /><path d="M 120.9764740272857 100.99374915477107 l 15.791938162575851 0.7481345616447876 a36.80964946647923,36.80964946647923 0 0,0 -0.0354313018223074,0.6326496954395737 l -15.776720509866013 -1.0198559734197847" fill="red" stroke="none" /><path d="M 120.95626037817324 101.35467743843564 l 29.759715338265 1.9237599750862104 a50.82182941162914,50.82182941162914 0 0,0 -0.06394702990615336,0.8725064169176593 l -29.72219174969451 -2.43573952850064" fill="red" stroke="none" /><path d="M 120.89721153311464 102.0752229133903 l 12.798344077959833 1.2709550669929366 a33.861296121315476,33.861296121315476 0 0,0 -0.06259131350575359,0.5795178272261442 l -12.774570462953026 -1.4910692161038723" fill="red" stroke="none" /><path d="M 120.8583938346157 102.4346265915055 l 12.271029001779976 1.4322950151266647 a33.354336152658384,33.354336152658384 0 0,0 -0.07147118033061513,0.5696956283566019 l -12.244556312202512 -1.6433083977706617" fill="red" stroke="none" /><path d="M 120.81339534386255 102.79330883721812 l 25.02034802675408 3.35791244526636 a46.24467055380148,46.24467055380148 0 0,0 -0.11267392639570878,0.7880411787834328 l -24.958840049341767 -3.7880990960302023" fill="red" stroke="none" /><path d="M 120.76222939487914 103.15116336523771 l 12.27570222224942 1.8631305140506857 a33.416284482957295,33.416284482957295 0 0,0 -0.09120775249177202,0.5679507618308629 l -12.241812715396359 -2.0741605055747536" fill="red" stroke="none" /><path d="M 120.70491114924044 103.5080841355445 l 12.662915803345582 2.1455090398242067 a33.84338918208845,33.84338918208845 0 0,0 -0.10226111651918697,0.5735346486449296 l -12.624108244487205 -2.3631624392023545" fill="red" stroke="none" /><path d="M 120.5718875245553 104.21870165774334 l 15.445153737669102 3.167356208779091 a36.766576018068264,36.766576018068264 0 0,0 -0.1324751579627606,0.6188798347510489 l -15.3883445409819 -3.432749862946309" fill="red" stroke="none" /><path d="M 120.49622156327973 104.57218783832717 l 14.3470244415085 3.2004577265679757 a35.69966122006868,35.69966122006868 0 0,0 -0.13895571926663827,0.5986176017916263 l -14.28980815631131 -3.446943985708167" fill="red" stroke="none" /><path d="M 120.41448212921028 104.9243191809786 l 12.510698106494328 3.0177924800302485 a33.869523633933305,33.869523633933305 0 0,0 -0.14158861739406567,0.5655761443472549 l -12.456898174805202 -3.232696463774899" fill="red" stroke="none" /><path d="M 120.32669344350535 105.2749913415812 l 12.695575557429846 3.294635761982722 a34.116107026802794,34.116107026802794 0 0,0 -0.15240464894829434,0.5671543946576307 l -12.636982832139775 -3.5126810898159007" fill="red" stroke="none" /><path d="M 120.23288151984713 105.62410040840565 l 7.021193645804387 1.9516695144054808 a28.28739830840497,28.28739830840497 0 0,0 -0.13444241116735772,0.4680116704609352 l -6.98655859775093 -2.072238660370998" fill="red" stroke="none" /><path d="M 120.13307415673323 105.97154293290107 l 29.880152786183913 8.862561862896994 a52.16678573897813,52.16678573897813 0 0,0 -0.2627547283615603,0.8586976551724163 l -29.72317128531622 -9.375586490621467" fill="red" stroke="none" /><path d="M 119.9155931802556 106.66101706037122 l 15.73566399925983 5.262987921406906 a37.592473093498654,37.592473093498654 0 0,0 -0.21053426301501577,0.6119111172256596 l -15.642738905301583 -5.533071741721866" fill="red" stroke="none" /><path d="M 119.79798401119884 107.00284435728193 l 12.335926683385432 4.363402582693478 a34.08489087598811,34.08489087598811 0 0,0 -0.20041224235565888,0.5514484173296467 l -12.258990180024547 -4.5750987970292565" fill="red" stroke="none" /><path d="M 119.67450827220406 107.3425965602758 l 13.24564017657489 4.943320089812555 a35.138012491069574,35.138012491069574 0 0,0 -0.21635933422905282,0.5648459488241764 l -13.15858656275233 -5.170589605469875" fill="red" stroke="none" /><path d="M 119.41010516605496 108.01547362559984 l 12.212338413170558 5.043129628625484 a34.212659307229615,34.212659307229615 0 0,0 -0.2294675949631005,0.5423936108610175 l -12.123719837015148 -5.2525977651526645" fill="red" stroke="none" /><path d="M 119.26925614724726 108.34839909993367 l 2.54526841068304 1.102736729765847 a23.77388168053283,23.77388168053283 0 0,0 -0.16591782432504548,0.37410089282657577 l -2.525909501626722 -1.1463859590851104" fill="red" stroke="none" /><path d="M 119.12269723197855 108.67885076344098 l 12.826763682255201 5.82143650687815 a35.0859855730451,35.0859855730451 0 0,0 -0.25433226654328284,0.5478090756736166 l -12.724656798872086 -6.041365649830597" fill="red" stroke="none" /><path d="M 118.97047184881838 109.00673069616215 l 15.387631702219625 7.305683058286817 a38.03385494687839,38.03385494687839 0 0,0 -0.28588191151205206,0.5890014131399808 l -15.259596534092859 -7.569473427392073" fill="red" stroke="none" /><path d="M 118.81262510543309 109.33194174019688 l 12.716547225344089 6.308002055975768 a35.19512110806389,35.19512110806389 0 0,0 -0.27388730992919813,0.5404056461861335 l -12.606081245628621 -6.525961913864596" fill="red" stroke="none" /><line stroke="#e1ed5e" stroke-width="0.3" x1="174.80103733775053" x2="179.2010983576182" y1="140.37084112569926" y2="142.7455964860345" /><path d="M 175.68104954172406 140.8457921977663 a86.0,86.0 0 0,1 -30.038265399797805,32.042727171017184" fill="none" id="id101" stroke="none" /><text fill="#e1ed5e" style="font-size:6.75px; font-family:Arial;" text-anchor="middle"><textPath startOffset="22.206326154141568" xlink:href="#id101">May</textPath></text><path d="M 117.35343817320211 111.8261652097733 l 11.232082945642667 7.654533196203887 a34.59233481597566,34.59233481597566 0 0,0 -0.33956345324327974,0.4891664802360072 l -11.098658585237251 -7.846740938626914" fill="red" stroke="none" /><path d="M 116.93607887273984 112.41649034213515 l 9.859310740139852 7.2282396359229715 a33.2251158074255,33.2251158074255 0 0,0 -0.3421217598145983,0.45832800601060164 l -9.733427713630162 -7.396880521442888" fill="red" stroke="none" /><path d="M 116.27256486870786 113.27417163493432 l 3.800844528689224 3.1004984794095405 a25.90504943421447,25.90504943421447 0 0,0 -0.2848371208245534,0.34310466114466875 l -3.7469114079711274 -3.1654643976679795" fill="red" stroke="none" /><path d="M 115.80600337817218 113.82643327865902 l 14.287729494642837 12.498310536490123 a39.98280749464175,39.98280749464175 0 0,0 -0.4575959022643447,0.514113847134845 l -14.070474742730154 -12.742398553365835" fill="red" stroke="none" /><path d="M 115.56566222782051 114.09645910891815 l 10.771771163279958 9.755051183264735 a35.53244912539467,35.53244912539467 0 0,0 -0.4144667164749853,0.44982176256293244 l -10.60225803880925 -9.939024200629001" fill="red" stroke="none" /><path d="M 114.29624159901734 115.38237550388516 l 9.957717265034248 10.714238778869376 a35.62706552049964,35.62706552049964 0 0,0 -0.4528038018378529,0.4136255371043599 l -9.77181391372953 -10.884057082560318" fill="red" stroke="none" /><path d="M 114.0293411484842 115.62618273729858 l 10.5802849685977 11.78454957949782 a36.83723583231546,36.83723583231546 0 0,0 -0.47547687953012213,0.41955306343649884 l -10.375865736160991 -11.964925784706608" fill="red" stroke="none" /><path d="M 113.48314897796784 116.09983520530334 l 10.7175979212069 12.797571295109986 a37.69265515890392,37.69265515890392 0 0,0 -0.5010069518721016,0.41229461301111364 l -10.495720840790108 -12.980161026978278" fill="red" stroke="none" /><path d="M 112.92097659922987 116.55440617244103 l 8.957821162407718 11.47679579819251 a35.55882556290475,35.55882556290475 0 0,0 -0.48575264297659737,0.3724544130791532 l -8.758939790937626 -11.629289553099035" fill="red" stroke="none" /><path d="M 112.34349029814194 116.9893568818739 l 7.44774076411362 10.250935736082146 a33.67085340277938,33.67085340277938 0 0,0 -0.47182914306877927,0.3366375657388393 l -7.270184293195957 -10.377617563665206" fill="red" stroke="none" /><path d="M 112.04921762599082 117.19931262002967 l 7.504970619917516 10.712756620617915 a34.0800511626835,34.0800511626835 0 0,0 -0.4833575528811992,0.332457732361169 l -7.3194561824134325 -10.840355142344178" fill="red" stroke="none" /><path d="M 111.7513745106137 117.40417183066458 l 6.913760092973244 10.239505901664419 a33.35506210965408,33.35506210965408 0 0,0 -0.4786059113685106,0.31719390047237633 l -6.73647948286477 -10.356997823228115" fill="red" stroke="none" /><path d="M 111.45004920935366 117.60387380957326 l 10.824519914090304 16.642154032071172 a40.852745961144024,40.852745961144024 0 0,0 -0.5927892919387784,0.3783461729699491 l -10.536448820104596 -16.826014633864933" fill="red" stroke="none" /><line stroke="#e1ed5e" stroke-width="0.3" x1="143.8653032363475" x2="146.44561519142675" y1="172.8068346515853" y2="177.08958963109032" /><path d="M 144.38136562736335 173.6633856474863 a86.0,86.0 0 0,1 -40.68145358897372,12.25698825130547" fill="none" id="id102" stroke="none" /><text fill="#e1ed5e" style="font-size:6.75px; font-family:Arial;" text-anchor="middle"><textPath startOffset="21.466115282336833" xlink:href="#id102">June</textPath></text><path d="M 109.89434966115114 118.52300852407294 l 10.456779967879019 19.575922734960578 a43.19371528658017,43.19371528658017 0 0,0 -0.6588257123796193,0.3446664746908909 l -10.118263352972903 -19.753018628596188" fill="red" stroke="none" /><path d="M 109.2508944713604 118.85261126421891 l 3.0341339141565196 6.183331502079499 a27.88763798944482,27.88763798944482 0 0,0 -0.43277275905502505,0.20775722390366902 l -2.9272484871012616 -6.234643002482728" fill="red" stroke="none" /><path d="M 108.92500713936063 119.00905698771935 l 10.311138436453373 21.96132900358072 a45.26148279597152,45.26148279597152 0 0,0 -0.7080878884523327,0.3250484200706836 l -9.931582552233621 -22.135564493985477" fill="red" stroke="none" /><path d="M 108.59647513512805 119.15986991738527 l 11.328601390595386 25.24924757855237 a48.67420663271185,48.67420663271185 0 0,0 -0.7673820711203488,0.3363977486988885 l -10.892298644817284 -25.440509880545715" fill="red" stroke="none" /><path d="M 108.2653958097858 119.30500536409082 l 4.771779809938448 11.145169202672376 a33.123723813694085,33.123723813694085 0 0,0 -0.5260812980757419,0.2199020252621167 l -4.579227052365246 -11.225656270954467" fill="red" stroke="none" /><path d="M 107.59598834532513 119.57807347666477 l 7.003325845196112 18.05053164183155 a40.36151506072688,40.36151506072688 0 0,0 -0.6498776274887821,0.24572811089816685 l -6.691577996947054 -18.168408002836347" fill="red" stroke="none" /><path d="M 106.91757812671514 119.82793768551818 l 7.382618697239628 21.160889086238534 a43.411744370952505,43.411744370952505 0 0,0 -0.7076740021032859,0.24008144403736403 l -7.017274962199115 -21.28483351717402" fill="red" stroke="none" /><path d="M 105.53697534728816 120.25689768951611 l 3.8298550643718627 14.011437172580655 a35.525431541102996,35.525431541102996 0 0,0 -0.5912608498505415,0.15615736433176747 l -3.588103771709824 -14.075285886216006" fill="red" stroke="none" /><path d="M 104.83641907484287 120.43548508189849 l 2.788038268963195 11.780392387731741 a33.10581687446705,33.10581687446705 0 0,0 -0.5556730183875911,0.12646936986898863 l -2.584845101182742 -11.826638491178414" fill="red" stroke="none" /><path d="M 102.70371172650421 120.8252237178851 l 1.562215863913029 12.032900749993225 a33.13388721163375,33.13388721163375 0 0,0 -0.5662306422839961,0.06856264524073338 l -1.3548577985776526 -12.058008923959308" fill="red" stroke="none" /><path d="M 102.34483914955558 120.86867818915974 l 1.3524530293362147 12.036606877926314 a33.112350487428266,33.112350487428266 0 0,0 -0.5669581850023709,0.05876753402765369 l -1.145062247728241 -12.058103780409725" fill="red" stroke="none" /><path d="M 101.26447882468166 120.96189622390904 l 1.457074997904707 24.154659058225246 a45.198566523011685,45.198566523011685 0 0,0 -0.777010562162585,0.0401625707328986 l -1.0410763673286423 -24.176161435720346" fill="red" stroke="none" /><line stroke="#e1ed5e" stroke-width="0.3" x1="102.19456741930631" x2="102.32365962044197" y1="184.97166512339345" y2="189.96999836594603" /><path d="M 102.22038585953345 185.97133177190398 a86.0,86.0 0 0,1 -42.740103519485714,-10.115201625700543" fill="none" id="id103" stroke="none" /><text fill="#e1ed5e" style="font-size:6.75px; font-family:Arial;" text-anchor="middle"><textPath startOffset="22.20632615414155" xlink:href="#id103">July</textPath></text><path d="M 100.54218724476979 120.99299961872073 l 0.31715161100515193 12.279823461606336 a33.283918324076424,33.283918324076424 0 0,0 -0.5728642743162521,0.009862378000483795 l -0.10572764679623187 -12.283463316885978" fill="red" stroke="none" /><path d="M 100.18074693466247 120.99922214144158 l 0.1043634325328603 12.124968577162948 a33.1254177133507,33.1254177133507 0 0,0 -0.5702207343906232,0.0 l 0.10436343253285195 -12.124968577162948" fill="red" stroke="none" /><path d="M 99.81925306533755 120.99922214144158 l -0.10420514202290347 12.106578347821035 a33.10702680279321,33.10702680279321 0 0,0 -0.5698197159206349,-0.009809963166659564 l 0.3125845478362062 -12.102990907375215" fill="red" stroke="none" /><path d="M 99.45781275523022 120.99299961872073 l -0.31322181246443 12.12766521726793 a33.13170934064668,33.13170934064668 0 0,0 -0.5699910618574655,-0.01963164465779705 l 0.5219332259965386 -12.12047677418404" fill="red" stroke="none" /><path d="M 98.37488393609728 120.93702456842531 l -0.38701889438682535 4.986120241013644 a26.001117743310825,26.001117743310825 0 0,0 -0.44592620477736267,-0.03847638930780456 l 0.47278941690572973 -4.978719599427176" fill="red" stroke="none" /><path d="M 98.01472825383883 120.90594882070398 l -1.1444217046560234 12.051358527166203 a33.105574888801826,33.105574888801826 0 0,0 -0.5668421714593117,-0.05875550874955965 l 1.3516964727209284 -12.029873649960882" fill="red" stroke="none" /><path d="M 97.65516085044442 120.86867818915974 l -7.034517448666749 62.60603456747922 a84.0,84.0 0 0,0 -1.4354903077944425,-0.17381788509860563 l 8.111135179512582 -62.47567115365527" fill="red" stroke="none" /><line stroke="#e1ed5e" stroke-width="0.3" x1="58.666819895761336" x2="56.23545636021788" y1="174.27360380694188" y2="178.64263932499728" /><path d="M 58.180547188652646 175.14741091055294 a86.0,86.0 0 0,1 -31.652253787137756,-30.449443065178592" fill="none" id="id104" stroke="none" /><text fill="#e1ed5e" style="font-size:6.75px; font-family:Arial;" text-anchor="middle"><textPath startOffset="22.20632615414155" xlink:href="#id104">August</textPath></text><line stroke="#e1ed5e" stroke-width="0.3" x1="26.63291911575756" x2="22.317208475507996" y1="142.92168965132927" y2="145.44649492493687" /><path d="M 25.769776987707644 143.4266507060508 a86.0,86.0 0 0,1 -11.730757126820373,-40.83630448921669" fill="none" id="id105" stroke="none" /><text fill="#e1ed5e" style="font-size:6.75px; font-family:Arial;" text-anchor="middle"><textPath startOffset="21.46611528233685" xlink:href="#id105">September</textPath></text><line stroke="#e1ed5e" stroke-width="0.3" x1="15.007084014347285" x2="10.007500721073583" y1="101.09737516637583" y2="101.16192664675087" /><path d="M 14.007167355692545 101.11028546245083 a86.0,86.0 0 0,1 10.666146001902534,-42.60595125391555" fill="none" id="id106" stroke="none" /><text fill="#e1ed5e" style="font-size:6.75px; font-family:Arial;" text-anchor="middle"><textPath startOffset="22.20632615414155" xlink:href="#id106">October</textPath></text><line stroke="#e1ed5e" stroke-width="0.3" x1="26.266209847984243" x2="21.928928074336255" y1="57.711370442889674" y2="55.22380399835377" /><path d="M 25.398753493254645 57.213857153982495 a86.0,86.0 0 0,1 29.58750427330803,-30.492523968695096" fill="none" id="id107" stroke="none" /><text fill="#e1ed5e" style="font-size:6.75px; font-family:Arial;" text-anchor="middle"><textPath startOffset="21.46611528233685" xlink:href="#id107">November</textPath></text><line stroke="#e1ed5e" stroke-width="0.3" x1="56.762969772571076" x2="54.21961505331055" y1="26.818313649435495" y2="22.513508569990535" /><path d="M 56.25429882871897 25.957352633546506 a86.0,86.0 0 0,1 42.265352541879196,-11.944610805530505" fill="none" id="id108" stroke="none" /><text fill="#e1ed5e" style="font-size:6.75px; font-family:Arial;" text-anchor="middle"><textPath startOffset="22.20632615414155" xlink:href="#id108">December</textPath></text></svg>