<?xml version="1.0" encoding="utf-8" ?>
<svg baseProfile="full" height="200mm" version="1.1" viewBox="0,0,200,200" width="200mm" xmlns="http://www.w3.org/2000/svg" xmlns:ev="http://www.w3.org/2001/xml-events" xmlns:xlink="http://www.w3.org/1999/xlink"><defs /><rect fill="#1a1a1a" height="200" width="200" x="0" y="0" /><text alignment-baseline="middle" fill="#e1ed5e" style="dominant-baseline: central; font-size:9.0px; font-family:Arial;" text-anchor="middle" x="100.0" y="100.0">2019</text><line stroke="#e1ed5e" stroke-width="0.3" x1="100.0" x2="100.0" y1="15.0" y2="10.0" /><path d="M 100.0 14.0 a86.0,86.0 0 0,1 42.46469731375804,11.215312516191453" fill="none" id="id25" stroke="none" /><text fill="#e1ed5e" style="font-size:6.75px; font-family:Arial;" text-anchor="middle"><textPath startOffset="22.20632615414155" xlink:href="#id25">January</textPath></text><path d="M 100.36148047927253 79.00311137660856 l 1.0654145436372928 -61.8854731948834 a82.89464355422386,82.89464355422386 0 0,0 1.4264722031196162,0.03684156850364661 l -2.130513381951777 61.85796483423739" fill="red" stroke="none" /><path d="M 100.72285384407766 79.0124445844662 l 2.1685615322329816 -62.9626662466014 a84.0,84.0 0 0,0 1.4446366704426739,0.062209093903220936 l -3.2520390350649873 62.916009426173986" fill="red" stroke="none" /><path d="M 101.08401301168833 79.027996857942 l 1.0671551871920737 -20.645860979102686 a41.67342244917338,41.67342244917338 0 0,0 0.7160643987810021,0.04319496002152121 l -1.4223816348126876 20.624432749700862" fill="red" stroke="none" /><path d="M 103.95276090670814 79.375362276772 l 11.277397891942776 -58.842983795778984 a80.9139086123039,80.9139086123039 0 0,0 1.3656479596908457,0.2739361333650052 l -12.288612261100749 58.64014370633677" fill="red" stroke="none" /><path d="M 104.307194497241 79.44645832069477 l 12.718318338835271 -60.69066215499858 a83.00896785288504,83.00896785288504 0 0,0 1.3959629027501073,0.3051034216779301 l -13.761123965738905 60.46274523522478" fill="red" stroke="none" /><path d="M 104.66035177308747 79.52364482259891 l 9.355564116183487 -41.1058784948777 a63.15708513129992,63.15708513129992 0 0,0 1.057960311889653,0.2503850244975182 l -10.061748115035664 40.938747558239314" fill="red" stroke="none" /><path d="M 105.01212808612495 79.60689891045804 l 9.624060089030408 -39.157903971117804 a61.32324361963644,61.32324361963644 0 0,0 1.022904150331495,0.26076104383048215 l -10.296673128046928 38.986439931118454" fill="red" stroke="none" /><path d="M 105.36241919743992 79.69619591428918 l 10.32230194224821 -39.083478674889236 a61.423609719042446,61.423609719042446 0 0,0 1.0199305885966234,0.2787855579646489 l -10.993530420068545 38.90000657609829" fill="red" stroke="none" /><line stroke="#e1ed5e" stroke-width="0.3" x1="143.23703022742887" x2="145.7803849466894" y1="26.81831364943548" y2="22.513508569990506" /><path d="M 143.74570117128098 25.957352633546492 a86.0,86.0 0 0,1 28.547481713284135,27.462654790039103" fill="none" id="id26" stroke="none" /><text fill="#e1ed5e" style="font-size:6.75px; font-family:Arial;" text-anchor="middle"><textPath startOffset="19.985693538727396" xlink:href="#id26">February</textPath></text><path d="M 114.68862486808459 84.99185889309783 l 28.1467792778318 -28.75904578544903 a61.2408237764156,61.2408237764156 0 0,0 0.7470336485609291,0.7438256486674968 l -28.637648726560055 28.270284286131414" fill="red" stroke="none" /><path d="M 114.94478906791727 85.2469230424477 l 27.44800044029104 -27.095896836433344 a59.56916324657375,59.56916324657375 0 0,0 0.7140803414507589,0.7359225612991155 l -27.91034504544491 26.619410079584114" fill="red" stroke="none" /><path d="M 115.19652480421416 85.50635884689758 l 27.53998356397951 -26.266178898215443 a59.05736260721859,59.05736260721859 0 0,0 0.6952814245116237,0.7416777465736153 l -27.9880323104616 25.788231734763773" fill="red" stroke="none" /><path d="M 115.68641384162765 86.03803664274999 l 29.41283275667148 -26.17939940432931 a60.37608009875189,60.37608009875189 0 0,0 0.6842856337513573,0.7822567701102467 l -29.859110254000687 25.669227078016117" fill="red" stroke="none" /><path d="M 115.9244219780498 86.31012108654704 l 28.7799867575402 -24.741528099706624 a58.95300845088254,58.95300845088254 0 0,0 0.6549100559331039,0.7752069369595649 l -29.20160742696042 24.24246221311795" fill="red" stroke="none" /><path d="M 116.82858285166822 87.43820079747576 l 35.33357897666024 -26.374967406559673 a65.09195741852443,65.09195741852443 0 0,0 0.6625040440480804,0.9036547715445619 l -35.782345633221944 25.762850191343617" fill="red" stroke="none" /><line stroke="#e1ed5e" stroke-width="0.3" x1="172.23445277983987" x2="176.4835382374775" y1="55.19839476539836" y2="52.563006222186495" /><path d="M 173.08426987136738 54.67131705675599 a86.0,86.0 0 0,1 12.851231095245387,41.99856678651699" fill="none" id="id27" stroke="none" /><text fill="#e1ed5e" style="font-size:6.75px; font-family:Arial;" text-anchor="middle"><textPath startOffset="22.20632615414155" xlink:href="#id27">March</textPath></text><path d="M 118.03404312379186 89.2402003453031 l 37.357713546709746 -22.28904026462349 a64.50172499287848,64.50172499287848 0 0,0 0.5606745655916887,0.9583745779269229 l -37.735847786771764 21.642686274342672" fill="red" stroke="none" /><path d="M 118.3937258080291 89.86733742301442 l 42.44647737265945 -23.3827467739608 a69.46087378538346,69.46087378538346 0 0,0 0.5678985452456569,1.05222975549878 l -42.842684017123574 22.648636035129563" fill="red" stroke="none" /><path d="M 118.56541770881063 90.18545643968196 l 32.58110052275349 -17.22388557796423 a57.853634090501465,57.853634090501465 0 0,0 0.4578442020594121,0.8844092694961808 l -32.87275415797301 16.660503586207703" fill="red" stroke="none" /><path d="M 118.73160827565052 90.50648371742162 l 48.80459143628075 -24.735045525546397 a75.7148117278415,75.7148117278415 0 0,0 0.5791822083426477,1.167595989841368 l -49.22313365757681 23.89128994720608" fill="red" stroke="none" /><path d="M 119.196687751892 91.48605970444005 l 36.50941330098289 -16.192322815682328 a60.93906080204257,60.93906080204257 0 0,0 0.417024246224536,0.9625494569584069 l -36.78272825705011 15.561474214137318" fill="red" stroke="none" /><path d="M 119.61058180528143 92.48833698450437 l 36.873885611544914 -14.124221582822315 a60.486416340483,60.486416340483 0 0,0 0.36405740397225556,0.9754928446920218 l -37.111547604018796 13.48740560110096" fill="red" stroke="none" /><path d="M 119.7369772167798 92.82701384747503 l 33.222165959050685 -12.07389225633596 a56.3481425994113,56.3481425994113 0 0,0 0.32345690440231245,0.914456225920522 l -33.42507594426281 11.500238403988822" fill="red" stroke="none" /><path d="M 120.18372546131832 94.20196356495316 l 58.381036736799935 -16.770708597106797 a81.74209510144226,81.74209510144226 0 0,0 0.37684362892581413,1.3557070361278762 l -58.66106713629211 15.76329025755997" fill="red" stroke="none" /><path d="M 120.28053869075195 94.5502522615342 l 37.68491814323241 -10.126619443249847 a60.02180770813332,60.02180770813332 0 0,0 0.25953334798446887,1.0000878600997816 l -37.85364782308719 9.476435157601216" fill="red" stroke="none" /><path d="M 120.45610955862082 95.25157060432595 l 39.324212258075654 -9.12823843228193 a61.36977095048691,61.36977095048691 0 0,0 0.23000692581917231,1.0310759486214403 l -39.475513570896865 8.449984314110527" fill="red" stroke="none" /><path d="M 120.67395015179393 96.31383870115 l 46.11510385820852 -8.222314066082138 a67.84238734794215,67.84238734794215 0 0,0 0.19508930866505714,1.151428143113732 l -46.2498050283938 7.427300134652567" fill="red" stroke="none" /><path d="M 120.73433829027371 96.67025291283417 l 33.476868125881836 -5.376082061026224 a54.905795343046755,54.905795343046755 0 0,0 0.1418245625422962,0.9344466662106473 l -33.56444858186343 4.7990362824234944" fill="red" stroke="none" /><path d="M 120.78858239683441 97.02765380044208 l 37.87161527957329 -5.414873876368803 a59.256765453720604,59.256765453720604 0 0,0 0.13568106504315625,1.0109815319354447 l -37.95921234367428 4.7621740023686945" fill="red" stroke="none" /><path d="M 120.91429891909075 98.10471618934814 l 38.91154486760262 -3.5262200908729806 a60.070993743603815,60.070993743603815 0 0,0 0.08445843322646686,1.030606810729507 l -38.96647778464859 2.855899362935705" fill="red" stroke="none" /><path d="M 120.96714384426684 98.82574320788733 l 57.83722356273419 -3.2391513651035515 a78.92785626114389,78.92785626114389 0 0,0 0.06429384907111454,1.3571415368550184 l -57.8844110200388 2.2430987216255334" fill="red" stroke="none" /><line stroke="#e1ed5e" stroke-width="0.3" x1="184.98032266829074" x2="189.97916517819016" y1="98.17113171792111" y2="98.06355123074" /><path d="M 185.9800911702706 98.14961562048488 a86.0,86.0 0 0,1 -9.607161424134198,41.387399972396054" fill="none" id="id28" stroke="none" /><text fill="#e1ed5e" style="font-size:6.75px; font-family:Arial;" text-anchor="middle"><textPath startOffset="21.466115282336823" xlink:href="#id28">April</textPath></text><path d="M 120.92983693683757 101.71520430193887 l 42.867489365690865 3.5129992840002204 a64.01119399048352,64.01119399048352 0 0,0 -0.09944719270123685,1.0973914846572363 l -42.800667576712556 -4.250372157206027" fill="red" stroke="none" /><path d="M 120.8583938346157 102.4346265915055 l 32.13428974096888 3.7507680084489556 a53.35244716879609,53.35244716879609 0 0,0 -0.11432283812300452,0.9112655030841381 l -32.06496539359903 -4.303351265820488" fill="red" stroke="none" /><path d="M 120.49622156327973 104.57218783832717 l 38.144730543429255 8.50912313513391 a60.082293238238925,60.082293238238925 0 0,0 -0.23386155461372488,1.0074694565503959 l -37.99260842288498 -9.16446124903287" fill="red" stroke="none" /><path d="M 120.41448212921028 104.9243191809786 l 19.214377738929755 4.634833656397055 a40.765474821434225,40.765474821434225 0 0,0 -0.17041654555769042,0.6807293873153998 l -19.131749879077006 -4.9648908831098515" fill="red" stroke="none" /><path d="M 118.81262510543309 109.33194174019688 l 32.49570711532359 16.11939024496495 a57.274036483335614,57.274036483335614 0 0,0 -0.44570472518173637,0.8794177068017999 l -32.213423720355586 -16.676362163469445" fill="red" stroke="none" /><line stroke="#e1ed5e" stroke-width="0.3" x1="174.80103733775053" x2="179.2010983576182" y1="140.37084112569926" y2="142.7455964860345" /><path d="M 175.68104954172406 140.8457921977663 a86.0,86.0 0 0,1 -30.038265399797805,32.042727171017184" fill="none" id="id29" stroke="none" /><text fill="#e1ed5e" style="font-size:6.75px; font-family:Arial;" text-anchor="middle"><textPath startOffset="22.206326154141568" xlink:href="#id29">May</textPath></text><path d="M 117.55443506779139 111.5257021239791 l 16.67414820329867 10.947732844727833 a40.94693141175105,40.94693141175105 0 0,0 -0.3919145741296267,0.5858591126560904 l -16.483230523758323 -11.23312887158973" fill="red" stroke="none" /><path d="M 117.35343817320211 111.8261652097733 l 31.966262354288926 21.78463402857883 a59.683487545234904,59.683487545234904 0 0,0 -0.5858619038083174,0.843977768081414 l -31.586539543318473 -22.331653058847262" fill="red" stroke="none" /><path d="M 117.14729908036423 112.12312394758627 l 32.36481919941426 22.881896026705597 a60.636633151514516,60.636633151514516 0 0,0 -0.6098896306622524,0.8470833545353441 l -31.966149776376408 -23.435612986692075" fill="red" stroke="none" /><path d="M 116.71984013943494 112.70617746262583 l 28.724121933941195 21.828784707692456 a57.07729234145364,57.07729234145364 0 0,0 -0.6011956170276618,0.777126376992986 l -28.344119499695463 -22.319989078798695" fill="red" stroke="none" /><line stroke="#e1ed5e" stroke-width="0.3" x1="143.8653032363475" x2="146.44561519142675" y1="172.8068346515853" y2="177.08958963109032" /><path d="M 144.38136562736335 173.6633856474863 a86.0,86.0 0 0,1 -40.68145358897372,12.25698825130547" fill="none" id="id30" stroke="none" /><text fill="#e1ed5e" style="font-size:6.75px; font-family:Arial;" text-anchor="middle"><textPath startOffset="21.466115282336833" xlink:href="#id30">June</textPath></text><path d="M 107.2578585660854 119.70592522655815 l 13.815146903109527 37.50972127491155 a60.9729592859479,60.9729592859479 0 0,0 -0.9879954940727449,0.35426003297851905 l -13.167431848407047 -37.74196884893002" fill="red" stroke="none" /><path d="M 105.18746579009965 120.34920634021253 l 6.417356500829634 25.173777886557932 a46.97886751843686,46.97886751843686 0 0,0 -0.7853227204205291,0.19301321787250583 l -5.983080495665893 -25.280512362744467" fill="red" stroke="none" /><path d="M 104.83641907484287 120.43548508189849 l 5.64401120315214 23.8478314139539 a45.50660983509701,45.50660983509701 0 0,0 -0.7638172874434432,0.17384232784654066 l -5.232673766315836 -23.941450475378126" fill="red" stroke="none" /><path d="M 102.70371172650421 120.8252237178851 l 3.3344627440544126 25.683556402542415 a46.89910637983605,46.89910637983605 0 0,0 -0.8014668172913911,0.09704647004710937 l -2.8918685037116414 -25.737148401314876" fill="red" stroke="none" /><line stroke="#e1ed5e" stroke-width="0.3" x1="102.19456741930631" x2="102.32365962044197" y1="184.97166512339345" y2="189.96999836594603" /><path d="M 102.22038585953345 185.97133177190398 a86.0,86.0 0 0,1 -42.740103519485714,-10.115201625700543" fill="none" id="id31" stroke="none" /><text fill="#e1ed5e" style="font-size:6.75px; font-family:Arial;" text-anchor="middle"><textPath startOffset="22.20632615414155" xlink:href="#id31">July</textPath></text><line stroke="#e1ed5e" stroke-width="0.3" x1="58.666819895761336" x2="56.23545636021788" y1="174.27360380694188" y2="178.64263932499728" /><path d="M 58.180547188652646 175.14741091055294 a86.0,86.0 0 0,1 -31.652253787137756,-30.449443065178592" fill="none" id="id32" stroke="none" /><text fill="#e1ed5e" style="font-size:6.75px; font-family:Arial;" text-anchor="middle"><textPath startOffset="22.20632615414155" xlink:href="#id32">August</textPath></text><path d="M 89.1626897886671 117.98757091392108 l -19.41701420506594 32.22800797793899 a58.625323106464236,58.625323106464236 0 0,0 -0.8598961394038106,-0.5282184413169433 l 19.96888954440206 -31.889001069793668" fill="red" stroke="none" /><line stroke="#e1ed5e" stroke-width="0.3" x1="26.63291911575756" x2="22.317208475507996" y1="142.92168965132927" y2="145.44649492493687" /><path d="M 25.769776987707644 143.4266507060508 a86.0,86.0 0 0,1 -11.730757126820373,-40.83630448921669" fill="none" id="id33" stroke="none" /><text fill="#e1ed5e" style="font-size:6.75px; font-family:Arial;" text-anchor="middle"><textPath startOffset="21.46611528233685" xlink:href="#id33">September</textPath></text><line stroke="#e1ed5e" stroke-width="0.3" x1="15.007084014347285" x2="10.007500721073583" y1="101.09737516637583" y2="101.16192664675087" /><path d="M 14.007167355692545 101.11028546245083 a86.0,86.0 0 0,1 10.666146001902534,-42.60595125391555" fill="none" id="id34" stroke="none" /><text fill="#e1ed5e" style="font-size:6.75px; font-family:Arial;" text-anchor="middle"><textPath startOffset="22.20632615414155" xlink:href="#id34">October</textPath></text><line stroke="#e1ed5e" stroke-width="0.3" x1="26.266209847984243" x2="21.928928074336255" y1="57.711370442889674" y2="55.22380399835377" /><path d="M 25.398753493254645 57.213857153982495 a86.0,86.0 0 0,1 29.58750427330803,-30.492523968695096" fill="none" id="id35" stroke="none" /><text fill="#e1ed5e" style="font-size:6.75px; font-family:Arial;" text-anchor="middle"><textPath startOffset="21.46611528233685" xlink:href="#id35">November</textPath></text><line stroke="#e1ed5e" stroke-width="0.3" x1="56.762969772571076" x2="54.21961505331055" y1="26.818313649435495" y2="22.513508569990535" /><path d="M 56.25429882871897 25.957352633546506 a86.0,86.0 0 0,1 42.265352541879196,-11.944610805530505" fill="none" id="id36" stroke="none" /><text fill="#e1ed5e" style="font-size:6.75px; font-family:Arial;" text-anchor="middle"><textPath startOffset="22.20632615414155" xlink:href="#id36">December</textPath></text></svg>